<?xml version="1.0" encoding="utf-8" standalone="no"?>
<!DOCTYPE svg PUBLIC "-//W3C//DTD SVG 1.1//EN"
  "http://www.w3.org/Graphics/SVG/1.1/DTD/svg11.dtd">
<svg xmlns:xlink="http://www.w3.org/1999/xlink" width="720pt" height="288pt" viewBox="0 0 720 288" xmlns="http://www.w3.org/2000/svg" version="1.1">
 <metadata>
  <rdf:RDF xmlns:dc="http://purl.org/dc/elements/1.1/" xmlns:cc="http://creativecommons.org/ns#" xmlns:rdf="http://www.w3.org/1999/02/22-rdf-syntax-ns#">
   <cc:Work>
    <dc:type rdf:resource="http://purl.org/dc/dcmitype/StillImage"/>
    <dc:date>2024-10-04T08:15:39.868558</dc:date>
    <dc:format>image/svg+xml</dc:format>
    <dc:creator>
     <cc:Agent>
      <dc:title>Matplotlib v3.7.1, https://matplotlib.org/</dc:title>
     </cc:Agent>
    </dc:creator>
   </cc:Work>
  </rdf:RDF>
 </metadata>
 <defs>
  <style type="text/css">*{stroke-linejoin: round; stroke-linecap: butt}</style>
 </defs>
 <g id="figure_1">
  <g id="patch_1">
   <path d="M 0 288 
L 720 288 
L 720 0 
L 0 0 
z
" style="fill: #ffffff"/>
  </g>
  <g id="axes_1">
   <g id="patch_2">
    <path d="M 90 256.32 
L 343.636364 256.32 
L 343.636364 34.56 
L 90 34.56 
z
" style="fill: #ffffff"/>
   </g>
   <g id="PathCollection_1">
    <defs>
     <path id="mdd9e8ba232" d="M -3.162278 3.162278 
L 3.162278 -3.162278 
M -3.162278 -3.162278 
L 3.162278 3.162278 
" style="stroke: #000000; stroke-width: 1.5"/>
    </defs>
    <g clip-path="url(#p75d916a84f)">
     <use xlink:href="#mdd9e8ba232" x="107.366356" y="178.416016" style="stroke: #000000; stroke-width: 1.5"/>
     <use xlink:href="#mdd9e8ba232" x="130.716079" y="218.956678" style="stroke: #000000; stroke-width: 1.5"/>
     <use xlink:href="#mdd9e8ba232" x="154.065802" y="154.86124" style="stroke: #000000; stroke-width: 1.5"/>
     <use xlink:href="#mdd9e8ba232" x="177.415525" y="210.295164" style="stroke: #000000; stroke-width: 1.5"/>
     <use xlink:href="#mdd9e8ba232" x="200.765247" y="191.567082" style="stroke: #000000; stroke-width: 1.5"/>
     <use xlink:href="#mdd9e8ba232" x="224.11497" y="174.122814" style="stroke: #000000; stroke-width: 1.5"/>
     <use xlink:href="#mdd9e8ba232" x="247.464693" y="200.413582" style="stroke: #000000; stroke-width: 1.5"/>
     <use xlink:href="#mdd9e8ba232" x="270.814416" y="192.609528" style="stroke: #000000; stroke-width: 1.5"/>
     <use xlink:href="#mdd9e8ba232" x="294.164139" y="178.139906" style="stroke: #000000; stroke-width: 1.5"/>
     <use xlink:href="#mdd9e8ba232" x="317.513861" y="151.225851" style="stroke: #000000; stroke-width: 1.5"/>
    </g>
   </g>
   <g id="PolyCollection_1">
    <path d="M 101.528926 239.37318 
L 101.528926 239.37318 
L 104.447641 205.55116 
L 107.366356 178.416016 
L 110.285072 209.186362 
L 113.203787 233.423576 
L 116.122502 250.04683 
L 119.041218 260.271823 
L 121.959933 261.107073 
L 124.878648 254.777537 
L 127.797364 237.913454 
L 130.716079 218.956677 
L 133.634794 228.56893 
L 136.55351 233.285919 
L 139.472225 230.984303 
L 142.39094 222.700663 
L 145.309656 208.783067 
L 148.228371 191.134237 
L 151.147087 172.341754 
L 154.065802 154.861242 
L 156.984517 172.831069 
L 159.903233 191.337236 
L 162.821948 207.195618 
L 165.740663 220.09638 
L 168.659379 226.518284 
L 171.578094 225.071991 
L 174.496809 219.107925 
L 177.415525 210.295165 
L 180.33424 227.317107 
L 183.252955 241.234223 
L 186.171671 246.827153 
L 189.090386 246.498839 
L 192.009101 240.491665 
L 194.927817 228.409024 
L 197.846532 211.738877 
L 200.765247 191.567079 
L 203.683963 202.201539 
L 206.602678 211.207632 
L 209.521393 215.512872 
L 212.440109 218.009441 
L 215.358824 210.80703 
L 218.277539 200.889185 
L 221.196255 188.523469 
L 224.11497 174.122814 
L 227.033686 190.70358 
L 229.952401 205.339389 
L 232.871116 216.830687 
L 235.789832 223.274876 
L 238.708547 223.108779 
L 241.627262 218.972478 
L 244.545978 211.086916 
L 247.464693 200.413579 
L 250.383408 217.624858 
L 253.302124 230.971918 
L 256.220839 239.596823 
L 259.139554 242.174426 
L 262.05827 237.900536 
L 264.976985 226.431187 
L 267.8957 211.030848 
L 270.814416 192.60953 
L 273.733131 202.451606 
L 276.651846 211.006479 
L 279.570562 217.501374 
L 282.489277 219.079944 
L 285.407992 216.177154 
L 288.326708 208.825239 
L 291.245423 194.613264 
L 294.164139 178.139907 
L 297.082854 196.24086 
L 300.001569 210.994192 
L 302.920285 221.213432 
L 305.839 225.239229 
L 308.757715 221.619032 
L 311.676431 208.298748 
L 314.595146 184.660416 
L 317.513861 151.22585 
L 320.432577 184.581908 
L 323.351292 227.70033 
L 326.270007 278.223502 
L 329.188723 330.246876 
L 332.107438 378.730261 
L 332.107438 378.730261 
L 332.107438 -81.170769 
L 329.188723 -28.988395 
L 326.270007 19.783478 
L 323.351292 67.227221 
L 320.432577 111.608303 
L 317.513861 151.22585 
L 314.595146 127.079093 
L 311.676431 111.978183 
L 308.757715 105.592997 
L 305.839 110.455419 
L 302.920285 121.671341 
L 300.001569 139.141995 
L 297.082854 158.328428 
L 294.164139 178.139907 
L 291.245423 160.30267 
L 288.326708 145.730281 
L 285.407992 135.845365 
L 282.489277 133.904388 
L 279.570562 139.718044 
L 276.651846 152.50076 
L 273.733131 172.688036 
L 270.814416 192.60953 
L 267.8957 182.303502 
L 264.976985 174.387908 
L 262.05827 168.248349 
L 259.139554 166.829729 
L 256.220839 169.883152 
L 253.302124 177.608101 
L 250.383408 188.80142 
L 247.464693 200.413579 
L 244.545978 182.228124 
L 241.627262 166.186048 
L 238.708547 154.679781 
L 235.789832 148.612116 
L 232.871116 147.552392 
L 229.952401 152.300251 
L 227.033686 162.045875 
L 224.11497 174.122814 
L 221.196255 158.951954 
L 218.277539 145.818706 
L 215.358824 137.124317 
L 212.440109 136.011565 
L 209.521393 140.763367 
L 206.602678 154.477225 
L 203.683963 172.597904 
L 200.765247 191.567079 
L 197.846532 182.610672 
L 194.927817 174.830124 
L 192.009101 170.892448 
L 189.090386 170.379579 
L 186.171671 176.221803 
L 183.252955 187.73695 
L 180.33424 198.290893 
L 177.415525 210.295165 
L 174.496809 190.19212 
L 171.578094 168.708231 
L 168.659379 150.85946 
L 165.740663 138.963719 
L 162.821948 132.442817 
L 159.903233 133.109668 
L 156.984517 141.885223 
L 154.065802 154.861242 
L 151.147087 137.669562 
L 148.228371 125.906765 
L 145.309656 123.066421 
L 142.39094 128.367191 
L 139.472225 142.827181 
L 136.55351 164.000407 
L 133.634794 189.011717 
L 130.716079 218.956677 
L 127.797364 201.809663 
L 124.878648 185.165526 
L 121.959933 168.484588 
L 119.041218 156.082961 
L 116.122502 148.556021 
L 113.203787 150.607039 
L 110.285072 160.239346 
L 107.366356 178.416016 
L 104.447641 140.834333 
L 101.528926 98.839637 
z
" clip-path="url(#p75d916a84f)" style="fill: #1f77b4; fill-opacity: 0.3"/>
   </g>
   <g id="matplotlib.axis_1">
    <g id="xtick_1">
     <g id="line2d_1">
      <path d="M 101.528926 256.32 
L 101.528926 34.56 
" clip-path="url(#p75d916a84f)" style="fill: none; stroke: #b0b0b0; stroke-width: 0.8; stroke-linecap: square"/>
     </g>
     <g id="line2d_2">
      <defs>
       <path id="m0b7005e358" d="M 0 0 
L 0 3.5 
" style="stroke: #000000; stroke-width: 0.8"/>
      </defs>
      <g>
       <use xlink:href="#m0b7005e358" x="101.528926" y="256.32" style="stroke: #000000; stroke-width: 0.8"/>
      </g>
     </g>
     <g id="text_1">
      <!-- 0 -->
      <g transform="translate(98.347676 270.918437) scale(0.1 -0.1)">
       <defs>
        <path id="DejaVuSans-30" d="M 2034 4250 
Q 1547 4250 1301 3770 
Q 1056 3291 1056 2328 
Q 1056 1369 1301 889 
Q 1547 409 2034 409 
Q 2525 409 2770 889 
Q 3016 1369 3016 2328 
Q 3016 3291 2770 3770 
Q 2525 4250 2034 4250 
z
M 2034 4750 
Q 2819 4750 3233 4129 
Q 3647 3509 3647 2328 
Q 3647 1150 3233 529 
Q 2819 -91 2034 -91 
Q 1250 -91 836 529 
Q 422 1150 422 2328 
Q 422 3509 836 4129 
Q 1250 4750 2034 4750 
z
" transform="scale(0.015625)"/>
       </defs>
       <use xlink:href="#DejaVuSans-30"/>
      </g>
     </g>
    </g>
    <g id="xtick_2">
     <g id="line2d_3">
      <path d="M 159.903233 256.32 
L 159.903233 34.56 
" clip-path="url(#p75d916a84f)" style="fill: none; stroke: #b0b0b0; stroke-width: 0.8; stroke-linecap: square"/>
     </g>
     <g id="line2d_4">
      <g>
       <use xlink:href="#m0b7005e358" x="159.903233" y="256.32" style="stroke: #000000; stroke-width: 0.8"/>
      </g>
     </g>
     <g id="text_2">
      <!-- 10 -->
      <g transform="translate(153.540733 270.918437) scale(0.1 -0.1)">
       <defs>
        <path id="DejaVuSans-31" d="M 794 531 
L 1825 531 
L 1825 4091 
L 703 3866 
L 703 4441 
L 1819 4666 
L 2450 4666 
L 2450 531 
L 3481 531 
L 3481 0 
L 794 0 
L 794 531 
z
" transform="scale(0.015625)"/>
       </defs>
       <use xlink:href="#DejaVuSans-31"/>
       <use xlink:href="#DejaVuSans-30" x="63.623047"/>
      </g>
     </g>
    </g>
    <g id="xtick_3">
     <g id="line2d_5">
      <path d="M 218.277539 256.32 
L 218.277539 34.56 
" clip-path="url(#p75d916a84f)" style="fill: none; stroke: #b0b0b0; stroke-width: 0.8; stroke-linecap: square"/>
     </g>
     <g id="line2d_6">
      <g>
       <use xlink:href="#m0b7005e358" x="218.277539" y="256.32" style="stroke: #000000; stroke-width: 0.8"/>
      </g>
     </g>
     <g id="text_3">
      <!-- 20 -->
      <g transform="translate(211.915039 270.918437) scale(0.1 -0.1)">
       <defs>
        <path id="DejaVuSans-32" d="M 1228 531 
L 3431 531 
L 3431 0 
L 469 0 
L 469 531 
Q 828 903 1448 1529 
Q 2069 2156 2228 2338 
Q 2531 2678 2651 2914 
Q 2772 3150 2772 3378 
Q 2772 3750 2511 3984 
Q 2250 4219 1831 4219 
Q 1534 4219 1204 4116 
Q 875 4013 500 3803 
L 500 4441 
Q 881 4594 1212 4672 
Q 1544 4750 1819 4750 
Q 2544 4750 2975 4387 
Q 3406 4025 3406 3419 
Q 3406 3131 3298 2873 
Q 3191 2616 2906 2266 
Q 2828 2175 2409 1742 
Q 1991 1309 1228 531 
z
" transform="scale(0.015625)"/>
       </defs>
       <use xlink:href="#DejaVuSans-32"/>
       <use xlink:href="#DejaVuSans-30" x="63.623047"/>
      </g>
     </g>
    </g>
    <g id="xtick_4">
     <g id="line2d_7">
      <path d="M 276.651846 256.32 
L 276.651846 34.56 
" clip-path="url(#p75d916a84f)" style="fill: none; stroke: #b0b0b0; stroke-width: 0.8; stroke-linecap: square"/>
     </g>
     <g id="line2d_8">
      <g>
       <use xlink:href="#m0b7005e358" x="276.651846" y="256.32" style="stroke: #000000; stroke-width: 0.8"/>
      </g>
     </g>
     <g id="text_4">
      <!-- 30 -->
      <g transform="translate(270.289346 270.918437) scale(0.1 -0.1)">
       <defs>
        <path id="DejaVuSans-33" d="M 2597 2516 
Q 3050 2419 3304 2112 
Q 3559 1806 3559 1356 
Q 3559 666 3084 287 
Q 2609 -91 1734 -91 
Q 1441 -91 1130 -33 
Q 819 25 488 141 
L 488 750 
Q 750 597 1062 519 
Q 1375 441 1716 441 
Q 2309 441 2620 675 
Q 2931 909 2931 1356 
Q 2931 1769 2642 2001 
Q 2353 2234 1838 2234 
L 1294 2234 
L 1294 2753 
L 1863 2753 
Q 2328 2753 2575 2939 
Q 2822 3125 2822 3475 
Q 2822 3834 2567 4026 
Q 2313 4219 1838 4219 
Q 1578 4219 1281 4162 
Q 984 4106 628 3988 
L 628 4550 
Q 988 4650 1302 4700 
Q 1616 4750 1894 4750 
Q 2613 4750 3031 4423 
Q 3450 4097 3450 3541 
Q 3450 3153 3228 2886 
Q 3006 2619 2597 2516 
z
" transform="scale(0.015625)"/>
       </defs>
       <use xlink:href="#DejaVuSans-33"/>
       <use xlink:href="#DejaVuSans-30" x="63.623047"/>
      </g>
     </g>
    </g>
    <g id="xtick_5">
     <g id="line2d_9">
      <path d="M 335.026153 256.32 
L 335.026153 34.56 
" clip-path="url(#p75d916a84f)" style="fill: none; stroke: #b0b0b0; stroke-width: 0.8; stroke-linecap: square"/>
     </g>
     <g id="line2d_10">
      <g>
       <use xlink:href="#m0b7005e358" x="335.026153" y="256.32" style="stroke: #000000; stroke-width: 0.8"/>
      </g>
     </g>
     <g id="text_5">
      <!-- 40 -->
      <g transform="translate(328.663653 270.918437) scale(0.1 -0.1)">
       <defs>
        <path id="DejaVuSans-34" d="M 2419 4116 
L 825 1625 
L 2419 1625 
L 2419 4116 
z
M 2253 4666 
L 3047 4666 
L 3047 1625 
L 3713 1625 
L 3713 1100 
L 3047 1100 
L 3047 0 
L 2419 0 
L 2419 1100 
L 313 1100 
L 313 1709 
L 2253 4666 
z
" transform="scale(0.015625)"/>
       </defs>
       <use xlink:href="#DejaVuSans-34"/>
       <use xlink:href="#DejaVuSans-30" x="63.623047"/>
      </g>
     </g>
    </g>
    <g id="text_6">
     <!-- time (weeks) -->
     <g transform="translate(184.289276 284.596563) scale(0.1 -0.1)">
      <defs>
       <path id="DejaVuSans-74" d="M 1172 4494 
L 1172 3500 
L 2356 3500 
L 2356 3053 
L 1172 3053 
L 1172 1153 
Q 1172 725 1289 603 
Q 1406 481 1766 481 
L 2356 481 
L 2356 0 
L 1766 0 
Q 1100 0 847 248 
Q 594 497 594 1153 
L 594 3053 
L 172 3053 
L 172 3500 
L 594 3500 
L 594 4494 
L 1172 4494 
z
" transform="scale(0.015625)"/>
       <path id="DejaVuSans-69" d="M 603 3500 
L 1178 3500 
L 1178 0 
L 603 0 
L 603 3500 
z
M 603 4863 
L 1178 4863 
L 1178 4134 
L 603 4134 
L 603 4863 
z
" transform="scale(0.015625)"/>
       <path id="DejaVuSans-6d" d="M 3328 2828 
Q 3544 3216 3844 3400 
Q 4144 3584 4550 3584 
Q 5097 3584 5394 3201 
Q 5691 2819 5691 2113 
L 5691 0 
L 5113 0 
L 5113 2094 
Q 5113 2597 4934 2840 
Q 4756 3084 4391 3084 
Q 3944 3084 3684 2787 
Q 3425 2491 3425 1978 
L 3425 0 
L 2847 0 
L 2847 2094 
Q 2847 2600 2669 2842 
Q 2491 3084 2119 3084 
Q 1678 3084 1418 2786 
Q 1159 2488 1159 1978 
L 1159 0 
L 581 0 
L 581 3500 
L 1159 3500 
L 1159 2956 
Q 1356 3278 1631 3431 
Q 1906 3584 2284 3584 
Q 2666 3584 2933 3390 
Q 3200 3197 3328 2828 
z
" transform="scale(0.015625)"/>
       <path id="DejaVuSans-65" d="M 3597 1894 
L 3597 1613 
L 953 1613 
Q 991 1019 1311 708 
Q 1631 397 2203 397 
Q 2534 397 2845 478 
Q 3156 559 3463 722 
L 3463 178 
Q 3153 47 2828 -22 
Q 2503 -91 2169 -91 
Q 1331 -91 842 396 
Q 353 884 353 1716 
Q 353 2575 817 3079 
Q 1281 3584 2069 3584 
Q 2775 3584 3186 3129 
Q 3597 2675 3597 1894 
z
M 3022 2063 
Q 3016 2534 2758 2815 
Q 2500 3097 2075 3097 
Q 1594 3097 1305 2825 
Q 1016 2553 972 2059 
L 3022 2063 
z
" transform="scale(0.015625)"/>
       <path id="DejaVuSans-20" transform="scale(0.015625)"/>
       <path id="DejaVuSans-28" d="M 1984 4856 
Q 1566 4138 1362 3434 
Q 1159 2731 1159 2009 
Q 1159 1288 1364 580 
Q 1569 -128 1984 -844 
L 1484 -844 
Q 1016 -109 783 600 
Q 550 1309 550 2009 
Q 550 2706 781 3412 
Q 1013 4119 1484 4856 
L 1984 4856 
z
" transform="scale(0.015625)"/>
       <path id="DejaVuSans-77" d="M 269 3500 
L 844 3500 
L 1563 769 
L 2278 3500 
L 2956 3500 
L 3675 769 
L 4391 3500 
L 4966 3500 
L 4050 0 
L 3372 0 
L 2619 2869 
L 1863 0 
L 1184 0 
L 269 3500 
z
" transform="scale(0.015625)"/>
       <path id="DejaVuSans-6b" d="M 581 4863 
L 1159 4863 
L 1159 1991 
L 2875 3500 
L 3609 3500 
L 1753 1863 
L 3688 0 
L 2938 0 
L 1159 1709 
L 1159 0 
L 581 0 
L 581 4863 
z
" transform="scale(0.015625)"/>
       <path id="DejaVuSans-73" d="M 2834 3397 
L 2834 2853 
Q 2591 2978 2328 3040 
Q 2066 3103 1784 3103 
Q 1356 3103 1142 2972 
Q 928 2841 928 2578 
Q 928 2378 1081 2264 
Q 1234 2150 1697 2047 
L 1894 2003 
Q 2506 1872 2764 1633 
Q 3022 1394 3022 966 
Q 3022 478 2636 193 
Q 2250 -91 1575 -91 
Q 1294 -91 989 -36 
Q 684 19 347 128 
L 347 722 
Q 666 556 975 473 
Q 1284 391 1588 391 
Q 1994 391 2212 530 
Q 2431 669 2431 922 
Q 2431 1156 2273 1281 
Q 2116 1406 1581 1522 
L 1381 1569 
Q 847 1681 609 1914 
Q 372 2147 372 2553 
Q 372 3047 722 3315 
Q 1072 3584 1716 3584 
Q 2034 3584 2315 3537 
Q 2597 3491 2834 3397 
z
" transform="scale(0.015625)"/>
       <path id="DejaVuSans-29" d="M 513 4856 
L 1013 4856 
Q 1481 4119 1714 3412 
Q 1947 2706 1947 2009 
Q 1947 1309 1714 600 
Q 1481 -109 1013 -844 
L 513 -844 
Q 928 -128 1133 580 
Q 1338 1288 1338 2009 
Q 1338 2731 1133 3434 
Q 928 4138 513 4856 
z
" transform="scale(0.015625)"/>
      </defs>
      <use xlink:href="#DejaVuSans-74"/>
      <use xlink:href="#DejaVuSans-69" x="39.208984"/>
      <use xlink:href="#DejaVuSans-6d" x="66.992188"/>
      <use xlink:href="#DejaVuSans-65" x="164.404297"/>
      <use xlink:href="#DejaVuSans-20" x="225.927734"/>
      <use xlink:href="#DejaVuSans-28" x="257.714844"/>
      <use xlink:href="#DejaVuSans-77" x="296.728516"/>
      <use xlink:href="#DejaVuSans-65" x="378.515625"/>
      <use xlink:href="#DejaVuSans-65" x="440.039062"/>
      <use xlink:href="#DejaVuSans-6b" x="501.5625"/>
      <use xlink:href="#DejaVuSans-73" x="559.472656"/>
      <use xlink:href="#DejaVuSans-29" x="611.572266"/>
     </g>
    </g>
   </g>
   <g id="matplotlib.axis_2">
    <g id="ytick_1">
     <g id="line2d_11">
      <path d="M 90 256.32 
L 343.636364 256.32 
" clip-path="url(#p75d916a84f)" style="fill: none; stroke: #b0b0b0; stroke-width: 0.8; stroke-linecap: square"/>
     </g>
     <g id="line2d_12">
      <defs>
       <path id="m31ea1a76d6" d="M 0 0 
L -3.5 0 
" style="stroke: #000000; stroke-width: 0.8"/>
      </defs>
      <g>
       <use xlink:href="#m31ea1a76d6" x="90" y="256.32" style="stroke: #000000; stroke-width: 0.8"/>
      </g>
     </g>
     <g id="text_7">
      <!-- 0.00 -->
      <g transform="translate(60.734375 260.119219) scale(0.1 -0.1)">
       <defs>
        <path id="DejaVuSans-2e" d="M 684 794 
L 1344 794 
L 1344 0 
L 684 0 
L 684 794 
z
" transform="scale(0.015625)"/>
       </defs>
       <use xlink:href="#DejaVuSans-30"/>
       <use xlink:href="#DejaVuSans-2e" x="63.623047"/>
       <use xlink:href="#DejaVuSans-30" x="95.410156"/>
       <use xlink:href="#DejaVuSans-30" x="159.033203"/>
      </g>
     </g>
    </g>
    <g id="ytick_2">
     <g id="line2d_13">
      <path d="M 90 228.6 
L 343.636364 228.6 
" clip-path="url(#p75d916a84f)" style="fill: none; stroke: #b0b0b0; stroke-width: 0.8; stroke-linecap: square"/>
     </g>
     <g id="line2d_14">
      <g>
       <use xlink:href="#m31ea1a76d6" x="90" y="228.6" style="stroke: #000000; stroke-width: 0.8"/>
      </g>
     </g>
     <g id="text_8">
      <!-- 0.25 -->
      <g transform="translate(60.734375 232.399219) scale(0.1 -0.1)">
       <defs>
        <path id="DejaVuSans-35" d="M 691 4666 
L 3169 4666 
L 3169 4134 
L 1269 4134 
L 1269 2991 
Q 1406 3038 1543 3061 
Q 1681 3084 1819 3084 
Q 2600 3084 3056 2656 
Q 3513 2228 3513 1497 
Q 3513 744 3044 326 
Q 2575 -91 1722 -91 
Q 1428 -91 1123 -41 
Q 819 9 494 109 
L 494 744 
Q 775 591 1075 516 
Q 1375 441 1709 441 
Q 2250 441 2565 725 
Q 2881 1009 2881 1497 
Q 2881 1984 2565 2268 
Q 2250 2553 1709 2553 
Q 1456 2553 1204 2497 
Q 953 2441 691 2322 
L 691 4666 
z
" transform="scale(0.015625)"/>
       </defs>
       <use xlink:href="#DejaVuSans-30"/>
       <use xlink:href="#DejaVuSans-2e" x="63.623047"/>
       <use xlink:href="#DejaVuSans-32" x="95.410156"/>
       <use xlink:href="#DejaVuSans-35" x="159.033203"/>
      </g>
     </g>
    </g>
    <g id="ytick_3">
     <g id="line2d_15">
      <path d="M 90 200.88 
L 343.636364 200.88 
" clip-path="url(#p75d916a84f)" style="fill: none; stroke: #b0b0b0; stroke-width: 0.8; stroke-linecap: square"/>
     </g>
     <g id="line2d_16">
      <g>
       <use xlink:href="#m31ea1a76d6" x="90" y="200.88" style="stroke: #000000; stroke-width: 0.8"/>
      </g>
     </g>
     <g id="text_9">
      <!-- 0.50 -->
      <g transform="translate(60.734375 204.679219) scale(0.1 -0.1)">
       <use xlink:href="#DejaVuSans-30"/>
       <use xlink:href="#DejaVuSans-2e" x="63.623047"/>
       <use xlink:href="#DejaVuSans-35" x="95.410156"/>
       <use xlink:href="#DejaVuSans-30" x="159.033203"/>
      </g>
     </g>
    </g>
    <g id="ytick_4">
     <g id="line2d_17">
      <path d="M 90 173.16 
L 343.636364 173.16 
" clip-path="url(#p75d916a84f)" style="fill: none; stroke: #b0b0b0; stroke-width: 0.8; stroke-linecap: square"/>
     </g>
     <g id="line2d_18">
      <g>
       <use xlink:href="#m31ea1a76d6" x="90" y="173.16" style="stroke: #000000; stroke-width: 0.8"/>
      </g>
     </g>
     <g id="text_10">
      <!-- 0.75 -->
      <g transform="translate(60.734375 176.959219) scale(0.1 -0.1)">
       <defs>
        <path id="DejaVuSans-37" d="M 525 4666 
L 3525 4666 
L 3525 4397 
L 1831 0 
L 1172 0 
L 2766 4134 
L 525 4134 
L 525 4666 
z
" transform="scale(0.015625)"/>
       </defs>
       <use xlink:href="#DejaVuSans-30"/>
       <use xlink:href="#DejaVuSans-2e" x="63.623047"/>
       <use xlink:href="#DejaVuSans-37" x="95.410156"/>
       <use xlink:href="#DejaVuSans-35" x="159.033203"/>
      </g>
     </g>
    </g>
    <g id="ytick_5">
     <g id="line2d_19">
      <path d="M 90 145.44 
L 343.636364 145.44 
" clip-path="url(#p75d916a84f)" style="fill: none; stroke: #b0b0b0; stroke-width: 0.8; stroke-linecap: square"/>
     </g>
     <g id="line2d_20">
      <g>
       <use xlink:href="#m31ea1a76d6" x="90" y="145.44" style="stroke: #000000; stroke-width: 0.8"/>
      </g>
     </g>
     <g id="text_11">
      <!-- 1.00 -->
      <g transform="translate(60.734375 149.239219) scale(0.1 -0.1)">
       <use xlink:href="#DejaVuSans-31"/>
       <use xlink:href="#DejaVuSans-2e" x="63.623047"/>
       <use xlink:href="#DejaVuSans-30" x="95.410156"/>
       <use xlink:href="#DejaVuSans-30" x="159.033203"/>
      </g>
     </g>
    </g>
    <g id="ytick_6">
     <g id="line2d_21">
      <path d="M 90 117.72 
L 343.636364 117.72 
" clip-path="url(#p75d916a84f)" style="fill: none; stroke: #b0b0b0; stroke-width: 0.8; stroke-linecap: square"/>
     </g>
     <g id="line2d_22">
      <g>
       <use xlink:href="#m31ea1a76d6" x="90" y="117.72" style="stroke: #000000; stroke-width: 0.8"/>
      </g>
     </g>
     <g id="text_12">
      <!-- 1.25 -->
      <g transform="translate(60.734375 121.519219) scale(0.1 -0.1)">
       <use xlink:href="#DejaVuSans-31"/>
       <use xlink:href="#DejaVuSans-2e" x="63.623047"/>
       <use xlink:href="#DejaVuSans-32" x="95.410156"/>
       <use xlink:href="#DejaVuSans-35" x="159.033203"/>
      </g>
     </g>
    </g>
    <g id="ytick_7">
     <g id="line2d_23">
      <path d="M 90 90 
L 343.636364 90 
" clip-path="url(#p75d916a84f)" style="fill: none; stroke: #b0b0b0; stroke-width: 0.8; stroke-linecap: square"/>
     </g>
     <g id="line2d_24">
      <g>
       <use xlink:href="#m31ea1a76d6" x="90" y="90" style="stroke: #000000; stroke-width: 0.8"/>
      </g>
     </g>
     <g id="text_13">
      <!-- 1.50 -->
      <g transform="translate(60.734375 93.799219) scale(0.1 -0.1)">
       <use xlink:href="#DejaVuSans-31"/>
       <use xlink:href="#DejaVuSans-2e" x="63.623047"/>
       <use xlink:href="#DejaVuSans-35" x="95.410156"/>
       <use xlink:href="#DejaVuSans-30" x="159.033203"/>
      </g>
     </g>
    </g>
    <g id="ytick_8">
     <g id="line2d_25">
      <path d="M 90 62.28 
L 343.636364 62.28 
" clip-path="url(#p75d916a84f)" style="fill: none; stroke: #b0b0b0; stroke-width: 0.8; stroke-linecap: square"/>
     </g>
     <g id="line2d_26">
      <g>
       <use xlink:href="#m31ea1a76d6" x="90" y="62.28" style="stroke: #000000; stroke-width: 0.8"/>
      </g>
     </g>
     <g id="text_14">
      <!-- 1.75 -->
      <g transform="translate(60.734375 66.079219) scale(0.1 -0.1)">
       <use xlink:href="#DejaVuSans-31"/>
       <use xlink:href="#DejaVuSans-2e" x="63.623047"/>
       <use xlink:href="#DejaVuSans-37" x="95.410156"/>
       <use xlink:href="#DejaVuSans-35" x="159.033203"/>
      </g>
     </g>
    </g>
    <g id="ytick_9">
     <g id="line2d_27">
      <path d="M 90 34.56 
L 343.636364 34.56 
" clip-path="url(#p75d916a84f)" style="fill: none; stroke: #b0b0b0; stroke-width: 0.8; stroke-linecap: square"/>
     </g>
     <g id="line2d_28">
      <g>
       <use xlink:href="#m31ea1a76d6" x="90" y="34.56" style="stroke: #000000; stroke-width: 0.8"/>
      </g>
     </g>
     <g id="text_15">
      <!-- 2.00 -->
      <g transform="translate(60.734375 38.359219) scale(0.1 -0.1)">
       <use xlink:href="#DejaVuSans-32"/>
       <use xlink:href="#DejaVuSans-2e" x="63.623047"/>
       <use xlink:href="#DejaVuSans-30" x="95.410156"/>
       <use xlink:href="#DejaVuSans-30" x="159.033203"/>
      </g>
     </g>
    </g>
    <g id="text_16">
     <!-- $\rho(t)$ -->
     <g transform="translate(54.634375 154.49) rotate(-90) scale(0.1 -0.1)">
      <defs>
       <path id="DejaVuSans-Oblique-3c1" d="M 1203 2875 
Q 1453 3194 1981 3475 
Q 2188 3584 2756 3584 
Q 3394 3584 3694 3078 
Q 3994 2572 3834 1747 
Q 3672 922 3175 415 
Q 2678 -91 2041 -91 
Q 1656 -91 1409 63 
Q 1163 213 1044 525 
L 681 -1331 
L 103 -1331 
L 697 1716 
Q 838 2438 1203 2875 
z
M 3238 1747 
Q 3359 2381 3169 2744 
Q 2978 3103 2522 3103 
Q 2066 3103 1734 2744 
Q 1403 2381 1281 1747 
Q 1156 1113 1347 750 
Q 1538 391 1994 391 
Q 2450 391 2781 750 
Q 3113 1113 3238 1747 
z
" transform="scale(0.015625)"/>
       <path id="DejaVuSans-Oblique-74" d="M 2706 3500 
L 2619 3053 
L 1472 3053 
L 1100 1153 
Q 1081 1047 1072 975 
Q 1063 903 1063 863 
Q 1063 663 1183 572 
Q 1303 481 1569 481 
L 2150 481 
L 2053 0 
L 1503 0 
Q 991 0 739 200 
Q 488 400 488 806 
Q 488 878 497 964 
Q 506 1050 525 1153 
L 897 3053 
L 409 3053 
L 500 3500 
L 978 3500 
L 1172 4494 
L 1747 4494 
L 1556 3500 
L 2706 3500 
z
" transform="scale(0.015625)"/>
      </defs>
      <use xlink:href="#DejaVuSans-Oblique-3c1" transform="translate(0 0.125)"/>
      <use xlink:href="#DejaVuSans-28" transform="translate(63.476562 0.125)"/>
      <use xlink:href="#DejaVuSans-Oblique-74" transform="translate(102.490234 0.125)"/>
      <use xlink:href="#DejaVuSans-29" transform="translate(141.699219 0.125)"/>
     </g>
    </g>
   </g>
   <g id="line2d_29">
    <path d="M 101.528926 143.407973 
L 104.447641 161.230681 
L 107.366356 178.416016 
L 110.285072 194.326603 
L 113.203787 208.325068 
L 116.122502 219.774037 
L 119.041218 228.036136 
L 121.959933 232.473991 
L 124.878648 232.450229 
L 127.797364 227.638515 
L 130.716079 218.956678 
L 133.634794 207.633586 
L 136.55351 194.898107 
L 139.472225 181.979109 
L 142.39094 170.105462 
L 145.309656 160.506032 
L 148.228371 154.40969 
L 151.147087 152.69774 
L 154.065802 154.86124 
L 156.984517 160.043686 
L 159.903233 167.388572 
L 162.821948 176.039395 
L 165.740663 185.13965 
L 168.659379 193.832831 
L 171.578094 201.262434 
L 174.496809 206.745739 
L 177.415525 210.295164 
L 180.33424 212.096912 
L 183.252955 212.337185 
L 186.171671 211.202185 
L 189.090386 208.878115 
L 192.009101 205.551178 
L 194.927817 201.407576 
L 197.846532 196.652498 
L 200.765247 191.567082 
L 203.683963 186.451451 
L 206.602678 181.605729 
L 209.521393 177.33004 
L 212.440109 173.924509 
L 215.358824 171.689259 
L 218.277539 170.924413 
L 221.196255 171.819644 
L 224.11497 174.122814 
L 227.033686 177.471332 
L 229.952401 181.502609 
L 232.871116 185.854054 
L 235.789832 190.163077 
L 238.708547 194.067087 
L 241.627262 197.203496 
L 244.545978 199.296016 
L 247.464693 200.413582 
L 250.383408 200.711431 
L 253.302124 200.3448 
L 256.220839 199.468927 
L 259.139554 198.239049 
L 262.05827 196.810405 
L 264.976985 195.338232 
L 267.8957 193.943427 
L 270.814416 192.609528 
L 273.733131 191.285733 
L 276.651846 189.921239 
L 279.570562 188.465243 
L 282.489277 186.866944 
L 285.407992 185.075538 
L 288.326708 183.040223 
L 291.245423 180.723353 
L 294.164139 178.139906 
L 297.082854 175.318018 
L 300.001569 172.285822 
L 302.920285 169.071455 
L 305.839 165.70305 
L 308.757715 162.208744 
L 311.676431 158.61667 
L 314.595146 154.951724 
L 317.513861 151.225851 
L 320.432577 147.447752 
L 323.351292 143.626134 
L 326.270007 139.769699 
L 329.188723 135.887152 
L 332.107438 131.987197 
" clip-path="url(#p75d916a84f)" style="fill: none; stroke: #ffa500; stroke-width: 1.5; stroke-linecap: square"/>
   </g>
   <g id="line2d_30">
    <path d="M 101.528926 170.447629 
L 104.447641 173.643142 
L 107.366356 178.416016 
L 110.285072 184.838936 
L 113.203787 192.149414 
L 116.122502 199.24598 
L 119.041218 207.909485 
L 121.959933 214.382931 
L 124.878648 219.334168 
L 127.797364 219.858523 
L 130.716079 218.956677 
L 133.634794 209.946889 
L 136.55351 199.997915 
L 139.472225 188.306858 
L 142.39094 177.240281 
L 145.309656 167.456214 
L 148.228371 159.358066 
L 151.147087 155.643552 
L 154.065802 154.861242 
L 156.984517 157.270665 
L 159.903233 162.16948 
L 162.821948 168.86656 
L 165.740663 178.512414 
L 168.659379 187.701107 
L 171.578094 196.416954 
L 174.496809 204.533316 
L 177.415525 210.295165 
L 180.33424 212.8823 
L 183.252955 214.188555 
L 186.171671 211.328288 
L 189.090386 208.171193 
L 192.009101 205.554351 
L 194.927817 201.884371 
L 197.846532 197.152155 
L 200.765247 191.567079 
L 203.683963 186.960744 
L 206.602678 181.945612 
L 209.521393 176.70974 
L 212.440109 175.12571 
L 215.358824 171.665912 
L 218.277539 171.63064 
L 221.196255 172.78935 
L 224.11497 174.122814 
L 227.033686 177.219344 
L 229.952401 180.428723 
L 232.871116 184.349886 
L 235.789832 187.845301 
L 238.708547 190.800016 
L 241.627262 193.627826 
L 244.545978 197.106368 
L 247.464693 200.413579 
L 250.383408 202.793533 
L 253.302124 203.52299 
L 256.220839 203.811994 
L 259.139554 203.766207 
L 262.05827 202.383063 
L 264.976985 200.21338 
L 267.8957 196.678431 
L 270.814416 192.60953 
L 273.733131 187.350904 
L 276.651846 181.413941 
L 279.570562 178.222426 
L 282.489277 175.635955 
L 285.407992 174.866963 
L 288.326708 176.286766 
L 291.245423 176.918108 
L 294.164139 178.139907 
L 297.082854 178.176011 
L 300.001569 175.811456 
L 302.920285 173.782379 
L 305.839 169.361736 
L 308.757715 164.881573 
L 311.676431 161.257456 
L 314.595146 156.463605 
L 317.513861 151.22585 
L 320.432577 147.301864 
L 323.351292 145.232108 
L 326.270007 145.772378 
L 329.188723 148.253508 
L 332.107438 147.207607 
" clip-path="url(#p75d916a84f)" style="fill: none; stroke: #1f77b4; stroke-width: 1.5; stroke-linecap: square"/>
   </g>
   <g id="patch_3">
    <path d="M 90 256.32 
L 90 34.56 
" style="fill: none; stroke: #000000; stroke-width: 0.8; stroke-linejoin: miter; stroke-linecap: square"/>
   </g>
   <g id="patch_4">
    <path d="M 343.636364 256.32 
L 343.636364 34.56 
" style="fill: none; stroke: #000000; stroke-width: 0.8; stroke-linejoin: miter; stroke-linecap: square"/>
   </g>
   <g id="patch_5">
    <path d="M 90 256.32 
L 343.636364 256.32 
" style="fill: none; stroke: #000000; stroke-width: 0.8; stroke-linejoin: miter; stroke-linecap: square"/>
   </g>
   <g id="patch_6">
    <path d="M 90 34.56 
L 343.636364 34.56 
" style="fill: none; stroke: #000000; stroke-width: 0.8; stroke-linejoin: miter; stroke-linecap: square"/>
   </g>
   <g id="text_17">
    <!-- Inferred time-varying transmission -->
    <g transform="translate(113.020057 28.56) scale(0.12 -0.12)">
     <defs>
      <path id="DejaVuSans-49" d="M 628 4666 
L 1259 4666 
L 1259 0 
L 628 0 
L 628 4666 
z
" transform="scale(0.015625)"/>
      <path id="DejaVuSans-6e" d="M 3513 2113 
L 3513 0 
L 2938 0 
L 2938 2094 
Q 2938 2591 2744 2837 
Q 2550 3084 2163 3084 
Q 1697 3084 1428 2787 
Q 1159 2491 1159 1978 
L 1159 0 
L 581 0 
L 581 3500 
L 1159 3500 
L 1159 2956 
Q 1366 3272 1645 3428 
Q 1925 3584 2291 3584 
Q 2894 3584 3203 3211 
Q 3513 2838 3513 2113 
z
" transform="scale(0.015625)"/>
      <path id="DejaVuSans-66" d="M 2375 4863 
L 2375 4384 
L 1825 4384 
Q 1516 4384 1395 4259 
Q 1275 4134 1275 3809 
L 1275 3500 
L 2222 3500 
L 2222 3053 
L 1275 3053 
L 1275 0 
L 697 0 
L 697 3053 
L 147 3053 
L 147 3500 
L 697 3500 
L 697 3744 
Q 697 4328 969 4595 
Q 1241 4863 1831 4863 
L 2375 4863 
z
" transform="scale(0.015625)"/>
      <path id="DejaVuSans-72" d="M 2631 2963 
Q 2534 3019 2420 3045 
Q 2306 3072 2169 3072 
Q 1681 3072 1420 2755 
Q 1159 2438 1159 1844 
L 1159 0 
L 581 0 
L 581 3500 
L 1159 3500 
L 1159 2956 
Q 1341 3275 1631 3429 
Q 1922 3584 2338 3584 
Q 2397 3584 2469 3576 
Q 2541 3569 2628 3553 
L 2631 2963 
z
" transform="scale(0.015625)"/>
      <path id="DejaVuSans-64" d="M 2906 2969 
L 2906 4863 
L 3481 4863 
L 3481 0 
L 2906 0 
L 2906 525 
Q 2725 213 2448 61 
Q 2172 -91 1784 -91 
Q 1150 -91 751 415 
Q 353 922 353 1747 
Q 353 2572 751 3078 
Q 1150 3584 1784 3584 
Q 2172 3584 2448 3432 
Q 2725 3281 2906 2969 
z
M 947 1747 
Q 947 1113 1208 752 
Q 1469 391 1925 391 
Q 2381 391 2643 752 
Q 2906 1113 2906 1747 
Q 2906 2381 2643 2742 
Q 2381 3103 1925 3103 
Q 1469 3103 1208 2742 
Q 947 2381 947 1747 
z
" transform="scale(0.015625)"/>
      <path id="DejaVuSans-2d" d="M 313 2009 
L 1997 2009 
L 1997 1497 
L 313 1497 
L 313 2009 
z
" transform="scale(0.015625)"/>
      <path id="DejaVuSans-76" d="M 191 3500 
L 800 3500 
L 1894 563 
L 2988 3500 
L 3597 3500 
L 2284 0 
L 1503 0 
L 191 3500 
z
" transform="scale(0.015625)"/>
      <path id="DejaVuSans-61" d="M 2194 1759 
Q 1497 1759 1228 1600 
Q 959 1441 959 1056 
Q 959 750 1161 570 
Q 1363 391 1709 391 
Q 2188 391 2477 730 
Q 2766 1069 2766 1631 
L 2766 1759 
L 2194 1759 
z
M 3341 1997 
L 3341 0 
L 2766 0 
L 2766 531 
Q 2569 213 2275 61 
Q 1981 -91 1556 -91 
Q 1019 -91 701 211 
Q 384 513 384 1019 
Q 384 1609 779 1909 
Q 1175 2209 1959 2209 
L 2766 2209 
L 2766 2266 
Q 2766 2663 2505 2880 
Q 2244 3097 1772 3097 
Q 1472 3097 1187 3025 
Q 903 2953 641 2809 
L 641 3341 
Q 956 3463 1253 3523 
Q 1550 3584 1831 3584 
Q 2591 3584 2966 3190 
Q 3341 2797 3341 1997 
z
" transform="scale(0.015625)"/>
      <path id="DejaVuSans-79" d="M 2059 -325 
Q 1816 -950 1584 -1140 
Q 1353 -1331 966 -1331 
L 506 -1331 
L 506 -850 
L 844 -850 
Q 1081 -850 1212 -737 
Q 1344 -625 1503 -206 
L 1606 56 
L 191 3500 
L 800 3500 
L 1894 763 
L 2988 3500 
L 3597 3500 
L 2059 -325 
z
" transform="scale(0.015625)"/>
      <path id="DejaVuSans-67" d="M 2906 1791 
Q 2906 2416 2648 2759 
Q 2391 3103 1925 3103 
Q 1463 3103 1205 2759 
Q 947 2416 947 1791 
Q 947 1169 1205 825 
Q 1463 481 1925 481 
Q 2391 481 2648 825 
Q 2906 1169 2906 1791 
z
M 3481 434 
Q 3481 -459 3084 -895 
Q 2688 -1331 1869 -1331 
Q 1566 -1331 1297 -1286 
Q 1028 -1241 775 -1147 
L 775 -588 
Q 1028 -725 1275 -790 
Q 1522 -856 1778 -856 
Q 2344 -856 2625 -561 
Q 2906 -266 2906 331 
L 2906 616 
Q 2728 306 2450 153 
Q 2172 0 1784 0 
Q 1141 0 747 490 
Q 353 981 353 1791 
Q 353 2603 747 3093 
Q 1141 3584 1784 3584 
Q 2172 3584 2450 3431 
Q 2728 3278 2906 2969 
L 2906 3500 
L 3481 3500 
L 3481 434 
z
" transform="scale(0.015625)"/>
      <path id="DejaVuSans-6f" d="M 1959 3097 
Q 1497 3097 1228 2736 
Q 959 2375 959 1747 
Q 959 1119 1226 758 
Q 1494 397 1959 397 
Q 2419 397 2687 759 
Q 2956 1122 2956 1747 
Q 2956 2369 2687 2733 
Q 2419 3097 1959 3097 
z
M 1959 3584 
Q 2709 3584 3137 3096 
Q 3566 2609 3566 1747 
Q 3566 888 3137 398 
Q 2709 -91 1959 -91 
Q 1206 -91 779 398 
Q 353 888 353 1747 
Q 353 2609 779 3096 
Q 1206 3584 1959 3584 
z
" transform="scale(0.015625)"/>
     </defs>
     <use xlink:href="#DejaVuSans-49"/>
     <use xlink:href="#DejaVuSans-6e" x="29.492188"/>
     <use xlink:href="#DejaVuSans-66" x="92.871094"/>
     <use xlink:href="#DejaVuSans-65" x="128.076172"/>
     <use xlink:href="#DejaVuSans-72" x="189.599609"/>
     <use xlink:href="#DejaVuSans-72" x="228.962891"/>
     <use xlink:href="#DejaVuSans-65" x="267.826172"/>
     <use xlink:href="#DejaVuSans-64" x="329.349609"/>
     <use xlink:href="#DejaVuSans-20" x="392.826172"/>
     <use xlink:href="#DejaVuSans-74" x="424.613281"/>
     <use xlink:href="#DejaVuSans-69" x="463.822266"/>
     <use xlink:href="#DejaVuSans-6d" x="491.605469"/>
     <use xlink:href="#DejaVuSans-65" x="589.017578"/>
     <use xlink:href="#DejaVuSans-2d" x="650.541016"/>
     <use xlink:href="#DejaVuSans-76" x="684"/>
     <use xlink:href="#DejaVuSans-61" x="743.179688"/>
     <use xlink:href="#DejaVuSans-72" x="804.458984"/>
     <use xlink:href="#DejaVuSans-79" x="845.572266"/>
     <use xlink:href="#DejaVuSans-69" x="904.751953"/>
     <use xlink:href="#DejaVuSans-6e" x="932.535156"/>
     <use xlink:href="#DejaVuSans-67" x="995.914062"/>
     <use xlink:href="#DejaVuSans-20" x="1059.390625"/>
     <use xlink:href="#DejaVuSans-74" x="1091.177734"/>
     <use xlink:href="#DejaVuSans-72" x="1130.386719"/>
     <use xlink:href="#DejaVuSans-61" x="1171.5"/>
     <use xlink:href="#DejaVuSans-6e" x="1232.779297"/>
     <use xlink:href="#DejaVuSans-73" x="1296.158203"/>
     <use xlink:href="#DejaVuSans-6d" x="1348.257812"/>
     <use xlink:href="#DejaVuSans-69" x="1445.669922"/>
     <use xlink:href="#DejaVuSans-73" x="1473.453125"/>
     <use xlink:href="#DejaVuSans-73" x="1525.552734"/>
     <use xlink:href="#DejaVuSans-69" x="1577.652344"/>
     <use xlink:href="#DejaVuSans-6f" x="1605.435547"/>
     <use xlink:href="#DejaVuSans-6e" x="1666.617188"/>
    </g>
   </g>
   <g id="legend_1">
    <g id="patch_7">
     <path d="M 251.05152 81.25875 
L 338.736364 81.25875 
Q 340.136364 81.25875 340.136364 79.85875 
L 340.136364 39.46 
Q 340.136364 38.06 338.736364 38.06 
L 251.05152 38.06 
Q 249.65152 38.06 249.65152 39.46 
L 249.65152 79.85875 
Q 249.65152 81.25875 251.05152 81.25875 
z
" style="fill: #ffffff; opacity: 0.8; stroke: #cccccc; stroke-linejoin: miter"/>
    </g>
    <g id="line2d_31">
     <path d="M 252.45152 43.728906 
L 259.45152 43.728906 
L 266.45152 43.728906 
" style="fill: none; stroke: #ffa500; stroke-width: 1.5; stroke-linecap: square"/>
    </g>
    <g id="text_18">
     <!-- ground truth -->
     <g transform="translate(272.05152 46.178906) scale(0.07 -0.07)">
      <defs>
       <path id="DejaVuSans-75" d="M 544 1381 
L 544 3500 
L 1119 3500 
L 1119 1403 
Q 1119 906 1312 657 
Q 1506 409 1894 409 
Q 2359 409 2629 706 
Q 2900 1003 2900 1516 
L 2900 3500 
L 3475 3500 
L 3475 0 
L 2900 0 
L 2900 538 
Q 2691 219 2414 64 
Q 2138 -91 1772 -91 
Q 1169 -91 856 284 
Q 544 659 544 1381 
z
M 1991 3584 
L 1991 3584 
z
" transform="scale(0.015625)"/>
       <path id="DejaVuSans-68" d="M 3513 2113 
L 3513 0 
L 2938 0 
L 2938 2094 
Q 2938 2591 2744 2837 
Q 2550 3084 2163 3084 
Q 1697 3084 1428 2787 
Q 1159 2491 1159 1978 
L 1159 0 
L 581 0 
L 581 4863 
L 1159 4863 
L 1159 2956 
Q 1366 3272 1645 3428 
Q 1925 3584 2291 3584 
Q 2894 3584 3203 3211 
Q 3513 2838 3513 2113 
z
" transform="scale(0.015625)"/>
      </defs>
      <use xlink:href="#DejaVuSans-67"/>
      <use xlink:href="#DejaVuSans-72" x="63.476562"/>
      <use xlink:href="#DejaVuSans-6f" x="102.339844"/>
      <use xlink:href="#DejaVuSans-75" x="163.521484"/>
      <use xlink:href="#DejaVuSans-6e" x="226.900391"/>
      <use xlink:href="#DejaVuSans-64" x="290.279297"/>
      <use xlink:href="#DejaVuSans-20" x="353.755859"/>
      <use xlink:href="#DejaVuSans-74" x="385.542969"/>
      <use xlink:href="#DejaVuSans-72" x="424.751953"/>
      <use xlink:href="#DejaVuSans-75" x="465.865234"/>
      <use xlink:href="#DejaVuSans-74" x="529.244141"/>
      <use xlink:href="#DejaVuSans-68" x="568.453125"/>
     </g>
    </g>
    <g id="PathCollection_2">
     <g>
      <use xlink:href="#mdd9e8ba232" x="259.45152" y="54.616094" style="stroke: #000000; stroke-width: 1.5"/>
     </g>
    </g>
    <g id="text_19">
     <!-- observed -->
     <g transform="translate(272.05152 56.453594) scale(0.07 -0.07)">
      <defs>
       <path id="DejaVuSans-62" d="M 3116 1747 
Q 3116 2381 2855 2742 
Q 2594 3103 2138 3103 
Q 1681 3103 1420 2742 
Q 1159 2381 1159 1747 
Q 1159 1113 1420 752 
Q 1681 391 2138 391 
Q 2594 391 2855 752 
Q 3116 1113 3116 1747 
z
M 1159 2969 
Q 1341 3281 1617 3432 
Q 1894 3584 2278 3584 
Q 2916 3584 3314 3078 
Q 3713 2572 3713 1747 
Q 3713 922 3314 415 
Q 2916 -91 2278 -91 
Q 1894 -91 1617 61 
Q 1341 213 1159 525 
L 1159 0 
L 581 0 
L 581 4863 
L 1159 4863 
L 1159 2969 
z
" transform="scale(0.015625)"/>
      </defs>
      <use xlink:href="#DejaVuSans-6f"/>
      <use xlink:href="#DejaVuSans-62" x="61.181641"/>
      <use xlink:href="#DejaVuSans-73" x="124.658203"/>
      <use xlink:href="#DejaVuSans-65" x="176.757812"/>
      <use xlink:href="#DejaVuSans-72" x="238.28125"/>
      <use xlink:href="#DejaVuSans-76" x="279.394531"/>
      <use xlink:href="#DejaVuSans-65" x="338.574219"/>
      <use xlink:href="#DejaVuSans-64" x="400.097656"/>
     </g>
    </g>
    <g id="line2d_32">
     <path d="M 252.45152 64.278281 
L 259.45152 64.278281 
L 266.45152 64.278281 
" style="fill: none; stroke: #1f77b4; stroke-width: 1.5; stroke-linecap: square"/>
    </g>
    <g id="text_20">
     <!-- predicted mean -->
     <g transform="translate(272.05152 66.728281) scale(0.07 -0.07)">
      <defs>
       <path id="DejaVuSans-70" d="M 1159 525 
L 1159 -1331 
L 581 -1331 
L 581 3500 
L 1159 3500 
L 1159 2969 
Q 1341 3281 1617 3432 
Q 1894 3584 2278 3584 
Q 2916 3584 3314 3078 
Q 3713 2572 3713 1747 
Q 3713 922 3314 415 
Q 2916 -91 2278 -91 
Q 1894 -91 1617 61 
Q 1341 213 1159 525 
z
M 3116 1747 
Q 3116 2381 2855 2742 
Q 2594 3103 2138 3103 
Q 1681 3103 1420 2742 
Q 1159 2381 1159 1747 
Q 1159 1113 1420 752 
Q 1681 391 2138 391 
Q 2594 391 2855 752 
Q 3116 1113 3116 1747 
z
" transform="scale(0.015625)"/>
       <path id="DejaVuSans-63" d="M 3122 3366 
L 3122 2828 
Q 2878 2963 2633 3030 
Q 2388 3097 2138 3097 
Q 1578 3097 1268 2742 
Q 959 2388 959 1747 
Q 959 1106 1268 751 
Q 1578 397 2138 397 
Q 2388 397 2633 464 
Q 2878 531 3122 666 
L 3122 134 
Q 2881 22 2623 -34 
Q 2366 -91 2075 -91 
Q 1284 -91 818 406 
Q 353 903 353 1747 
Q 353 2603 823 3093 
Q 1294 3584 2113 3584 
Q 2378 3584 2631 3529 
Q 2884 3475 3122 3366 
z
" transform="scale(0.015625)"/>
      </defs>
      <use xlink:href="#DejaVuSans-70"/>
      <use xlink:href="#DejaVuSans-72" x="63.476562"/>
      <use xlink:href="#DejaVuSans-65" x="102.339844"/>
      <use xlink:href="#DejaVuSans-64" x="163.863281"/>
      <use xlink:href="#DejaVuSans-69" x="227.339844"/>
      <use xlink:href="#DejaVuSans-63" x="255.123047"/>
      <use xlink:href="#DejaVuSans-74" x="310.103516"/>
      <use xlink:href="#DejaVuSans-65" x="349.3125"/>
      <use xlink:href="#DejaVuSans-64" x="410.835938"/>
      <use xlink:href="#DejaVuSans-20" x="474.3125"/>
      <use xlink:href="#DejaVuSans-6d" x="506.099609"/>
      <use xlink:href="#DejaVuSans-65" x="603.511719"/>
      <use xlink:href="#DejaVuSans-61" x="665.035156"/>
      <use xlink:href="#DejaVuSans-6e" x="726.314453"/>
     </g>
    </g>
    <g id="patch_8">
     <path d="M 252.45152 77.002969 
L 266.45152 77.002969 
L 266.45152 72.102969 
L 252.45152 72.102969 
z
" style="fill: #1f77b4; fill-opacity: 0.3"/>
    </g>
    <g id="text_21">
     <!-- posterior: 95% BCI -->
     <g transform="translate(272.05152 77.002969) scale(0.07 -0.07)">
      <defs>
       <path id="DejaVuSans-3a" d="M 750 794 
L 1409 794 
L 1409 0 
L 750 0 
L 750 794 
z
M 750 3309 
L 1409 3309 
L 1409 2516 
L 750 2516 
L 750 3309 
z
" transform="scale(0.015625)"/>
       <path id="DejaVuSans-39" d="M 703 97 
L 703 672 
Q 941 559 1184 500 
Q 1428 441 1663 441 
Q 2288 441 2617 861 
Q 2947 1281 2994 2138 
Q 2813 1869 2534 1725 
Q 2256 1581 1919 1581 
Q 1219 1581 811 2004 
Q 403 2428 403 3163 
Q 403 3881 828 4315 
Q 1253 4750 1959 4750 
Q 2769 4750 3195 4129 
Q 3622 3509 3622 2328 
Q 3622 1225 3098 567 
Q 2575 -91 1691 -91 
Q 1453 -91 1209 -44 
Q 966 3 703 97 
z
M 1959 2075 
Q 2384 2075 2632 2365 
Q 2881 2656 2881 3163 
Q 2881 3666 2632 3958 
Q 2384 4250 1959 4250 
Q 1534 4250 1286 3958 
Q 1038 3666 1038 3163 
Q 1038 2656 1286 2365 
Q 1534 2075 1959 2075 
z
" transform="scale(0.015625)"/>
       <path id="DejaVuSans-25" d="M 4653 2053 
Q 4381 2053 4226 1822 
Q 4072 1591 4072 1178 
Q 4072 772 4226 539 
Q 4381 306 4653 306 
Q 4919 306 5073 539 
Q 5228 772 5228 1178 
Q 5228 1588 5073 1820 
Q 4919 2053 4653 2053 
z
M 4653 2450 
Q 5147 2450 5437 2106 
Q 5728 1763 5728 1178 
Q 5728 594 5436 251 
Q 5144 -91 4653 -91 
Q 4153 -91 3862 251 
Q 3572 594 3572 1178 
Q 3572 1766 3864 2108 
Q 4156 2450 4653 2450 
z
M 1428 4353 
Q 1159 4353 1004 4120 
Q 850 3888 850 3481 
Q 850 3069 1003 2837 
Q 1156 2606 1428 2606 
Q 1700 2606 1854 2837 
Q 2009 3069 2009 3481 
Q 2009 3884 1853 4118 
Q 1697 4353 1428 4353 
z
M 4250 4750 
L 4750 4750 
L 1831 -91 
L 1331 -91 
L 4250 4750 
z
M 1428 4750 
Q 1922 4750 2215 4408 
Q 2509 4066 2509 3481 
Q 2509 2891 2217 2550 
Q 1925 2209 1428 2209 
Q 931 2209 642 2551 
Q 353 2894 353 3481 
Q 353 4063 643 4406 
Q 934 4750 1428 4750 
z
" transform="scale(0.015625)"/>
       <path id="DejaVuSans-42" d="M 1259 2228 
L 1259 519 
L 2272 519 
Q 2781 519 3026 730 
Q 3272 941 3272 1375 
Q 3272 1813 3026 2020 
Q 2781 2228 2272 2228 
L 1259 2228 
z
M 1259 4147 
L 1259 2741 
L 2194 2741 
Q 2656 2741 2882 2914 
Q 3109 3088 3109 3444 
Q 3109 3797 2882 3972 
Q 2656 4147 2194 4147 
L 1259 4147 
z
M 628 4666 
L 2241 4666 
Q 2963 4666 3353 4366 
Q 3744 4066 3744 3513 
Q 3744 3084 3544 2831 
Q 3344 2578 2956 2516 
Q 3422 2416 3680 2098 
Q 3938 1781 3938 1306 
Q 3938 681 3513 340 
Q 3088 0 2303 0 
L 628 0 
L 628 4666 
z
" transform="scale(0.015625)"/>
       <path id="DejaVuSans-43" d="M 4122 4306 
L 4122 3641 
Q 3803 3938 3442 4084 
Q 3081 4231 2675 4231 
Q 1875 4231 1450 3742 
Q 1025 3253 1025 2328 
Q 1025 1406 1450 917 
Q 1875 428 2675 428 
Q 3081 428 3442 575 
Q 3803 722 4122 1019 
L 4122 359 
Q 3791 134 3420 21 
Q 3050 -91 2638 -91 
Q 1578 -91 968 557 
Q 359 1206 359 2328 
Q 359 3453 968 4101 
Q 1578 4750 2638 4750 
Q 3056 4750 3426 4639 
Q 3797 4528 4122 4306 
z
" transform="scale(0.015625)"/>
      </defs>
      <use xlink:href="#DejaVuSans-70"/>
      <use xlink:href="#DejaVuSans-6f" x="63.476562"/>
      <use xlink:href="#DejaVuSans-73" x="124.658203"/>
      <use xlink:href="#DejaVuSans-74" x="176.757812"/>
      <use xlink:href="#DejaVuSans-65" x="215.966797"/>
      <use xlink:href="#DejaVuSans-72" x="277.490234"/>
      <use xlink:href="#DejaVuSans-69" x="318.603516"/>
      <use xlink:href="#DejaVuSans-6f" x="346.386719"/>
      <use xlink:href="#DejaVuSans-72" x="407.568359"/>
      <use xlink:href="#DejaVuSans-3a" x="446.931641"/>
      <use xlink:href="#DejaVuSans-20" x="480.623047"/>
      <use xlink:href="#DejaVuSans-39" x="512.410156"/>
      <use xlink:href="#DejaVuSans-35" x="576.033203"/>
      <use xlink:href="#DejaVuSans-25" x="639.65625"/>
      <use xlink:href="#DejaVuSans-20" x="734.675781"/>
      <use xlink:href="#DejaVuSans-42" x="766.462891"/>
      <use xlink:href="#DejaVuSans-43" x="833.316406"/>
      <use xlink:href="#DejaVuSans-49" x="903.140625"/>
     </g>
    </g>
   </g>
  </g>
  <g id="axes_2">
   <g id="patch_9">
    <path d="M 394.363636 256.32 
L 648 256.32 
L 648 34.56 
L 394.363636 34.56 
z
" style="fill: #ffffff"/>
   </g>
   <g id="PathCollection_3">
    <defs>
     <path id="m4be33ce1b7" d="M -3 3 
L 3 -3 
M -3 -3 
L 3 3 
" style="stroke: #000000; stroke-width: 1.5"/>
    </defs>
    <g clip-path="url(#p4ffd724a7b)">
     <use xlink:href="#m4be33ce1b7" x="411.729993" y="244.933737" style="stroke: #000000; stroke-width: 1.5"/>
     <use xlink:href="#m4be33ce1b7" x="435.079715" y="235.789892" style="stroke: #000000; stroke-width: 1.5"/>
     <use xlink:href="#m4be33ce1b7" x="458.429438" y="187.458143" style="stroke: #000000; stroke-width: 1.5"/>
     <use xlink:href="#m4be33ce1b7" x="481.779161" y="83.392484" style="stroke: #000000; stroke-width: 1.5"/>
     <use xlink:href="#m4be33ce1b7" x="505.128884" y="107.340648" style="stroke: #000000; stroke-width: 1.5"/>
     <use xlink:href="#m4be33ce1b7" x="528.478607" y="158.284924" style="stroke: #000000; stroke-width: 1.5"/>
     <use xlink:href="#m4be33ce1b7" x="551.828329" y="207.487516" style="stroke: #000000; stroke-width: 1.5"/>
     <use xlink:href="#m4be33ce1b7" x="575.178052" y="225.775205" style="stroke: #000000; stroke-width: 1.5"/>
     <use xlink:href="#m4be33ce1b7" x="598.527775" y="242.756631" style="stroke: #000000; stroke-width: 1.5"/>
     <use xlink:href="#m4be33ce1b7" x="621.877498" y="243.192052" style="stroke: #000000; stroke-width: 1.5"/>
    </g>
   </g>
   <g id="PolyCollection_2">
    <path d="M 405.892562 246.24 
L 405.892562 246.24 
L 408.811277 246.24 
L 411.729993 246.24 
L 414.648708 246.24 
L 417.567423 245.804579 
L 420.486139 244.955508 
L 423.404854 244.498315 
L 426.323569 243.192052 
L 429.242285 242.32121 
L 432.161 241.450367 
L 435.079715 240.579525 
L 437.998431 240.579525 
L 440.917146 239.273261 
L 443.835861 237.531577 
L 446.754577 234.91905 
L 449.673292 231.000259 
L 452.592008 225.796976 
L 455.510723 218.808467 
L 458.429438 210.100043 
L 461.348154 200.085356 
L 464.266869 187.022721 
L 467.185584 171.347559 
L 470.1043 152.624449 
L 473.023015 134.772181 
L 475.94173 119.097019 
L 478.860446 107.79784 
L 481.779161 98.632225 
L 484.697876 92.993521 
L 487.616592 91.230065 
L 490.535307 90.794644 
L 493.454022 93.842592 
L 496.372738 97.761382 
L 499.291453 104.2927 
L 502.210168 110.388596 
L 505.128884 118.226177 
L 508.047599 125.192916 
L 510.966314 133.030497 
L 513.88503 141.303499 
L 516.803745 148.705659 
L 519.722461 156.54324 
L 522.641176 163.509978 
L 525.559891 170.041296 
L 528.478607 176.137192 
L 531.397322 182.66851 
L 534.316037 187.458143 
L 537.234753 193.118618 
L 540.153468 197.908251 
L 543.072183 202.262462 
L 545.990899 207.052095 
L 548.909614 210.535464 
L 551.828329 214.018834 
L 554.747045 217.502203 
L 557.66576 220.11473 
L 560.584475 222.727257 
L 563.503191 225.339784 
L 566.421906 227.51689 
L 569.340621 229.693996 
L 572.259337 231.871102 
L 575.178052 233.177365 
L 578.096767 234.91905 
L 581.015483 236.225313 
L 583.934198 237.096156 
L 586.852913 238.402419 
L 589.771629 239.708683 
L 592.690344 240.579525 
L 595.60906 241.014946 
L 598.527775 241.885788 
L 601.44649 242.32121 
L 604.365206 243.192052 
L 607.283921 243.627473 
L 610.202636 244.062894 
L 613.121352 244.498315 
L 616.040067 244.933737 
L 618.958782 244.933737 
L 621.877498 245.369158 
L 624.796213 245.369158 
L 627.714928 245.804579 
L 630.633644 245.804579 
L 633.552359 246.24 
L 636.471074 246.24 
L 636.471074 246.24 
L 636.471074 241.450367 
L 633.552359 241.014946 
L 630.633644 240.579525 
L 627.714928 240.144104 
L 624.796213 239.273261 
L 621.877498 238.83784 
L 618.958782 238.402419 
L 616.040067 237.531577 
L 613.121352 236.660734 
L 610.202636 236.225313 
L 607.283921 234.91905 
L 604.365206 234.048207 
L 601.44649 232.741944 
L 598.527775 231.871102 
L 595.60906 230.564838 
L 592.690344 229.258575 
L 589.771629 227.952311 
L 586.852913 226.210626 
L 583.934198 224.033521 
L 581.015483 221.856415 
L 578.096767 220.11473 
L 575.178052 217.502203 
L 572.259337 215.325097 
L 569.340621 212.277149 
L 566.421906 209.229201 
L 563.503191 206.181253 
L 560.584475 202.676112 
L 557.66576 198.343672 
L 554.747045 194.424881 
L 551.828329 190.07067 
L 548.909614 185.281037 
L 545.990899 180.055983 
L 543.072183 173.960086 
L 540.153468 168.299611 
L 537.234753 162.203715 
L 534.316037 154.366134 
L 531.397322 148.270238 
L 528.478607 140.432657 
L 525.559891 132.159654 
L 522.641176 125.171145 
L 519.722461 116.919914 
L 516.803745 107.776069 
L 513.88503 99.916717 
L 510.966314 91.665486 
L 508.047599 84.263326 
L 505.128884 75.554903 
L 502.210168 68.152743 
L 499.291453 61.599654 
L 496.372738 55.090108 
L 493.454022 49.865054 
L 490.535307 46.381685 
L 487.616592 44.64 
L 484.697876 44.64 
L 481.779161 48.55879 
L 478.860446 54.654687 
L 475.94173 64.669374 
L 473.023015 77.296587 
L 470.1043 92.971749 
L 467.185584 112.565702 
L 464.266869 132.159654 
L 461.348154 151.731836 
L 458.429438 170.476717 
L 455.510723 185.716458 
L 452.592008 197.472829 
L 449.673292 205.31041 
L 446.754577 210.535464 
L 443.835861 215.325097 
L 440.917146 219.679309 
L 437.998431 223.162678 
L 435.079715 226.646048 
L 432.161 230.129417 
L 429.242285 232.306523 
L 426.323569 234.483629 
L 423.404854 236.225313 
L 420.486139 237.966998 
L 417.567423 239.708683 
L 414.648708 240.993175 
L 411.729993 241.450367 
L 408.811277 242.32121 
L 405.892562 241.885788 
z
" clip-path="url(#p4ffd724a7b)" style="fill: #1f77b4; fill-opacity: 0.3"/>
   </g>
   <g id="matplotlib.axis_3">
    <g id="xtick_6">
     <g id="line2d_33">
      <path d="M 405.892562 256.32 
L 405.892562 34.56 
" clip-path="url(#p4ffd724a7b)" style="fill: none; stroke: #b0b0b0; stroke-width: 0.8; stroke-linecap: square"/>
     </g>
     <g id="line2d_34">
      <g>
       <use xlink:href="#m0b7005e358" x="405.892562" y="256.32" style="stroke: #000000; stroke-width: 0.8"/>
      </g>
     </g>
     <g id="text_22">
      <!-- 0 -->
      <g transform="translate(402.711312 270.918437) scale(0.1 -0.1)">
       <use xlink:href="#DejaVuSans-30"/>
      </g>
     </g>
    </g>
    <g id="xtick_7">
     <g id="line2d_35">
      <path d="M 464.266869 256.32 
L 464.266869 34.56 
" clip-path="url(#p4ffd724a7b)" style="fill: none; stroke: #b0b0b0; stroke-width: 0.8; stroke-linecap: square"/>
     </g>
     <g id="line2d_36">
      <g>
       <use xlink:href="#m0b7005e358" x="464.266869" y="256.32" style="stroke: #000000; stroke-width: 0.8"/>
      </g>
     </g>
     <g id="text_23">
      <!-- 10 -->
      <g transform="translate(457.904369 270.918437) scale(0.1 -0.1)">
       <use xlink:href="#DejaVuSans-31"/>
       <use xlink:href="#DejaVuSans-30" x="63.623047"/>
      </g>
     </g>
    </g>
    <g id="xtick_8">
     <g id="line2d_37">
      <path d="M 522.641176 256.32 
L 522.641176 34.56 
" clip-path="url(#p4ffd724a7b)" style="fill: none; stroke: #b0b0b0; stroke-width: 0.8; stroke-linecap: square"/>
     </g>
     <g id="line2d_38">
      <g>
       <use xlink:href="#m0b7005e358" x="522.641176" y="256.32" style="stroke: #000000; stroke-width: 0.8"/>
      </g>
     </g>
     <g id="text_24">
      <!-- 20 -->
      <g transform="translate(516.278676 270.918437) scale(0.1 -0.1)">
       <use xlink:href="#DejaVuSans-32"/>
       <use xlink:href="#DejaVuSans-30" x="63.623047"/>
      </g>
     </g>
    </g>
    <g id="xtick_9">
     <g id="line2d_39">
      <path d="M 581.015483 256.32 
L 581.015483 34.56 
" clip-path="url(#p4ffd724a7b)" style="fill: none; stroke: #b0b0b0; stroke-width: 0.8; stroke-linecap: square"/>
     </g>
     <g id="line2d_40">
      <g>
       <use xlink:href="#m0b7005e358" x="581.015483" y="256.32" style="stroke: #000000; stroke-width: 0.8"/>
      </g>
     </g>
     <g id="text_25">
      <!-- 30 -->
      <g transform="translate(574.652983 270.918437) scale(0.1 -0.1)">
       <use xlink:href="#DejaVuSans-33"/>
       <use xlink:href="#DejaVuSans-30" x="63.623047"/>
      </g>
     </g>
    </g>
    <g id="xtick_10">
     <g id="line2d_41">
      <path d="M 639.38979 256.32 
L 639.38979 34.56 
" clip-path="url(#p4ffd724a7b)" style="fill: none; stroke: #b0b0b0; stroke-width: 0.8; stroke-linecap: square"/>
     </g>
     <g id="line2d_42">
      <g>
       <use xlink:href="#m0b7005e358" x="639.38979" y="256.32" style="stroke: #000000; stroke-width: 0.8"/>
      </g>
     </g>
     <g id="text_26">
      <!-- 40 -->
      <g transform="translate(633.02729 270.918437) scale(0.1 -0.1)">
       <use xlink:href="#DejaVuSans-34"/>
       <use xlink:href="#DejaVuSans-30" x="63.623047"/>
      </g>
     </g>
    </g>
    <g id="text_27">
     <!-- time (weeks) -->
     <g transform="translate(488.652912 284.596563) scale(0.1 -0.1)">
      <use xlink:href="#DejaVuSans-74"/>
      <use xlink:href="#DejaVuSans-69" x="39.208984"/>
      <use xlink:href="#DejaVuSans-6d" x="66.992188"/>
      <use xlink:href="#DejaVuSans-65" x="164.404297"/>
      <use xlink:href="#DejaVuSans-20" x="225.927734"/>
      <use xlink:href="#DejaVuSans-28" x="257.714844"/>
      <use xlink:href="#DejaVuSans-77" x="296.728516"/>
      <use xlink:href="#DejaVuSans-65" x="378.515625"/>
      <use xlink:href="#DejaVuSans-65" x="440.039062"/>
      <use xlink:href="#DejaVuSans-6b" x="501.5625"/>
      <use xlink:href="#DejaVuSans-73" x="559.472656"/>
      <use xlink:href="#DejaVuSans-29" x="611.572266"/>
     </g>
    </g>
   </g>
   <g id="matplotlib.axis_4">
    <g id="ytick_10">
     <g id="line2d_43">
      <path d="M 394.363636 246.675421 
L 648 246.675421 
" clip-path="url(#p4ffd724a7b)" style="fill: none; stroke: #b0b0b0; stroke-width: 0.8; stroke-linecap: square"/>
     </g>
     <g id="line2d_44">
      <g>
       <use xlink:href="#m31ea1a76d6" x="394.363636" y="246.675421" style="stroke: #000000; stroke-width: 0.8"/>
      </g>
     </g>
     <g id="text_28">
      <!-- 0 -->
      <g transform="translate(381.001136 250.47464) scale(0.1 -0.1)">
       <use xlink:href="#DejaVuSans-30"/>
      </g>
     </g>
    </g>
    <g id="ytick_11">
     <g id="line2d_45">
      <path d="M 394.363636 203.133305 
L 648 203.133305 
" clip-path="url(#p4ffd724a7b)" style="fill: none; stroke: #b0b0b0; stroke-width: 0.8; stroke-linecap: square"/>
     </g>
     <g id="line2d_46">
      <g>
       <use xlink:href="#m31ea1a76d6" x="394.363636" y="203.133305" style="stroke: #000000; stroke-width: 0.8"/>
      </g>
     </g>
     <g id="text_29">
      <!-- 100 -->
      <g transform="translate(368.276136 206.932523) scale(0.1 -0.1)">
       <use xlink:href="#DejaVuSans-31"/>
       <use xlink:href="#DejaVuSans-30" x="63.623047"/>
       <use xlink:href="#DejaVuSans-30" x="127.246094"/>
      </g>
     </g>
    </g>
    <g id="ytick_12">
     <g id="line2d_47">
      <path d="M 394.363636 159.591188 
L 648 159.591188 
" clip-path="url(#p4ffd724a7b)" style="fill: none; stroke: #b0b0b0; stroke-width: 0.8; stroke-linecap: square"/>
     </g>
     <g id="line2d_48">
      <g>
       <use xlink:href="#m31ea1a76d6" x="394.363636" y="159.591188" style="stroke: #000000; stroke-width: 0.8"/>
      </g>
     </g>
     <g id="text_30">
      <!-- 200 -->
      <g transform="translate(368.276136 163.390407) scale(0.1 -0.1)">
       <use xlink:href="#DejaVuSans-32"/>
       <use xlink:href="#DejaVuSans-30" x="63.623047"/>
       <use xlink:href="#DejaVuSans-30" x="127.246094"/>
      </g>
     </g>
    </g>
    <g id="ytick_13">
     <g id="line2d_49">
      <path d="M 394.363636 116.049071 
L 648 116.049071 
" clip-path="url(#p4ffd724a7b)" style="fill: none; stroke: #b0b0b0; stroke-width: 0.8; stroke-linecap: square"/>
     </g>
     <g id="line2d_50">
      <g>
       <use xlink:href="#m31ea1a76d6" x="394.363636" y="116.049071" style="stroke: #000000; stroke-width: 0.8"/>
      </g>
     </g>
     <g id="text_31">
      <!-- 300 -->
      <g transform="translate(368.276136 119.84829) scale(0.1 -0.1)">
       <use xlink:href="#DejaVuSans-33"/>
       <use xlink:href="#DejaVuSans-30" x="63.623047"/>
       <use xlink:href="#DejaVuSans-30" x="127.246094"/>
      </g>
     </g>
    </g>
    <g id="ytick_14">
     <g id="line2d_51">
      <path d="M 394.363636 72.506955 
L 648 72.506955 
" clip-path="url(#p4ffd724a7b)" style="fill: none; stroke: #b0b0b0; stroke-width: 0.8; stroke-linecap: square"/>
     </g>
     <g id="line2d_52">
      <g>
       <use xlink:href="#m31ea1a76d6" x="394.363636" y="72.506955" style="stroke: #000000; stroke-width: 0.8"/>
      </g>
     </g>
     <g id="text_32">
      <!-- 400 -->
      <g transform="translate(368.276136 76.306173) scale(0.1 -0.1)">
       <use xlink:href="#DejaVuSans-34"/>
       <use xlink:href="#DejaVuSans-30" x="63.623047"/>
       <use xlink:href="#DejaVuSans-30" x="127.246094"/>
      </g>
     </g>
    </g>
    <g id="text_33">
     <!-- Numbers of cases -->
     <g transform="translate(362.196449 190.2275) rotate(-90) scale(0.1 -0.1)">
      <defs>
       <path id="DejaVuSans-4e" d="M 628 4666 
L 1478 4666 
L 3547 763 
L 3547 4666 
L 4159 4666 
L 4159 0 
L 3309 0 
L 1241 3903 
L 1241 0 
L 628 0 
L 628 4666 
z
" transform="scale(0.015625)"/>
      </defs>
      <use xlink:href="#DejaVuSans-4e"/>
      <use xlink:href="#DejaVuSans-75" x="74.804688"/>
      <use xlink:href="#DejaVuSans-6d" x="138.183594"/>
      <use xlink:href="#DejaVuSans-62" x="235.595703"/>
      <use xlink:href="#DejaVuSans-65" x="299.072266"/>
      <use xlink:href="#DejaVuSans-72" x="360.595703"/>
      <use xlink:href="#DejaVuSans-73" x="401.708984"/>
      <use xlink:href="#DejaVuSans-20" x="453.808594"/>
      <use xlink:href="#DejaVuSans-6f" x="485.595703"/>
      <use xlink:href="#DejaVuSans-66" x="546.777344"/>
      <use xlink:href="#DejaVuSans-20" x="581.982422"/>
      <use xlink:href="#DejaVuSans-63" x="613.769531"/>
      <use xlink:href="#DejaVuSans-61" x="668.75"/>
      <use xlink:href="#DejaVuSans-73" x="730.029297"/>
      <use xlink:href="#DejaVuSans-65" x="782.128906"/>
      <use xlink:href="#DejaVuSans-73" x="843.652344"/>
     </g>
    </g>
   </g>
   <g id="line2d_53">
    <path d="M 405.892562 244.498315 
L 408.811277 244.716026 
L 411.729993 244.332926 
L 414.648708 243.640047 
L 417.567423 242.732405 
L 420.486139 241.66381 
L 423.404854 240.488632 
L 426.323569 239.266367 
L 429.242285 238.04762 
L 432.161 236.848574 
L 435.079715 235.619938 
L 437.998431 234.222714 
L 440.917146 232.436737 
L 443.835861 229.977332 
L 446.754577 226.503032 
L 449.673292 221.614741 
L 452.592008 214.862765 
L 455.510723 205.792961 
L 458.429438 194.069112 
L 461.348154 179.668226 
L 464.266869 163.028142 
L 467.185584 145.099189 
L 470.1043 127.214074 
L 473.023015 110.774254 
L 475.94173 96.901476 
L 478.860446 86.236647 
L 481.779161 78.942997 
L 484.697876 74.839065 
L 487.616592 73.559962 
L 490.535307 74.670799 
L 493.454022 77.732992 
L 496.372738 82.338931 
L 499.291453 88.126918 
L 502.210168 94.78511 
L 505.128884 102.049592 
L 508.047599 109.699985 
L 510.966314 117.554323 
L 513.88503 125.464137 
L 516.803745 133.309957 
L 519.722461 140.997463 
L 522.641176 148.454024 
L 525.559891 155.625577 
L 528.478607 162.473747 
L 531.397322 168.973193 
L 534.316037 175.109226 
L 537.234753 180.875746 
L 540.153468 186.273424 
L 543.072183 191.308181 
L 545.990899 195.989928 
L 548.909614 200.331487 
L 551.828329 204.347738 
L 554.747045 208.054934 
L 557.66576 211.470116 
L 560.584475 214.610708 
L 563.503191 217.494144 
L 566.421906 220.137615 
L 569.340621 222.557872 
L 572.259337 224.771074 
L 575.178052 226.792689 
L 578.096767 228.63742 
L 581.015483 230.319171 
L 583.934198 231.851018 
L 586.852913 233.245219 
L 589.771629 234.513208 
L 592.690344 235.665628 
L 595.60906 236.712354 
L 598.527775 237.662526 
L 601.44649 238.524583 
L 604.365206 239.306304 
L 607.283921 240.014841 
L 610.202636 240.656768 
L 613.121352 241.238109 
L 616.040067 241.764383 
L 618.958782 242.240638 
L 621.877498 242.671485 
L 624.796213 243.061133 
L 627.714928 243.413421 
L 630.633644 243.731843 
L 633.552359 244.019582 
L 636.471074 244.279534 
" clip-path="url(#p4ffd724a7b)" style="fill: none; stroke: #ff0000; stroke-width: 1.5; stroke-linecap: square"/>
   </g>
   <g id="line2d_54">
    <path d="M 405.892562 244.498315 
L 408.811277 244.933737 
L 411.729993 244.498315 
L 414.648708 244.062894 
L 417.567423 243.192052 
L 420.486139 242.32121 
L 423.404854 241.014946 
L 426.323569 239.708683 
L 429.242285 237.966998 
L 432.161 236.225313 
L 435.079715 234.483629 
L 437.998431 232.306523 
L 440.917146 230.129417 
L 443.835861 227.081469 
L 446.754577 223.162678 
L 449.673292 217.937624 
L 452.592008 210.970886 
L 455.510723 202.262462 
L 458.429438 190.506091 
L 461.348154 175.26635 
L 464.266869 159.155767 
L 467.185584 139.997235 
L 470.1043 120.838704 
L 473.023015 103.857279 
L 475.94173 89.706091 
L 478.860446 79.038272 
L 481.779161 71.636112 
L 484.697876 67.717322 
L 487.616592 66.846479 
L 490.535307 68.588164 
L 493.454022 72.071533 
L 496.372738 77.296587 
L 499.291453 83.392484 
L 502.210168 89.923801 
L 505.128884 97.325961 
L 508.047599 106.034384 
L 510.966314 113.871965 
L 513.88503 122.144968 
L 516.803745 129.982549 
L 519.722461 138.690972 
L 522.641176 145.657711 
L 525.559891 153.495292 
L 528.478607 160.46203 
L 531.397322 167.428769 
L 534.316037 173.089244 
L 537.234753 179.620562 
L 540.153468 184.845616 
L 543.072183 190.07067 
L 545.990899 194.860302 
L 548.909614 199.214514 
L 551.828329 203.568726 
L 554.747045 207.487516 
L 557.66576 210.970886 
L 560.584475 214.018834 
L 563.503191 217.066782 
L 566.421906 219.679309 
L 569.340621 222.291836 
L 572.259337 224.468942 
L 575.178052 226.210626 
L 578.096767 228.387732 
L 581.015483 230.129417 
L 583.934198 231.871102 
L 586.852913 233.177365 
L 589.771629 234.483629 
L 592.690344 235.789892 
L 595.60906 236.660734 
L 598.527775 237.531577 
L 601.44649 238.402419 
L 604.365206 239.273261 
L 607.283921 240.144104 
L 610.202636 240.579525 
L 613.121352 241.450367 
L 616.040067 241.885788 
L 618.958782 242.32121 
L 621.877498 242.756631 
L 624.796213 243.192052 
L 627.714928 243.627473 
L 630.633644 244.062894 
L 633.552359 244.062894 
L 636.471074 244.498315 
" clip-path="url(#p4ffd724a7b)" style="fill: none; stroke: #1f77b4; stroke-width: 1.5; stroke-linecap: square"/>
   </g>
   <g id="patch_10">
    <path d="M 394.363636 256.32 
L 394.363636 34.56 
" style="fill: none; stroke: #000000; stroke-width: 0.8; stroke-linejoin: miter; stroke-linecap: square"/>
   </g>
   <g id="patch_11">
    <path d="M 648 256.32 
L 648 34.56 
" style="fill: none; stroke: #000000; stroke-width: 0.8; stroke-linejoin: miter; stroke-linecap: square"/>
   </g>
   <g id="patch_12">
    <path d="M 394.363636 256.32 
L 648 256.32 
" style="fill: none; stroke: #000000; stroke-width: 0.8; stroke-linejoin: miter; stroke-linecap: square"/>
   </g>
   <g id="patch_13">
    <path d="M 394.363636 34.56 
L 648 34.56 
" style="fill: none; stroke: #000000; stroke-width: 0.8; stroke-linejoin: miter; stroke-linecap: square"/>
   </g>
   <g id="text_34">
    <!-- predited trajectory $I(t)$ -->
    <g transform="translate(454.041818 28.56) scale(0.12 -0.12)">
     <defs>
      <path id="DejaVuSans-6a" d="M 603 3500 
L 1178 3500 
L 1178 -63 
Q 1178 -731 923 -1031 
Q 669 -1331 103 -1331 
L -116 -1331 
L -116 -844 
L 38 -844 
Q 366 -844 484 -692 
Q 603 -541 603 -63 
L 603 3500 
z
M 603 4863 
L 1178 4863 
L 1178 4134 
L 603 4134 
L 603 4863 
z
" transform="scale(0.015625)"/>
      <path id="DejaVuSans-Oblique-49" d="M 1081 4666 
L 1716 4666 
L 806 0 
L 172 0 
L 1081 4666 
z
" transform="scale(0.015625)"/>
     </defs>
     <use xlink:href="#DejaVuSans-70" transform="translate(0 0.015625)"/>
     <use xlink:href="#DejaVuSans-72" transform="translate(63.476562 0.015625)"/>
     <use xlink:href="#DejaVuSans-65" transform="translate(104.589844 0.015625)"/>
     <use xlink:href="#DejaVuSans-64" transform="translate(166.113281 0.015625)"/>
     <use xlink:href="#DejaVuSans-69" transform="translate(229.589844 0.015625)"/>
     <use xlink:href="#DejaVuSans-74" transform="translate(257.373047 0.015625)"/>
     <use xlink:href="#DejaVuSans-65" transform="translate(296.582031 0.015625)"/>
     <use xlink:href="#DejaVuSans-64" transform="translate(358.105469 0.015625)"/>
     <use xlink:href="#DejaVuSans-20" transform="translate(421.582031 0.015625)"/>
     <use xlink:href="#DejaVuSans-74" transform="translate(453.369141 0.015625)"/>
     <use xlink:href="#DejaVuSans-72" transform="translate(492.578125 0.015625)"/>
     <use xlink:href="#DejaVuSans-61" transform="translate(533.691406 0.015625)"/>
     <use xlink:href="#DejaVuSans-6a" transform="translate(594.970703 0.015625)"/>
     <use xlink:href="#DejaVuSans-65" transform="translate(622.753906 0.015625)"/>
     <use xlink:href="#DejaVuSans-63" transform="translate(684.277344 0.015625)"/>
     <use xlink:href="#DejaVuSans-74" transform="translate(739.257812 0.015625)"/>
     <use xlink:href="#DejaVuSans-6f" transform="translate(778.466797 0.015625)"/>
     <use xlink:href="#DejaVuSans-72" transform="translate(839.648438 0.015625)"/>
     <use xlink:href="#DejaVuSans-79" transform="translate(880.761719 0.015625)"/>
     <use xlink:href="#DejaVuSans-20" transform="translate(939.941406 0.015625)"/>
     <use xlink:href="#DejaVuSans-Oblique-49" transform="translate(971.728516 0.015625)"/>
     <use xlink:href="#DejaVuSans-28" transform="translate(1001.220703 0.015625)"/>
     <use xlink:href="#DejaVuSans-Oblique-74" transform="translate(1040.234375 0.015625)"/>
     <use xlink:href="#DejaVuSans-29" transform="translate(1079.443359 0.015625)"/>
    </g>
   </g>
   <g id="legend_2">
    <g id="patch_14">
     <path d="M 530.142969 81.25875 
L 643.1 81.25875 
Q 644.5 81.25875 644.5 79.85875 
L 644.5 39.46 
Q 644.5 38.06 643.1 38.06 
L 530.142969 38.06 
Q 528.742969 38.06 528.742969 39.46 
L 528.742969 79.85875 
Q 528.742969 81.25875 530.142969 81.25875 
z
" style="fill: #ffffff; opacity: 0.8; stroke: #cccccc; stroke-linejoin: miter"/>
    </g>
    <g id="line2d_55">
     <path d="M 531.542969 43.728906 
L 538.542969 43.728906 
L 545.542969 43.728906 
" style="fill: none; stroke: #ff0000; stroke-width: 1.5; stroke-linecap: square"/>
    </g>
    <g id="text_35">
     <!-- ground truth I(t) -->
     <g transform="translate(551.142969 46.178906) scale(0.07 -0.07)">
      <use xlink:href="#DejaVuSans-67"/>
      <use xlink:href="#DejaVuSans-72" x="63.476562"/>
      <use xlink:href="#DejaVuSans-6f" x="102.339844"/>
      <use xlink:href="#DejaVuSans-75" x="163.521484"/>
      <use xlink:href="#DejaVuSans-6e" x="226.900391"/>
      <use xlink:href="#DejaVuSans-64" x="290.279297"/>
      <use xlink:href="#DejaVuSans-20" x="353.755859"/>
      <use xlink:href="#DejaVuSans-74" x="385.542969"/>
      <use xlink:href="#DejaVuSans-72" x="424.751953"/>
      <use xlink:href="#DejaVuSans-75" x="465.865234"/>
      <use xlink:href="#DejaVuSans-74" x="529.244141"/>
      <use xlink:href="#DejaVuSans-68" x="568.453125"/>
      <use xlink:href="#DejaVuSans-20" x="631.832031"/>
      <use xlink:href="#DejaVuSans-49" x="663.619141"/>
      <use xlink:href="#DejaVuSans-28" x="693.111328"/>
      <use xlink:href="#DejaVuSans-74" x="732.125"/>
      <use xlink:href="#DejaVuSans-29" x="771.333984"/>
     </g>
    </g>
    <g id="PathCollection_4">
     <g>
      <use xlink:href="#m4be33ce1b7" x="538.542969" y="54.616094" style="stroke: #000000; stroke-width: 1.5"/>
     </g>
    </g>
    <g id="text_36">
     <!-- observed cases -->
     <g transform="translate(551.142969 56.453594) scale(0.07 -0.07)">
      <use xlink:href="#DejaVuSans-6f"/>
      <use xlink:href="#DejaVuSans-62" x="61.181641"/>
      <use xlink:href="#DejaVuSans-73" x="124.658203"/>
      <use xlink:href="#DejaVuSans-65" x="176.757812"/>
      <use xlink:href="#DejaVuSans-72" x="238.28125"/>
      <use xlink:href="#DejaVuSans-76" x="279.394531"/>
      <use xlink:href="#DejaVuSans-65" x="338.574219"/>
      <use xlink:href="#DejaVuSans-64" x="400.097656"/>
      <use xlink:href="#DejaVuSans-20" x="463.574219"/>
      <use xlink:href="#DejaVuSans-63" x="495.361328"/>
      <use xlink:href="#DejaVuSans-61" x="550.341797"/>
      <use xlink:href="#DejaVuSans-73" x="611.621094"/>
      <use xlink:href="#DejaVuSans-65" x="663.720703"/>
      <use xlink:href="#DejaVuSans-73" x="725.244141"/>
     </g>
    </g>
    <g id="line2d_56">
     <path d="M 531.542969 64.278281 
L 538.542969 64.278281 
L 545.542969 64.278281 
" style="fill: none; stroke: #1f77b4; stroke-width: 1.5; stroke-linecap: square"/>
    </g>
    <g id="text_37">
     <!-- posterior predictive mean -->
     <g transform="translate(551.142969 66.728281) scale(0.07 -0.07)">
      <use xlink:href="#DejaVuSans-70"/>
      <use xlink:href="#DejaVuSans-6f" x="63.476562"/>
      <use xlink:href="#DejaVuSans-73" x="124.658203"/>
      <use xlink:href="#DejaVuSans-74" x="176.757812"/>
      <use xlink:href="#DejaVuSans-65" x="215.966797"/>
      <use xlink:href="#DejaVuSans-72" x="277.490234"/>
      <use xlink:href="#DejaVuSans-69" x="318.603516"/>
      <use xlink:href="#DejaVuSans-6f" x="346.386719"/>
      <use xlink:href="#DejaVuSans-72" x="407.568359"/>
      <use xlink:href="#DejaVuSans-20" x="448.681641"/>
      <use xlink:href="#DejaVuSans-70" x="480.46875"/>
      <use xlink:href="#DejaVuSans-72" x="543.945312"/>
      <use xlink:href="#DejaVuSans-65" x="582.808594"/>
      <use xlink:href="#DejaVuSans-64" x="644.332031"/>
      <use xlink:href="#DejaVuSans-69" x="707.808594"/>
      <use xlink:href="#DejaVuSans-63" x="735.591797"/>
      <use xlink:href="#DejaVuSans-74" x="790.572266"/>
      <use xlink:href="#DejaVuSans-69" x="829.78125"/>
      <use xlink:href="#DejaVuSans-76" x="857.564453"/>
      <use xlink:href="#DejaVuSans-65" x="916.744141"/>
      <use xlink:href="#DejaVuSans-20" x="978.267578"/>
      <use xlink:href="#DejaVuSans-6d" x="1010.054688"/>
      <use xlink:href="#DejaVuSans-65" x="1107.466797"/>
      <use xlink:href="#DejaVuSans-61" x="1168.990234"/>
      <use xlink:href="#DejaVuSans-6e" x="1230.269531"/>
     </g>
    </g>
    <g id="patch_15">
     <path d="M 531.542969 77.002969 
L 545.542969 77.002969 
L 545.542969 72.102969 
L 531.542969 72.102969 
z
" style="fill: #1f77b4; fill-opacity: 0.3"/>
    </g>
    <g id="text_38">
     <!-- posterior: 95% BCI -->
     <g transform="translate(551.142969 77.002969) scale(0.07 -0.07)">
      <use xlink:href="#DejaVuSans-70"/>
      <use xlink:href="#DejaVuSans-6f" x="63.476562"/>
      <use xlink:href="#DejaVuSans-73" x="124.658203"/>
      <use xlink:href="#DejaVuSans-74" x="176.757812"/>
      <use xlink:href="#DejaVuSans-65" x="215.966797"/>
      <use xlink:href="#DejaVuSans-72" x="277.490234"/>
      <use xlink:href="#DejaVuSans-69" x="318.603516"/>
      <use xlink:href="#DejaVuSans-6f" x="346.386719"/>
      <use xlink:href="#DejaVuSans-72" x="407.568359"/>
      <use xlink:href="#DejaVuSans-3a" x="446.931641"/>
      <use xlink:href="#DejaVuSans-20" x="480.623047"/>
      <use xlink:href="#DejaVuSans-39" x="512.410156"/>
      <use xlink:href="#DejaVuSans-35" x="576.033203"/>
      <use xlink:href="#DejaVuSans-25" x="639.65625"/>
      <use xlink:href="#DejaVuSans-20" x="734.675781"/>
      <use xlink:href="#DejaVuSans-42" x="766.462891"/>
      <use xlink:href="#DejaVuSans-43" x="833.316406"/>
      <use xlink:href="#DejaVuSans-49" x="903.140625"/>
     </g>
    </g>
   </g>
  </g>
 </g>
 <defs>
  <clipPath id="p75d916a84f">
   <rect x="90" y="34.56" width="253.636364" height="221.76"/>
  </clipPath>
  <clipPath id="p4ffd724a7b">
   <rect x="394.363636" y="34.56" width="253.636364" height="221.76"/>
  </clipPath>
 </defs>
</svg>
