<?xml version="1.0" encoding="utf-8" standalone="no"?>
<!DOCTYPE svg PUBLIC "-//W3C//DTD SVG 1.1//EN"
  "http://www.w3.org/Graphics/SVG/1.1/DTD/svg11.dtd">
<svg xmlns:xlink="http://www.w3.org/1999/xlink" width="720pt" height="288pt" viewBox="0 0 720 288" xmlns="http://www.w3.org/2000/svg" version="1.1">
 <metadata>
  <rdf:RDF xmlns:dc="http://purl.org/dc/elements/1.1/" xmlns:cc="http://creativecommons.org/ns#" xmlns:rdf="http://www.w3.org/1999/02/22-rdf-syntax-ns#">
   <cc:Work>
    <dc:type rdf:resource="http://purl.org/dc/dcmitype/StillImage"/>
    <dc:date>2024-09-29T20:26:53.569071</dc:date>
    <dc:format>image/svg+xml</dc:format>
    <dc:creator>
     <cc:Agent>
      <dc:title>Matplotlib v3.7.1, https://matplotlib.org/</dc:title>
     </cc:Agent>
    </dc:creator>
   </cc:Work>
  </rdf:RDF>
 </metadata>
 <defs>
  <style type="text/css">*{stroke-linejoin: round; stroke-linecap: butt}</style>
 </defs>
 <g id="figure_1">
  <g id="patch_1">
   <path d="M 0 288 
L 720 288 
L 720 0 
L 0 0 
z
" style="fill: #ffffff"/>
  </g>
  <g id="axes_1">
   <g id="patch_2">
    <path d="M 24.88 246.04 
L 228.48 246.04 
L 228.48 27.24 
L 24.88 27.24 
z
" style="fill: #ffffff"/>
   </g>
   <g id="PathCollection_1">
    <defs>
     <path id="mcdde316a26" d="M 0 3.162278 
C 0.838646 3.162278 1.643056 2.82908 2.236068 2.236068 
C 2.82908 1.643056 3.162278 0.838646 3.162278 0 
C 3.162278 -0.838646 2.82908 -1.643056 2.236068 -2.236068 
C 1.643056 -2.82908 0.838646 -3.162278 0 -3.162278 
C -0.838646 -3.162278 -1.643056 -2.82908 -2.236068 -2.236068 
C -2.82908 -1.643056 -3.162278 -0.838646 -3.162278 0 
C -3.162278 0.838646 -2.82908 1.643056 -2.236068 2.236068 
C -1.643056 2.82908 -0.838646 3.162278 0 3.162278 
z
" style="stroke: #ff0000"/>
    </defs>
    <g clip-path="url(#pc22d95fc0c)">
     <use xlink:href="#mcdde316a26" x="30.034431" y="146.115422" style="fill: #ff0000; stroke: #ff0000"/>
     <use xlink:href="#mcdde316a26" x="53.229366" y="84.063205" style="fill: #ff0000; stroke: #ff0000"/>
     <use xlink:href="#mcdde316a26" x="73.84709" y="56.534467" style="fill: #ff0000; stroke: #ff0000"/>
     <use xlink:href="#mcdde316a26" x="94.464808" y="102.623062" style="fill: #ff0000; stroke: #ff0000"/>
     <use xlink:href="#mcdde316a26" x="115.082534" y="116.437012" style="fill: #ff0000; stroke: #ff0000"/>
     <use xlink:href="#mcdde316a26" x="135.700249" y="226.298661" style="fill: #ff0000; stroke: #ff0000"/>
     <use xlink:href="#mcdde316a26" x="156.317975" y="80.622224" style="fill: #ff0000; stroke: #ff0000"/>
     <use xlink:href="#mcdde316a26" x="176.935702" y="127.15703" style="fill: #ff0000; stroke: #ff0000"/>
     <use xlink:href="#mcdde316a26" x="197.553416" y="93.471172" style="fill: #ff0000; stroke: #ff0000"/>
     <use xlink:href="#mcdde316a26" x="218.171143" y="140.586907" style="fill: #ff0000; stroke: #ff0000"/>
    </g>
   </g>
   <g id="PolyCollection_1">
    <path d="M 24.88 177.017248 
L 24.88 177.017248 
L 27.457215 162.30044 
L 30.034431 146.115422 
L 32.611645 153.552082 
L 35.188861 159.00325 
L 37.766076 161.316737 
L 40.34329 158.713016 
L 42.920506 151.225888 
L 45.497722 139.276288 
L 48.074936 123.31695 
L 50.652152 103.734004 
L 53.229366 84.063205 
L 55.806581 88.148627 
L 58.383798 89.936842 
L 60.961012 88.920501 
L 63.538227 88.82037 
L 66.115444 84.155795 
L 68.692658 76.609327 
L 71.269873 66.200903 
L 73.84709 56.534467 
L 76.424304 67.364795 
L 79.001522 80.028653 
L 81.578733 92.095646 
L 84.15595 101.721138 
L 86.733162 106.676303 
L 89.310379 108.39233 
L 91.887596 106.574829 
L 94.464808 102.623062 
L 97.042025 115.766188 
L 99.619242 126.80175 
L 102.196453 132.376569 
L 104.773671 134.068161 
L 107.350888 130.877235 
L 109.928099 125.163935 
L 112.505317 119.190073 
L 115.082534 116.437012 
L 117.659745 139.074539 
L 120.236963 165.52858 
L 122.81418 188.347068 
L 125.391391 207.881255 
L 127.968609 224.939101 
L 130.545826 235.543588 
L 133.123043 236.094545 
L 135.700249 226.298661 
L 138.277466 227.562095 
L 140.854683 220.738371 
L 143.431901 206.505505 
L 146.009118 186.664849 
L 148.586323 159.780767 
L 151.16354 130.092424 
L 153.740758 101.791391 
L 156.317975 80.622224 
L 158.895192 87.730366 
L 161.47241 99.579089 
L 164.049615 113.152531 
L 166.626832 123.673433 
L 169.20405 131.414663 
L 171.781267 135.224237 
L 174.358484 134.021255 
L 176.935702 127.15703 
L 179.512907 136.833542 
L 182.090124 141.271293 
L 184.667342 141.596963 
L 187.244559 137.227329 
L 189.821776 128.578728 
L 192.398982 117.444909 
L 194.976199 105.157465 
L 197.553416 93.471172 
L 200.130634 104.892309 
L 202.707851 117.381637 
L 205.285068 129.450739 
L 207.862273 140.388184 
L 210.439491 146.976536 
L 213.016708 149.732845 
L 215.593925 146.944046 
L 218.171143 140.586907 
L 220.74836 155.326007 
L 223.325565 170.634223 
L 225.902783 183.478995 
L 228.48 194.539379 
L 228.48 194.539379 
L 228.48 95.4285 
L 225.902783 106.551085 
L 223.325565 119.294264 
L 220.74836 130.601113 
L 218.171143 140.586907 
L 215.593925 125.684699 
L 213.016708 111.478366 
L 210.439491 98.016185 
L 207.862273 88.05636 
L 205.285068 83.518879 
L 202.707851 82.283422 
L 200.130634 85.139939 
L 197.553416 93.471172 
L 194.976199 85.062979 
L 192.398982 79.204987 
L 189.821776 80.421318 
L 187.244559 85.774016 
L 184.667342 94.788844 
L 182.090124 105.408446 
L 179.512907 116.969584 
L 176.935702 127.15703 
L 174.358484 115.509771 
L 171.781267 101.341514 
L 169.20405 87.607195 
L 166.626832 76.068855 
L 164.049615 69.081698 
L 161.47241 66.547839 
L 158.895192 69.999863 
L 156.317975 80.622224 
L 153.740758 79.261326 
L 151.16354 86.03974 
L 148.586323 100.906674 
L 146.009118 120.93907 
L 143.431901 146.765869 
L 140.854683 175.370061 
L 138.277466 202.047008 
L 135.700249 226.298661 
L 133.123043 215.736054 
L 130.545826 198.723835 
L 127.968609 177.891089 
L 125.391391 157.059098 
L 122.81418 139.673213 
L 120.236963 126.795388 
L 117.659745 119.016447 
L 115.082534 116.437012 
L 112.505317 101.26598 
L 109.928099 91.714434 
L 107.350888 85.917848 
L 104.773671 84.885911 
L 102.196453 86.095141 
L 99.619242 90.274698 
L 97.042025 96.149014 
L 94.464808 102.623062 
L 91.887596 87.714064 
L 89.310379 73.455143 
L 86.733162 60.283774 
L 84.15595 51.619571 
L 81.578733 45.551946 
L 79.001522 44.079315 
L 76.424304 47.859885 
L 73.84709 56.534467 
L 71.269873 46.614081 
L 68.692658 40.870019 
L 66.115444 37.185455 
L 63.538227 38.50808 
L 60.961012 42.502405 
L 58.383798 54.176886 
L 55.806581 68.59124 
L 53.229366 84.063205 
L 50.652152 79.717974 
L 48.074936 75.2751 
L 45.497722 75.326559 
L 42.920506 78.305751 
L 40.34329 86.212858 
L 37.766076 97.42585 
L 35.188861 111.461216 
L 32.611645 128.368568 
L 30.034431 146.115422 
L 27.457215 136.192625 
L 24.88 125.960765 
z
" clip-path="url(#pc22d95fc0c)" style="fill: #1f77b4; fill-opacity: 0.5"/>
   </g>
   <g id="matplotlib.axis_1">
    <g id="xtick_1">
     <g id="line2d_1">
      <defs>
       <path id="md8a3e7c71e" d="M 0 0 
L 0 3.5 
" style="stroke: #000000; stroke-width: 0.8"/>
      </defs>
      <g>
       <use xlink:href="#md8a3e7c71e" x="24.88" y="246.04" style="stroke: #000000; stroke-width: 0.8"/>
      </g>
     </g>
     <g id="text_1">
      <!-- 0.0 -->
      <g transform="translate(16.928438 260.638438) scale(0.1 -0.1)">
       <defs>
        <path id="DejaVuSans-30" d="M 2034 4250 
Q 1547 4250 1301 3770 
Q 1056 3291 1056 2328 
Q 1056 1369 1301 889 
Q 1547 409 2034 409 
Q 2525 409 2770 889 
Q 3016 1369 3016 2328 
Q 3016 3291 2770 3770 
Q 2525 4250 2034 4250 
z
M 2034 4750 
Q 2819 4750 3233 4129 
Q 3647 3509 3647 2328 
Q 3647 1150 3233 529 
Q 2819 -91 2034 -91 
Q 1250 -91 836 529 
Q 422 1150 422 2328 
Q 422 3509 836 4129 
Q 1250 4750 2034 4750 
z
" transform="scale(0.015625)"/>
        <path id="DejaVuSans-2e" d="M 684 794 
L 1344 794 
L 1344 0 
L 684 0 
L 684 794 
z
" transform="scale(0.015625)"/>
       </defs>
       <use xlink:href="#DejaVuSans-30"/>
       <use xlink:href="#DejaVuSans-2e" x="63.623047"/>
       <use xlink:href="#DejaVuSans-30" x="95.410156"/>
      </g>
     </g>
    </g>
    <g id="xtick_2">
     <g id="line2d_2">
      <g>
       <use xlink:href="#md8a3e7c71e" x="65.6" y="246.04" style="stroke: #000000; stroke-width: 0.8"/>
      </g>
     </g>
     <g id="text_2">
      <!-- 0.2 -->
      <g transform="translate(57.648438 260.638438) scale(0.1 -0.1)">
       <defs>
        <path id="DejaVuSans-32" d="M 1228 531 
L 3431 531 
L 3431 0 
L 469 0 
L 469 531 
Q 828 903 1448 1529 
Q 2069 2156 2228 2338 
Q 2531 2678 2651 2914 
Q 2772 3150 2772 3378 
Q 2772 3750 2511 3984 
Q 2250 4219 1831 4219 
Q 1534 4219 1204 4116 
Q 875 4013 500 3803 
L 500 4441 
Q 881 4594 1212 4672 
Q 1544 4750 1819 4750 
Q 2544 4750 2975 4387 
Q 3406 4025 3406 3419 
Q 3406 3131 3298 2873 
Q 3191 2616 2906 2266 
Q 2828 2175 2409 1742 
Q 1991 1309 1228 531 
z
" transform="scale(0.015625)"/>
       </defs>
       <use xlink:href="#DejaVuSans-30"/>
       <use xlink:href="#DejaVuSans-2e" x="63.623047"/>
       <use xlink:href="#DejaVuSans-32" x="95.410156"/>
      </g>
     </g>
    </g>
    <g id="xtick_3">
     <g id="line2d_3">
      <g>
       <use xlink:href="#md8a3e7c71e" x="106.32" y="246.04" style="stroke: #000000; stroke-width: 0.8"/>
      </g>
     </g>
     <g id="text_3">
      <!-- 0.4 -->
      <g transform="translate(98.368438 260.638438) scale(0.1 -0.1)">
       <defs>
        <path id="DejaVuSans-34" d="M 2419 4116 
L 825 1625 
L 2419 1625 
L 2419 4116 
z
M 2253 4666 
L 3047 4666 
L 3047 1625 
L 3713 1625 
L 3713 1100 
L 3047 1100 
L 3047 0 
L 2419 0 
L 2419 1100 
L 313 1100 
L 313 1709 
L 2253 4666 
z
" transform="scale(0.015625)"/>
       </defs>
       <use xlink:href="#DejaVuSans-30"/>
       <use xlink:href="#DejaVuSans-2e" x="63.623047"/>
       <use xlink:href="#DejaVuSans-34" x="95.410156"/>
      </g>
     </g>
    </g>
    <g id="xtick_4">
     <g id="line2d_4">
      <g>
       <use xlink:href="#md8a3e7c71e" x="147.04" y="246.04" style="stroke: #000000; stroke-width: 0.8"/>
      </g>
     </g>
     <g id="text_4">
      <!-- 0.6 -->
      <g transform="translate(139.088438 260.638438) scale(0.1 -0.1)">
       <defs>
        <path id="DejaVuSans-36" d="M 2113 2584 
Q 1688 2584 1439 2293 
Q 1191 2003 1191 1497 
Q 1191 994 1439 701 
Q 1688 409 2113 409 
Q 2538 409 2786 701 
Q 3034 994 3034 1497 
Q 3034 2003 2786 2293 
Q 2538 2584 2113 2584 
z
M 3366 4563 
L 3366 3988 
Q 3128 4100 2886 4159 
Q 2644 4219 2406 4219 
Q 1781 4219 1451 3797 
Q 1122 3375 1075 2522 
Q 1259 2794 1537 2939 
Q 1816 3084 2150 3084 
Q 2853 3084 3261 2657 
Q 3669 2231 3669 1497 
Q 3669 778 3244 343 
Q 2819 -91 2113 -91 
Q 1303 -91 875 529 
Q 447 1150 447 2328 
Q 447 3434 972 4092 
Q 1497 4750 2381 4750 
Q 2619 4750 2861 4703 
Q 3103 4656 3366 4563 
z
" transform="scale(0.015625)"/>
       </defs>
       <use xlink:href="#DejaVuSans-30"/>
       <use xlink:href="#DejaVuSans-2e" x="63.623047"/>
       <use xlink:href="#DejaVuSans-36" x="95.410156"/>
      </g>
     </g>
    </g>
    <g id="xtick_5">
     <g id="line2d_5">
      <g>
       <use xlink:href="#md8a3e7c71e" x="187.76" y="246.04" style="stroke: #000000; stroke-width: 0.8"/>
      </g>
     </g>
     <g id="text_5">
      <!-- 0.8 -->
      <g transform="translate(179.808438 260.638438) scale(0.1 -0.1)">
       <defs>
        <path id="DejaVuSans-38" d="M 2034 2216 
Q 1584 2216 1326 1975 
Q 1069 1734 1069 1313 
Q 1069 891 1326 650 
Q 1584 409 2034 409 
Q 2484 409 2743 651 
Q 3003 894 3003 1313 
Q 3003 1734 2745 1975 
Q 2488 2216 2034 2216 
z
M 1403 2484 
Q 997 2584 770 2862 
Q 544 3141 544 3541 
Q 544 4100 942 4425 
Q 1341 4750 2034 4750 
Q 2731 4750 3128 4425 
Q 3525 4100 3525 3541 
Q 3525 3141 3298 2862 
Q 3072 2584 2669 2484 
Q 3125 2378 3379 2068 
Q 3634 1759 3634 1313 
Q 3634 634 3220 271 
Q 2806 -91 2034 -91 
Q 1263 -91 848 271 
Q 434 634 434 1313 
Q 434 1759 690 2068 
Q 947 2378 1403 2484 
z
M 1172 3481 
Q 1172 3119 1398 2916 
Q 1625 2713 2034 2713 
Q 2441 2713 2670 2916 
Q 2900 3119 2900 3481 
Q 2900 3844 2670 4047 
Q 2441 4250 2034 4250 
Q 1625 4250 1398 4047 
Q 1172 3844 1172 3481 
z
" transform="scale(0.015625)"/>
       </defs>
       <use xlink:href="#DejaVuSans-30"/>
       <use xlink:href="#DejaVuSans-2e" x="63.623047"/>
       <use xlink:href="#DejaVuSans-38" x="95.410156"/>
      </g>
     </g>
    </g>
    <g id="xtick_6">
     <g id="line2d_6">
      <g>
       <use xlink:href="#md8a3e7c71e" x="228.48" y="246.04" style="stroke: #000000; stroke-width: 0.8"/>
      </g>
     </g>
     <g id="text_6">
      <!-- 1.0 -->
      <g transform="translate(220.528438 260.638438) scale(0.1 -0.1)">
       <defs>
        <path id="DejaVuSans-31" d="M 794 531 
L 1825 531 
L 1825 4091 
L 703 3866 
L 703 4441 
L 1819 4666 
L 2450 4666 
L 2450 531 
L 3481 531 
L 3481 0 
L 794 0 
L 794 531 
z
" transform="scale(0.015625)"/>
       </defs>
       <use xlink:href="#DejaVuSans-31"/>
       <use xlink:href="#DejaVuSans-2e" x="63.623047"/>
       <use xlink:href="#DejaVuSans-30" x="95.410156"/>
      </g>
     </g>
    </g>
    <g id="text_7">
     <!-- x -->
     <g transform="translate(123.720625 274.316562) scale(0.1 -0.1)">
      <defs>
       <path id="DejaVuSans-78" d="M 3513 3500 
L 2247 1797 
L 3578 0 
L 2900 0 
L 1881 1375 
L 863 0 
L 184 0 
L 1544 1831 
L 300 3500 
L 978 3500 
L 1906 2253 
L 2834 3500 
L 3513 3500 
z
" transform="scale(0.015625)"/>
      </defs>
      <use xlink:href="#DejaVuSans-78"/>
     </g>
    </g>
   </g>
   <g id="matplotlib.axis_2">
    <g id="text_8">
     <!-- f(x) -->
     <g transform="translate(18.800313 145.261094) rotate(-90) scale(0.1 -0.1)">
      <defs>
       <path id="DejaVuSans-66" d="M 2375 4863 
L 2375 4384 
L 1825 4384 
Q 1516 4384 1395 4259 
Q 1275 4134 1275 3809 
L 1275 3500 
L 2222 3500 
L 2222 3053 
L 1275 3053 
L 1275 0 
L 697 0 
L 697 3053 
L 147 3053 
L 147 3500 
L 697 3500 
L 697 3744 
Q 697 4328 969 4595 
Q 1241 4863 1831 4863 
L 2375 4863 
z
" transform="scale(0.015625)"/>
       <path id="DejaVuSans-28" d="M 1984 4856 
Q 1566 4138 1362 3434 
Q 1159 2731 1159 2009 
Q 1159 1288 1364 580 
Q 1569 -128 1984 -844 
L 1484 -844 
Q 1016 -109 783 600 
Q 550 1309 550 2009 
Q 550 2706 781 3412 
Q 1013 4119 1484 4856 
L 1984 4856 
z
" transform="scale(0.015625)"/>
       <path id="DejaVuSans-29" d="M 513 4856 
L 1013 4856 
Q 1481 4119 1714 3412 
Q 1947 2706 1947 2009 
Q 1947 1309 1714 600 
Q 1481 -109 1013 -844 
L 513 -844 
Q 928 -128 1133 580 
Q 1338 1288 1338 2009 
Q 1338 2731 1133 3434 
Q 928 4138 513 4856 
z
" transform="scale(0.015625)"/>
      </defs>
      <use xlink:href="#DejaVuSans-66"/>
      <use xlink:href="#DejaVuSans-28" x="35.205078"/>
      <use xlink:href="#DejaVuSans-78" x="74.21875"/>
      <use xlink:href="#DejaVuSans-29" x="133.398438"/>
     </g>
    </g>
   </g>
   <g id="line2d_7">
    <path d="M 24.88 147.848249 
L 27.457215 151.491451 
L 30.034431 149.250062 
L 32.611645 141.97786 
L 35.188861 131.499206 
L 37.766076 118.326769 
L 40.34329 105.564673 
L 42.920506 94.285026 
L 45.497722 85.851951 
L 48.074936 82.022679 
L 50.652152 84.002672 
L 53.229366 90.490213 
L 55.806581 99.521489 
L 58.383798 107.192416 
L 60.961012 110.711163 
L 63.538227 108.214007 
L 66.115444 99.668599 
L 68.692658 87.004543 
L 71.269873 73.556226 
L 73.84709 61.523113 
L 76.424304 53.090174 
L 79.001522 49.245018 
L 81.578733 49.486152 
L 84.15595 53.945806 
L 86.733162 61.878984 
L 89.310379 73.025882 
L 91.887596 85.720445 
L 94.464808 98.724969 
L 97.042025 109.148412 
L 99.619242 115.593578 
L 102.196453 117.538745 
L 104.773671 115.163085 
L 107.350888 110.534329 
L 109.928099 107.297444 
L 112.505317 108.076815 
L 115.082534 114.742242 
L 117.659745 128.257045 
L 120.236963 146.903248 
L 122.81418 168.79754 
L 125.391391 190.864455 
L 127.968609 209.840663 
L 130.545826 224.029153 
L 133.123043 230.729476 
L 135.700249 229.257083 
L 138.277466 219.64976 
L 140.854683 202.914141 
L 143.431901 180.749651 
L 146.009118 155.444719 
L 148.586323 130.065055 
L 151.16354 107.583488 
L 153.740758 90.08315 
L 156.317975 80.191832 
L 158.895192 77.806506 
L 161.47241 82.046433 
L 164.049615 91.689204 
L 166.626832 104.048227 
L 169.20405 116.007393 
L 171.781267 125.727767 
L 174.358484 131.716189 
L 176.935702 133.234848 
L 179.512907 131.692993 
L 182.090124 127.390413 
L 184.667342 120.878708 
L 187.244559 114.035379 
L 189.821776 106.068783 
L 192.398982 98.649547 
L 194.976199 93.484733 
L 197.553416 91.514027 
L 200.130634 94.410758 
L 202.707851 102.315959 
L 205.285068 113.722864 
L 207.862273 125.3873 
L 210.439491 136.078324 
L 213.016708 142.450733 
L 215.593925 144.545919 
L 218.171143 142.957348 
L 220.74836 138.340087 
L 223.325565 133.34532 
L 225.902783 127.221739 
L 228.48 121.19674 
" clip-path="url(#pc22d95fc0c)" style="fill: none; stroke: #ffa500; stroke-width: 1.5; stroke-linecap: square"/>
   </g>
   <g id="line2d_8">
    <path d="M 24.88 152.796202 
L 27.457215 149.68846 
L 30.034431 146.115422 
L 32.611645 140.964262 
L 35.188861 135.077756 
L 37.766076 128.21369 
L 40.34329 122.02863 
L 42.920506 114.542436 
L 45.497722 106.880799 
L 48.074936 99.063383 
L 50.652152 91.550008 
L 53.229366 84.063205 
L 55.806581 78.163542 
L 58.383798 71.643275 
L 60.961012 65.441734 
L 63.538227 63.087393 
L 66.115444 60.210702 
L 68.692658 58.243834 
L 71.269873 55.962718 
L 73.84709 56.534467 
L 76.424304 57.870764 
L 79.001522 61.94574 
L 81.578733 68.990314 
L 84.15595 76.53379 
L 86.733162 83.240282 
L 89.310379 90.764796 
L 91.887596 96.834741 
L 94.464808 102.623062 
L 97.042025 106.124907 
L 99.619242 108.329516 
L 102.196453 109.074574 
L 104.773671 109.305566 
L 107.350888 108.05795 
L 109.928099 107.655988 
L 112.505317 109.790396 
L 115.082534 116.437012 
L 117.659745 128.989288 
L 120.236963 145.726455 
L 122.81418 163.752071 
L 125.391391 182.443939 
L 127.968609 201.780701 
L 130.545826 217.495708 
L 133.123043 225.663471 
L 135.700249 226.298661 
L 138.277466 216.014809 
L 140.854683 198.827584 
L 143.431901 176.930059 
L 146.009118 154.09082 
L 148.586323 131.347616 
L 151.16354 108.322735 
L 153.740758 90.875237 
L 156.317975 80.622224 
L 158.895192 78.801354 
L 161.47241 83.474718 
L 164.049615 92.114778 
L 166.626832 101.229609 
L 169.20405 110.783208 
L 171.781267 119.145192 
L 174.358484 124.917609 
L 176.935702 127.15703 
L 179.512907 127.019396 
L 182.090124 123.611986 
L 184.667342 118.454687 
L 187.244559 111.343233 
L 189.821776 103.819276 
L 192.398982 97.41398 
L 194.976199 95.03475 
L 197.553416 93.471172 
L 200.130634 95.086361 
L 202.707851 100.061403 
L 205.285068 107.599598 
L 207.862273 115.231843 
L 210.439491 123.404989 
L 213.016708 131.048736 
L 215.593925 136.516573 
L 218.171143 140.586907 
L 220.74836 142.684604 
L 223.325565 144.294263 
L 225.902783 144.105937 
L 228.48 144.276042 
" clip-path="url(#pc22d95fc0c)" style="fill: none; stroke: #1f77b4; stroke-width: 1.5; stroke-linecap: square"/>
   </g>
   <g id="patch_3">
    <path d="M 24.88 246.04 
L 24.88 27.24 
" style="fill: none; stroke: #000000; stroke-width: 0.8; stroke-linejoin: miter; stroke-linecap: square"/>
   </g>
   <g id="patch_4">
    <path d="M 228.48 246.04 
L 228.48 27.24 
" style="fill: none; stroke: #000000; stroke-width: 0.8; stroke-linejoin: miter; stroke-linecap: square"/>
   </g>
   <g id="patch_5">
    <path d="M 24.88 246.04 
L 228.48 246.04 
" style="fill: none; stroke: #000000; stroke-width: 0.8; stroke-linejoin: miter; stroke-linecap: square"/>
   </g>
   <g id="patch_6">
    <path d="M 24.88 27.24 
L 228.48 27.24 
" style="fill: none; stroke: #000000; stroke-width: 0.8; stroke-linejoin: miter; stroke-linecap: square"/>
   </g>
   <g id="text_9">
    <!-- Inferred GP with Matérn Kernel: exp 1 -->
    <g transform="translate(13.975625 21.24) scale(0.12 -0.12)">
     <defs>
      <path id="DejaVuSans-49" d="M 628 4666 
L 1259 4666 
L 1259 0 
L 628 0 
L 628 4666 
z
" transform="scale(0.015625)"/>
      <path id="DejaVuSans-6e" d="M 3513 2113 
L 3513 0 
L 2938 0 
L 2938 2094 
Q 2938 2591 2744 2837 
Q 2550 3084 2163 3084 
Q 1697 3084 1428 2787 
Q 1159 2491 1159 1978 
L 1159 0 
L 581 0 
L 581 3500 
L 1159 3500 
L 1159 2956 
Q 1366 3272 1645 3428 
Q 1925 3584 2291 3584 
Q 2894 3584 3203 3211 
Q 3513 2838 3513 2113 
z
" transform="scale(0.015625)"/>
      <path id="DejaVuSans-65" d="M 3597 1894 
L 3597 1613 
L 953 1613 
Q 991 1019 1311 708 
Q 1631 397 2203 397 
Q 2534 397 2845 478 
Q 3156 559 3463 722 
L 3463 178 
Q 3153 47 2828 -22 
Q 2503 -91 2169 -91 
Q 1331 -91 842 396 
Q 353 884 353 1716 
Q 353 2575 817 3079 
Q 1281 3584 2069 3584 
Q 2775 3584 3186 3129 
Q 3597 2675 3597 1894 
z
M 3022 2063 
Q 3016 2534 2758 2815 
Q 2500 3097 2075 3097 
Q 1594 3097 1305 2825 
Q 1016 2553 972 2059 
L 3022 2063 
z
" transform="scale(0.015625)"/>
      <path id="DejaVuSans-72" d="M 2631 2963 
Q 2534 3019 2420 3045 
Q 2306 3072 2169 3072 
Q 1681 3072 1420 2755 
Q 1159 2438 1159 1844 
L 1159 0 
L 581 0 
L 581 3500 
L 1159 3500 
L 1159 2956 
Q 1341 3275 1631 3429 
Q 1922 3584 2338 3584 
Q 2397 3584 2469 3576 
Q 2541 3569 2628 3553 
L 2631 2963 
z
" transform="scale(0.015625)"/>
      <path id="DejaVuSans-64" d="M 2906 2969 
L 2906 4863 
L 3481 4863 
L 3481 0 
L 2906 0 
L 2906 525 
Q 2725 213 2448 61 
Q 2172 -91 1784 -91 
Q 1150 -91 751 415 
Q 353 922 353 1747 
Q 353 2572 751 3078 
Q 1150 3584 1784 3584 
Q 2172 3584 2448 3432 
Q 2725 3281 2906 2969 
z
M 947 1747 
Q 947 1113 1208 752 
Q 1469 391 1925 391 
Q 2381 391 2643 752 
Q 2906 1113 2906 1747 
Q 2906 2381 2643 2742 
Q 2381 3103 1925 3103 
Q 1469 3103 1208 2742 
Q 947 2381 947 1747 
z
" transform="scale(0.015625)"/>
      <path id="DejaVuSans-20" transform="scale(0.015625)"/>
      <path id="DejaVuSans-47" d="M 3809 666 
L 3809 1919 
L 2778 1919 
L 2778 2438 
L 4434 2438 
L 4434 434 
Q 4069 175 3628 42 
Q 3188 -91 2688 -91 
Q 1594 -91 976 548 
Q 359 1188 359 2328 
Q 359 3472 976 4111 
Q 1594 4750 2688 4750 
Q 3144 4750 3555 4637 
Q 3966 4525 4313 4306 
L 4313 3634 
Q 3963 3931 3569 4081 
Q 3175 4231 2741 4231 
Q 1884 4231 1454 3753 
Q 1025 3275 1025 2328 
Q 1025 1384 1454 906 
Q 1884 428 2741 428 
Q 3075 428 3337 486 
Q 3600 544 3809 666 
z
" transform="scale(0.015625)"/>
      <path id="DejaVuSans-50" d="M 1259 4147 
L 1259 2394 
L 2053 2394 
Q 2494 2394 2734 2622 
Q 2975 2850 2975 3272 
Q 2975 3691 2734 3919 
Q 2494 4147 2053 4147 
L 1259 4147 
z
M 628 4666 
L 2053 4666 
Q 2838 4666 3239 4311 
Q 3641 3956 3641 3272 
Q 3641 2581 3239 2228 
Q 2838 1875 2053 1875 
L 1259 1875 
L 1259 0 
L 628 0 
L 628 4666 
z
" transform="scale(0.015625)"/>
      <path id="DejaVuSans-77" d="M 269 3500 
L 844 3500 
L 1563 769 
L 2278 3500 
L 2956 3500 
L 3675 769 
L 4391 3500 
L 4966 3500 
L 4050 0 
L 3372 0 
L 2619 2869 
L 1863 0 
L 1184 0 
L 269 3500 
z
" transform="scale(0.015625)"/>
      <path id="DejaVuSans-69" d="M 603 3500 
L 1178 3500 
L 1178 0 
L 603 0 
L 603 3500 
z
M 603 4863 
L 1178 4863 
L 1178 4134 
L 603 4134 
L 603 4863 
z
" transform="scale(0.015625)"/>
      <path id="DejaVuSans-74" d="M 1172 4494 
L 1172 3500 
L 2356 3500 
L 2356 3053 
L 1172 3053 
L 1172 1153 
Q 1172 725 1289 603 
Q 1406 481 1766 481 
L 2356 481 
L 2356 0 
L 1766 0 
Q 1100 0 847 248 
Q 594 497 594 1153 
L 594 3053 
L 172 3053 
L 172 3500 
L 594 3500 
L 594 4494 
L 1172 4494 
z
" transform="scale(0.015625)"/>
      <path id="DejaVuSans-68" d="M 3513 2113 
L 3513 0 
L 2938 0 
L 2938 2094 
Q 2938 2591 2744 2837 
Q 2550 3084 2163 3084 
Q 1697 3084 1428 2787 
Q 1159 2491 1159 1978 
L 1159 0 
L 581 0 
L 581 4863 
L 1159 4863 
L 1159 2956 
Q 1366 3272 1645 3428 
Q 1925 3584 2291 3584 
Q 2894 3584 3203 3211 
Q 3513 2838 3513 2113 
z
" transform="scale(0.015625)"/>
      <path id="DejaVuSans-4d" d="M 628 4666 
L 1569 4666 
L 2759 1491 
L 3956 4666 
L 4897 4666 
L 4897 0 
L 4281 0 
L 4281 4097 
L 3078 897 
L 2444 897 
L 1241 4097 
L 1241 0 
L 628 0 
L 628 4666 
z
" transform="scale(0.015625)"/>
      <path id="DejaVuSans-61" d="M 2194 1759 
Q 1497 1759 1228 1600 
Q 959 1441 959 1056 
Q 959 750 1161 570 
Q 1363 391 1709 391 
Q 2188 391 2477 730 
Q 2766 1069 2766 1631 
L 2766 1759 
L 2194 1759 
z
M 3341 1997 
L 3341 0 
L 2766 0 
L 2766 531 
Q 2569 213 2275 61 
Q 1981 -91 1556 -91 
Q 1019 -91 701 211 
Q 384 513 384 1019 
Q 384 1609 779 1909 
Q 1175 2209 1959 2209 
L 2766 2209 
L 2766 2266 
Q 2766 2663 2505 2880 
Q 2244 3097 1772 3097 
Q 1472 3097 1187 3025 
Q 903 2953 641 2809 
L 641 3341 
Q 956 3463 1253 3523 
Q 1550 3584 1831 3584 
Q 2591 3584 2966 3190 
Q 3341 2797 3341 1997 
z
" transform="scale(0.015625)"/>
      <path id="DejaVuSans-e9" d="M 3597 1894 
L 3597 1613 
L 953 1613 
Q 991 1019 1311 708 
Q 1631 397 2203 397 
Q 2534 397 2845 478 
Q 3156 559 3463 722 
L 3463 178 
Q 3153 47 2828 -22 
Q 2503 -91 2169 -91 
Q 1331 -91 842 396 
Q 353 884 353 1716 
Q 353 2575 817 3079 
Q 1281 3584 2069 3584 
Q 2775 3584 3186 3129 
Q 3597 2675 3597 1894 
z
M 3022 2063 
Q 3016 2534 2758 2815 
Q 2500 3097 2075 3097 
Q 1594 3097 1305 2825 
Q 1016 2553 972 2059 
L 3022 2063 
z
M 2466 5119 
L 3088 5119 
L 2070 3944 
L 1591 3944 
L 2466 5119 
z
" transform="scale(0.015625)"/>
      <path id="DejaVuSans-4b" d="M 628 4666 
L 1259 4666 
L 1259 2694 
L 3353 4666 
L 4166 4666 
L 1850 2491 
L 4331 0 
L 3500 0 
L 1259 2247 
L 1259 0 
L 628 0 
L 628 4666 
z
" transform="scale(0.015625)"/>
      <path id="DejaVuSans-6c" d="M 603 4863 
L 1178 4863 
L 1178 0 
L 603 0 
L 603 4863 
z
" transform="scale(0.015625)"/>
      <path id="DejaVuSans-3a" d="M 750 794 
L 1409 794 
L 1409 0 
L 750 0 
L 750 794 
z
M 750 3309 
L 1409 3309 
L 1409 2516 
L 750 2516 
L 750 3309 
z
" transform="scale(0.015625)"/>
      <path id="DejaVuSans-70" d="M 1159 525 
L 1159 -1331 
L 581 -1331 
L 581 3500 
L 1159 3500 
L 1159 2969 
Q 1341 3281 1617 3432 
Q 1894 3584 2278 3584 
Q 2916 3584 3314 3078 
Q 3713 2572 3713 1747 
Q 3713 922 3314 415 
Q 2916 -91 2278 -91 
Q 1894 -91 1617 61 
Q 1341 213 1159 525 
z
M 3116 1747 
Q 3116 2381 2855 2742 
Q 2594 3103 2138 3103 
Q 1681 3103 1420 2742 
Q 1159 2381 1159 1747 
Q 1159 1113 1420 752 
Q 1681 391 2138 391 
Q 2594 391 2855 752 
Q 3116 1113 3116 1747 
z
" transform="scale(0.015625)"/>
     </defs>
     <use xlink:href="#DejaVuSans-49"/>
     <use xlink:href="#DejaVuSans-6e" x="29.492188"/>
     <use xlink:href="#DejaVuSans-66" x="92.871094"/>
     <use xlink:href="#DejaVuSans-65" x="128.076172"/>
     <use xlink:href="#DejaVuSans-72" x="189.599609"/>
     <use xlink:href="#DejaVuSans-72" x="228.962891"/>
     <use xlink:href="#DejaVuSans-65" x="267.826172"/>
     <use xlink:href="#DejaVuSans-64" x="329.349609"/>
     <use xlink:href="#DejaVuSans-20" x="392.826172"/>
     <use xlink:href="#DejaVuSans-47" x="424.613281"/>
     <use xlink:href="#DejaVuSans-50" x="502.103516"/>
     <use xlink:href="#DejaVuSans-20" x="562.40625"/>
     <use xlink:href="#DejaVuSans-77" x="594.193359"/>
     <use xlink:href="#DejaVuSans-69" x="675.980469"/>
     <use xlink:href="#DejaVuSans-74" x="703.763672"/>
     <use xlink:href="#DejaVuSans-68" x="742.972656"/>
     <use xlink:href="#DejaVuSans-20" x="806.351562"/>
     <use xlink:href="#DejaVuSans-4d" x="838.138672"/>
     <use xlink:href="#DejaVuSans-61" x="924.417969"/>
     <use xlink:href="#DejaVuSans-74" x="985.697266"/>
     <use xlink:href="#DejaVuSans-e9" x="1024.90625"/>
     <use xlink:href="#DejaVuSans-72" x="1086.429688"/>
     <use xlink:href="#DejaVuSans-6e" x="1125.792969"/>
     <use xlink:href="#DejaVuSans-20" x="1189.171875"/>
     <use xlink:href="#DejaVuSans-4b" x="1220.958984"/>
     <use xlink:href="#DejaVuSans-65" x="1281.535156"/>
     <use xlink:href="#DejaVuSans-72" x="1343.058594"/>
     <use xlink:href="#DejaVuSans-6e" x="1382.421875"/>
     <use xlink:href="#DejaVuSans-65" x="1445.800781"/>
     <use xlink:href="#DejaVuSans-6c" x="1507.324219"/>
     <use xlink:href="#DejaVuSans-3a" x="1535.107422"/>
     <use xlink:href="#DejaVuSans-20" x="1568.798828"/>
     <use xlink:href="#DejaVuSans-65" x="1600.585938"/>
     <use xlink:href="#DejaVuSans-78" x="1660.359375"/>
     <use xlink:href="#DejaVuSans-70" x="1719.539062"/>
     <use xlink:href="#DejaVuSans-20" x="1783.015625"/>
     <use xlink:href="#DejaVuSans-31" x="1814.802734"/>
    </g>
   </g>
   <g id="legend_1">
    <g id="patch_7">
     <path d="M 135.573594 73.93875 
L 223.58 73.93875 
Q 224.98 73.93875 224.98 72.53875 
L 224.98 32.14 
Q 224.98 30.74 223.58 30.74 
L 135.573594 30.74 
Q 134.173594 30.74 134.173594 32.14 
L 134.173594 72.53875 
Q 134.173594 73.93875 135.573594 73.93875 
z
" style="fill: #ffffff; opacity: 0.8; stroke: #cccccc; stroke-linejoin: miter"/>
    </g>
    <g id="line2d_9">
     <path d="M 136.973594 36.408906 
L 143.973594 36.408906 
L 150.973594 36.408906 
" style="fill: none; stroke: #ffa500; stroke-width: 1.5; stroke-linecap: square"/>
    </g>
    <g id="text_10">
     <!-- ground truth (RBF) -->
     <g transform="translate(156.573594 38.858906) scale(0.07 -0.07)">
      <defs>
       <path id="DejaVuSans-67" d="M 2906 1791 
Q 2906 2416 2648 2759 
Q 2391 3103 1925 3103 
Q 1463 3103 1205 2759 
Q 947 2416 947 1791 
Q 947 1169 1205 825 
Q 1463 481 1925 481 
Q 2391 481 2648 825 
Q 2906 1169 2906 1791 
z
M 3481 434 
Q 3481 -459 3084 -895 
Q 2688 -1331 1869 -1331 
Q 1566 -1331 1297 -1286 
Q 1028 -1241 775 -1147 
L 775 -588 
Q 1028 -725 1275 -790 
Q 1522 -856 1778 -856 
Q 2344 -856 2625 -561 
Q 2906 -266 2906 331 
L 2906 616 
Q 2728 306 2450 153 
Q 2172 0 1784 0 
Q 1141 0 747 490 
Q 353 981 353 1791 
Q 353 2603 747 3093 
Q 1141 3584 1784 3584 
Q 2172 3584 2450 3431 
Q 2728 3278 2906 2969 
L 2906 3500 
L 3481 3500 
L 3481 434 
z
" transform="scale(0.015625)"/>
       <path id="DejaVuSans-6f" d="M 1959 3097 
Q 1497 3097 1228 2736 
Q 959 2375 959 1747 
Q 959 1119 1226 758 
Q 1494 397 1959 397 
Q 2419 397 2687 759 
Q 2956 1122 2956 1747 
Q 2956 2369 2687 2733 
Q 2419 3097 1959 3097 
z
M 1959 3584 
Q 2709 3584 3137 3096 
Q 3566 2609 3566 1747 
Q 3566 888 3137 398 
Q 2709 -91 1959 -91 
Q 1206 -91 779 398 
Q 353 888 353 1747 
Q 353 2609 779 3096 
Q 1206 3584 1959 3584 
z
" transform="scale(0.015625)"/>
       <path id="DejaVuSans-75" d="M 544 1381 
L 544 3500 
L 1119 3500 
L 1119 1403 
Q 1119 906 1312 657 
Q 1506 409 1894 409 
Q 2359 409 2629 706 
Q 2900 1003 2900 1516 
L 2900 3500 
L 3475 3500 
L 3475 0 
L 2900 0 
L 2900 538 
Q 2691 219 2414 64 
Q 2138 -91 1772 -91 
Q 1169 -91 856 284 
Q 544 659 544 1381 
z
M 1991 3584 
L 1991 3584 
z
" transform="scale(0.015625)"/>
       <path id="DejaVuSans-52" d="M 2841 2188 
Q 3044 2119 3236 1894 
Q 3428 1669 3622 1275 
L 4263 0 
L 3584 0 
L 2988 1197 
Q 2756 1666 2539 1819 
Q 2322 1972 1947 1972 
L 1259 1972 
L 1259 0 
L 628 0 
L 628 4666 
L 2053 4666 
Q 2853 4666 3247 4331 
Q 3641 3997 3641 3322 
Q 3641 2881 3436 2590 
Q 3231 2300 2841 2188 
z
M 1259 4147 
L 1259 2491 
L 2053 2491 
Q 2509 2491 2742 2702 
Q 2975 2913 2975 3322 
Q 2975 3731 2742 3939 
Q 2509 4147 2053 4147 
L 1259 4147 
z
" transform="scale(0.015625)"/>
       <path id="DejaVuSans-42" d="M 1259 2228 
L 1259 519 
L 2272 519 
Q 2781 519 3026 730 
Q 3272 941 3272 1375 
Q 3272 1813 3026 2020 
Q 2781 2228 2272 2228 
L 1259 2228 
z
M 1259 4147 
L 1259 2741 
L 2194 2741 
Q 2656 2741 2882 2914 
Q 3109 3088 3109 3444 
Q 3109 3797 2882 3972 
Q 2656 4147 2194 4147 
L 1259 4147 
z
M 628 4666 
L 2241 4666 
Q 2963 4666 3353 4366 
Q 3744 4066 3744 3513 
Q 3744 3084 3544 2831 
Q 3344 2578 2956 2516 
Q 3422 2416 3680 2098 
Q 3938 1781 3938 1306 
Q 3938 681 3513 340 
Q 3088 0 2303 0 
L 628 0 
L 628 4666 
z
" transform="scale(0.015625)"/>
       <path id="DejaVuSans-46" d="M 628 4666 
L 3309 4666 
L 3309 4134 
L 1259 4134 
L 1259 2759 
L 3109 2759 
L 3109 2228 
L 1259 2228 
L 1259 0 
L 628 0 
L 628 4666 
z
" transform="scale(0.015625)"/>
      </defs>
      <use xlink:href="#DejaVuSans-67"/>
      <use xlink:href="#DejaVuSans-72" x="63.476562"/>
      <use xlink:href="#DejaVuSans-6f" x="102.339844"/>
      <use xlink:href="#DejaVuSans-75" x="163.521484"/>
      <use xlink:href="#DejaVuSans-6e" x="226.900391"/>
      <use xlink:href="#DejaVuSans-64" x="290.279297"/>
      <use xlink:href="#DejaVuSans-20" x="353.755859"/>
      <use xlink:href="#DejaVuSans-74" x="385.542969"/>
      <use xlink:href="#DejaVuSans-72" x="424.751953"/>
      <use xlink:href="#DejaVuSans-75" x="465.865234"/>
      <use xlink:href="#DejaVuSans-74" x="529.244141"/>
      <use xlink:href="#DejaVuSans-68" x="568.453125"/>
      <use xlink:href="#DejaVuSans-20" x="631.832031"/>
      <use xlink:href="#DejaVuSans-28" x="663.619141"/>
      <use xlink:href="#DejaVuSans-52" x="702.632812"/>
      <use xlink:href="#DejaVuSans-42" x="772.115234"/>
      <use xlink:href="#DejaVuSans-46" x="840.71875"/>
      <use xlink:href="#DejaVuSans-29" x="898.238281"/>
     </g>
    </g>
    <g id="PathCollection_2">
     <g>
      <use xlink:href="#mcdde316a26" x="143.973594" y="47.296094" style="fill: #ff0000; stroke: #ff0000"/>
     </g>
    </g>
    <g id="text_11">
     <!-- observed -->
     <g transform="translate(156.573594 49.133594) scale(0.07 -0.07)">
      <defs>
       <path id="DejaVuSans-62" d="M 3116 1747 
Q 3116 2381 2855 2742 
Q 2594 3103 2138 3103 
Q 1681 3103 1420 2742 
Q 1159 2381 1159 1747 
Q 1159 1113 1420 752 
Q 1681 391 2138 391 
Q 2594 391 2855 752 
Q 3116 1113 3116 1747 
z
M 1159 2969 
Q 1341 3281 1617 3432 
Q 1894 3584 2278 3584 
Q 2916 3584 3314 3078 
Q 3713 2572 3713 1747 
Q 3713 922 3314 415 
Q 2916 -91 2278 -91 
Q 1894 -91 1617 61 
Q 1341 213 1159 525 
L 1159 0 
L 581 0 
L 581 4863 
L 1159 4863 
L 1159 2969 
z
" transform="scale(0.015625)"/>
       <path id="DejaVuSans-73" d="M 2834 3397 
L 2834 2853 
Q 2591 2978 2328 3040 
Q 2066 3103 1784 3103 
Q 1356 3103 1142 2972 
Q 928 2841 928 2578 
Q 928 2378 1081 2264 
Q 1234 2150 1697 2047 
L 1894 2003 
Q 2506 1872 2764 1633 
Q 3022 1394 3022 966 
Q 3022 478 2636 193 
Q 2250 -91 1575 -91 
Q 1294 -91 989 -36 
Q 684 19 347 128 
L 347 722 
Q 666 556 975 473 
Q 1284 391 1588 391 
Q 1994 391 2212 530 
Q 2431 669 2431 922 
Q 2431 1156 2273 1281 
Q 2116 1406 1581 1522 
L 1381 1569 
Q 847 1681 609 1914 
Q 372 2147 372 2553 
Q 372 3047 722 3315 
Q 1072 3584 1716 3584 
Q 2034 3584 2315 3537 
Q 2597 3491 2834 3397 
z
" transform="scale(0.015625)"/>
       <path id="DejaVuSans-76" d="M 191 3500 
L 800 3500 
L 1894 563 
L 2988 3500 
L 3597 3500 
L 2284 0 
L 1503 0 
L 191 3500 
z
" transform="scale(0.015625)"/>
      </defs>
      <use xlink:href="#DejaVuSans-6f"/>
      <use xlink:href="#DejaVuSans-62" x="61.181641"/>
      <use xlink:href="#DejaVuSans-73" x="124.658203"/>
      <use xlink:href="#DejaVuSans-65" x="176.757812"/>
      <use xlink:href="#DejaVuSans-72" x="238.28125"/>
      <use xlink:href="#DejaVuSans-76" x="279.394531"/>
      <use xlink:href="#DejaVuSans-65" x="338.574219"/>
      <use xlink:href="#DejaVuSans-64" x="400.097656"/>
     </g>
    </g>
    <g id="line2d_10">
     <path d="M 136.973594 56.958281 
L 143.973594 56.958281 
L 150.973594 56.958281 
" style="fill: none; stroke: #1f77b4; stroke-width: 1.5; stroke-linecap: square"/>
    </g>
    <g id="text_12">
     <!-- predicted mean -->
     <g transform="translate(156.573594 59.408281) scale(0.07 -0.07)">
      <defs>
       <path id="DejaVuSans-63" d="M 3122 3366 
L 3122 2828 
Q 2878 2963 2633 3030 
Q 2388 3097 2138 3097 
Q 1578 3097 1268 2742 
Q 959 2388 959 1747 
Q 959 1106 1268 751 
Q 1578 397 2138 397 
Q 2388 397 2633 464 
Q 2878 531 3122 666 
L 3122 134 
Q 2881 22 2623 -34 
Q 2366 -91 2075 -91 
Q 1284 -91 818 406 
Q 353 903 353 1747 
Q 353 2603 823 3093 
Q 1294 3584 2113 3584 
Q 2378 3584 2631 3529 
Q 2884 3475 3122 3366 
z
" transform="scale(0.015625)"/>
       <path id="DejaVuSans-6d" d="M 3328 2828 
Q 3544 3216 3844 3400 
Q 4144 3584 4550 3584 
Q 5097 3584 5394 3201 
Q 5691 2819 5691 2113 
L 5691 0 
L 5113 0 
L 5113 2094 
Q 5113 2597 4934 2840 
Q 4756 3084 4391 3084 
Q 3944 3084 3684 2787 
Q 3425 2491 3425 1978 
L 3425 0 
L 2847 0 
L 2847 2094 
Q 2847 2600 2669 2842 
Q 2491 3084 2119 3084 
Q 1678 3084 1418 2786 
Q 1159 2488 1159 1978 
L 1159 0 
L 581 0 
L 581 3500 
L 1159 3500 
L 1159 2956 
Q 1356 3278 1631 3431 
Q 1906 3584 2284 3584 
Q 2666 3584 2933 3390 
Q 3200 3197 3328 2828 
z
" transform="scale(0.015625)"/>
      </defs>
      <use xlink:href="#DejaVuSans-70"/>
      <use xlink:href="#DejaVuSans-72" x="63.476562"/>
      <use xlink:href="#DejaVuSans-65" x="102.339844"/>
      <use xlink:href="#DejaVuSans-64" x="163.863281"/>
      <use xlink:href="#DejaVuSans-69" x="227.339844"/>
      <use xlink:href="#DejaVuSans-63" x="255.123047"/>
      <use xlink:href="#DejaVuSans-74" x="310.103516"/>
      <use xlink:href="#DejaVuSans-65" x="349.3125"/>
      <use xlink:href="#DejaVuSans-64" x="410.835938"/>
      <use xlink:href="#DejaVuSans-20" x="474.3125"/>
      <use xlink:href="#DejaVuSans-6d" x="506.099609"/>
      <use xlink:href="#DejaVuSans-65" x="603.511719"/>
      <use xlink:href="#DejaVuSans-61" x="665.035156"/>
      <use xlink:href="#DejaVuSans-6e" x="726.314453"/>
     </g>
    </g>
    <g id="patch_8">
     <path d="M 136.973594 69.682969 
L 150.973594 69.682969 
L 150.973594 64.782969 
L 136.973594 64.782969 
z
" style="fill: #1f77b4; fill-opacity: 0.5"/>
    </g>
    <g id="text_13">
     <!-- posterior: 95% BCI -->
     <g transform="translate(156.573594 69.682969) scale(0.07 -0.07)">
      <defs>
       <path id="DejaVuSans-39" d="M 703 97 
L 703 672 
Q 941 559 1184 500 
Q 1428 441 1663 441 
Q 2288 441 2617 861 
Q 2947 1281 2994 2138 
Q 2813 1869 2534 1725 
Q 2256 1581 1919 1581 
Q 1219 1581 811 2004 
Q 403 2428 403 3163 
Q 403 3881 828 4315 
Q 1253 4750 1959 4750 
Q 2769 4750 3195 4129 
Q 3622 3509 3622 2328 
Q 3622 1225 3098 567 
Q 2575 -91 1691 -91 
Q 1453 -91 1209 -44 
Q 966 3 703 97 
z
M 1959 2075 
Q 2384 2075 2632 2365 
Q 2881 2656 2881 3163 
Q 2881 3666 2632 3958 
Q 2384 4250 1959 4250 
Q 1534 4250 1286 3958 
Q 1038 3666 1038 3163 
Q 1038 2656 1286 2365 
Q 1534 2075 1959 2075 
z
" transform="scale(0.015625)"/>
       <path id="DejaVuSans-35" d="M 691 4666 
L 3169 4666 
L 3169 4134 
L 1269 4134 
L 1269 2991 
Q 1406 3038 1543 3061 
Q 1681 3084 1819 3084 
Q 2600 3084 3056 2656 
Q 3513 2228 3513 1497 
Q 3513 744 3044 326 
Q 2575 -91 1722 -91 
Q 1428 -91 1123 -41 
Q 819 9 494 109 
L 494 744 
Q 775 591 1075 516 
Q 1375 441 1709 441 
Q 2250 441 2565 725 
Q 2881 1009 2881 1497 
Q 2881 1984 2565 2268 
Q 2250 2553 1709 2553 
Q 1456 2553 1204 2497 
Q 953 2441 691 2322 
L 691 4666 
z
" transform="scale(0.015625)"/>
       <path id="DejaVuSans-25" d="M 4653 2053 
Q 4381 2053 4226 1822 
Q 4072 1591 4072 1178 
Q 4072 772 4226 539 
Q 4381 306 4653 306 
Q 4919 306 5073 539 
Q 5228 772 5228 1178 
Q 5228 1588 5073 1820 
Q 4919 2053 4653 2053 
z
M 4653 2450 
Q 5147 2450 5437 2106 
Q 5728 1763 5728 1178 
Q 5728 594 5436 251 
Q 5144 -91 4653 -91 
Q 4153 -91 3862 251 
Q 3572 594 3572 1178 
Q 3572 1766 3864 2108 
Q 4156 2450 4653 2450 
z
M 1428 4353 
Q 1159 4353 1004 4120 
Q 850 3888 850 3481 
Q 850 3069 1003 2837 
Q 1156 2606 1428 2606 
Q 1700 2606 1854 2837 
Q 2009 3069 2009 3481 
Q 2009 3884 1853 4118 
Q 1697 4353 1428 4353 
z
M 4250 4750 
L 4750 4750 
L 1831 -91 
L 1331 -91 
L 4250 4750 
z
M 1428 4750 
Q 1922 4750 2215 4408 
Q 2509 4066 2509 3481 
Q 2509 2891 2217 2550 
Q 1925 2209 1428 2209 
Q 931 2209 642 2551 
Q 353 2894 353 3481 
Q 353 4063 643 4406 
Q 934 4750 1428 4750 
z
" transform="scale(0.015625)"/>
       <path id="DejaVuSans-43" d="M 4122 4306 
L 4122 3641 
Q 3803 3938 3442 4084 
Q 3081 4231 2675 4231 
Q 1875 4231 1450 3742 
Q 1025 3253 1025 2328 
Q 1025 1406 1450 917 
Q 1875 428 2675 428 
Q 3081 428 3442 575 
Q 3803 722 4122 1019 
L 4122 359 
Q 3791 134 3420 21 
Q 3050 -91 2638 -91 
Q 1578 -91 968 557 
Q 359 1206 359 2328 
Q 359 3453 968 4101 
Q 1578 4750 2638 4750 
Q 3056 4750 3426 4639 
Q 3797 4528 4122 4306 
z
" transform="scale(0.015625)"/>
      </defs>
      <use xlink:href="#DejaVuSans-70"/>
      <use xlink:href="#DejaVuSans-6f" x="63.476562"/>
      <use xlink:href="#DejaVuSans-73" x="124.658203"/>
      <use xlink:href="#DejaVuSans-74" x="176.757812"/>
      <use xlink:href="#DejaVuSans-65" x="215.966797"/>
      <use xlink:href="#DejaVuSans-72" x="277.490234"/>
      <use xlink:href="#DejaVuSans-69" x="318.603516"/>
      <use xlink:href="#DejaVuSans-6f" x="346.386719"/>
      <use xlink:href="#DejaVuSans-72" x="407.568359"/>
      <use xlink:href="#DejaVuSans-3a" x="446.931641"/>
      <use xlink:href="#DejaVuSans-20" x="480.623047"/>
      <use xlink:href="#DejaVuSans-39" x="512.410156"/>
      <use xlink:href="#DejaVuSans-35" x="576.033203"/>
      <use xlink:href="#DejaVuSans-25" x="639.65625"/>
      <use xlink:href="#DejaVuSans-20" x="734.675781"/>
      <use xlink:href="#DejaVuSans-42" x="766.462891"/>
      <use xlink:href="#DejaVuSans-43" x="833.316406"/>
      <use xlink:href="#DejaVuSans-49" x="903.140625"/>
     </g>
    </g>
   </g>
  </g>
  <g id="axes_2">
   <g id="patch_9">
    <path d="M 261.28 246.04 
L 464.88 246.04 
L 464.88 27.24 
L 261.28 27.24 
z
" style="fill: #ffffff"/>
   </g>
   <g id="PathCollection_3">
    <g clip-path="url(#pbbd4496613)">
     <use xlink:href="#mcdde316a26" x="266.434431" y="207.676509" style="fill: #ff0000; stroke: #ff0000"/>
     <use xlink:href="#mcdde316a26" x="289.629366" y="94.202699" style="fill: #ff0000; stroke: #ff0000"/>
     <use xlink:href="#mcdde316a26" x="310.24709" y="119.553296" style="fill: #ff0000; stroke: #ff0000"/>
     <use xlink:href="#mcdde316a26" x="330.864808" y="206.363478" style="fill: #ff0000; stroke: #ff0000"/>
     <use xlink:href="#mcdde316a26" x="351.482534" y="174.167114" style="fill: #ff0000; stroke: #ff0000"/>
     <use xlink:href="#mcdde316a26" x="372.100249" y="149.533756" style="fill: #ff0000; stroke: #ff0000"/>
     <use xlink:href="#mcdde316a26" x="392.717975" y="200.084629" style="fill: #ff0000; stroke: #ff0000"/>
     <use xlink:href="#mcdde316a26" x="413.335702" y="143.19282" style="fill: #ff0000; stroke: #ff0000"/>
     <use xlink:href="#mcdde316a26" x="433.953416" y="44.729457" style="fill: #ff0000; stroke: #ff0000"/>
     <use xlink:href="#mcdde316a26" x="454.571143" y="152.364849" style="fill: #ff0000; stroke: #ff0000"/>
    </g>
   </g>
   <g id="PolyCollection_2">
    <path d="M 261.28 236.094545 
L 261.28 236.094545 
L 263.857215 223.170325 
L 266.434431 207.676509 
L 269.011645 208.581283 
L 271.588861 205.773804 
L 274.166076 199.307227 
L 276.74329 189.285623 
L 279.320506 175.446518 
L 281.897722 158.460441 
L 284.474936 137.887866 
L 287.052152 111.590019 
L 289.629366 94.202699 
L 292.206581 97.269761 
L 294.783798 102.198423 
L 297.361012 107.719085 
L 299.938227 114.845042 
L 302.515444 117.950696 
L 305.092658 118.810931 
L 307.669873 117.653931 
L 310.24709 119.553296 
L 312.824304 138.431057 
L 315.401522 157.488331 
L 317.978733 175.212873 
L 320.55595 191.71869 
L 323.133162 201.758483 
L 325.710379 208.204297 
L 328.287596 208.855333 
L 330.864808 206.363478 
L 333.442025 215.526421 
L 336.019242 221.657673 
L 338.596453 223.045615 
L 341.173671 219.576673 
L 343.750888 211.826514 
L 346.328099 201.884705 
L 348.905317 188.702604 
L 351.482534 174.167114 
L 354.059745 175.836824 
L 356.636963 177.160368 
L 359.21418 176.304444 
L 361.791391 172.87743 
L 364.368609 168.698772 
L 366.945826 161.747124 
L 369.523043 155.004848 
L 372.100249 149.533756 
L 374.677466 160.60318 
L 377.254683 173.335766 
L 379.831901 186.454641 
L 382.409118 198.188135 
L 384.986323 205.810823 
L 387.56354 207.981594 
L 390.140758 205.52055 
L 392.717975 200.084629 
L 395.295192 206.620194 
L 397.87241 208.306756 
L 400.449615 206.014362 
L 403.026832 198.561713 
L 405.60405 188.741787 
L 408.181267 176.310552 
L 410.758484 160.476359 
L 413.335702 143.19282 
L 415.912907 140.489715 
L 418.490124 137.605343 
L 421.067342 129.292839 
L 423.644559 116.004181 
L 426.221776 98.530409 
L 428.798982 78.927289 
L 431.376199 61.246588 
L 433.953416 44.729457 
L 436.530634 53.336447 
L 439.107851 69.999802 
L 441.685068 87.81281 
L 444.262273 108.464773 
L 446.839491 125.261545 
L 449.416708 138.795346 
L 451.993925 148.455101 
L 454.571143 152.364849 
L 457.14836 171.016037 
L 459.725565 188.623011 
L 462.302783 203.951967 
L 464.88 215.41094 
L 464.88 215.41094 
L 464.88 128.74529 
L 462.302783 137.48743 
L 459.725565 145.204341 
L 457.14836 150.946199 
L 454.571143 152.364849 
L 451.993925 134.715283 
L 449.416708 114.355862 
L 446.839491 92.826863 
L 444.262273 68.958825 
L 441.685068 52.479726 
L 439.107851 40.433969 
L 436.530634 37.185455 
L 433.953416 44.729457 
L 431.376199 44.110926 
L 428.798982 47.427665 
L 426.221776 60.272993 
L 423.644559 74.780586 
L 421.067342 89.521647 
L 418.490124 107.008395 
L 415.912907 125.370886 
L 413.335702 143.19282 
L 410.758484 146.431947 
L 408.181267 149.033973 
L 405.60405 152.26463 
L 403.026832 158.637995 
L 400.449615 168.896561 
L 397.87241 180.142212 
L 395.295192 191.53122 
L 392.717975 200.084629 
L 390.140758 190.256847 
L 387.56354 178.058933 
L 384.986323 166.87384 
L 382.409118 155.987959 
L 379.831901 148.924973 
L 377.254683 145.41954 
L 374.677466 145.891149 
L 372.100249 149.533756 
L 369.523043 140.307467 
L 366.945826 133.845959 
L 364.368609 131.383208 
L 361.791391 131.665348 
L 359.21418 137.397411 
L 356.636963 147.011705 
L 354.059745 159.6325 
L 351.482534 174.167114 
L 348.905317 171.439385 
L 346.328099 170.181514 
L 343.750888 170.822569 
L 341.173671 175.34079 
L 338.596453 181.998475 
L 336.019242 190.400096 
L 333.442025 199.169848 
L 330.864808 206.363478 
L 328.287596 194.103524 
L 325.710379 179.353125 
L 323.133162 163.957762 
L 320.55595 150.564224 
L 317.978733 137.787178 
L 315.401522 127.753409 
L 312.824304 121.770452 
L 310.24709 119.553296 
L 307.669873 102.486091 
L 305.092658 90.381213 
L 302.515444 80.917939 
L 299.938227 73.702701 
L 297.361012 69.356833 
L 294.783798 74.449488 
L 292.206581 82.694072 
L 289.629366 94.202699 
L 287.052152 95.454722 
L 284.474936 99.668446 
L 281.897722 108.175331 
L 279.320506 117.846297 
L 276.74329 132.823444 
L 274.166076 151.274687 
L 271.588861 170.40682 
L 269.011645 189.531621 
L 266.434431 207.676509 
L 263.857215 202.518119 
L 261.28 194.525416 
z
" clip-path="url(#pbbd4496613)" style="fill: #1f77b4; fill-opacity: 0.5"/>
   </g>
   <g id="matplotlib.axis_3">
    <g id="xtick_7">
     <g id="line2d_11">
      <g>
       <use xlink:href="#md8a3e7c71e" x="261.28" y="246.04" style="stroke: #000000; stroke-width: 0.8"/>
      </g>
     </g>
     <g id="text_14">
      <!-- 0.0 -->
      <g transform="translate(253.328437 260.638438) scale(0.1 -0.1)">
       <use xlink:href="#DejaVuSans-30"/>
       <use xlink:href="#DejaVuSans-2e" x="63.623047"/>
       <use xlink:href="#DejaVuSans-30" x="95.410156"/>
      </g>
     </g>
    </g>
    <g id="xtick_8">
     <g id="line2d_12">
      <g>
       <use xlink:href="#md8a3e7c71e" x="302" y="246.04" style="stroke: #000000; stroke-width: 0.8"/>
      </g>
     </g>
     <g id="text_15">
      <!-- 0.2 -->
      <g transform="translate(294.048437 260.638438) scale(0.1 -0.1)">
       <use xlink:href="#DejaVuSans-30"/>
       <use xlink:href="#DejaVuSans-2e" x="63.623047"/>
       <use xlink:href="#DejaVuSans-32" x="95.410156"/>
      </g>
     </g>
    </g>
    <g id="xtick_9">
     <g id="line2d_13">
      <g>
       <use xlink:href="#md8a3e7c71e" x="342.72" y="246.04" style="stroke: #000000; stroke-width: 0.8"/>
      </g>
     </g>
     <g id="text_16">
      <!-- 0.4 -->
      <g transform="translate(334.768438 260.638438) scale(0.1 -0.1)">
       <use xlink:href="#DejaVuSans-30"/>
       <use xlink:href="#DejaVuSans-2e" x="63.623047"/>
       <use xlink:href="#DejaVuSans-34" x="95.410156"/>
      </g>
     </g>
    </g>
    <g id="xtick_10">
     <g id="line2d_14">
      <g>
       <use xlink:href="#md8a3e7c71e" x="383.44" y="246.04" style="stroke: #000000; stroke-width: 0.8"/>
      </g>
     </g>
     <g id="text_17">
      <!-- 0.6 -->
      <g transform="translate(375.488438 260.638438) scale(0.1 -0.1)">
       <use xlink:href="#DejaVuSans-30"/>
       <use xlink:href="#DejaVuSans-2e" x="63.623047"/>
       <use xlink:href="#DejaVuSans-36" x="95.410156"/>
      </g>
     </g>
    </g>
    <g id="xtick_11">
     <g id="line2d_15">
      <g>
       <use xlink:href="#md8a3e7c71e" x="424.16" y="246.04" style="stroke: #000000; stroke-width: 0.8"/>
      </g>
     </g>
     <g id="text_18">
      <!-- 0.8 -->
      <g transform="translate(416.208438 260.638438) scale(0.1 -0.1)">
       <use xlink:href="#DejaVuSans-30"/>
       <use xlink:href="#DejaVuSans-2e" x="63.623047"/>
       <use xlink:href="#DejaVuSans-38" x="95.410156"/>
      </g>
     </g>
    </g>
    <g id="xtick_12">
     <g id="line2d_16">
      <g>
       <use xlink:href="#md8a3e7c71e" x="464.88" y="246.04" style="stroke: #000000; stroke-width: 0.8"/>
      </g>
     </g>
     <g id="text_19">
      <!-- 1.0 -->
      <g transform="translate(456.928438 260.638438) scale(0.1 -0.1)">
       <use xlink:href="#DejaVuSans-31"/>
       <use xlink:href="#DejaVuSans-2e" x="63.623047"/>
       <use xlink:href="#DejaVuSans-30" x="95.410156"/>
      </g>
     </g>
    </g>
    <g id="text_20">
     <!-- x -->
     <g transform="translate(360.120625 274.316562) scale(0.1 -0.1)">
      <use xlink:href="#DejaVuSans-78"/>
     </g>
    </g>
   </g>
   <g id="matplotlib.axis_4">
    <g id="text_21">
     <!-- f(x) -->
     <g transform="translate(255.200312 145.261094) rotate(-90) scale(0.1 -0.1)">
      <use xlink:href="#DejaVuSans-66"/>
      <use xlink:href="#DejaVuSans-28" x="35.205078"/>
      <use xlink:href="#DejaVuSans-78" x="74.21875"/>
      <use xlink:href="#DejaVuSans-29" x="133.398438"/>
     </g>
    </g>
   </g>
   <g id="line2d_17">
    <path d="M 261.28 235.117233 
L 263.857215 223.984088 
L 266.434431 206.628582 
L 269.011645 188.122203 
L 271.588861 171.326048 
L 274.166076 155.389871 
L 276.74329 137.224717 
L 279.320506 119.197209 
L 281.897722 105.976468 
L 284.474936 95.813896 
L 287.052152 90.957313 
L 289.629366 93.053824 
L 292.206581 97.549558 
L 294.783798 100.689539 
L 297.361012 102.988035 
L 299.938227 105.881885 
L 302.515444 108.903915 
L 305.092658 110.837646 
L 307.669873 113.957011 
L 310.24709 120.001726 
L 312.824304 128.675874 
L 315.401522 140.611685 
L 317.978733 152.952527 
L 320.55595 164.800367 
L 323.133162 178.931817 
L 325.710379 192.785431 
L 328.287596 202.232549 
L 330.864808 207.048687 
L 333.442025 209.582183 
L 336.019242 209.974473 
L 338.596453 208.126994 
L 341.173671 202.504969 
L 343.750888 194.540703 
L 346.328099 185.981515 
L 348.905317 179.445961 
L 351.482534 173.51119 
L 354.059745 168.234658 
L 356.636963 160.93602 
L 359.21418 152.935555 
L 361.791391 146.047342 
L 364.368609 141.189458 
L 366.945826 140.658869 
L 369.523043 144.74399 
L 372.100249 146.620779 
L 374.677466 147.769611 
L 377.254683 150.784548 
L 379.831901 155.006322 
L 382.409118 161.537237 
L 384.986323 170.360101 
L 387.56354 182.439616 
L 390.140758 193.278424 
L 392.717975 198.207783 
L 395.295192 200.544191 
L 397.87241 198.974278 
L 400.449615 192.257714 
L 403.026832 183.354201 
L 405.60405 174.378988 
L 408.181267 165.383422 
L 410.758484 155.938499 
L 413.335702 143.48642 
L 415.912907 127.583472 
L 418.490124 107.558862 
L 421.067342 87.377834 
L 423.644559 68.990956 
L 426.221776 55.188239 
L 428.798982 47.478822 
L 431.376199 43.83284 
L 433.953416 46.219994 
L 436.530634 52.184227 
L 439.107851 60.591376 
L 441.685068 73.775448 
L 444.262273 90.781939 
L 446.839491 111.09039 
L 449.416708 131.690158 
L 451.993925 147.544273 
L 454.571143 152.52639 
L 457.14836 149.098461 
L 459.725565 141.303831 
L 462.302783 130.348161 
L 464.88 121.673826 
" clip-path="url(#pbbd4496613)" style="fill: none; stroke: #ffa500; stroke-width: 1.5; stroke-linecap: square"/>
   </g>
   <g id="line2d_18">
    <path d="M 261.28 216.358275 
L 263.857215 213.150518 
L 266.434431 207.676509 
L 269.011645 198.5744 
L 271.588861 186.70231 
L 274.166076 172.771592 
L 276.74329 159.166456 
L 279.320506 145.272932 
L 281.897722 131.823528 
L 284.474936 117.496676 
L 287.052152 103.234711 
L 289.629366 94.202699 
L 292.206581 89.936031 
L 294.783798 88.34064 
L 297.361012 88.999777 
L 299.938227 94.257413 
L 302.515444 99.28964 
L 305.092658 104.261068 
L 307.669873 109.884362 
L 310.24709 119.553296 
L 312.824304 130.288267 
L 315.401522 142.946365 
L 317.978733 157.297898 
L 320.55595 171.502564 
L 323.133162 183.110761 
L 325.710379 193.843881 
L 328.287596 201.424891 
L 330.864808 206.363478 
L 333.442025 207.639426 
L 336.019242 206.319276 
L 338.596453 202.825305 
L 341.173671 197.881199 
L 343.750888 191.385897 
L 346.328099 185.697985 
L 348.905317 179.848724 
L 351.482534 174.167114 
L 354.059745 167.997119 
L 356.636963 162.313682 
L 359.21418 157.239351 
L 361.791391 153.147432 
L 364.368609 150.303843 
L 366.945826 148.090185 
L 369.523043 147.681825 
L 372.100249 149.533756 
L 374.677466 153.405171 
L 377.254683 159.7016 
L 379.831901 167.989787 
L 382.409118 177.157306 
L 384.986323 186.375855 
L 387.56354 193.269258 
L 390.140758 197.906058 
L 392.717975 200.084629 
L 395.295192 199.014751 
L 397.87241 193.944769 
L 400.449615 187.105631 
L 403.026832 178.651344 
L 405.60405 171.107303 
L 408.181267 163.217605 
L 410.758484 153.772841 
L 413.335702 143.19282 
L 415.912907 132.873341 
L 418.490124 122.517742 
L 421.067342 110.066996 
L 423.644559 95.224693 
L 426.221776 78.854792 
L 428.798982 62.539837 
L 431.376199 52.378942 
L 433.953416 44.729457 
L 436.530634 45.277854 
L 439.107851 54.79187 
L 441.685068 68.999253 
L 444.262273 87.67571 
L 446.839491 107.90161 
L 449.416708 126.008216 
L 451.993925 141.307831 
L 454.571143 152.364849 
L 457.14836 160.924119 
L 459.725565 166.762082 
L 462.302783 170.558798 
L 464.88 172.469361 
" clip-path="url(#pbbd4496613)" style="fill: none; stroke: #1f77b4; stroke-width: 1.5; stroke-linecap: square"/>
   </g>
   <g id="patch_10">
    <path d="M 261.28 246.04 
L 261.28 27.24 
" style="fill: none; stroke: #000000; stroke-width: 0.8; stroke-linejoin: miter; stroke-linecap: square"/>
   </g>
   <g id="patch_11">
    <path d="M 464.88 246.04 
L 464.88 27.24 
" style="fill: none; stroke: #000000; stroke-width: 0.8; stroke-linejoin: miter; stroke-linecap: square"/>
   </g>
   <g id="patch_12">
    <path d="M 261.28 246.04 
L 464.88 246.04 
" style="fill: none; stroke: #000000; stroke-width: 0.8; stroke-linejoin: miter; stroke-linecap: square"/>
   </g>
   <g id="patch_13">
    <path d="M 261.28 27.24 
L 464.88 27.24 
" style="fill: none; stroke: #000000; stroke-width: 0.8; stroke-linejoin: miter; stroke-linecap: square"/>
   </g>
   <g id="text_22">
    <!-- Inferred GP with Matérn Kernel: exp 2 -->
    <g transform="translate(250.375625 21.24) scale(0.12 -0.12)">
     <use xlink:href="#DejaVuSans-49"/>
     <use xlink:href="#DejaVuSans-6e" x="29.492188"/>
     <use xlink:href="#DejaVuSans-66" x="92.871094"/>
     <use xlink:href="#DejaVuSans-65" x="128.076172"/>
     <use xlink:href="#DejaVuSans-72" x="189.599609"/>
     <use xlink:href="#DejaVuSans-72" x="228.962891"/>
     <use xlink:href="#DejaVuSans-65" x="267.826172"/>
     <use xlink:href="#DejaVuSans-64" x="329.349609"/>
     <use xlink:href="#DejaVuSans-20" x="392.826172"/>
     <use xlink:href="#DejaVuSans-47" x="424.613281"/>
     <use xlink:href="#DejaVuSans-50" x="502.103516"/>
     <use xlink:href="#DejaVuSans-20" x="562.40625"/>
     <use xlink:href="#DejaVuSans-77" x="594.193359"/>
     <use xlink:href="#DejaVuSans-69" x="675.980469"/>
     <use xlink:href="#DejaVuSans-74" x="703.763672"/>
     <use xlink:href="#DejaVuSans-68" x="742.972656"/>
     <use xlink:href="#DejaVuSans-20" x="806.351562"/>
     <use xlink:href="#DejaVuSans-4d" x="838.138672"/>
     <use xlink:href="#DejaVuSans-61" x="924.417969"/>
     <use xlink:href="#DejaVuSans-74" x="985.697266"/>
     <use xlink:href="#DejaVuSans-e9" x="1024.90625"/>
     <use xlink:href="#DejaVuSans-72" x="1086.429688"/>
     <use xlink:href="#DejaVuSans-6e" x="1125.792969"/>
     <use xlink:href="#DejaVuSans-20" x="1189.171875"/>
     <use xlink:href="#DejaVuSans-4b" x="1220.958984"/>
     <use xlink:href="#DejaVuSans-65" x="1281.535156"/>
     <use xlink:href="#DejaVuSans-72" x="1343.058594"/>
     <use xlink:href="#DejaVuSans-6e" x="1382.421875"/>
     <use xlink:href="#DejaVuSans-65" x="1445.800781"/>
     <use xlink:href="#DejaVuSans-6c" x="1507.324219"/>
     <use xlink:href="#DejaVuSans-3a" x="1535.107422"/>
     <use xlink:href="#DejaVuSans-20" x="1568.798828"/>
     <use xlink:href="#DejaVuSans-65" x="1600.585938"/>
     <use xlink:href="#DejaVuSans-78" x="1660.359375"/>
     <use xlink:href="#DejaVuSans-70" x="1719.539062"/>
     <use xlink:href="#DejaVuSans-20" x="1783.015625"/>
     <use xlink:href="#DejaVuSans-32" x="1814.802734"/>
    </g>
   </g>
   <g id="legend_2">
    <g id="patch_14">
     <path d="M 266.18 73.93875 
L 354.186406 73.93875 
Q 355.586406 73.93875 355.586406 72.53875 
L 355.586406 32.14 
Q 355.586406 30.74 354.186406 30.74 
L 266.18 30.74 
Q 264.78 30.74 264.78 32.14 
L 264.78 72.53875 
Q 264.78 73.93875 266.18 73.93875 
z
" style="fill: #ffffff; opacity: 0.8; stroke: #cccccc; stroke-linejoin: miter"/>
    </g>
    <g id="line2d_19">
     <path d="M 267.58 36.408906 
L 274.58 36.408906 
L 281.58 36.408906 
" style="fill: none; stroke: #ffa500; stroke-width: 1.5; stroke-linecap: square"/>
    </g>
    <g id="text_23">
     <!-- ground truth (RBF) -->
     <g transform="translate(287.18 38.858906) scale(0.07 -0.07)">
      <use xlink:href="#DejaVuSans-67"/>
      <use xlink:href="#DejaVuSans-72" x="63.476562"/>
      <use xlink:href="#DejaVuSans-6f" x="102.339844"/>
      <use xlink:href="#DejaVuSans-75" x="163.521484"/>
      <use xlink:href="#DejaVuSans-6e" x="226.900391"/>
      <use xlink:href="#DejaVuSans-64" x="290.279297"/>
      <use xlink:href="#DejaVuSans-20" x="353.755859"/>
      <use xlink:href="#DejaVuSans-74" x="385.542969"/>
      <use xlink:href="#DejaVuSans-72" x="424.751953"/>
      <use xlink:href="#DejaVuSans-75" x="465.865234"/>
      <use xlink:href="#DejaVuSans-74" x="529.244141"/>
      <use xlink:href="#DejaVuSans-68" x="568.453125"/>
      <use xlink:href="#DejaVuSans-20" x="631.832031"/>
      <use xlink:href="#DejaVuSans-28" x="663.619141"/>
      <use xlink:href="#DejaVuSans-52" x="702.632812"/>
      <use xlink:href="#DejaVuSans-42" x="772.115234"/>
      <use xlink:href="#DejaVuSans-46" x="840.71875"/>
      <use xlink:href="#DejaVuSans-29" x="898.238281"/>
     </g>
    </g>
    <g id="PathCollection_4">
     <g>
      <use xlink:href="#mcdde316a26" x="274.58" y="47.296094" style="fill: #ff0000; stroke: #ff0000"/>
     </g>
    </g>
    <g id="text_24">
     <!-- observed -->
     <g transform="translate(287.18 49.133594) scale(0.07 -0.07)">
      <use xlink:href="#DejaVuSans-6f"/>
      <use xlink:href="#DejaVuSans-62" x="61.181641"/>
      <use xlink:href="#DejaVuSans-73" x="124.658203"/>
      <use xlink:href="#DejaVuSans-65" x="176.757812"/>
      <use xlink:href="#DejaVuSans-72" x="238.28125"/>
      <use xlink:href="#DejaVuSans-76" x="279.394531"/>
      <use xlink:href="#DejaVuSans-65" x="338.574219"/>
      <use xlink:href="#DejaVuSans-64" x="400.097656"/>
     </g>
    </g>
    <g id="line2d_20">
     <path d="M 267.58 56.958281 
L 274.58 56.958281 
L 281.58 56.958281 
" style="fill: none; stroke: #1f77b4; stroke-width: 1.5; stroke-linecap: square"/>
    </g>
    <g id="text_25">
     <!-- predicted mean -->
     <g transform="translate(287.18 59.408281) scale(0.07 -0.07)">
      <use xlink:href="#DejaVuSans-70"/>
      <use xlink:href="#DejaVuSans-72" x="63.476562"/>
      <use xlink:href="#DejaVuSans-65" x="102.339844"/>
      <use xlink:href="#DejaVuSans-64" x="163.863281"/>
      <use xlink:href="#DejaVuSans-69" x="227.339844"/>
      <use xlink:href="#DejaVuSans-63" x="255.123047"/>
      <use xlink:href="#DejaVuSans-74" x="310.103516"/>
      <use xlink:href="#DejaVuSans-65" x="349.3125"/>
      <use xlink:href="#DejaVuSans-64" x="410.835938"/>
      <use xlink:href="#DejaVuSans-20" x="474.3125"/>
      <use xlink:href="#DejaVuSans-6d" x="506.099609"/>
      <use xlink:href="#DejaVuSans-65" x="603.511719"/>
      <use xlink:href="#DejaVuSans-61" x="665.035156"/>
      <use xlink:href="#DejaVuSans-6e" x="726.314453"/>
     </g>
    </g>
    <g id="patch_15">
     <path d="M 267.58 69.682969 
L 281.58 69.682969 
L 281.58 64.782969 
L 267.58 64.782969 
z
" style="fill: #1f77b4; fill-opacity: 0.5"/>
    </g>
    <g id="text_26">
     <!-- posterior: 95% BCI -->
     <g transform="translate(287.18 69.682969) scale(0.07 -0.07)">
      <use xlink:href="#DejaVuSans-70"/>
      <use xlink:href="#DejaVuSans-6f" x="63.476562"/>
      <use xlink:href="#DejaVuSans-73" x="124.658203"/>
      <use xlink:href="#DejaVuSans-74" x="176.757812"/>
      <use xlink:href="#DejaVuSans-65" x="215.966797"/>
      <use xlink:href="#DejaVuSans-72" x="277.490234"/>
      <use xlink:href="#DejaVuSans-69" x="318.603516"/>
      <use xlink:href="#DejaVuSans-6f" x="346.386719"/>
      <use xlink:href="#DejaVuSans-72" x="407.568359"/>
      <use xlink:href="#DejaVuSans-3a" x="446.931641"/>
      <use xlink:href="#DejaVuSans-20" x="480.623047"/>
      <use xlink:href="#DejaVuSans-39" x="512.410156"/>
      <use xlink:href="#DejaVuSans-35" x="576.033203"/>
      <use xlink:href="#DejaVuSans-25" x="639.65625"/>
      <use xlink:href="#DejaVuSans-20" x="734.675781"/>
      <use xlink:href="#DejaVuSans-42" x="766.462891"/>
      <use xlink:href="#DejaVuSans-43" x="833.316406"/>
      <use xlink:href="#DejaVuSans-49" x="903.140625"/>
     </g>
    </g>
   </g>
  </g>
  <g id="axes_3">
   <g id="patch_16">
    <path d="M 497.68 246.04 
L 701.28 246.04 
L 701.28 27.24 
L 497.68 27.24 
z
" style="fill: #ffffff"/>
   </g>
   <g id="PathCollection_5">
    <g clip-path="url(#p000943731c)">
     <use xlink:href="#mcdde316a26" x="502.834431" y="181.946911" style="fill: #ff0000; stroke: #ff0000"/>
     <use xlink:href="#mcdde316a26" x="526.029366" y="215.548172" style="fill: #ff0000; stroke: #ff0000"/>
     <use xlink:href="#mcdde316a26" x="546.64709" y="175.420627" style="fill: #ff0000; stroke: #ff0000"/>
     <use xlink:href="#mcdde316a26" x="567.264808" y="168.815202" style="fill: #ff0000; stroke: #ff0000"/>
     <use xlink:href="#mcdde316a26" x="587.882534" y="210.756824" style="fill: #ff0000; stroke: #ff0000"/>
     <use xlink:href="#mcdde316a26" x="608.500249" y="153.797522" style="fill: #ff0000; stroke: #ff0000"/>
     <use xlink:href="#mcdde316a26" x="629.117975" y="160.212994" style="fill: #ff0000; stroke: #ff0000"/>
     <use xlink:href="#mcdde316a26" x="649.735702" y="170.665606" style="fill: #ff0000; stroke: #ff0000"/>
     <use xlink:href="#mcdde316a26" x="670.353416" y="86.9489" style="fill: #ff0000; stroke: #ff0000"/>
     <use xlink:href="#mcdde316a26" x="690.971143" y="59.295345" style="fill: #ff0000; stroke: #ff0000"/>
    </g>
   </g>
   <g id="PolyCollection_3">
    <path d="M 497.68 209.787462 
L 497.68 209.787462 
L 500.257215 195.453814 
L 502.834431 181.946911 
L 505.411645 195.439625 
L 507.988861 209.234003 
L 510.566076 220.523176 
L 513.14329 229.306288 
L 515.720506 234.315557 
L 518.297722 236.094545 
L 520.874936 233.114691 
L 523.452152 225.548253 
L 526.029366 215.548172 
L 528.606581 224.132634 
L 531.183798 227.039162 
L 533.761012 225.479535 
L 536.338227 222.591514 
L 538.915444 214.670814 
L 541.492658 203.434262 
L 544.069873 188.390626 
L 546.64709 175.420627 
L 549.224304 182.412125 
L 551.801522 188.625226 
L 554.378733 192.716841 
L 556.95595 193.740545 
L 559.533162 191.000078 
L 562.110379 185.081895 
L 564.687596 176.768491 
L 567.264808 168.815202 
L 569.842025 182.147918 
L 572.419242 195.550151 
L 574.996453 207.015 
L 577.573671 216.446391 
L 580.150888 221.70709 
L 582.728099 223.948195 
L 585.305317 219.9107 
L 587.882534 210.756824 
L 590.459745 217.342046 
L 593.036963 219.018234 
L 595.61418 214.600601 
L 598.191391 206.577382 
L 600.768609 196.332859 
L 603.345826 182.499796 
L 605.923043 167.59114 
L 608.500249 153.797522 
L 611.077466 160.37892 
L 613.654683 167.466188 
L 616.231901 174.07107 
L 618.809118 178.109789 
L 621.386323 178.091921 
L 623.96354 173.368698 
L 626.540758 166.855177 
L 629.117975 160.212994 
L 631.695192 172.078764 
L 634.27241 182.792518 
L 636.849615 191.335089 
L 639.426832 194.68415 
L 642.00405 194.867262 
L 644.581267 191.969428 
L 647.158484 183.926763 
L 649.735702 170.665606 
L 652.312907 174.112719 
L 654.890124 174.675141 
L 657.467342 169.045863 
L 660.044559 159.164864 
L 662.621776 144.277184 
L 665.198982 127.662634 
L 667.776199 107.746435 
L 670.353416 86.9489 
L 672.930634 89.595812 
L 675.507851 93.309099 
L 678.085068 95.927239 
L 680.662273 95.018282 
L 683.239491 90.844853 
L 685.816708 82.68093 
L 688.393925 70.373487 
L 690.971143 59.295345 
L 693.54836 73.377503 
L 696.125565 92.604451 
L 698.702783 111.902478 
L 701.28 129.378527 
L 701.28 129.378527 
L 701.28 37.185455 
L 698.702783 39.27281 
L 696.125565 44.36364 
L 693.54836 48.496541 
L 690.971143 59.295345 
L 688.393925 50.510326 
L 685.816708 43.082468 
L 683.239491 39.732318 
L 680.662273 38.603933 
L 678.085068 44.912973 
L 675.507851 54.330313 
L 672.930634 68.177725 
L 670.353416 86.9489 
L 667.776199 87.515708 
L 665.198982 90.927748 
L 662.621776 98.976844 
L 660.044559 110.194279 
L 657.467342 123.716615 
L 654.890124 139.561332 
L 652.312907 155.080366 
L 649.735702 170.665606 
L 647.158484 165.710761 
L 644.581267 158.717687 
L 642.00405 152.491847 
L 639.426832 148.271001 
L 636.849615 148.794241 
L 634.27241 150.326507 
L 631.695192 154.900446 
L 629.117975 160.212994 
L 626.540758 148.32096 
L 623.96354 137.226591 
L 621.386323 131.079843 
L 618.809118 128.439383 
L 616.231901 129.153763 
L 613.654683 133.394856 
L 611.077466 142.073617 
L 608.500249 153.797522 
L 605.923043 149.939527 
L 603.345826 148.257401 
L 600.768609 151.149087 
L 598.191391 156.792451 
L 595.61418 168.601115 
L 593.036963 182.839537 
L 590.459745 197.302382 
L 587.882534 210.756824 
L 585.305317 199.397431 
L 582.728099 185.265167 
L 580.150888 170.802196 
L 577.573671 160.631208 
L 574.996453 155.520277 
L 572.419242 156.355749 
L 569.842025 161.005845 
L 567.264808 168.815202 
L 564.687596 157.271806 
L 562.110379 148.916918 
L 559.533162 142.632745 
L 556.95595 141.653954 
L 554.378733 144.393462 
L 551.801522 151.242742 
L 549.224304 162.098543 
L 546.64709 175.420627 
L 544.069873 167.462784 
L 541.492658 164.605707 
L 538.915444 164.164481 
L 536.338227 168.28759 
L 533.761012 175.15191 
L 531.183798 188.382112 
L 528.606581 203.121643 
L 526.029366 215.548172 
L 523.452152 201.265613 
L 520.874936 184.469807 
L 518.297722 170.337909 
L 515.720506 160.49219 
L 513.14329 155.206538 
L 510.566076 154.683213 
L 507.988861 159.790013 
L 505.411645 169.55151 
L 502.834431 181.946911 
L 500.257215 169.350902 
L 497.68 158.135718 
z
" clip-path="url(#p000943731c)" style="fill: #1f77b4; fill-opacity: 0.5"/>
   </g>
   <g id="matplotlib.axis_5">
    <g id="xtick_13">
     <g id="line2d_21">
      <g>
       <use xlink:href="#md8a3e7c71e" x="497.68" y="246.04" style="stroke: #000000; stroke-width: 0.8"/>
      </g>
     </g>
     <g id="text_27">
      <!-- 0.0 -->
      <g transform="translate(489.728437 260.638438) scale(0.1 -0.1)">
       <use xlink:href="#DejaVuSans-30"/>
       <use xlink:href="#DejaVuSans-2e" x="63.623047"/>
       <use xlink:href="#DejaVuSans-30" x="95.410156"/>
      </g>
     </g>
    </g>
    <g id="xtick_14">
     <g id="line2d_22">
      <g>
       <use xlink:href="#md8a3e7c71e" x="538.4" y="246.04" style="stroke: #000000; stroke-width: 0.8"/>
      </g>
     </g>
     <g id="text_28">
      <!-- 0.2 -->
      <g transform="translate(530.448437 260.638438) scale(0.1 -0.1)">
       <use xlink:href="#DejaVuSans-30"/>
       <use xlink:href="#DejaVuSans-2e" x="63.623047"/>
       <use xlink:href="#DejaVuSans-32" x="95.410156"/>
      </g>
     </g>
    </g>
    <g id="xtick_15">
     <g id="line2d_23">
      <g>
       <use xlink:href="#md8a3e7c71e" x="579.12" y="246.04" style="stroke: #000000; stroke-width: 0.8"/>
      </g>
     </g>
     <g id="text_29">
      <!-- 0.4 -->
      <g transform="translate(571.168437 260.638438) scale(0.1 -0.1)">
       <use xlink:href="#DejaVuSans-30"/>
       <use xlink:href="#DejaVuSans-2e" x="63.623047"/>
       <use xlink:href="#DejaVuSans-34" x="95.410156"/>
      </g>
     </g>
    </g>
    <g id="xtick_16">
     <g id="line2d_24">
      <g>
       <use xlink:href="#md8a3e7c71e" x="619.84" y="246.04" style="stroke: #000000; stroke-width: 0.8"/>
      </g>
     </g>
     <g id="text_30">
      <!-- 0.6 -->
      <g transform="translate(611.888437 260.638438) scale(0.1 -0.1)">
       <use xlink:href="#DejaVuSans-30"/>
       <use xlink:href="#DejaVuSans-2e" x="63.623047"/>
       <use xlink:href="#DejaVuSans-36" x="95.410156"/>
      </g>
     </g>
    </g>
    <g id="xtick_17">
     <g id="line2d_25">
      <g>
       <use xlink:href="#md8a3e7c71e" x="660.56" y="246.04" style="stroke: #000000; stroke-width: 0.8"/>
      </g>
     </g>
     <g id="text_31">
      <!-- 0.8 -->
      <g transform="translate(652.608437 260.638438) scale(0.1 -0.1)">
       <use xlink:href="#DejaVuSans-30"/>
       <use xlink:href="#DejaVuSans-2e" x="63.623047"/>
       <use xlink:href="#DejaVuSans-38" x="95.410156"/>
      </g>
     </g>
    </g>
    <g id="xtick_18">
     <g id="line2d_26">
      <g>
       <use xlink:href="#md8a3e7c71e" x="701.28" y="246.04" style="stroke: #000000; stroke-width: 0.8"/>
      </g>
     </g>
     <g id="text_32">
      <!-- 1.0 -->
      <g transform="translate(693.328437 260.638438) scale(0.1 -0.1)">
       <use xlink:href="#DejaVuSans-31"/>
       <use xlink:href="#DejaVuSans-2e" x="63.623047"/>
       <use xlink:href="#DejaVuSans-30" x="95.410156"/>
      </g>
     </g>
    </g>
    <g id="text_33">
     <!-- x -->
     <g transform="translate(596.520625 274.316562) scale(0.1 -0.1)">
      <use xlink:href="#DejaVuSans-78"/>
     </g>
    </g>
   </g>
   <g id="matplotlib.axis_6">
    <g id="text_34">
     <!-- f(x) -->
     <g transform="translate(491.600312 145.261094) rotate(-90) scale(0.1 -0.1)">
      <use xlink:href="#DejaVuSans-66"/>
      <use xlink:href="#DejaVuSans-28" x="35.205078"/>
      <use xlink:href="#DejaVuSans-78" x="74.21875"/>
      <use xlink:href="#DejaVuSans-29" x="133.398438"/>
     </g>
    </g>
   </g>
   <g id="line2d_27">
    <path d="M 497.68 165.606788 
L 500.257215 172.571485 
L 502.834431 180.169428 
L 505.411645 187.881738 
L 507.988861 194.714631 
L 510.566076 201.378413 
L 513.14329 206.727368 
L 515.720506 211.368337 
L 518.297722 214.607753 
L 520.874936 216.16135 
L 523.452152 216.451144 
L 526.029366 214.929155 
L 528.606581 212.405732 
L 531.183798 208.545587 
L 533.761012 203.737277 
L 536.338227 198.824023 
L 538.915444 192.918199 
L 541.492658 187.453727 
L 544.069873 182.139912 
L 546.64709 176.633153 
L 549.224304 172.413095 
L 551.801522 168.866313 
L 554.378733 165.973367 
L 556.95595 164.483898 
L 559.533162 164.262758 
L 562.110379 164.810744 
L 564.687596 167.431754 
L 567.264808 170.621977 
L 569.842025 175.69631 
L 572.419242 181.41699 
L 574.996453 187.770591 
L 577.573671 193.911142 
L 580.150888 199.648484 
L 582.728099 204.163136 
L 585.305317 207.286874 
L 587.882534 207.969885 
L 590.459745 206.627101 
L 593.036963 202.692487 
L 595.61418 197.449496 
L 598.191391 189.637977 
L 600.768609 181.061721 
L 603.345826 171.992852 
L 605.923043 163.169041 
L 608.500249 155.555757 
L 611.077466 149.101691 
L 613.654683 145.080545 
L 616.231901 142.770035 
L 618.809118 143.129008 
L 621.386323 145.224484 
L 623.96354 148.907632 
L 626.540758 153.634455 
L 629.117975 159.039474 
L 631.695192 164.154618 
L 634.27241 168.855109 
L 636.849615 172.751029 
L 639.426832 175.273096 
L 642.00405 175.927892 
L 644.581267 174.788129 
L 647.158484 171.861724 
L 649.735702 167.01207 
L 652.312907 160.671339 
L 654.890124 152.584913 
L 657.467342 143.213086 
L 660.044559 132.547347 
L 662.621776 121.683031 
L 665.198982 110.112553 
L 667.776199 98.631421 
L 670.353416 87.587361 
L 672.930634 77.309652 
L 675.507851 68.401526 
L 678.085068 61.118724 
L 680.662273 56.118827 
L 683.239491 53.288929 
L 685.816708 53.285287 
L 688.393925 55.289581 
L 690.971143 60.50782 
L 693.54836 66.958672 
L 696.125565 75.528319 
L 698.702783 85.06572 
L 701.28 95.012823 
" clip-path="url(#p000943731c)" style="fill: none; stroke: #ffa500; stroke-width: 1.5; stroke-linecap: square"/>
   </g>
   <g id="line2d_28">
    <path d="M 497.68 184.403288 
L 500.257215 182.16524 
L 502.834431 181.946911 
L 505.411645 183.106833 
L 507.988861 185.567929 
L 510.566076 188.495362 
L 513.14329 193.294548 
L 515.720506 197.621914 
L 518.297722 203.162737 
L 520.874936 208.768678 
L 523.452152 213.356165 
L 526.029366 215.548172 
L 528.606581 213.438996 
L 531.183798 207.569993 
L 533.761012 199.930803 
L 536.338227 194.729929 
L 538.915444 189.102349 
L 541.492658 183.866114 
L 544.069873 178.041273 
L 546.64709 175.420627 
L 549.224304 172.082835 
L 551.801522 169.340686 
L 554.378733 168.075407 
L 556.95595 167.682102 
L 559.533162 166.679546 
L 562.110379 166.83501 
L 564.687596 166.95489 
L 567.264808 168.815202 
L 569.842025 171.725217 
L 572.419242 176.048002 
L 574.996453 181.796311 
L 577.573671 188.766501 
L 580.150888 195.986045 
L 582.728099 204.149801 
L 585.305317 209.246468 
L 587.882534 210.756824 
L 590.459745 208.076552 
L 593.036963 202.03078 
L 595.61418 192.968843 
L 598.191391 183.225176 
L 600.768609 174.366741 
L 603.345826 165.620269 
L 605.923043 158.942412 
L 608.500249 153.797522 
L 611.077466 151.134476 
L 613.654683 150.122019 
L 616.231901 151.04671 
L 618.809118 152.604218 
L 621.386323 153.9076 
L 623.96354 155.190186 
L 626.540758 157.613843 
L 629.117975 160.212994 
L 631.695192 163.645815 
L 634.27241 166.685853 
L 636.849615 170.297086 
L 639.426832 172.568101 
L 642.00405 174.608917 
L 644.581267 175.768715 
L 647.158484 174.89025 
L 649.735702 170.665606 
L 652.312907 164.645076 
L 654.890124 157.430005 
L 657.467342 147.153907 
L 660.044559 134.193921 
L 662.621776 120.689373 
L 665.198982 107.896592 
L 667.776199 97.074984 
L 670.353416 86.9489 
L 672.930634 79.095726 
L 675.507851 73.87122 
L 678.085068 70.928978 
L 680.662273 67.259123 
L 683.239491 65.15641 
L 685.816708 62.749269 
L 688.393925 60.227093 
L 690.971143 59.295345 
L 693.54836 59.700521 
L 696.125565 65.831774 
L 698.702783 71.990531 
L 701.28 80.551809 
" clip-path="url(#p000943731c)" style="fill: none; stroke: #1f77b4; stroke-width: 1.5; stroke-linecap: square"/>
   </g>
   <g id="patch_17">
    <path d="M 497.68 246.04 
L 497.68 27.24 
" style="fill: none; stroke: #000000; stroke-width: 0.8; stroke-linejoin: miter; stroke-linecap: square"/>
   </g>
   <g id="patch_18">
    <path d="M 701.28 246.04 
L 701.28 27.24 
" style="fill: none; stroke: #000000; stroke-width: 0.8; stroke-linejoin: miter; stroke-linecap: square"/>
   </g>
   <g id="patch_19">
    <path d="M 497.68 246.04 
L 701.28 246.04 
" style="fill: none; stroke: #000000; stroke-width: 0.8; stroke-linejoin: miter; stroke-linecap: square"/>
   </g>
   <g id="patch_20">
    <path d="M 497.68 27.24 
L 701.28 27.24 
" style="fill: none; stroke: #000000; stroke-width: 0.8; stroke-linejoin: miter; stroke-linecap: square"/>
   </g>
   <g id="text_35">
    <!-- Inferred GP with Matérn Kernel: exp 3 -->
    <g transform="translate(486.775625 21.24) scale(0.12 -0.12)">
     <defs>
      <path id="DejaVuSans-33" d="M 2597 2516 
Q 3050 2419 3304 2112 
Q 3559 1806 3559 1356 
Q 3559 666 3084 287 
Q 2609 -91 1734 -91 
Q 1441 -91 1130 -33 
Q 819 25 488 141 
L 488 750 
Q 750 597 1062 519 
Q 1375 441 1716 441 
Q 2309 441 2620 675 
Q 2931 909 2931 1356 
Q 2931 1769 2642 2001 
Q 2353 2234 1838 2234 
L 1294 2234 
L 1294 2753 
L 1863 2753 
Q 2328 2753 2575 2939 
Q 2822 3125 2822 3475 
Q 2822 3834 2567 4026 
Q 2313 4219 1838 4219 
Q 1578 4219 1281 4162 
Q 984 4106 628 3988 
L 628 4550 
Q 988 4650 1302 4700 
Q 1616 4750 1894 4750 
Q 2613 4750 3031 4423 
Q 3450 4097 3450 3541 
Q 3450 3153 3228 2886 
Q 3006 2619 2597 2516 
z
" transform="scale(0.015625)"/>
     </defs>
     <use xlink:href="#DejaVuSans-49"/>
     <use xlink:href="#DejaVuSans-6e" x="29.492188"/>
     <use xlink:href="#DejaVuSans-66" x="92.871094"/>
     <use xlink:href="#DejaVuSans-65" x="128.076172"/>
     <use xlink:href="#DejaVuSans-72" x="189.599609"/>
     <use xlink:href="#DejaVuSans-72" x="228.962891"/>
     <use xlink:href="#DejaVuSans-65" x="267.826172"/>
     <use xlink:href="#DejaVuSans-64" x="329.349609"/>
     <use xlink:href="#DejaVuSans-20" x="392.826172"/>
     <use xlink:href="#DejaVuSans-47" x="424.613281"/>
     <use xlink:href="#DejaVuSans-50" x="502.103516"/>
     <use xlink:href="#DejaVuSans-20" x="562.40625"/>
     <use xlink:href="#DejaVuSans-77" x="594.193359"/>
     <use xlink:href="#DejaVuSans-69" x="675.980469"/>
     <use xlink:href="#DejaVuSans-74" x="703.763672"/>
     <use xlink:href="#DejaVuSans-68" x="742.972656"/>
     <use xlink:href="#DejaVuSans-20" x="806.351562"/>
     <use xlink:href="#DejaVuSans-4d" x="838.138672"/>
     <use xlink:href="#DejaVuSans-61" x="924.417969"/>
     <use xlink:href="#DejaVuSans-74" x="985.697266"/>
     <use xlink:href="#DejaVuSans-e9" x="1024.90625"/>
     <use xlink:href="#DejaVuSans-72" x="1086.429688"/>
     <use xlink:href="#DejaVuSans-6e" x="1125.792969"/>
     <use xlink:href="#DejaVuSans-20" x="1189.171875"/>
     <use xlink:href="#DejaVuSans-4b" x="1220.958984"/>
     <use xlink:href="#DejaVuSans-65" x="1281.535156"/>
     <use xlink:href="#DejaVuSans-72" x="1343.058594"/>
     <use xlink:href="#DejaVuSans-6e" x="1382.421875"/>
     <use xlink:href="#DejaVuSans-65" x="1445.800781"/>
     <use xlink:href="#DejaVuSans-6c" x="1507.324219"/>
     <use xlink:href="#DejaVuSans-3a" x="1535.107422"/>
     <use xlink:href="#DejaVuSans-20" x="1568.798828"/>
     <use xlink:href="#DejaVuSans-65" x="1600.585938"/>
     <use xlink:href="#DejaVuSans-78" x="1660.359375"/>
     <use xlink:href="#DejaVuSans-70" x="1719.539062"/>
     <use xlink:href="#DejaVuSans-20" x="1783.015625"/>
     <use xlink:href="#DejaVuSans-33" x="1814.802734"/>
    </g>
   </g>
   <g id="legend_3">
    <g id="patch_21">
     <path d="M 502.58 73.93875 
L 590.586406 73.93875 
Q 591.986406 73.93875 591.986406 72.53875 
L 591.986406 32.14 
Q 591.986406 30.74 590.586406 30.74 
L 502.58 30.74 
Q 501.18 30.74 501.18 32.14 
L 501.18 72.53875 
Q 501.18 73.93875 502.58 73.93875 
z
" style="fill: #ffffff; opacity: 0.8; stroke: #cccccc; stroke-linejoin: miter"/>
    </g>
    <g id="line2d_29">
     <path d="M 503.98 36.408906 
L 510.98 36.408906 
L 517.98 36.408906 
" style="fill: none; stroke: #ffa500; stroke-width: 1.5; stroke-linecap: square"/>
    </g>
    <g id="text_36">
     <!-- ground truth (RBF) -->
     <g transform="translate(523.58 38.858906) scale(0.07 -0.07)">
      <use xlink:href="#DejaVuSans-67"/>
      <use xlink:href="#DejaVuSans-72" x="63.476562"/>
      <use xlink:href="#DejaVuSans-6f" x="102.339844"/>
      <use xlink:href="#DejaVuSans-75" x="163.521484"/>
      <use xlink:href="#DejaVuSans-6e" x="226.900391"/>
      <use xlink:href="#DejaVuSans-64" x="290.279297"/>
      <use xlink:href="#DejaVuSans-20" x="353.755859"/>
      <use xlink:href="#DejaVuSans-74" x="385.542969"/>
      <use xlink:href="#DejaVuSans-72" x="424.751953"/>
      <use xlink:href="#DejaVuSans-75" x="465.865234"/>
      <use xlink:href="#DejaVuSans-74" x="529.244141"/>
      <use xlink:href="#DejaVuSans-68" x="568.453125"/>
      <use xlink:href="#DejaVuSans-20" x="631.832031"/>
      <use xlink:href="#DejaVuSans-28" x="663.619141"/>
      <use xlink:href="#DejaVuSans-52" x="702.632812"/>
      <use xlink:href="#DejaVuSans-42" x="772.115234"/>
      <use xlink:href="#DejaVuSans-46" x="840.71875"/>
      <use xlink:href="#DejaVuSans-29" x="898.238281"/>
     </g>
    </g>
    <g id="PathCollection_6">
     <g>
      <use xlink:href="#mcdde316a26" x="510.98" y="47.296094" style="fill: #ff0000; stroke: #ff0000"/>
     </g>
    </g>
    <g id="text_37">
     <!-- observed -->
     <g transform="translate(523.58 49.133594) scale(0.07 -0.07)">
      <use xlink:href="#DejaVuSans-6f"/>
      <use xlink:href="#DejaVuSans-62" x="61.181641"/>
      <use xlink:href="#DejaVuSans-73" x="124.658203"/>
      <use xlink:href="#DejaVuSans-65" x="176.757812"/>
      <use xlink:href="#DejaVuSans-72" x="238.28125"/>
      <use xlink:href="#DejaVuSans-76" x="279.394531"/>
      <use xlink:href="#DejaVuSans-65" x="338.574219"/>
      <use xlink:href="#DejaVuSans-64" x="400.097656"/>
     </g>
    </g>
    <g id="line2d_30">
     <path d="M 503.98 56.958281 
L 510.98 56.958281 
L 517.98 56.958281 
" style="fill: none; stroke: #1f77b4; stroke-width: 1.5; stroke-linecap: square"/>
    </g>
    <g id="text_38">
     <!-- predicted mean -->
     <g transform="translate(523.58 59.408281) scale(0.07 -0.07)">
      <use xlink:href="#DejaVuSans-70"/>
      <use xlink:href="#DejaVuSans-72" x="63.476562"/>
      <use xlink:href="#DejaVuSans-65" x="102.339844"/>
      <use xlink:href="#DejaVuSans-64" x="163.863281"/>
      <use xlink:href="#DejaVuSans-69" x="227.339844"/>
      <use xlink:href="#DejaVuSans-63" x="255.123047"/>
      <use xlink:href="#DejaVuSans-74" x="310.103516"/>
      <use xlink:href="#DejaVuSans-65" x="349.3125"/>
      <use xlink:href="#DejaVuSans-64" x="410.835938"/>
      <use xlink:href="#DejaVuSans-20" x="474.3125"/>
      <use xlink:href="#DejaVuSans-6d" x="506.099609"/>
      <use xlink:href="#DejaVuSans-65" x="603.511719"/>
      <use xlink:href="#DejaVuSans-61" x="665.035156"/>
      <use xlink:href="#DejaVuSans-6e" x="726.314453"/>
     </g>
    </g>
    <g id="patch_22">
     <path d="M 503.98 69.682969 
L 517.98 69.682969 
L 517.98 64.782969 
L 503.98 64.782969 
z
" style="fill: #1f77b4; fill-opacity: 0.5"/>
    </g>
    <g id="text_39">
     <!-- posterior: 95% BCI -->
     <g transform="translate(523.58 69.682969) scale(0.07 -0.07)">
      <use xlink:href="#DejaVuSans-70"/>
      <use xlink:href="#DejaVuSans-6f" x="63.476562"/>
      <use xlink:href="#DejaVuSans-73" x="124.658203"/>
      <use xlink:href="#DejaVuSans-74" x="176.757812"/>
      <use xlink:href="#DejaVuSans-65" x="215.966797"/>
      <use xlink:href="#DejaVuSans-72" x="277.490234"/>
      <use xlink:href="#DejaVuSans-69" x="318.603516"/>
      <use xlink:href="#DejaVuSans-6f" x="346.386719"/>
      <use xlink:href="#DejaVuSans-72" x="407.568359"/>
      <use xlink:href="#DejaVuSans-3a" x="446.931641"/>
      <use xlink:href="#DejaVuSans-20" x="480.623047"/>
      <use xlink:href="#DejaVuSans-39" x="512.410156"/>
      <use xlink:href="#DejaVuSans-35" x="576.033203"/>
      <use xlink:href="#DejaVuSans-25" x="639.65625"/>
      <use xlink:href="#DejaVuSans-20" x="734.675781"/>
      <use xlink:href="#DejaVuSans-42" x="766.462891"/>
      <use xlink:href="#DejaVuSans-43" x="833.316406"/>
      <use xlink:href="#DejaVuSans-49" x="903.140625"/>
     </g>
    </g>
   </g>
  </g>
 </g>
 <defs>
  <clipPath id="pc22d95fc0c">
   <rect x="24.88" y="27.24" width="203.6" height="218.8"/>
  </clipPath>
  <clipPath id="pbbd4496613">
   <rect x="261.28" y="27.24" width="203.6" height="218.8"/>
  </clipPath>
  <clipPath id="p000943731c">
   <rect x="497.68" y="27.24" width="203.6" height="218.8"/>
  </clipPath>
 </defs>
</svg>
