<?xml version="1.0" encoding="utf-8" standalone="no"?>
<!DOCTYPE svg PUBLIC "-//W3C//DTD SVG 1.1//EN"
  "http://www.w3.org/Graphics/SVG/1.1/DTD/svg11.dtd">
<svg xmlns:xlink="http://www.w3.org/1999/xlink" width="648pt" height="216pt" viewBox="0 0 648 216" xmlns="http://www.w3.org/2000/svg" version="1.1">
 <metadata>
  <rdf:RDF xmlns:dc="http://purl.org/dc/elements/1.1/" xmlns:cc="http://creativecommons.org/ns#" xmlns:rdf="http://www.w3.org/1999/02/22-rdf-syntax-ns#">
   <cc:Work>
    <dc:type rdf:resource="http://purl.org/dc/dcmitype/StillImage"/>
    <dc:date>2024-09-29T15:13:38.243292</dc:date>
    <dc:format>image/svg+xml</dc:format>
    <dc:creator>
     <cc:Agent>
      <dc:title>Matplotlib v3.7.1, https://matplotlib.org/</dc:title>
     </cc:Agent>
    </dc:creator>
   </cc:Work>
  </rdf:RDF>
 </metadata>
 <defs>
  <style type="text/css">*{stroke-linejoin: round; stroke-linecap: butt}</style>
 </defs>
 <g id="figure_1">
  <g id="patch_1">
   <path d="M 0 216 
L 648 216 
L 648 0 
L 0 0 
z
" style="fill: #ffffff"/>
  </g>
  <g id="axes_1">
   <g id="patch_2">
    <path d="M 24.88 191.12 
L 221.786667 191.12 
L 221.786667 26.88 
L 24.88 26.88 
z
" style="fill: #ffffff"/>
   </g>
   <g id="PathCollection_1">
    <defs>
     <path id="mea4f3a6869" d="M 0 3.162278 
C 0.838646 3.162278 1.643056 2.82908 2.236068 2.236068 
C 2.82908 1.643056 3.162278 0.838646 3.162278 0 
C 3.162278 -0.838646 2.82908 -1.643056 2.236068 -2.236068 
C 1.643056 -2.82908 0.838646 -3.162278 0 -3.162278 
C -0.838646 -3.162278 -1.643056 -2.82908 -2.236068 -2.236068 
C -2.82908 -1.643056 -3.162278 -0.838646 -3.162278 0 
C -3.162278 0.838646 -2.82908 1.643056 -2.236068 2.236068 
C -1.643056 2.82908 -0.838646 3.162278 0 3.162278 
z
" style="stroke: #ff0000"/>
    </defs>
    <g clip-path="url(#p02e413c1e4)">
     <use xlink:href="#mea4f3a6869" x="49.804895" y="79.046133" style="fill: #ff0000; stroke: #ff0000"/>
     <use xlink:href="#mea4f3a6869" x="82.207258" y="136.851054" style="fill: #ff0000; stroke: #ff0000"/>
     <use xlink:href="#mea4f3a6869" x="124.579579" y="126.807109" style="fill: #ff0000; stroke: #ff0000"/>
     <use xlink:href="#mea4f3a6869" x="176.921854" y="128.855584" style="fill: #ff0000; stroke: #ff0000"/>
     <use xlink:href="#mea4f3a6869" x="211.816712" y="164.658612" style="fill: #ff0000; stroke: #ff0000"/>
    </g>
   </g>
   <g id="PolyCollection_1">
    <path d="M 24.88 115.657657 
L 24.88 115.657657 
L 27.37249 109.541127 
L 29.864979 104.942576 
L 32.357468 100.403061 
L 34.849958 95.094278 
L 37.342447 90.168821 
L 39.834936 87.162297 
L 42.327426 83.354106 
L 44.819916 80.646904 
L 47.312405 79.239199 
L 49.804895 79.046133 
L 52.297383 84.655506 
L 54.789872 90.27597 
L 57.282364 96.70631 
L 59.774852 102.34948 
L 62.267341 107.868357 
L 64.759832 113.314105 
L 67.252321 117.808526 
L 69.744809 122.49254 
L 72.237301 126.670001 
L 74.72979 129.696151 
L 77.222281 132.874251 
L 79.714767 135.069117 
L 82.207258 136.851054 
L 84.699744 141.090746 
L 87.192235 143.767674 
L 89.684727 145.556359 
L 92.177213 146.935636 
L 94.669704 147.478524 
L 97.162196 147.090819 
L 99.654681 146.03676 
L 102.147173 145.064145 
L 104.639664 143.193737 
L 107.13215 141.430673 
L 109.624642 139.39835 
L 112.117133 137.275009 
L 114.609619 134.896227 
L 117.10211 132.995936 
L 119.594602 131.052721 
L 122.087088 129.008514 
L 124.579579 126.807109 
L 127.072071 127.053705 
L 129.564562 127.331667 
L 132.057042 127.776474 
L 134.549533 128.092169 
L 137.042025 128.413147 
L 139.534517 128.920981 
L 142.027008 129.51499 
L 144.519488 129.901345 
L 147.011979 130.059786 
L 149.504471 130.106081 
L 151.996962 130.086461 
L 154.489454 129.844601 
L 156.981946 129.641942 
L 159.474425 129.27314 
L 161.966917 129.103343 
L 164.459408 128.846761 
L 166.9519 128.480093 
L 169.444391 128.196472 
L 171.936883 128.467094 
L 174.429363 128.774998 
L 176.921854 128.855584 
L 179.414346 131.342436 
L 181.906837 134.199195 
L 184.399329 137.011752 
L 186.891809 139.86991 
L 189.3843 142.452608 
L 191.876792 145.707936 
L 194.369283 148.547178 
L 196.861775 151.909551 
L 199.354266 154.659565 
L 201.846746 156.878585 
L 204.339238 159.472825 
L 206.831729 161.614734 
L 209.324221 163.383429 
L 211.816712 164.658612 
L 214.309204 169.177346 
L 216.801684 173.71649 
L 219.294175 178.461002 
L 221.786667 183.654545 
L 221.786667 183.654545 
L 221.786667 167.923321 
L 219.294175 168.142913 
L 216.801684 167.21626 
L 214.309204 165.95613 
L 211.816712 164.658612 
L 209.324221 160.399412 
L 206.831729 156.260714 
L 204.339238 152.504059 
L 201.846746 148.799374 
L 199.354266 145.534008 
L 196.861775 142.382792 
L 194.369283 139.163933 
L 191.876792 136.936063 
L 189.3843 134.690012 
L 186.891809 133.171824 
L 184.399329 131.724118 
L 181.906837 130.52181 
L 179.414346 129.318295 
L 176.921854 128.855584 
L 174.429363 126.722215 
L 171.936883 124.634949 
L 169.444391 122.66867 
L 166.9519 121.420359 
L 164.459408 120.284531 
L 161.966917 119.506433 
L 159.474425 118.404422 
L 156.981946 118.128218 
L 154.489454 117.838499 
L 151.996962 117.66484 
L 149.504471 117.235248 
L 147.011979 117.727853 
L 144.519488 118.167527 
L 142.027008 118.692494 
L 139.534517 119.402391 
L 137.042025 120.293053 
L 134.549533 121.402232 
L 132.057042 122.605632 
L 129.564562 124.013204 
L 127.072071 125.331462 
L 124.579579 126.807109 
L 122.087088 126.609435 
L 119.594602 126.941388 
L 117.10211 127.360229 
L 114.609619 127.3258 
L 112.117133 127.981425 
L 109.624642 128.680769 
L 107.13215 129.891742 
L 104.639664 130.852087 
L 102.147173 132.521756 
L 99.654681 133.884345 
L 97.162196 135.203958 
L 94.669704 136.603337 
L 92.177213 137.477075 
L 89.684727 137.814702 
L 87.192235 138.045886 
L 84.699744 137.511819 
L 82.207258 136.851054 
L 79.714767 131.431329 
L 77.222281 125.594895 
L 74.72979 119.566135 
L 72.237301 112.755854 
L 69.744809 104.532728 
L 67.252321 97.649879 
L 64.759832 92.765684 
L 62.267341 86.806441 
L 59.774852 84.436885 
L 57.282364 82.089 
L 54.789872 78.951508 
L 52.297383 77.908042 
L 49.804895 79.046133 
L 47.312405 73.481801 
L 44.819916 67.964452 
L 42.327426 62.462465 
L 39.834936 57.548027 
L 37.342447 52.119013 
L 34.849958 47.893116 
L 32.357468 43.85846 
L 29.864979 40.475939 
L 27.37249 36.689798 
L 24.88 34.345455 
z
" clip-path="url(#p02e413c1e4)" style="fill: #1f77b4; fill-opacity: 0.3"/>
   </g>
   <g id="matplotlib.axis_1">
    <g id="text_1">
     <!-- x -->
     <g transform="translate(120.373958 202.718437) scale(0.1 -0.1)">
      <defs>
       <path id="DejaVuSans-78" d="M 3513 3500 
L 2247 1797 
L 3578 0 
L 2900 0 
L 1881 1375 
L 863 0 
L 184 0 
L 1544 1831 
L 300 3500 
L 978 3500 
L 1906 2253 
L 2834 3500 
L 3513 3500 
z
" transform="scale(0.015625)"/>
      </defs>
      <use xlink:href="#DejaVuSans-78"/>
     </g>
    </g>
   </g>
   <g id="matplotlib.axis_2">
    <g id="text_2">
     <!-- f(x) -->
     <g transform="translate(18.800312 117.621094) rotate(-90) scale(0.1 -0.1)">
      <defs>
       <path id="DejaVuSans-66" d="M 2375 4863 
L 2375 4384 
L 1825 4384 
Q 1516 4384 1395 4259 
Q 1275 4134 1275 3809 
L 1275 3500 
L 2222 3500 
L 2222 3053 
L 1275 3053 
L 1275 0 
L 697 0 
L 697 3053 
L 147 3053 
L 147 3500 
L 697 3500 
L 697 3744 
Q 697 4328 969 4595 
Q 1241 4863 1831 4863 
L 2375 4863 
z
" transform="scale(0.015625)"/>
       <path id="DejaVuSans-28" d="M 1984 4856 
Q 1566 4138 1362 3434 
Q 1159 2731 1159 2009 
Q 1159 1288 1364 580 
Q 1569 -128 1984 -844 
L 1484 -844 
Q 1016 -109 783 600 
Q 550 1309 550 2009 
Q 550 2706 781 3412 
Q 1013 4119 1484 4856 
L 1984 4856 
z
" transform="scale(0.015625)"/>
       <path id="DejaVuSans-29" d="M 513 4856 
L 1013 4856 
Q 1481 4119 1714 3412 
Q 1947 2706 1947 2009 
Q 1947 1309 1714 600 
Q 1481 -109 1013 -844 
L 513 -844 
Q 928 -128 1133 580 
Q 1338 1288 1338 2009 
Q 1338 2731 1133 3434 
Q 928 4138 513 4856 
z
" transform="scale(0.015625)"/>
      </defs>
      <use xlink:href="#DejaVuSans-66"/>
      <use xlink:href="#DejaVuSans-28" x="35.205078"/>
      <use xlink:href="#DejaVuSans-78" x="74.21875"/>
      <use xlink:href="#DejaVuSans-29" x="133.398438"/>
     </g>
    </g>
   </g>
   <g id="line2d_1">
    <path d="M 24.88 48.720227 
L 27.37249 50.733393 
L 29.864979 52.494778 
L 32.357468 55.14619 
L 34.849958 57.719545 
L 37.342447 61.507859 
L 39.834936 64.686677 
L 42.327426 68.486369 
L 44.819916 72.538712 
L 47.312405 76.730982 
L 49.804895 80.925096 
L 52.297383 85.377656 
L 54.789872 90.096684 
L 57.282364 95.293425 
L 59.774852 99.764316 
L 62.267341 104.664754 
L 64.759832 109.265784 
L 67.252321 114.1511 
L 69.744809 118.419535 
L 72.237301 123.137505 
L 74.72979 127.385338 
L 77.222281 131.383784 
L 79.714767 134.920729 
L 82.207258 137.808041 
L 84.699744 141.126566 
L 87.192235 143.409728 
L 89.684727 145.097982 
L 92.177213 146.913834 
L 94.669704 147.786207 
L 97.162196 148.522761 
L 99.654681 148.228801 
L 102.147173 147.47647 
L 104.639664 146.893818 
L 107.13215 145.197851 
L 109.624642 143.025815 
L 112.117133 140.466263 
L 114.609619 137.726915 
L 117.10211 135.13715 
L 119.594602 131.23457 
L 122.087088 128.07506 
L 124.579579 124.662257 
L 127.072071 121.111276 
L 129.564562 117.498288 
L 132.057042 113.890295 
L 134.549533 111.019145 
L 137.042025 108.03439 
L 139.534517 105.238433 
L 142.027008 103.257355 
L 144.519488 101.781404 
L 147.011979 100.197344 
L 149.504471 99.824043 
L 151.996962 99.446543 
L 154.489454 99.998055 
L 156.981946 101.049919 
L 159.474425 102.902821 
L 161.966917 104.850651 
L 164.459408 107.36445 
L 166.9519 111.111476 
L 169.444391 114.962073 
L 171.936883 118.763785 
L 174.429363 123.076152 
L 176.921854 127.754841 
L 179.414346 132.571662 
L 181.906837 137.291643 
L 184.399329 142.063916 
L 186.891809 146.43734 
L 189.3843 150.87036 
L 191.876792 154.631581 
L 194.369283 158.11942 
L 196.861775 160.95152 
L 199.354266 163.489026 
L 201.846746 164.638016 
L 204.339238 166.062183 
L 206.831729 166.449881 
L 209.324221 165.897592 
L 211.816712 164.749831 
L 214.309204 163.010562 
L 216.801684 160.615636 
L 219.294175 157.555406 
L 221.786667 153.907888 
" clip-path="url(#p02e413c1e4)" style="fill: none; stroke: #ffa500; stroke-width: 1.5; stroke-linecap: square"/>
   </g>
   <g id="line2d_2">
    <path d="M 24.88 67.324041 
L 27.37249 66.039699 
L 29.864979 65.898155 
L 32.357468 65.985359 
L 34.849958 66.290228 
L 37.342447 66.897202 
L 39.834936 68.863047 
L 42.327426 70.399192 
L 44.819916 72.906441 
L 47.312405 75.70896 
L 49.804895 79.046133 
L 52.297383 82.669791 
L 54.789872 86.833486 
L 57.282364 91.972303 
L 59.774852 96.841488 
L 62.267341 101.771108 
L 64.759832 107.389297 
L 67.252321 111.832248 
L 69.744809 117.125122 
L 72.237301 122.269421 
L 74.72979 126.487608 
L 77.222281 130.5823 
L 79.714767 133.875083 
L 82.207258 136.851054 
L 84.699744 138.68186 
L 87.192235 139.961346 
L 89.684727 140.412237 
L 92.177213 140.746643 
L 94.669704 140.481588 
L 97.162196 139.618404 
L 99.654681 138.675593 
L 102.147173 137.614818 
L 104.639664 136.053816 
L 107.13215 134.895084 
L 109.624642 133.332474 
L 112.117133 132.170793 
L 114.609619 130.912599 
L 117.10211 130.075872 
L 119.594602 128.902932 
L 122.087088 127.80151 
L 124.579579 126.807109 
L 127.072071 126.248234 
L 129.564562 125.82721 
L 132.057042 125.522904 
L 134.549533 125.055376 
L 137.042025 124.88374 
L 139.534517 124.6738 
L 142.027008 124.596263 
L 144.519488 124.718794 
L 147.011979 124.515665 
L 149.504471 124.309607 
L 151.996962 124.303317 
L 154.489454 124.297993 
L 156.981946 124.26566 
L 159.474425 124.202612 
L 161.966917 124.656874 
L 164.459408 124.909255 
L 166.9519 125.253364 
L 169.444391 125.717092 
L 171.936883 126.7864 
L 174.429363 127.85551 
L 176.921854 128.855584 
L 179.414346 130.252653 
L 181.906837 132.143075 
L 184.399329 134.064131 
L 186.891809 136.165399 
L 189.3843 138.199329 
L 191.876792 140.811886 
L 194.369283 143.358034 
L 196.861775 146.635756 
L 199.354266 149.502172 
L 201.846746 152.266648 
L 204.339238 155.416537 
L 206.831729 158.540099 
L 209.324221 161.659349 
L 211.816712 164.658612 
L 214.309204 167.598319 
L 216.801684 170.463475 
L 219.294175 173.293415 
L 221.786667 175.620777 
" clip-path="url(#p02e413c1e4)" style="fill: none; stroke: #1f77b4; stroke-width: 1.5; stroke-linecap: square"/>
   </g>
   <g id="patch_3">
    <path d="M 24.88 191.12 
L 24.88 26.88 
" style="fill: none; stroke: #000000; stroke-width: 0.8; stroke-linejoin: miter; stroke-linecap: square"/>
   </g>
   <g id="patch_4">
    <path d="M 221.786667 191.12 
L 221.786667 26.88 
" style="fill: none; stroke: #000000; stroke-width: 0.8; stroke-linejoin: miter; stroke-linecap: square"/>
   </g>
   <g id="patch_5">
    <path d="M 24.88 191.12 
L 221.786667 191.12 
" style="fill: none; stroke: #000000; stroke-width: 0.8; stroke-linejoin: miter; stroke-linecap: square"/>
   </g>
   <g id="patch_6">
    <path d="M 24.88 26.88 
L 221.786667 26.88 
" style="fill: none; stroke: #000000; stroke-width: 0.8; stroke-linejoin: miter; stroke-linecap: square"/>
   </g>
   <g id="text_3">
    <!-- inference: 5 points -->
    <g transform="translate(67.163021 20.88) scale(0.12 -0.12)">
     <defs>
      <path id="DejaVuSans-69" d="M 603 3500 
L 1178 3500 
L 1178 0 
L 603 0 
L 603 3500 
z
M 603 4863 
L 1178 4863 
L 1178 4134 
L 603 4134 
L 603 4863 
z
" transform="scale(0.015625)"/>
      <path id="DejaVuSans-6e" d="M 3513 2113 
L 3513 0 
L 2938 0 
L 2938 2094 
Q 2938 2591 2744 2837 
Q 2550 3084 2163 3084 
Q 1697 3084 1428 2787 
Q 1159 2491 1159 1978 
L 1159 0 
L 581 0 
L 581 3500 
L 1159 3500 
L 1159 2956 
Q 1366 3272 1645 3428 
Q 1925 3584 2291 3584 
Q 2894 3584 3203 3211 
Q 3513 2838 3513 2113 
z
" transform="scale(0.015625)"/>
      <path id="DejaVuSans-65" d="M 3597 1894 
L 3597 1613 
L 953 1613 
Q 991 1019 1311 708 
Q 1631 397 2203 397 
Q 2534 397 2845 478 
Q 3156 559 3463 722 
L 3463 178 
Q 3153 47 2828 -22 
Q 2503 -91 2169 -91 
Q 1331 -91 842 396 
Q 353 884 353 1716 
Q 353 2575 817 3079 
Q 1281 3584 2069 3584 
Q 2775 3584 3186 3129 
Q 3597 2675 3597 1894 
z
M 3022 2063 
Q 3016 2534 2758 2815 
Q 2500 3097 2075 3097 
Q 1594 3097 1305 2825 
Q 1016 2553 972 2059 
L 3022 2063 
z
" transform="scale(0.015625)"/>
      <path id="DejaVuSans-72" d="M 2631 2963 
Q 2534 3019 2420 3045 
Q 2306 3072 2169 3072 
Q 1681 3072 1420 2755 
Q 1159 2438 1159 1844 
L 1159 0 
L 581 0 
L 581 3500 
L 1159 3500 
L 1159 2956 
Q 1341 3275 1631 3429 
Q 1922 3584 2338 3584 
Q 2397 3584 2469 3576 
Q 2541 3569 2628 3553 
L 2631 2963 
z
" transform="scale(0.015625)"/>
      <path id="DejaVuSans-63" d="M 3122 3366 
L 3122 2828 
Q 2878 2963 2633 3030 
Q 2388 3097 2138 3097 
Q 1578 3097 1268 2742 
Q 959 2388 959 1747 
Q 959 1106 1268 751 
Q 1578 397 2138 397 
Q 2388 397 2633 464 
Q 2878 531 3122 666 
L 3122 134 
Q 2881 22 2623 -34 
Q 2366 -91 2075 -91 
Q 1284 -91 818 406 
Q 353 903 353 1747 
Q 353 2603 823 3093 
Q 1294 3584 2113 3584 
Q 2378 3584 2631 3529 
Q 2884 3475 3122 3366 
z
" transform="scale(0.015625)"/>
      <path id="DejaVuSans-3a" d="M 750 794 
L 1409 794 
L 1409 0 
L 750 0 
L 750 794 
z
M 750 3309 
L 1409 3309 
L 1409 2516 
L 750 2516 
L 750 3309 
z
" transform="scale(0.015625)"/>
      <path id="DejaVuSans-20" transform="scale(0.015625)"/>
      <path id="DejaVuSans-35" d="M 691 4666 
L 3169 4666 
L 3169 4134 
L 1269 4134 
L 1269 2991 
Q 1406 3038 1543 3061 
Q 1681 3084 1819 3084 
Q 2600 3084 3056 2656 
Q 3513 2228 3513 1497 
Q 3513 744 3044 326 
Q 2575 -91 1722 -91 
Q 1428 -91 1123 -41 
Q 819 9 494 109 
L 494 744 
Q 775 591 1075 516 
Q 1375 441 1709 441 
Q 2250 441 2565 725 
Q 2881 1009 2881 1497 
Q 2881 1984 2565 2268 
Q 2250 2553 1709 2553 
Q 1456 2553 1204 2497 
Q 953 2441 691 2322 
L 691 4666 
z
" transform="scale(0.015625)"/>
      <path id="DejaVuSans-70" d="M 1159 525 
L 1159 -1331 
L 581 -1331 
L 581 3500 
L 1159 3500 
L 1159 2969 
Q 1341 3281 1617 3432 
Q 1894 3584 2278 3584 
Q 2916 3584 3314 3078 
Q 3713 2572 3713 1747 
Q 3713 922 3314 415 
Q 2916 -91 2278 -91 
Q 1894 -91 1617 61 
Q 1341 213 1159 525 
z
M 3116 1747 
Q 3116 2381 2855 2742 
Q 2594 3103 2138 3103 
Q 1681 3103 1420 2742 
Q 1159 2381 1159 1747 
Q 1159 1113 1420 752 
Q 1681 391 2138 391 
Q 2594 391 2855 752 
Q 3116 1113 3116 1747 
z
" transform="scale(0.015625)"/>
      <path id="DejaVuSans-6f" d="M 1959 3097 
Q 1497 3097 1228 2736 
Q 959 2375 959 1747 
Q 959 1119 1226 758 
Q 1494 397 1959 397 
Q 2419 397 2687 759 
Q 2956 1122 2956 1747 
Q 2956 2369 2687 2733 
Q 2419 3097 1959 3097 
z
M 1959 3584 
Q 2709 3584 3137 3096 
Q 3566 2609 3566 1747 
Q 3566 888 3137 398 
Q 2709 -91 1959 -91 
Q 1206 -91 779 398 
Q 353 888 353 1747 
Q 353 2609 779 3096 
Q 1206 3584 1959 3584 
z
" transform="scale(0.015625)"/>
      <path id="DejaVuSans-74" d="M 1172 4494 
L 1172 3500 
L 2356 3500 
L 2356 3053 
L 1172 3053 
L 1172 1153 
Q 1172 725 1289 603 
Q 1406 481 1766 481 
L 2356 481 
L 2356 0 
L 1766 0 
Q 1100 0 847 248 
Q 594 497 594 1153 
L 594 3053 
L 172 3053 
L 172 3500 
L 594 3500 
L 594 4494 
L 1172 4494 
z
" transform="scale(0.015625)"/>
      <path id="DejaVuSans-73" d="M 2834 3397 
L 2834 2853 
Q 2591 2978 2328 3040 
Q 2066 3103 1784 3103 
Q 1356 3103 1142 2972 
Q 928 2841 928 2578 
Q 928 2378 1081 2264 
Q 1234 2150 1697 2047 
L 1894 2003 
Q 2506 1872 2764 1633 
Q 3022 1394 3022 966 
Q 3022 478 2636 193 
Q 2250 -91 1575 -91 
Q 1294 -91 989 -36 
Q 684 19 347 128 
L 347 722 
Q 666 556 975 473 
Q 1284 391 1588 391 
Q 1994 391 2212 530 
Q 2431 669 2431 922 
Q 2431 1156 2273 1281 
Q 2116 1406 1581 1522 
L 1381 1569 
Q 847 1681 609 1914 
Q 372 2147 372 2553 
Q 372 3047 722 3315 
Q 1072 3584 1716 3584 
Q 2034 3584 2315 3537 
Q 2597 3491 2834 3397 
z
" transform="scale(0.015625)"/>
     </defs>
     <use xlink:href="#DejaVuSans-69"/>
     <use xlink:href="#DejaVuSans-6e" x="27.783203"/>
     <use xlink:href="#DejaVuSans-66" x="91.162109"/>
     <use xlink:href="#DejaVuSans-65" x="126.367188"/>
     <use xlink:href="#DejaVuSans-72" x="187.890625"/>
     <use xlink:href="#DejaVuSans-65" x="226.753906"/>
     <use xlink:href="#DejaVuSans-6e" x="288.277344"/>
     <use xlink:href="#DejaVuSans-63" x="351.65625"/>
     <use xlink:href="#DejaVuSans-65" x="406.636719"/>
     <use xlink:href="#DejaVuSans-3a" x="468.160156"/>
     <use xlink:href="#DejaVuSans-20" x="501.851562"/>
     <use xlink:href="#DejaVuSans-35" x="533.638672"/>
     <use xlink:href="#DejaVuSans-20" x="597.261719"/>
     <use xlink:href="#DejaVuSans-70" x="629.048828"/>
     <use xlink:href="#DejaVuSans-6f" x="692.525391"/>
     <use xlink:href="#DejaVuSans-69" x="753.707031"/>
     <use xlink:href="#DejaVuSans-6e" x="781.490234"/>
     <use xlink:href="#DejaVuSans-74" x="844.869141"/>
     <use xlink:href="#DejaVuSans-73" x="884.078125"/>
    </g>
   </g>
   <g id="legend_1">
    <g id="patch_7">
     <path d="M 129.201823 73.57875 
L 216.886667 73.57875 
Q 218.286667 73.57875 218.286667 72.17875 
L 218.286667 31.78 
Q 218.286667 30.38 216.886667 30.38 
L 129.201823 30.38 
Q 127.801823 30.38 127.801823 31.78 
L 127.801823 72.17875 
Q 127.801823 73.57875 129.201823 73.57875 
z
" style="fill: #ffffff; opacity: 0.8; stroke: #cccccc; stroke-linejoin: miter"/>
    </g>
    <g id="line2d_3">
     <path d="M 130.601823 36.048906 
L 137.601823 36.048906 
L 144.601823 36.048906 
" style="fill: none; stroke: #ffa500; stroke-width: 1.5; stroke-linecap: square"/>
    </g>
    <g id="text_4">
     <!-- ground truth -->
     <g transform="translate(150.201823 38.498906) scale(0.07 -0.07)">
      <defs>
       <path id="DejaVuSans-67" d="M 2906 1791 
Q 2906 2416 2648 2759 
Q 2391 3103 1925 3103 
Q 1463 3103 1205 2759 
Q 947 2416 947 1791 
Q 947 1169 1205 825 
Q 1463 481 1925 481 
Q 2391 481 2648 825 
Q 2906 1169 2906 1791 
z
M 3481 434 
Q 3481 -459 3084 -895 
Q 2688 -1331 1869 -1331 
Q 1566 -1331 1297 -1286 
Q 1028 -1241 775 -1147 
L 775 -588 
Q 1028 -725 1275 -790 
Q 1522 -856 1778 -856 
Q 2344 -856 2625 -561 
Q 2906 -266 2906 331 
L 2906 616 
Q 2728 306 2450 153 
Q 2172 0 1784 0 
Q 1141 0 747 490 
Q 353 981 353 1791 
Q 353 2603 747 3093 
Q 1141 3584 1784 3584 
Q 2172 3584 2450 3431 
Q 2728 3278 2906 2969 
L 2906 3500 
L 3481 3500 
L 3481 434 
z
" transform="scale(0.015625)"/>
       <path id="DejaVuSans-75" d="M 544 1381 
L 544 3500 
L 1119 3500 
L 1119 1403 
Q 1119 906 1312 657 
Q 1506 409 1894 409 
Q 2359 409 2629 706 
Q 2900 1003 2900 1516 
L 2900 3500 
L 3475 3500 
L 3475 0 
L 2900 0 
L 2900 538 
Q 2691 219 2414 64 
Q 2138 -91 1772 -91 
Q 1169 -91 856 284 
Q 544 659 544 1381 
z
M 1991 3584 
L 1991 3584 
z
" transform="scale(0.015625)"/>
       <path id="DejaVuSans-64" d="M 2906 2969 
L 2906 4863 
L 3481 4863 
L 3481 0 
L 2906 0 
L 2906 525 
Q 2725 213 2448 61 
Q 2172 -91 1784 -91 
Q 1150 -91 751 415 
Q 353 922 353 1747 
Q 353 2572 751 3078 
Q 1150 3584 1784 3584 
Q 2172 3584 2448 3432 
Q 2725 3281 2906 2969 
z
M 947 1747 
Q 947 1113 1208 752 
Q 1469 391 1925 391 
Q 2381 391 2643 752 
Q 2906 1113 2906 1747 
Q 2906 2381 2643 2742 
Q 2381 3103 1925 3103 
Q 1469 3103 1208 2742 
Q 947 2381 947 1747 
z
" transform="scale(0.015625)"/>
       <path id="DejaVuSans-68" d="M 3513 2113 
L 3513 0 
L 2938 0 
L 2938 2094 
Q 2938 2591 2744 2837 
Q 2550 3084 2163 3084 
Q 1697 3084 1428 2787 
Q 1159 2491 1159 1978 
L 1159 0 
L 581 0 
L 581 4863 
L 1159 4863 
L 1159 2956 
Q 1366 3272 1645 3428 
Q 1925 3584 2291 3584 
Q 2894 3584 3203 3211 
Q 3513 2838 3513 2113 
z
" transform="scale(0.015625)"/>
      </defs>
      <use xlink:href="#DejaVuSans-67"/>
      <use xlink:href="#DejaVuSans-72" x="63.476562"/>
      <use xlink:href="#DejaVuSans-6f" x="102.339844"/>
      <use xlink:href="#DejaVuSans-75" x="163.521484"/>
      <use xlink:href="#DejaVuSans-6e" x="226.900391"/>
      <use xlink:href="#DejaVuSans-64" x="290.279297"/>
      <use xlink:href="#DejaVuSans-20" x="353.755859"/>
      <use xlink:href="#DejaVuSans-74" x="385.542969"/>
      <use xlink:href="#DejaVuSans-72" x="424.751953"/>
      <use xlink:href="#DejaVuSans-75" x="465.865234"/>
      <use xlink:href="#DejaVuSans-74" x="529.244141"/>
      <use xlink:href="#DejaVuSans-68" x="568.453125"/>
     </g>
    </g>
    <g id="PathCollection_2">
     <g>
      <use xlink:href="#mea4f3a6869" x="137.601823" y="46.936094" style="fill: #ff0000; stroke: #ff0000"/>
     </g>
    </g>
    <g id="text_5">
     <!-- observed -->
     <g transform="translate(150.201823 48.773594) scale(0.07 -0.07)">
      <defs>
       <path id="DejaVuSans-62" d="M 3116 1747 
Q 3116 2381 2855 2742 
Q 2594 3103 2138 3103 
Q 1681 3103 1420 2742 
Q 1159 2381 1159 1747 
Q 1159 1113 1420 752 
Q 1681 391 2138 391 
Q 2594 391 2855 752 
Q 3116 1113 3116 1747 
z
M 1159 2969 
Q 1341 3281 1617 3432 
Q 1894 3584 2278 3584 
Q 2916 3584 3314 3078 
Q 3713 2572 3713 1747 
Q 3713 922 3314 415 
Q 2916 -91 2278 -91 
Q 1894 -91 1617 61 
Q 1341 213 1159 525 
L 1159 0 
L 581 0 
L 581 4863 
L 1159 4863 
L 1159 2969 
z
" transform="scale(0.015625)"/>
       <path id="DejaVuSans-76" d="M 191 3500 
L 800 3500 
L 1894 563 
L 2988 3500 
L 3597 3500 
L 2284 0 
L 1503 0 
L 191 3500 
z
" transform="scale(0.015625)"/>
      </defs>
      <use xlink:href="#DejaVuSans-6f"/>
      <use xlink:href="#DejaVuSans-62" x="61.181641"/>
      <use xlink:href="#DejaVuSans-73" x="124.658203"/>
      <use xlink:href="#DejaVuSans-65" x="176.757812"/>
      <use xlink:href="#DejaVuSans-72" x="238.28125"/>
      <use xlink:href="#DejaVuSans-76" x="279.394531"/>
      <use xlink:href="#DejaVuSans-65" x="338.574219"/>
      <use xlink:href="#DejaVuSans-64" x="400.097656"/>
     </g>
    </g>
    <g id="line2d_4">
     <path d="M 130.601823 56.598281 
L 137.601823 56.598281 
L 144.601823 56.598281 
" style="fill: none; stroke: #1f77b4; stroke-width: 1.5; stroke-linecap: square"/>
    </g>
    <g id="text_6">
     <!-- predicted mean -->
     <g transform="translate(150.201823 59.048281) scale(0.07 -0.07)">
      <defs>
       <path id="DejaVuSans-6d" d="M 3328 2828 
Q 3544 3216 3844 3400 
Q 4144 3584 4550 3584 
Q 5097 3584 5394 3201 
Q 5691 2819 5691 2113 
L 5691 0 
L 5113 0 
L 5113 2094 
Q 5113 2597 4934 2840 
Q 4756 3084 4391 3084 
Q 3944 3084 3684 2787 
Q 3425 2491 3425 1978 
L 3425 0 
L 2847 0 
L 2847 2094 
Q 2847 2600 2669 2842 
Q 2491 3084 2119 3084 
Q 1678 3084 1418 2786 
Q 1159 2488 1159 1978 
L 1159 0 
L 581 0 
L 581 3500 
L 1159 3500 
L 1159 2956 
Q 1356 3278 1631 3431 
Q 1906 3584 2284 3584 
Q 2666 3584 2933 3390 
Q 3200 3197 3328 2828 
z
" transform="scale(0.015625)"/>
       <path id="DejaVuSans-61" d="M 2194 1759 
Q 1497 1759 1228 1600 
Q 959 1441 959 1056 
Q 959 750 1161 570 
Q 1363 391 1709 391 
Q 2188 391 2477 730 
Q 2766 1069 2766 1631 
L 2766 1759 
L 2194 1759 
z
M 3341 1997 
L 3341 0 
L 2766 0 
L 2766 531 
Q 2569 213 2275 61 
Q 1981 -91 1556 -91 
Q 1019 -91 701 211 
Q 384 513 384 1019 
Q 384 1609 779 1909 
Q 1175 2209 1959 2209 
L 2766 2209 
L 2766 2266 
Q 2766 2663 2505 2880 
Q 2244 3097 1772 3097 
Q 1472 3097 1187 3025 
Q 903 2953 641 2809 
L 641 3341 
Q 956 3463 1253 3523 
Q 1550 3584 1831 3584 
Q 2591 3584 2966 3190 
Q 3341 2797 3341 1997 
z
" transform="scale(0.015625)"/>
      </defs>
      <use xlink:href="#DejaVuSans-70"/>
      <use xlink:href="#DejaVuSans-72" x="63.476562"/>
      <use xlink:href="#DejaVuSans-65" x="102.339844"/>
      <use xlink:href="#DejaVuSans-64" x="163.863281"/>
      <use xlink:href="#DejaVuSans-69" x="227.339844"/>
      <use xlink:href="#DejaVuSans-63" x="255.123047"/>
      <use xlink:href="#DejaVuSans-74" x="310.103516"/>
      <use xlink:href="#DejaVuSans-65" x="349.3125"/>
      <use xlink:href="#DejaVuSans-64" x="410.835938"/>
      <use xlink:href="#DejaVuSans-20" x="474.3125"/>
      <use xlink:href="#DejaVuSans-6d" x="506.099609"/>
      <use xlink:href="#DejaVuSans-65" x="603.511719"/>
      <use xlink:href="#DejaVuSans-61" x="665.035156"/>
      <use xlink:href="#DejaVuSans-6e" x="726.314453"/>
     </g>
    </g>
    <g id="patch_8">
     <path d="M 130.601823 69.322969 
L 144.601823 69.322969 
L 144.601823 64.422969 
L 130.601823 64.422969 
z
" style="fill: #1f77b4; fill-opacity: 0.3"/>
    </g>
    <g id="text_7">
     <!-- posterior: 95% BCI -->
     <g transform="translate(150.201823 69.322969) scale(0.07 -0.07)">
      <defs>
       <path id="DejaVuSans-39" d="M 703 97 
L 703 672 
Q 941 559 1184 500 
Q 1428 441 1663 441 
Q 2288 441 2617 861 
Q 2947 1281 2994 2138 
Q 2813 1869 2534 1725 
Q 2256 1581 1919 1581 
Q 1219 1581 811 2004 
Q 403 2428 403 3163 
Q 403 3881 828 4315 
Q 1253 4750 1959 4750 
Q 2769 4750 3195 4129 
Q 3622 3509 3622 2328 
Q 3622 1225 3098 567 
Q 2575 -91 1691 -91 
Q 1453 -91 1209 -44 
Q 966 3 703 97 
z
M 1959 2075 
Q 2384 2075 2632 2365 
Q 2881 2656 2881 3163 
Q 2881 3666 2632 3958 
Q 2384 4250 1959 4250 
Q 1534 4250 1286 3958 
Q 1038 3666 1038 3163 
Q 1038 2656 1286 2365 
Q 1534 2075 1959 2075 
z
" transform="scale(0.015625)"/>
       <path id="DejaVuSans-25" d="M 4653 2053 
Q 4381 2053 4226 1822 
Q 4072 1591 4072 1178 
Q 4072 772 4226 539 
Q 4381 306 4653 306 
Q 4919 306 5073 539 
Q 5228 772 5228 1178 
Q 5228 1588 5073 1820 
Q 4919 2053 4653 2053 
z
M 4653 2450 
Q 5147 2450 5437 2106 
Q 5728 1763 5728 1178 
Q 5728 594 5436 251 
Q 5144 -91 4653 -91 
Q 4153 -91 3862 251 
Q 3572 594 3572 1178 
Q 3572 1766 3864 2108 
Q 4156 2450 4653 2450 
z
M 1428 4353 
Q 1159 4353 1004 4120 
Q 850 3888 850 3481 
Q 850 3069 1003 2837 
Q 1156 2606 1428 2606 
Q 1700 2606 1854 2837 
Q 2009 3069 2009 3481 
Q 2009 3884 1853 4118 
Q 1697 4353 1428 4353 
z
M 4250 4750 
L 4750 4750 
L 1831 -91 
L 1331 -91 
L 4250 4750 
z
M 1428 4750 
Q 1922 4750 2215 4408 
Q 2509 4066 2509 3481 
Q 2509 2891 2217 2550 
Q 1925 2209 1428 2209 
Q 931 2209 642 2551 
Q 353 2894 353 3481 
Q 353 4063 643 4406 
Q 934 4750 1428 4750 
z
" transform="scale(0.015625)"/>
       <path id="DejaVuSans-42" d="M 1259 2228 
L 1259 519 
L 2272 519 
Q 2781 519 3026 730 
Q 3272 941 3272 1375 
Q 3272 1813 3026 2020 
Q 2781 2228 2272 2228 
L 1259 2228 
z
M 1259 4147 
L 1259 2741 
L 2194 2741 
Q 2656 2741 2882 2914 
Q 3109 3088 3109 3444 
Q 3109 3797 2882 3972 
Q 2656 4147 2194 4147 
L 1259 4147 
z
M 628 4666 
L 2241 4666 
Q 2963 4666 3353 4366 
Q 3744 4066 3744 3513 
Q 3744 3084 3544 2831 
Q 3344 2578 2956 2516 
Q 3422 2416 3680 2098 
Q 3938 1781 3938 1306 
Q 3938 681 3513 340 
Q 3088 0 2303 0 
L 628 0 
L 628 4666 
z
" transform="scale(0.015625)"/>
       <path id="DejaVuSans-43" d="M 4122 4306 
L 4122 3641 
Q 3803 3938 3442 4084 
Q 3081 4231 2675 4231 
Q 1875 4231 1450 3742 
Q 1025 3253 1025 2328 
Q 1025 1406 1450 917 
Q 1875 428 2675 428 
Q 3081 428 3442 575 
Q 3803 722 4122 1019 
L 4122 359 
Q 3791 134 3420 21 
Q 3050 -91 2638 -91 
Q 1578 -91 968 557 
Q 359 1206 359 2328 
Q 359 3453 968 4101 
Q 1578 4750 2638 4750 
Q 3056 4750 3426 4639 
Q 3797 4528 4122 4306 
z
" transform="scale(0.015625)"/>
       <path id="DejaVuSans-49" d="M 628 4666 
L 1259 4666 
L 1259 0 
L 628 0 
L 628 4666 
z
" transform="scale(0.015625)"/>
      </defs>
      <use xlink:href="#DejaVuSans-70"/>
      <use xlink:href="#DejaVuSans-6f" x="63.476562"/>
      <use xlink:href="#DejaVuSans-73" x="124.658203"/>
      <use xlink:href="#DejaVuSans-74" x="176.757812"/>
      <use xlink:href="#DejaVuSans-65" x="215.966797"/>
      <use xlink:href="#DejaVuSans-72" x="277.490234"/>
      <use xlink:href="#DejaVuSans-69" x="318.603516"/>
      <use xlink:href="#DejaVuSans-6f" x="346.386719"/>
      <use xlink:href="#DejaVuSans-72" x="407.568359"/>
      <use xlink:href="#DejaVuSans-3a" x="446.931641"/>
      <use xlink:href="#DejaVuSans-20" x="480.623047"/>
      <use xlink:href="#DejaVuSans-39" x="512.410156"/>
      <use xlink:href="#DejaVuSans-35" x="576.033203"/>
      <use xlink:href="#DejaVuSans-25" x="639.65625"/>
      <use xlink:href="#DejaVuSans-20" x="734.675781"/>
      <use xlink:href="#DejaVuSans-42" x="766.462891"/>
      <use xlink:href="#DejaVuSans-43" x="833.316406"/>
      <use xlink:href="#DejaVuSans-49" x="903.140625"/>
     </g>
    </g>
   </g>
  </g>
  <g id="axes_2">
   <g id="patch_9">
    <path d="M 232.586667 191.12 
L 429.493333 191.12 
L 429.493333 26.88 
L 232.586667 26.88 
z
" style="fill: #ffffff"/>
   </g>
   <g id="PathCollection_3">
    <g clip-path="url(#pd50751356c)">
     <use xlink:href="#mea4f3a6869" x="260.00405" y="71.302292" style="fill: #ff0000; stroke: #ff0000"/>
     <use xlink:href="#mea4f3a6869" x="289.913925" y="123.164611" style="fill: #ff0000; stroke: #ff0000"/>
     <use xlink:href="#mea4f3a6869" x="329.793754" y="111.527425" style="fill: #ff0000; stroke: #ff0000"/>
     <use xlink:href="#mea4f3a6869" x="357.211138" y="88.641656" style="fill: #ff0000; stroke: #ff0000"/>
     <use xlink:href="#mea4f3a6869" x="384.628521" y="115.106694" style="fill: #ff0000; stroke: #ff0000"/>
     <use xlink:href="#mea4f3a6869" x="412.045904" y="152.750484" style="fill: #ff0000; stroke: #ff0000"/>
    </g>
   </g>
   <g id="PolyCollection_2">
    <path d="M 232.586667 111.305824 
L 232.586667 111.305824 
L 235.079156 109.993344 
L 237.571646 103.591417 
L 240.064135 95.918033 
L 242.556625 92.358803 
L 245.049114 87.117334 
L 247.541603 78.701401 
L 250.034093 78.110645 
L 252.526583 73.948886 
L 255.019071 72.640408 
L 257.511561 71.765079 
L 260.00405 71.302292 
L 262.496539 75.188957 
L 264.98903 80.977471 
L 267.481519 86.251229 
L 269.974007 92.698928 
L 272.466499 97.270657 
L 274.958987 103.391533 
L 277.451476 108.010045 
L 279.943968 112.614441 
L 282.436456 117.185053 
L 284.928948 118.417646 
L 287.421433 121.025965 
L 289.913925 123.164611 
L 292.406411 125.872658 
L 294.898902 127.259251 
L 297.391394 129.478603 
L 299.883879 130.053214 
L 302.376371 129.626947 
L 304.868862 130.024664 
L 307.361348 128.683918 
L 309.85384 128.538356 
L 312.346331 126.528968 
L 314.838817 125.088704 
L 317.331308 123.553367 
L 319.8238 121.565942 
L 322.316286 119.118093 
L 324.808777 117.051007 
L 327.301269 114.122293 
L 329.793754 111.527425 
L 332.286246 109.562601 
L 334.778737 107.364482 
L 337.271229 104.965539 
L 339.763709 102.407323 
L 342.2562 100.618617 
L 344.748692 98.046674 
L 347.241183 95.777591 
L 349.733675 93.345653 
L 352.226155 91.532737 
L 354.718646 89.804283 
L 357.211138 88.641656 
L 359.703629 89.883082 
L 362.196121 90.387531 
L 364.688612 92.106713 
L 367.181092 94.208761 
L 369.673584 96.722421 
L 372.166075 99.390818 
L 374.658567 102.156828 
L 377.151058 105.304926 
L 379.64355 108.377022 
L 382.136029 111.697895 
L 384.628521 115.106694 
L 387.121013 122.5475 
L 389.613504 128.385396 
L 392.105996 130.556019 
L 394.598475 137.94671 
L 397.090967 151.453988 
L 399.583458 153.396415 
L 402.07595 155.936646 
L 404.568441 160.704955 
L 407.060933 160.80136 
L 409.553413 159.350293 
L 412.045904 152.750484 
L 414.538396 157.24032 
L 417.030887 162.716602 
L 419.523379 166.75971 
L 422.01587 171.856998 
L 424.50835 176.086896 
L 427.000842 178.436108 
L 429.493333 183.654545 
L 429.493333 183.654545 
L 429.493333 85.475108 
L 427.000842 93.883742 
L 424.50835 101.507022 
L 422.01587 110.20245 
L 419.523379 122.268916 
L 417.030887 138.805392 
L 414.538396 149.617036 
L 412.045904 152.750484 
L 409.553413 147.40369 
L 407.060933 143.03079 
L 404.568441 138.87183 
L 402.07595 134.538654 
L 399.583458 131.212775 
L 397.090967 128.141527 
L 394.598475 124.992057 
L 392.105996 122.70564 
L 389.613504 120.029056 
L 387.121013 117.840299 
L 384.628521 115.106694 
L 382.136029 109.517272 
L 379.64355 104.45904 
L 377.151058 99.974938 
L 374.658567 96.328057 
L 372.166075 93.408291 
L 369.673584 90.892912 
L 367.181092 89.364042 
L 364.688612 87.764977 
L 362.196121 87.283967 
L 359.703629 87.817817 
L 357.211138 88.641656 
L 354.718646 88.494094 
L 352.226155 88.55747 
L 349.733675 89.579661 
L 347.241183 90.902673 
L 344.748692 92.37197 
L 342.2562 95.130323 
L 339.763709 97.439358 
L 337.271229 100.639265 
L 334.778737 104.416493 
L 332.286246 107.696969 
L 329.793754 111.527425 
L 327.301269 112.668595 
L 324.808777 113.893811 
L 322.316286 114.904404 
L 319.8238 116.153236 
L 317.331308 117.300991 
L 314.838817 118.251429 
L 312.346331 118.797228 
L 309.85384 120.680813 
L 307.361348 121.09173 
L 304.868862 122.46767 
L 302.376371 122.387307 
L 299.883879 123.597427 
L 297.391394 124.553388 
L 294.898902 124.260743 
L 292.406411 123.902823 
L 289.913925 123.164611 
L 287.421433 117.039889 
L 284.928948 110.814535 
L 282.436456 104.428996 
L 279.943968 99.16508 
L 277.451476 92.189151 
L 274.958987 86.186168 
L 272.466499 79.083871 
L 269.974007 76.805679 
L 267.481519 73.966195 
L 264.98903 72.153561 
L 262.496539 70.94269 
L 260.00405 71.302292 
L 257.511561 67.563796 
L 255.019071 64.837127 
L 252.526583 62.332294 
L 250.034093 59.358785 
L 247.541603 58.41514 
L 245.049114 56.591513 
L 242.556625 55.263351 
L 240.064135 53.792194 
L 237.571646 53.560751 
L 235.079156 52.323344 
L 232.586667 53.212228 
z
" clip-path="url(#pd50751356c)" style="fill: #1f77b4; fill-opacity: 0.3"/>
   </g>
   <g id="matplotlib.axis_3"/>
   <g id="matplotlib.axis_4"/>
   <g id="line2d_5">
    <path d="M 232.586667 34.345455 
L 235.079156 36.374345 
L 237.571646 38.149486 
L 240.064135 40.821606 
L 242.556625 43.41506 
L 245.049114 47.232962 
L 247.541603 50.436608 
L 250.034093 54.265976 
L 252.526583 58.349969 
L 255.019071 62.574983 
L 257.511561 66.801854 
L 260.00405 71.28919 
L 262.496539 76.045075 
L 264.98903 81.282404 
L 267.481519 85.788214 
L 269.974007 90.726926 
L 272.466499 95.363892 
L 274.958987 100.287363 
L 277.451476 104.589136 
L 279.943968 109.343955 
L 282.436456 113.624965 
L 284.928948 117.65464 
L 287.421433 121.219209 
L 289.913925 124.129072 
L 292.406411 127.473516 
L 294.898902 129.77451 
L 297.391394 131.47595 
L 299.883879 133.305984 
L 302.376371 134.185171 
L 304.868862 134.927478 
L 307.361348 134.631222 
L 309.85384 133.873015 
L 312.346331 133.285812 
L 314.838817 131.576599 
L 317.331308 129.387599 
L 319.8238 126.808056 
L 322.316286 124.047313 
L 324.808777 121.437321 
L 327.301269 117.504261 
L 329.793754 114.320074 
L 332.286246 110.880616 
L 334.778737 107.3019 
L 337.271229 103.660694 
L 339.763709 100.024521 
L 342.2562 97.130947 
L 344.748692 94.12288 
L 347.241183 91.305086 
L 349.733675 89.308534 
L 352.226155 87.821056 
L 354.718646 86.224625 
L 357.211138 85.848407 
L 359.703629 85.467959 
L 362.196121 86.023778 
L 364.688612 87.083857 
L 367.181092 88.951232 
L 369.673584 90.914275 
L 372.166075 93.447708 
L 374.658567 97.223999 
L 377.151058 101.10467 
L 379.64355 104.936075 
L 382.136029 109.282123 
L 384.628521 113.997353 
L 387.121013 118.851795 
L 389.613504 123.608642 
L 392.105996 128.418187 
L 394.598475 132.825769 
L 397.090967 137.293412 
L 399.583458 141.08401 
L 402.07595 144.599089 
L 404.568441 147.453309 
L 407.060933 150.010634 
L 409.553413 151.168598 
L 412.045904 152.603888 
L 414.538396 152.994614 
L 417.030887 152.438012 
L 419.523379 151.281286 
L 422.01587 149.528433 
L 424.50835 147.114802 
L 427.000842 144.03067 
L 429.493333 140.354664 
" clip-path="url(#pd50751356c)" style="fill: none; stroke: #ffa500; stroke-width: 1.5; stroke-linecap: square"/>
   </g>
   <g id="line2d_6">
    <path d="M 232.586667 79.044086 
L 235.079156 74.270581 
L 237.571646 72.647386 
L 240.064135 69.33352 
L 242.556625 66.625146 
L 245.049114 65.686166 
L 247.541603 64.829561 
L 250.034093 65.373662 
L 252.526583 65.537356 
L 255.019071 66.907443 
L 257.511561 69.030488 
L 260.00405 71.302292 
L 262.496539 73.413742 
L 264.98903 77.28555 
L 267.481519 81.829029 
L 269.974007 86.23019 
L 272.466499 90.691297 
L 274.958987 96.927739 
L 277.451476 101.778661 
L 279.943968 106.930884 
L 282.436456 111.786493 
L 284.928948 115.09117 
L 287.421433 119.085859 
L 289.913925 123.164611 
L 292.406411 124.767928 
L 294.898902 126.002633 
L 297.391394 126.498549 
L 299.883879 126.464518 
L 302.376371 125.955632 
L 304.868862 125.799118 
L 307.361348 124.054777 
L 309.85384 123.229097 
L 312.346331 121.822398 
L 314.838817 119.995974 
L 317.331308 118.673025 
L 319.8238 117.437476 
L 322.316286 116.053002 
L 324.808777 114.884752 
L 327.301269 113.255212 
L 329.793754 111.527425 
L 332.286246 109.319865 
L 334.778737 106.314908 
L 337.271229 103.718331 
L 339.763709 100.829922 
L 342.2562 98.935628 
L 344.748692 96.441259 
L 347.241183 94.459758 
L 349.733675 92.016485 
L 352.226155 90.883277 
L 354.718646 89.496405 
L 357.211138 88.641656 
L 359.703629 88.336504 
L 362.196121 88.452514 
L 364.688612 89.616748 
L 367.181092 91.084564 
L 369.673584 92.722662 
L 372.166075 94.931561 
L 374.658567 98.347192 
L 377.151058 102.288696 
L 379.64355 105.832773 
L 382.136029 110.512741 
L 384.628521 115.106694 
L 387.121013 118.559578 
L 389.613504 121.91404 
L 392.105996 125.539359 
L 394.598475 128.482308 
L 397.090967 131.848471 
L 399.583458 135.75898 
L 402.07595 139.275392 
L 404.568441 142.482896 
L 407.060933 145.653415 
L 409.553413 149.270619 
L 412.045904 152.750484 
L 414.538396 154.815402 
L 417.030887 157.300521 
L 419.523379 158.750194 
L 422.01587 159.798079 
L 424.50835 160.360741 
L 427.000842 160.190443 
L 429.493333 159.448721 
" clip-path="url(#pd50751356c)" style="fill: none; stroke: #1f77b4; stroke-width: 1.5; stroke-linecap: square"/>
   </g>
   <g id="patch_10">
    <path d="M 232.586667 191.12 
L 232.586667 26.88 
" style="fill: none; stroke: #000000; stroke-width: 0.8; stroke-linejoin: miter; stroke-linecap: square"/>
   </g>
   <g id="patch_11">
    <path d="M 429.493333 191.12 
L 429.493333 26.88 
" style="fill: none; stroke: #000000; stroke-width: 0.8; stroke-linejoin: miter; stroke-linecap: square"/>
   </g>
   <g id="patch_12">
    <path d="M 232.586667 191.12 
L 429.493333 191.12 
" style="fill: none; stroke: #000000; stroke-width: 0.8; stroke-linejoin: miter; stroke-linecap: square"/>
   </g>
   <g id="patch_13">
    <path d="M 232.586667 26.88 
L 429.493333 26.88 
" style="fill: none; stroke: #000000; stroke-width: 0.8; stroke-linejoin: miter; stroke-linecap: square"/>
   </g>
   <g id="text_8">
    <!-- inference: 6 points -->
    <g transform="translate(274.869687 20.88) scale(0.12 -0.12)">
     <defs>
      <path id="DejaVuSans-36" d="M 2113 2584 
Q 1688 2584 1439 2293 
Q 1191 2003 1191 1497 
Q 1191 994 1439 701 
Q 1688 409 2113 409 
Q 2538 409 2786 701 
Q 3034 994 3034 1497 
Q 3034 2003 2786 2293 
Q 2538 2584 2113 2584 
z
M 3366 4563 
L 3366 3988 
Q 3128 4100 2886 4159 
Q 2644 4219 2406 4219 
Q 1781 4219 1451 3797 
Q 1122 3375 1075 2522 
Q 1259 2794 1537 2939 
Q 1816 3084 2150 3084 
Q 2853 3084 3261 2657 
Q 3669 2231 3669 1497 
Q 3669 778 3244 343 
Q 2819 -91 2113 -91 
Q 1303 -91 875 529 
Q 447 1150 447 2328 
Q 447 3434 972 4092 
Q 1497 4750 2381 4750 
Q 2619 4750 2861 4703 
Q 3103 4656 3366 4563 
z
" transform="scale(0.015625)"/>
     </defs>
     <use xlink:href="#DejaVuSans-69"/>
     <use xlink:href="#DejaVuSans-6e" x="27.783203"/>
     <use xlink:href="#DejaVuSans-66" x="91.162109"/>
     <use xlink:href="#DejaVuSans-65" x="126.367188"/>
     <use xlink:href="#DejaVuSans-72" x="187.890625"/>
     <use xlink:href="#DejaVuSans-65" x="226.753906"/>
     <use xlink:href="#DejaVuSans-6e" x="288.277344"/>
     <use xlink:href="#DejaVuSans-63" x="351.65625"/>
     <use xlink:href="#DejaVuSans-65" x="406.636719"/>
     <use xlink:href="#DejaVuSans-3a" x="468.160156"/>
     <use xlink:href="#DejaVuSans-20" x="501.851562"/>
     <use xlink:href="#DejaVuSans-36" x="533.638672"/>
     <use xlink:href="#DejaVuSans-20" x="597.261719"/>
     <use xlink:href="#DejaVuSans-70" x="629.048828"/>
     <use xlink:href="#DejaVuSans-6f" x="692.525391"/>
     <use xlink:href="#DejaVuSans-69" x="753.707031"/>
     <use xlink:href="#DejaVuSans-6e" x="781.490234"/>
     <use xlink:href="#DejaVuSans-74" x="844.869141"/>
     <use xlink:href="#DejaVuSans-73" x="884.078125"/>
    </g>
   </g>
   <g id="legend_2">
    <g id="patch_14">
     <path d="M 336.90849 73.57875 
L 424.593333 73.57875 
Q 425.993333 73.57875 425.993333 72.17875 
L 425.993333 31.78 
Q 425.993333 30.38 424.593333 30.38 
L 336.90849 30.38 
Q 335.50849 30.38 335.50849 31.78 
L 335.50849 72.17875 
Q 335.50849 73.57875 336.90849 73.57875 
z
" style="fill: #ffffff; opacity: 0.8; stroke: #cccccc; stroke-linejoin: miter"/>
    </g>
    <g id="line2d_7">
     <path d="M 338.30849 36.048906 
L 345.30849 36.048906 
L 352.30849 36.048906 
" style="fill: none; stroke: #ffa500; stroke-width: 1.5; stroke-linecap: square"/>
    </g>
    <g id="text_9">
     <!-- ground truth -->
     <g transform="translate(357.90849 38.498906) scale(0.07 -0.07)">
      <use xlink:href="#DejaVuSans-67"/>
      <use xlink:href="#DejaVuSans-72" x="63.476562"/>
      <use xlink:href="#DejaVuSans-6f" x="102.339844"/>
      <use xlink:href="#DejaVuSans-75" x="163.521484"/>
      <use xlink:href="#DejaVuSans-6e" x="226.900391"/>
      <use xlink:href="#DejaVuSans-64" x="290.279297"/>
      <use xlink:href="#DejaVuSans-20" x="353.755859"/>
      <use xlink:href="#DejaVuSans-74" x="385.542969"/>
      <use xlink:href="#DejaVuSans-72" x="424.751953"/>
      <use xlink:href="#DejaVuSans-75" x="465.865234"/>
      <use xlink:href="#DejaVuSans-74" x="529.244141"/>
      <use xlink:href="#DejaVuSans-68" x="568.453125"/>
     </g>
    </g>
    <g id="PathCollection_4">
     <g>
      <use xlink:href="#mea4f3a6869" x="345.30849" y="46.936094" style="fill: #ff0000; stroke: #ff0000"/>
     </g>
    </g>
    <g id="text_10">
     <!-- observed -->
     <g transform="translate(357.90849 48.773594) scale(0.07 -0.07)">
      <use xlink:href="#DejaVuSans-6f"/>
      <use xlink:href="#DejaVuSans-62" x="61.181641"/>
      <use xlink:href="#DejaVuSans-73" x="124.658203"/>
      <use xlink:href="#DejaVuSans-65" x="176.757812"/>
      <use xlink:href="#DejaVuSans-72" x="238.28125"/>
      <use xlink:href="#DejaVuSans-76" x="279.394531"/>
      <use xlink:href="#DejaVuSans-65" x="338.574219"/>
      <use xlink:href="#DejaVuSans-64" x="400.097656"/>
     </g>
    </g>
    <g id="line2d_8">
     <path d="M 338.30849 56.598281 
L 345.30849 56.598281 
L 352.30849 56.598281 
" style="fill: none; stroke: #1f77b4; stroke-width: 1.5; stroke-linecap: square"/>
    </g>
    <g id="text_11">
     <!-- predicted mean -->
     <g transform="translate(357.90849 59.048281) scale(0.07 -0.07)">
      <use xlink:href="#DejaVuSans-70"/>
      <use xlink:href="#DejaVuSans-72" x="63.476562"/>
      <use xlink:href="#DejaVuSans-65" x="102.339844"/>
      <use xlink:href="#DejaVuSans-64" x="163.863281"/>
      <use xlink:href="#DejaVuSans-69" x="227.339844"/>
      <use xlink:href="#DejaVuSans-63" x="255.123047"/>
      <use xlink:href="#DejaVuSans-74" x="310.103516"/>
      <use xlink:href="#DejaVuSans-65" x="349.3125"/>
      <use xlink:href="#DejaVuSans-64" x="410.835938"/>
      <use xlink:href="#DejaVuSans-20" x="474.3125"/>
      <use xlink:href="#DejaVuSans-6d" x="506.099609"/>
      <use xlink:href="#DejaVuSans-65" x="603.511719"/>
      <use xlink:href="#DejaVuSans-61" x="665.035156"/>
      <use xlink:href="#DejaVuSans-6e" x="726.314453"/>
     </g>
    </g>
    <g id="patch_15">
     <path d="M 338.30849 69.322969 
L 352.30849 69.322969 
L 352.30849 64.422969 
L 338.30849 64.422969 
z
" style="fill: #1f77b4; fill-opacity: 0.3"/>
    </g>
    <g id="text_12">
     <!-- posterior: 95% BCI -->
     <g transform="translate(357.90849 69.322969) scale(0.07 -0.07)">
      <use xlink:href="#DejaVuSans-70"/>
      <use xlink:href="#DejaVuSans-6f" x="63.476562"/>
      <use xlink:href="#DejaVuSans-73" x="124.658203"/>
      <use xlink:href="#DejaVuSans-74" x="176.757812"/>
      <use xlink:href="#DejaVuSans-65" x="215.966797"/>
      <use xlink:href="#DejaVuSans-72" x="277.490234"/>
      <use xlink:href="#DejaVuSans-69" x="318.603516"/>
      <use xlink:href="#DejaVuSans-6f" x="346.386719"/>
      <use xlink:href="#DejaVuSans-72" x="407.568359"/>
      <use xlink:href="#DejaVuSans-3a" x="446.931641"/>
      <use xlink:href="#DejaVuSans-20" x="480.623047"/>
      <use xlink:href="#DejaVuSans-39" x="512.410156"/>
      <use xlink:href="#DejaVuSans-35" x="576.033203"/>
      <use xlink:href="#DejaVuSans-25" x="639.65625"/>
      <use xlink:href="#DejaVuSans-20" x="734.675781"/>
      <use xlink:href="#DejaVuSans-42" x="766.462891"/>
      <use xlink:href="#DejaVuSans-43" x="833.316406"/>
      <use xlink:href="#DejaVuSans-49" x="903.140625"/>
     </g>
    </g>
   </g>
  </g>
  <g id="axes_3">
   <g id="patch_16">
    <path d="M 440.293333 191.12 
L 637.2 191.12 
L 637.2 26.88 
L 440.293333 26.88 
z
" style="fill: #ffffff"/>
   </g>
   <g id="PathCollection_5">
    <g clip-path="url(#pf0492802f7)">
     <use xlink:href="#mea4f3a6869" x="445.278312" y="42.112659" style="fill: #ff0000; stroke: #ff0000"/>
     <use xlink:href="#mea4f3a6869" x="470.203205" y="80.680642" style="fill: #ff0000; stroke: #ff0000"/>
     <use xlink:href="#mea4f3a6869" x="495.1281" y="123.14406" style="fill: #ff0000; stroke: #ff0000"/>
     <use xlink:href="#mea4f3a6869" x="520.052998" y="135.740261" style="fill: #ff0000; stroke: #ff0000"/>
     <use xlink:href="#mea4f3a6869" x="544.977895" y="110.774922" style="fill: #ff0000; stroke: #ff0000"/>
     <use xlink:href="#mea4f3a6869" x="569.902787" y="87.743365" style="fill: #ff0000; stroke: #ff0000"/>
     <use xlink:href="#mea4f3a6869" x="594.827679" y="123.205862" style="fill: #ff0000; stroke: #ff0000"/>
     <use xlink:href="#mea4f3a6869" x="619.752571" y="156.321796" style="fill: #ff0000; stroke: #ff0000"/>
    </g>
   </g>
   <g id="PolyCollection_3">
    <path d="M 440.293333 39.657195 
L 440.293333 39.657195 
L 442.785823 40.972658 
L 445.278312 42.112659 
L 447.770801 46.545947 
L 450.263291 50.880611 
L 452.755781 55.100788 
L 455.248269 59.201271 
L 457.740759 63.064227 
L 460.233249 66.803449 
L 462.725738 70.424719 
L 465.218228 73.942699 
L 467.710717 77.478573 
L 470.203205 80.680642 
L 472.695697 86.333614 
L 475.188185 91.053008 
L 477.680674 96.009033 
L 480.173166 100.295313 
L 482.665654 105.445643 
L 485.158143 109.027933 
L 487.650634 113.349164 
L 490.143123 117.053205 
L 492.635614 120.547469 
L 495.1281 123.14406 
L 497.620592 127.743367 
L 500.113077 131.031509 
L 502.605569 133.699127 
L 505.09806 136.155208 
L 507.590546 137.572607 
L 510.083038 138.529664 
L 512.575529 138.864763 
L 515.068015 138.428642 
L 517.560506 137.776125 
L 520.052998 135.740261 
L 522.545483 135.45897 
L 525.037975 134.198849 
L 527.530467 132.217615 
L 530.022952 130.196625 
L 532.515444 127.588135 
L 535.007935 124.711182 
L 537.500421 121.670209 
L 539.992912 118.243237 
L 542.485404 114.857165 
L 544.977895 110.774922 
L 547.470375 108.49474 
L 549.962867 105.731028 
L 552.455358 102.765324 
L 554.94785 99.901823 
L 557.440341 97.592028 
L 559.932821 95.348433 
L 562.425313 93.246969 
L 564.917804 91.153648 
L 567.410296 90.084817 
L 569.902787 87.743365 
L 572.395279 91.244812 
L 574.887759 93.491722 
L 577.38025 97.050289 
L 579.872742 100.578525 
L 582.365233 104.249893 
L 584.857725 108.372079 
L 587.350216 111.87612 
L 589.842696 115.891682 
L 592.335188 119.809242 
L 594.827679 123.205862 
L 597.320171 128.619833 
L 599.812662 133.600306 
L 602.305142 138.640564 
L 604.797634 142.695555 
L 607.290125 147.27369 
L 609.782617 150.557667 
L 612.275108 153.860265 
L 614.7676 155.953455 
L 617.260079 157.389011 
L 619.752571 156.321796 
L 622.245063 161.082394 
L 624.737554 164.566979 
L 627.230046 168.813396 
L 629.722537 172.92452 
L 632.215017 176.412856 
L 634.707508 179.702452 
L 637.2 183.654545 
L 637.2 183.654545 
L 637.2 141.08254 
L 634.707508 145.181676 
L 632.215017 148.729302 
L 629.722537 152.457666 
L 627.230046 154.182633 
L 624.737554 155.924482 
L 622.245063 156.774211 
L 619.752571 156.321796 
L 617.260079 153.111143 
L 614.7676 149.453554 
L 612.275108 146.031554 
L 609.782617 142.300607 
L 607.290125 139.30003 
L 604.797634 135.86612 
L 602.305142 132.965696 
L 599.812662 129.778443 
L 597.320171 126.182731 
L 594.827679 123.205862 
L 592.335188 118.123881 
L 589.842696 113.616476 
L 587.350216 108.45762 
L 584.857725 104.743879 
L 582.365233 100.300498 
L 579.872742 96.931578 
L 577.38025 93.620901 
L 574.887759 90.955279 
L 572.395279 89.365028 
L 569.902787 87.743365 
L 567.410296 88.022076 
L 564.917804 88.106288 
L 562.425313 89.633151 
L 559.932821 91.262651 
L 557.440341 93.554631 
L 554.94785 96.176712 
L 552.455358 99.434632 
L 549.962867 103.015124 
L 547.470375 106.565447 
L 544.977895 110.774922 
L 542.485404 113.659516 
L 539.992912 116.668331 
L 537.500421 119.460805 
L 535.007935 122.17964 
L 532.515444 125.053894 
L 530.022952 127.76687 
L 527.530467 130.233845 
L 525.037975 132.277349 
L 522.545483 134.166832 
L 520.052998 135.740261 
L 517.560506 136.382941 
L 515.068015 136.64163 
L 512.575529 136.395963 
L 510.083038 135.605687 
L 507.590546 134.728308 
L 505.09806 133.063053 
L 502.605569 131.284295 
L 500.113077 128.889876 
L 497.620592 126.393589 
L 495.1281 123.14406 
L 492.635614 119.149793 
L 490.143123 115.101912 
L 487.650634 110.385669 
L 485.158143 105.995024 
L 482.665654 102.01087 
L 480.173166 97.123624 
L 477.680674 92.94933 
L 475.188185 88.740716 
L 472.695697 84.752444 
L 470.203205 80.680642 
L 467.710717 75.2637 
L 465.218228 70.159257 
L 462.725738 65.401819 
L 460.233249 60.947585 
L 457.740759 56.524926 
L 455.248269 52.605863 
L 452.755781 49.122988 
L 450.263291 46.235706 
L 447.770801 43.923542 
L 445.278312 42.112659 
L 442.785823 38.346245 
L 440.293333 34.345455 
z
" clip-path="url(#pf0492802f7)" style="fill: #1f77b4; fill-opacity: 0.3"/>
   </g>
   <g id="matplotlib.axis_5"/>
   <g id="matplotlib.axis_6"/>
   <g id="line2d_9">
    <path d="M 440.293333 39.535874 
L 442.785823 41.537021 
L 445.278312 43.287888 
L 447.770801 45.923469 
L 450.263291 48.481459 
L 452.755781 52.247154 
L 455.248269 55.406992 
L 457.740759 59.183997 
L 460.233249 63.212144 
L 462.725738 67.379383 
L 465.218228 71.548455 
L 467.710717 75.97443 
L 470.203205 80.665281 
L 472.695697 85.830993 
L 475.188185 90.275189 
L 477.680674 95.146368 
L 480.173166 99.719926 
L 482.665654 104.576073 
L 485.158143 108.819022 
L 487.650634 113.508821 
L 490.143123 117.731292 
L 492.635614 121.705864 
L 495.1281 125.22169 
L 497.620592 128.091762 
L 500.113077 131.390474 
L 502.605569 133.660003 
L 505.09806 135.338177 
L 507.590546 137.143186 
L 510.083038 138.010351 
L 512.575529 138.742508 
L 515.068015 138.450303 
L 517.560506 137.702464 
L 520.052998 137.12329 
L 522.545483 135.437449 
L 525.037975 133.278382 
L 527.530467 130.734113 
L 530.022952 128.011121 
L 532.515444 125.436819 
L 535.007935 121.557541 
L 537.500421 118.416896 
L 539.992912 115.02447 
L 542.485404 111.494691 
L 544.977895 107.903275 
L 547.470375 104.316825 
L 549.962867 101.462818 
L 552.455358 98.495884 
L 554.94785 95.716622 
L 557.440341 93.747372 
L 559.932821 92.280234 
L 562.425313 90.705632 
L 564.917804 90.334559 
L 567.410296 89.959314 
L 569.902787 90.507532 
L 572.395279 91.553116 
L 574.887759 93.394955 
L 577.38025 95.331155 
L 579.872742 97.829945 
L 582.365233 101.554597 
L 584.857725 105.382204 
L 587.350216 109.161216 
L 589.842696 113.447835 
L 592.335188 118.098588 
L 594.827679 122.886649 
L 597.320171 127.578448 
L 599.812662 132.322227 
L 602.305142 136.669538 
L 604.797634 141.076089 
L 607.290125 144.814853 
L 609.782617 148.281866 
L 612.275108 151.097056 
L 614.7676 153.619412 
L 617.260079 154.761541 
L 619.752571 156.177205 
L 622.245063 156.562588 
L 624.737554 156.013596 
L 627.230046 154.872688 
L 629.722537 153.143805 
L 632.215017 150.763178 
L 634.707508 147.72122 
L 637.2 144.09548 
" clip-path="url(#pf0492802f7)" style="fill: none; stroke: #ffa500; stroke-width: 1.5; stroke-linecap: square"/>
   </g>
   <g id="line2d_10">
    <path d="M 440.293333 36.814486 
L 442.785823 39.749859 
L 445.278312 42.112659 
L 447.770801 45.198077 
L 450.263291 48.599108 
L 452.755781 52.173486 
L 455.248269 55.91642 
L 457.740759 59.758707 
L 460.233249 63.791215 
L 462.725738 67.822573 
L 465.218228 71.947865 
L 467.710717 76.288825 
L 470.203205 80.680642 
L 472.695697 85.537241 
L 475.188185 89.918132 
L 477.680674 94.525815 
L 480.173166 98.734843 
L 482.665654 103.843832 
L 485.158143 107.55498 
L 487.650634 111.926087 
L 490.143123 116.092766 
L 492.635614 119.841336 
L 495.1281 123.14406 
L 497.620592 126.998933 
L 500.113077 129.768055 
L 502.605569 132.280757 
L 505.09806 134.282434 
L 507.590546 135.884303 
L 510.083038 136.82422 
L 512.575529 137.426117 
L 515.068015 137.430367 
L 517.560506 137.015364 
L 520.052998 135.740261 
L 522.545483 134.817109 
L 525.037975 133.269124 
L 527.530467 131.313727 
L 530.022952 129.061568 
L 532.515444 126.445042 
L 535.007935 123.604812 
L 537.500421 120.665282 
L 539.992912 117.484273 
L 542.485404 114.27837 
L 544.977895 110.774922 
L 547.470375 107.458744 
L 549.962867 104.241785 
L 552.455358 100.839046 
L 554.94785 97.798911 
L 557.440341 95.377293 
L 559.932821 93.074962 
L 562.425313 91.286397 
L 564.917804 89.554646 
L 567.410296 89.050189 
L 569.902787 87.743365 
L 572.395279 90.387456 
L 574.887759 92.432799 
L 577.38025 95.669766 
L 579.872742 99.169605 
L 582.365233 102.682137 
L 584.857725 106.981124 
L 587.350216 110.548233 
L 589.842696 114.950817 
L 592.335188 119.104054 
L 594.827679 123.205862 
L 597.320171 127.129292 
L 599.812662 131.229789 
L 602.305142 134.908887 
L 604.797634 138.392293 
L 607.290125 142.082599 
L 609.782617 145.167248 
L 612.275108 148.80912 
L 614.7676 151.6947 
L 617.260079 154.584511 
L 619.752571 156.321796 
L 622.245063 159.042894 
L 624.737554 161.036065 
L 627.230046 162.790677 
L 629.722537 164.387713 
L 632.215017 165.507464 
L 634.707508 165.895974 
L 637.2 166.513298 
" clip-path="url(#pf0492802f7)" style="fill: none; stroke: #1f77b4; stroke-width: 1.5; stroke-linecap: square"/>
   </g>
   <g id="patch_17">
    <path d="M 440.293333 191.12 
L 440.293333 26.88 
" style="fill: none; stroke: #000000; stroke-width: 0.8; stroke-linejoin: miter; stroke-linecap: square"/>
   </g>
   <g id="patch_18">
    <path d="M 637.2 191.12 
L 637.2 26.88 
" style="fill: none; stroke: #000000; stroke-width: 0.8; stroke-linejoin: miter; stroke-linecap: square"/>
   </g>
   <g id="patch_19">
    <path d="M 440.293333 191.12 
L 637.2 191.12 
" style="fill: none; stroke: #000000; stroke-width: 0.8; stroke-linejoin: miter; stroke-linecap: square"/>
   </g>
   <g id="patch_20">
    <path d="M 440.293333 26.88 
L 637.2 26.88 
" style="fill: none; stroke: #000000; stroke-width: 0.8; stroke-linejoin: miter; stroke-linecap: square"/>
   </g>
   <g id="text_13">
    <!-- inference: 8 points -->
    <g transform="translate(482.576354 20.88) scale(0.12 -0.12)">
     <defs>
      <path id="DejaVuSans-38" d="M 2034 2216 
Q 1584 2216 1326 1975 
Q 1069 1734 1069 1313 
Q 1069 891 1326 650 
Q 1584 409 2034 409 
Q 2484 409 2743 651 
Q 3003 894 3003 1313 
Q 3003 1734 2745 1975 
Q 2488 2216 2034 2216 
z
M 1403 2484 
Q 997 2584 770 2862 
Q 544 3141 544 3541 
Q 544 4100 942 4425 
Q 1341 4750 2034 4750 
Q 2731 4750 3128 4425 
Q 3525 4100 3525 3541 
Q 3525 3141 3298 2862 
Q 3072 2584 2669 2484 
Q 3125 2378 3379 2068 
Q 3634 1759 3634 1313 
Q 3634 634 3220 271 
Q 2806 -91 2034 -91 
Q 1263 -91 848 271 
Q 434 634 434 1313 
Q 434 1759 690 2068 
Q 947 2378 1403 2484 
z
M 1172 3481 
Q 1172 3119 1398 2916 
Q 1625 2713 2034 2713 
Q 2441 2713 2670 2916 
Q 2900 3119 2900 3481 
Q 2900 3844 2670 4047 
Q 2441 4250 2034 4250 
Q 1625 4250 1398 4047 
Q 1172 3844 1172 3481 
z
" transform="scale(0.015625)"/>
     </defs>
     <use xlink:href="#DejaVuSans-69"/>
     <use xlink:href="#DejaVuSans-6e" x="27.783203"/>
     <use xlink:href="#DejaVuSans-66" x="91.162109"/>
     <use xlink:href="#DejaVuSans-65" x="126.367188"/>
     <use xlink:href="#DejaVuSans-72" x="187.890625"/>
     <use xlink:href="#DejaVuSans-65" x="226.753906"/>
     <use xlink:href="#DejaVuSans-6e" x="288.277344"/>
     <use xlink:href="#DejaVuSans-63" x="351.65625"/>
     <use xlink:href="#DejaVuSans-65" x="406.636719"/>
     <use xlink:href="#DejaVuSans-3a" x="468.160156"/>
     <use xlink:href="#DejaVuSans-20" x="501.851562"/>
     <use xlink:href="#DejaVuSans-38" x="533.638672"/>
     <use xlink:href="#DejaVuSans-20" x="597.261719"/>
     <use xlink:href="#DejaVuSans-70" x="629.048828"/>
     <use xlink:href="#DejaVuSans-6f" x="692.525391"/>
     <use xlink:href="#DejaVuSans-69" x="753.707031"/>
     <use xlink:href="#DejaVuSans-6e" x="781.490234"/>
     <use xlink:href="#DejaVuSans-74" x="844.869141"/>
     <use xlink:href="#DejaVuSans-73" x="884.078125"/>
    </g>
   </g>
   <g id="legend_3">
    <g id="patch_21">
     <path d="M 544.615156 73.57875 
L 632.3 73.57875 
Q 633.7 73.57875 633.7 72.17875 
L 633.7 31.78 
Q 633.7 30.38 632.3 30.38 
L 544.615156 30.38 
Q 543.215156 30.38 543.215156 31.78 
L 543.215156 72.17875 
Q 543.215156 73.57875 544.615156 73.57875 
z
" style="fill: #ffffff; opacity: 0.8; stroke: #cccccc; stroke-linejoin: miter"/>
    </g>
    <g id="line2d_11">
     <path d="M 546.015156 36.048906 
L 553.015156 36.048906 
L 560.015156 36.048906 
" style="fill: none; stroke: #ffa500; stroke-width: 1.5; stroke-linecap: square"/>
    </g>
    <g id="text_14">
     <!-- ground truth -->
     <g transform="translate(565.615156 38.498906) scale(0.07 -0.07)">
      <use xlink:href="#DejaVuSans-67"/>
      <use xlink:href="#DejaVuSans-72" x="63.476562"/>
      <use xlink:href="#DejaVuSans-6f" x="102.339844"/>
      <use xlink:href="#DejaVuSans-75" x="163.521484"/>
      <use xlink:href="#DejaVuSans-6e" x="226.900391"/>
      <use xlink:href="#DejaVuSans-64" x="290.279297"/>
      <use xlink:href="#DejaVuSans-20" x="353.755859"/>
      <use xlink:href="#DejaVuSans-74" x="385.542969"/>
      <use xlink:href="#DejaVuSans-72" x="424.751953"/>
      <use xlink:href="#DejaVuSans-75" x="465.865234"/>
      <use xlink:href="#DejaVuSans-74" x="529.244141"/>
      <use xlink:href="#DejaVuSans-68" x="568.453125"/>
     </g>
    </g>
    <g id="PathCollection_6">
     <g>
      <use xlink:href="#mea4f3a6869" x="553.015156" y="46.936094" style="fill: #ff0000; stroke: #ff0000"/>
     </g>
    </g>
    <g id="text_15">
     <!-- observed -->
     <g transform="translate(565.615156 48.773594) scale(0.07 -0.07)">
      <use xlink:href="#DejaVuSans-6f"/>
      <use xlink:href="#DejaVuSans-62" x="61.181641"/>
      <use xlink:href="#DejaVuSans-73" x="124.658203"/>
      <use xlink:href="#DejaVuSans-65" x="176.757812"/>
      <use xlink:href="#DejaVuSans-72" x="238.28125"/>
      <use xlink:href="#DejaVuSans-76" x="279.394531"/>
      <use xlink:href="#DejaVuSans-65" x="338.574219"/>
      <use xlink:href="#DejaVuSans-64" x="400.097656"/>
     </g>
    </g>
    <g id="line2d_12">
     <path d="M 546.015156 56.598281 
L 553.015156 56.598281 
L 560.015156 56.598281 
" style="fill: none; stroke: #1f77b4; stroke-width: 1.5; stroke-linecap: square"/>
    </g>
    <g id="text_16">
     <!-- predicted mean -->
     <g transform="translate(565.615156 59.048281) scale(0.07 -0.07)">
      <use xlink:href="#DejaVuSans-70"/>
      <use xlink:href="#DejaVuSans-72" x="63.476562"/>
      <use xlink:href="#DejaVuSans-65" x="102.339844"/>
      <use xlink:href="#DejaVuSans-64" x="163.863281"/>
      <use xlink:href="#DejaVuSans-69" x="227.339844"/>
      <use xlink:href="#DejaVuSans-63" x="255.123047"/>
      <use xlink:href="#DejaVuSans-74" x="310.103516"/>
      <use xlink:href="#DejaVuSans-65" x="349.3125"/>
      <use xlink:href="#DejaVuSans-64" x="410.835938"/>
      <use xlink:href="#DejaVuSans-20" x="474.3125"/>
      <use xlink:href="#DejaVuSans-6d" x="506.099609"/>
      <use xlink:href="#DejaVuSans-65" x="603.511719"/>
      <use xlink:href="#DejaVuSans-61" x="665.035156"/>
      <use xlink:href="#DejaVuSans-6e" x="726.314453"/>
     </g>
    </g>
    <g id="patch_22">
     <path d="M 546.015156 69.322969 
L 560.015156 69.322969 
L 560.015156 64.422969 
L 546.015156 64.422969 
z
" style="fill: #1f77b4; fill-opacity: 0.3"/>
    </g>
    <g id="text_17">
     <!-- posterior: 95% BCI -->
     <g transform="translate(565.615156 69.322969) scale(0.07 -0.07)">
      <use xlink:href="#DejaVuSans-70"/>
      <use xlink:href="#DejaVuSans-6f" x="63.476562"/>
      <use xlink:href="#DejaVuSans-73" x="124.658203"/>
      <use xlink:href="#DejaVuSans-74" x="176.757812"/>
      <use xlink:href="#DejaVuSans-65" x="215.966797"/>
      <use xlink:href="#DejaVuSans-72" x="277.490234"/>
      <use xlink:href="#DejaVuSans-69" x="318.603516"/>
      <use xlink:href="#DejaVuSans-6f" x="346.386719"/>
      <use xlink:href="#DejaVuSans-72" x="407.568359"/>
      <use xlink:href="#DejaVuSans-3a" x="446.931641"/>
      <use xlink:href="#DejaVuSans-20" x="480.623047"/>
      <use xlink:href="#DejaVuSans-39" x="512.410156"/>
      <use xlink:href="#DejaVuSans-35" x="576.033203"/>
      <use xlink:href="#DejaVuSans-25" x="639.65625"/>
      <use xlink:href="#DejaVuSans-20" x="734.675781"/>
      <use xlink:href="#DejaVuSans-42" x="766.462891"/>
      <use xlink:href="#DejaVuSans-43" x="833.316406"/>
      <use xlink:href="#DejaVuSans-49" x="903.140625"/>
     </g>
    </g>
   </g>
  </g>
 </g>
 <defs>
  <clipPath id="p02e413c1e4">
   <rect x="24.88" y="26.88" width="196.906667" height="164.24"/>
  </clipPath>
  <clipPath id="pd50751356c">
   <rect x="232.586667" y="26.88" width="196.906667" height="164.24"/>
  </clipPath>
  <clipPath id="pf0492802f7">
   <rect x="440.293333" y="26.88" width="196.906667" height="164.24"/>
  </clipPath>
 </defs>
</svg>
