<?xml version="1.0" encoding="utf-8" standalone="no"?>
<!DOCTYPE svg PUBLIC "-//W3C//DTD SVG 1.1//EN"
  "http://www.w3.org/Graphics/SVG/1.1/DTD/svg11.dtd">
<svg xmlns:xlink="http://www.w3.org/1999/xlink" width="648pt" height="216pt" viewBox="0 0 648 216" xmlns="http://www.w3.org/2000/svg" version="1.1">
 <metadata>
  <rdf:RDF xmlns:dc="http://purl.org/dc/elements/1.1/" xmlns:cc="http://creativecommons.org/ns#" xmlns:rdf="http://www.w3.org/1999/02/22-rdf-syntax-ns#">
   <cc:Work>
    <dc:type rdf:resource="http://purl.org/dc/dcmitype/StillImage"/>
    <dc:date>2024-09-29T15:25:57.844089</dc:date>
    <dc:format>image/svg+xml</dc:format>
    <dc:creator>
     <cc:Agent>
      <dc:title>Matplotlib v3.7.1, https://matplotlib.org/</dc:title>
     </cc:Agent>
    </dc:creator>
   </cc:Work>
  </rdf:RDF>
 </metadata>
 <defs>
  <style type="text/css">*{stroke-linejoin: round; stroke-linecap: butt}</style>
 </defs>
 <g id="figure_1">
  <g id="patch_1">
   <path d="M 0 216 
L 648 216 
L 648 0 
L 0 0 
z
" style="fill: #ffffff"/>
  </g>
  <g id="axes_1">
   <g id="patch_2">
    <path d="M 24.88 174.04 
L 208.616667 174.04 
L 208.616667 26.88 
L 24.88 26.88 
z
" style="fill: #ffffff"/>
   </g>
   <g id="PathCollection_1">
    <defs>
     <path id="m91b304b3e1" d="M 0 3.162278 
C 0.838646 3.162278 1.643056 2.82908 2.236068 2.236068 
C 2.82908 1.643056 3.162278 0.838646 3.162278 0 
C 3.162278 -0.838646 2.82908 -1.643056 2.236068 -2.236068 
C 1.643056 -2.82908 0.838646 -3.162278 0 -3.162278 
C -0.838646 -3.162278 -1.643056 -2.82908 -2.236068 -2.236068 
C -2.82908 -1.643056 -3.162278 -0.838646 -3.162278 0 
C -3.162278 0.838646 -2.82908 1.643056 -2.236068 2.236068 
C -1.643056 2.82908 -0.838646 3.162278 0 3.162278 
z
" style="stroke: #ff0000"/>
    </defs>
    <g clip-path="url(#pb911f0a60f)">
     <use xlink:href="#m91b304b3e1" x="48.137806" y="73.62116" style="fill: #ff0000; stroke: #ff0000"/>
     <use xlink:href="#m91b304b3e1" x="78.372954" y="125.414707" style="fill: #ff0000; stroke: #ff0000"/>
     <use xlink:href="#m91b304b3e1" x="117.911225" y="116.415274" style="fill: #ff0000; stroke: #ff0000"/>
     <use xlink:href="#m91b304b3e1" x="166.752614" y="118.250719" style="fill: #ff0000; stroke: #ff0000"/>
     <use xlink:href="#m91b304b3e1" x="199.313547" y="150.330442" style="fill: #ff0000; stroke: #ff0000"/>
    </g>
   </g>
   <g id="PolyCollection_1">
    <path d="M 24.88 106.4253 
L 24.88 106.4253 
L 27.205781 100.944853 
L 29.531561 96.824524 
L 31.857341 92.757093 
L 34.183123 88.000392 
L 36.508903 83.587154 
L 38.834683 80.89329 
L 41.160464 77.481129 
L 43.486245 75.05546 
L 45.812025 73.794148 
L 48.137806 73.62116 
L 50.463586 78.647191 
L 52.789366 83.68316 
L 55.115148 89.444782 
L 57.440928 94.501096 
L 59.766708 99.446041 
L 62.09249 104.325463 
L 64.41827 108.352491 
L 66.74405 112.549394 
L 69.069833 116.292425 
L 71.395612 119.003872 
L 73.721395 121.851469 
L 76.047172 123.818082 
L 78.372954 125.414707 
L 80.698731 129.213496 
L 83.024514 131.612039 
L 85.350297 133.214712 
L 87.676074 134.450552 
L 90.001856 134.936982 
L 92.327639 134.589597 
L 94.653416 133.645153 
L 96.979198 132.773685 
L 99.304981 131.097788 
L 101.630758 129.518072 
L 103.95654 127.697099 
L 106.282323 125.794574 
L 108.6081 123.663171 
L 110.933882 121.960499 
L 113.259665 120.219367 
L 115.585442 118.387745 
L 117.911225 116.415274 
L 120.237007 116.636225 
L 122.56279 116.885281 
L 124.888561 117.28383 
L 127.214344 117.566695 
L 129.540126 117.854294 
L 131.865909 118.309316 
L 134.191691 118.841551 
L 136.517463 119.187728 
L 138.843245 119.329691 
L 141.169028 119.371172 
L 143.494811 119.353592 
L 145.820593 119.136885 
L 148.146376 118.955301 
L 150.472147 118.624852 
L 152.79793 118.472713 
L 155.123712 118.242814 
L 157.449495 117.914277 
L 159.775277 117.660151 
L 162.10106 117.90263 
L 164.426831 118.178513 
L 166.752614 118.250719 
L 169.078396 120.478953 
L 171.404179 123.038626 
L 173.729962 125.558693 
L 176.055733 128.11962 
L 178.381516 130.433732 
L 180.707298 133.350525 
L 183.033081 135.894503 
L 185.358863 138.907208 
L 187.684646 141.371237 
L 190.010417 143.359492 
L 192.3362 145.683946 
L 194.661982 147.603109 
L 196.987765 149.18787 
L 199.313547 150.330442 
L 201.63933 154.379253 
L 203.965102 158.446354 
L 206.290884 162.697464 
L 208.616667 167.350909 
L 208.616667 167.350909 
L 208.616667 153.25564 
L 206.290884 153.452395 
L 203.965102 152.622109 
L 201.63933 151.493026 
L 199.313547 150.330442 
L 196.987765 146.514174 
L 194.661982 142.805876 
L 192.3362 139.439891 
L 190.010417 136.120472 
L 187.684646 133.194685 
L 185.358863 130.371177 
L 183.033081 127.48706 
L 180.707298 125.490876 
L 178.381516 123.478401 
L 176.055733 122.118096 
L 173.729962 120.820942 
L 171.404179 119.743668 
L 169.078396 118.665311 
L 166.752614 118.250719 
L 164.426831 116.339209 
L 162.10106 114.469005 
L 159.775277 112.707208 
L 157.449495 111.588714 
L 155.123712 110.571006 
L 152.79793 109.873826 
L 150.472147 108.886417 
L 148.146376 108.638936 
L 145.820593 108.379346 
L 143.494811 108.223747 
L 141.169028 107.838831 
L 138.843245 108.280208 
L 136.517463 108.674158 
L 134.191691 109.144531 
L 131.865909 109.780603 
L 129.540126 110.578641 
L 127.214344 111.572472 
L 124.888561 112.650726 
L 122.56279 113.911918 
L 120.237007 115.093085 
L 117.911225 116.415274 
L 115.585442 116.238157 
L 113.259665 116.535588 
L 110.933882 116.910873 
L 108.6081 116.880024 
L 106.282323 117.467468 
L 103.95654 118.094084 
L 101.630758 119.179123 
L 99.304981 120.039597 
L 96.979198 121.535631 
L 94.653416 122.756518 
L 92.327639 123.9389 
L 90.001856 125.192751 
L 87.676074 125.975626 
L 85.350297 126.278141 
L 83.024514 126.485284 
L 80.698731 126.006756 
L 78.372954 125.414707 
L 76.047172 120.558602 
L 73.721395 115.329123 
L 71.395612 109.927319 
L 69.069833 103.825267 
L 66.74405 96.457298 
L 64.41827 90.290226 
L 62.09249 85.913958 
L 59.766708 80.574441 
L 57.440928 78.451306 
L 55.115148 76.347587 
L 52.789366 73.536376 
L 50.463586 72.601424 
L 48.137806 73.62116 
L 45.812025 68.635486 
L 43.486245 63.691909 
L 41.160464 58.762097 
L 38.834683 54.358732 
L 36.508903 49.494303 
L 34.183123 45.707875 
L 31.857341 42.0928 
L 29.531561 39.062041 
L 27.205781 35.669636 
L 24.88 33.569091 
z
" clip-path="url(#pb911f0a60f)" style="fill: #1f77b4; fill-opacity: 0.3"/>
   </g>
   <g id="matplotlib.axis_1">
    <g id="xtick_1">
     <g id="line2d_1">
      <defs>
       <path id="m5935ff4e62" d="M 0 0 
L 0 3.5 
" style="stroke: #000000; stroke-width: 0.8"/>
      </defs>
      <g>
       <use xlink:href="#m5935ff4e62" x="24.88" y="174.04" style="stroke: #000000; stroke-width: 0.8"/>
      </g>
     </g>
     <g id="text_1">
      <!-- 0.0 -->
      <g transform="translate(16.928437 188.638438) scale(0.1 -0.1)">
       <defs>
        <path id="DejaVuSans-30" d="M 2034 4250 
Q 1547 4250 1301 3770 
Q 1056 3291 1056 2328 
Q 1056 1369 1301 889 
Q 1547 409 2034 409 
Q 2525 409 2770 889 
Q 3016 1369 3016 2328 
Q 3016 3291 2770 3770 
Q 2525 4250 2034 4250 
z
M 2034 4750 
Q 2819 4750 3233 4129 
Q 3647 3509 3647 2328 
Q 3647 1150 3233 529 
Q 2819 -91 2034 -91 
Q 1250 -91 836 529 
Q 422 1150 422 2328 
Q 422 3509 836 4129 
Q 1250 4750 2034 4750 
z
" transform="scale(0.015625)"/>
        <path id="DejaVuSans-2e" d="M 684 794 
L 1344 794 
L 1344 0 
L 684 0 
L 684 794 
z
" transform="scale(0.015625)"/>
       </defs>
       <use xlink:href="#DejaVuSans-30"/>
       <use xlink:href="#DejaVuSans-2e" x="63.623047"/>
       <use xlink:href="#DejaVuSans-30" x="95.410156"/>
      </g>
     </g>
    </g>
    <g id="xtick_2">
     <g id="line2d_2">
      <g>
       <use xlink:href="#m5935ff4e62" x="61.627333" y="174.04" style="stroke: #000000; stroke-width: 0.8"/>
      </g>
     </g>
     <g id="text_2">
      <!-- 0.2 -->
      <g transform="translate(53.675771 188.638438) scale(0.1 -0.1)">
       <defs>
        <path id="DejaVuSans-32" d="M 1228 531 
L 3431 531 
L 3431 0 
L 469 0 
L 469 531 
Q 828 903 1448 1529 
Q 2069 2156 2228 2338 
Q 2531 2678 2651 2914 
Q 2772 3150 2772 3378 
Q 2772 3750 2511 3984 
Q 2250 4219 1831 4219 
Q 1534 4219 1204 4116 
Q 875 4013 500 3803 
L 500 4441 
Q 881 4594 1212 4672 
Q 1544 4750 1819 4750 
Q 2544 4750 2975 4387 
Q 3406 4025 3406 3419 
Q 3406 3131 3298 2873 
Q 3191 2616 2906 2266 
Q 2828 2175 2409 1742 
Q 1991 1309 1228 531 
z
" transform="scale(0.015625)"/>
       </defs>
       <use xlink:href="#DejaVuSans-30"/>
       <use xlink:href="#DejaVuSans-2e" x="63.623047"/>
       <use xlink:href="#DejaVuSans-32" x="95.410156"/>
      </g>
     </g>
    </g>
    <g id="xtick_3">
     <g id="line2d_3">
      <g>
       <use xlink:href="#m5935ff4e62" x="98.374667" y="174.04" style="stroke: #000000; stroke-width: 0.8"/>
      </g>
     </g>
     <g id="text_3">
      <!-- 0.4 -->
      <g transform="translate(90.423104 188.638438) scale(0.1 -0.1)">
       <defs>
        <path id="DejaVuSans-34" d="M 2419 4116 
L 825 1625 
L 2419 1625 
L 2419 4116 
z
M 2253 4666 
L 3047 4666 
L 3047 1625 
L 3713 1625 
L 3713 1100 
L 3047 1100 
L 3047 0 
L 2419 0 
L 2419 1100 
L 313 1100 
L 313 1709 
L 2253 4666 
z
" transform="scale(0.015625)"/>
       </defs>
       <use xlink:href="#DejaVuSans-30"/>
       <use xlink:href="#DejaVuSans-2e" x="63.623047"/>
       <use xlink:href="#DejaVuSans-34" x="95.410156"/>
      </g>
     </g>
    </g>
    <g id="xtick_4">
     <g id="line2d_4">
      <g>
       <use xlink:href="#m5935ff4e62" x="135.122" y="174.04" style="stroke: #000000; stroke-width: 0.8"/>
      </g>
     </g>
     <g id="text_4">
      <!-- 0.6 -->
      <g transform="translate(127.170438 188.638438) scale(0.1 -0.1)">
       <defs>
        <path id="DejaVuSans-36" d="M 2113 2584 
Q 1688 2584 1439 2293 
Q 1191 2003 1191 1497 
Q 1191 994 1439 701 
Q 1688 409 2113 409 
Q 2538 409 2786 701 
Q 3034 994 3034 1497 
Q 3034 2003 2786 2293 
Q 2538 2584 2113 2584 
z
M 3366 4563 
L 3366 3988 
Q 3128 4100 2886 4159 
Q 2644 4219 2406 4219 
Q 1781 4219 1451 3797 
Q 1122 3375 1075 2522 
Q 1259 2794 1537 2939 
Q 1816 3084 2150 3084 
Q 2853 3084 3261 2657 
Q 3669 2231 3669 1497 
Q 3669 778 3244 343 
Q 2819 -91 2113 -91 
Q 1303 -91 875 529 
Q 447 1150 447 2328 
Q 447 3434 972 4092 
Q 1497 4750 2381 4750 
Q 2619 4750 2861 4703 
Q 3103 4656 3366 4563 
z
" transform="scale(0.015625)"/>
       </defs>
       <use xlink:href="#DejaVuSans-30"/>
       <use xlink:href="#DejaVuSans-2e" x="63.623047"/>
       <use xlink:href="#DejaVuSans-36" x="95.410156"/>
      </g>
     </g>
    </g>
    <g id="xtick_5">
     <g id="line2d_5">
      <g>
       <use xlink:href="#m5935ff4e62" x="171.869333" y="174.04" style="stroke: #000000; stroke-width: 0.8"/>
      </g>
     </g>
     <g id="text_5">
      <!-- 0.8 -->
      <g transform="translate(163.917771 188.638438) scale(0.1 -0.1)">
       <defs>
        <path id="DejaVuSans-38" d="M 2034 2216 
Q 1584 2216 1326 1975 
Q 1069 1734 1069 1313 
Q 1069 891 1326 650 
Q 1584 409 2034 409 
Q 2484 409 2743 651 
Q 3003 894 3003 1313 
Q 3003 1734 2745 1975 
Q 2488 2216 2034 2216 
z
M 1403 2484 
Q 997 2584 770 2862 
Q 544 3141 544 3541 
Q 544 4100 942 4425 
Q 1341 4750 2034 4750 
Q 2731 4750 3128 4425 
Q 3525 4100 3525 3541 
Q 3525 3141 3298 2862 
Q 3072 2584 2669 2484 
Q 3125 2378 3379 2068 
Q 3634 1759 3634 1313 
Q 3634 634 3220 271 
Q 2806 -91 2034 -91 
Q 1263 -91 848 271 
Q 434 634 434 1313 
Q 434 1759 690 2068 
Q 947 2378 1403 2484 
z
M 1172 3481 
Q 1172 3119 1398 2916 
Q 1625 2713 2034 2713 
Q 2441 2713 2670 2916 
Q 2900 3119 2900 3481 
Q 2900 3844 2670 4047 
Q 2441 4250 2034 4250 
Q 1625 4250 1398 4047 
Q 1172 3844 1172 3481 
z
" transform="scale(0.015625)"/>
       </defs>
       <use xlink:href="#DejaVuSans-30"/>
       <use xlink:href="#DejaVuSans-2e" x="63.623047"/>
       <use xlink:href="#DejaVuSans-38" x="95.410156"/>
      </g>
     </g>
    </g>
    <g id="xtick_6">
     <g id="line2d_6">
      <g>
       <use xlink:href="#m5935ff4e62" x="208.616667" y="174.04" style="stroke: #000000; stroke-width: 0.8"/>
      </g>
     </g>
     <g id="text_6">
      <!-- 1.0 -->
      <g transform="translate(200.665104 188.638438) scale(0.1 -0.1)">
       <defs>
        <path id="DejaVuSans-31" d="M 794 531 
L 1825 531 
L 1825 4091 
L 703 3866 
L 703 4441 
L 1819 4666 
L 2450 4666 
L 2450 531 
L 3481 531 
L 3481 0 
L 794 0 
L 794 531 
z
" transform="scale(0.015625)"/>
       </defs>
       <use xlink:href="#DejaVuSans-31"/>
       <use xlink:href="#DejaVuSans-2e" x="63.623047"/>
       <use xlink:href="#DejaVuSans-30" x="95.410156"/>
      </g>
     </g>
    </g>
    <g id="text_7">
     <!-- x -->
     <g transform="translate(113.788958 202.316563) scale(0.1 -0.1)">
      <defs>
       <path id="DejaVuSans-78" d="M 3513 3500 
L 2247 1797 
L 3578 0 
L 2900 0 
L 1881 1375 
L 863 0 
L 184 0 
L 1544 1831 
L 300 3500 
L 978 3500 
L 1906 2253 
L 2834 3500 
L 3513 3500 
z
" transform="scale(0.015625)"/>
      </defs>
      <use xlink:href="#DejaVuSans-78"/>
     </g>
    </g>
   </g>
   <g id="matplotlib.axis_2">
    <g id="text_8">
     <!-- f(x) -->
     <g transform="translate(18.800312 109.081094) rotate(-90) scale(0.1 -0.1)">
      <defs>
       <path id="DejaVuSans-66" d="M 2375 4863 
L 2375 4384 
L 1825 4384 
Q 1516 4384 1395 4259 
Q 1275 4134 1275 3809 
L 1275 3500 
L 2222 3500 
L 2222 3053 
L 1275 3053 
L 1275 0 
L 697 0 
L 697 3053 
L 147 3053 
L 147 3500 
L 697 3500 
L 697 3744 
Q 697 4328 969 4595 
Q 1241 4863 1831 4863 
L 2375 4863 
z
" transform="scale(0.015625)"/>
       <path id="DejaVuSans-28" d="M 1984 4856 
Q 1566 4138 1362 3434 
Q 1159 2731 1159 2009 
Q 1159 1288 1364 580 
Q 1569 -128 1984 -844 
L 1484 -844 
Q 1016 -109 783 600 
Q 550 1309 550 2009 
Q 550 2706 781 3412 
Q 1013 4119 1484 4856 
L 1984 4856 
z
" transform="scale(0.015625)"/>
       <path id="DejaVuSans-29" d="M 513 4856 
L 1013 4856 
Q 1481 4119 1714 3412 
Q 1947 2706 1947 2009 
Q 1947 1309 1714 600 
Q 1481 -109 1013 -844 
L 513 -844 
Q 928 -128 1133 580 
Q 1338 1288 1338 2009 
Q 1338 2731 1133 3434 
Q 928 4138 513 4856 
z
" transform="scale(0.015625)"/>
      </defs>
      <use xlink:href="#DejaVuSans-66"/>
      <use xlink:href="#DejaVuSans-28" x="35.205078"/>
      <use xlink:href="#DejaVuSans-78" x="74.21875"/>
      <use xlink:href="#DejaVuSans-29" x="133.398438"/>
     </g>
    </g>
   </g>
   <g id="line2d_7">
    <path d="M 24.88 46.448971 
L 27.205781 48.25278 
L 29.531561 49.830991 
L 31.857341 52.206671 
L 34.183123 54.512413 
L 36.508903 57.906764 
L 38.834683 60.755004 
L 41.160464 64.15955 
L 43.486245 67.790473 
L 45.812025 71.546772 
L 48.137806 75.304722 
L 50.463586 79.294242 
L 52.789366 83.522519 
L 55.115148 88.178829 
L 57.440928 92.184773 
L 59.766708 96.575595 
L 62.09249 100.698144 
L 64.41827 105.075416 
L 66.74405 108.899958 
L 69.069833 113.127287 
L 71.395612 116.93337 
L 73.721395 120.516002 
L 76.047172 123.685125 
L 78.372954 126.272173 
L 80.698731 129.245591 
L 83.024514 131.291317 
L 85.350297 132.804003 
L 87.676074 134.431016 
L 90.001856 135.212669 
L 92.327639 135.872625 
L 94.653416 135.609235 
L 96.979198 134.935142 
L 99.304981 134.413083 
L 101.630758 132.893486 
L 103.95654 130.947329 
L 106.282323 128.653956 
L 108.6081 126.199484 
L 110.933882 123.879039 
L 113.259665 120.382305 
L 115.585442 117.551365 
L 117.911225 114.493474 
L 120.237007 111.311774 
L 122.56279 108.074515 
L 124.888561 104.841733 
L 127.214344 102.269166 
L 129.540126 99.594808 
L 131.865909 97.089614 
L 134.191691 95.314556 
L 136.517463 93.992096 
L 138.843245 92.572769 
L 141.169028 92.238289 
L 143.494811 91.900047 
L 145.820593 92.394204 
L 148.146376 93.336681 
L 150.472147 94.996892 
L 152.79793 96.742159 
L 155.123712 98.994538 
L 157.449495 102.351895 
L 159.775277 105.802052 
L 162.10106 109.208408 
L 164.426831 113.072315 
L 166.752614 117.264447 
L 169.078396 121.580347 
L 171.404179 125.809478 
L 173.729962 130.085462 
L 176.055733 134.004075 
L 178.381516 137.976087 
L 180.707298 141.346163 
L 183.033081 144.471287 
L 185.358863 147.008865 
L 187.684646 149.282486 
L 190.010417 150.311988 
L 192.3362 151.588049 
L 194.661982 151.935429 
L 196.987765 151.440575 
L 199.313547 150.412174 
L 201.63933 148.853779 
L 203.965102 146.707912 
L 206.290884 143.965927 
L 208.616667 140.69773 
" clip-path="url(#pb911f0a60f)" style="fill: none; stroke: #ffa500; stroke-width: 1.5; stroke-linecap: square"/>
   </g>
   <g id="line2d_8">
    <path d="M 24.88 63.118097 
L 27.205781 61.96732 
L 29.531561 61.840495 
L 31.857341 61.91863 
L 34.183123 62.191795 
L 36.508903 62.735647 
L 38.834683 64.497055 
L 41.160464 65.87345 
L 43.486245 68.11996 
L 45.812025 70.631034 
L 48.137806 73.62116 
L 50.463586 76.867979 
L 52.789366 80.598674 
L 55.115148 85.203084 
L 57.440928 89.565902 
L 59.766708 93.982871 
L 62.09249 99.0168 
L 64.41827 102.997711 
L 66.74405 107.740157 
L 69.069833 112.349479 
L 71.395612 116.128999 
L 73.721395 119.797867 
L 76.047172 122.74822 
L 78.372954 125.414707 
L 80.698731 127.05512 
L 83.024514 128.201547 
L 85.350297 128.605548 
L 87.676074 128.905178 
L 90.001856 128.667687 
L 92.327639 127.894269 
L 94.653416 127.049505 
L 96.979198 126.099045 
L 99.304981 124.700377 
L 101.630758 123.662146 
L 103.95654 122.262039 
L 106.282323 121.221166 
L 108.6081 120.093817 
L 110.933882 119.344104 
L 113.259665 118.293144 
L 115.585442 117.306262 
L 117.911225 116.415274 
L 120.237007 115.914519 
L 122.56279 115.537279 
L 124.888561 115.264619 
L 127.214344 114.84571 
L 129.540126 114.691924 
L 131.865909 114.503817 
L 134.191691 114.434343 
L 136.517463 114.544131 
L 138.843245 114.362126 
L 141.169028 114.177497 
L 143.494811 114.171862 
L 145.820593 114.167091 
L 148.146376 114.138121 
L 150.472147 114.081629 
L 152.79793 114.48865 
L 155.123712 114.714785 
L 157.449495 115.023109 
L 159.775277 115.438612 
L 162.10106 116.396718 
L 164.426831 117.354647 
L 166.752614 118.250719 
L 169.078396 119.502502 
L 171.404179 121.19633 
L 173.729962 122.917607 
L 176.055733 124.800356 
L 178.381516 126.622769 
L 180.707298 128.963636 
L 183.033081 131.244999 
L 185.358863 134.181857 
L 187.684646 136.750182 
L 190.010417 139.22717 
L 192.3362 142.049489 
L 194.661982 144.848219 
L 196.987765 147.643085 
L 199.313547 150.330442 
L 201.63933 152.964436 
L 203.965102 155.531632 
L 206.290884 158.067276 
L 208.616667 160.152606 
" clip-path="url(#pb911f0a60f)" style="fill: none; stroke: #1f77b4; stroke-width: 1.5; stroke-linecap: square"/>
   </g>
   <g id="patch_3">
    <path d="M 24.88 174.04 
L 24.88 26.88 
" style="fill: none; stroke: #000000; stroke-width: 0.8; stroke-linejoin: miter; stroke-linecap: square"/>
   </g>
   <g id="patch_4">
    <path d="M 208.616667 174.04 
L 208.616667 26.88 
" style="fill: none; stroke: #000000; stroke-width: 0.8; stroke-linejoin: miter; stroke-linecap: square"/>
   </g>
   <g id="patch_5">
    <path d="M 24.88 174.04 
L 208.616667 174.04 
" style="fill: none; stroke: #000000; stroke-width: 0.8; stroke-linejoin: miter; stroke-linecap: square"/>
   </g>
   <g id="patch_6">
    <path d="M 24.88 26.88 
L 208.616667 26.88 
" style="fill: none; stroke: #000000; stroke-width: 0.8; stroke-linejoin: miter; stroke-linecap: square"/>
   </g>
   <g id="text_9">
    <!-- inference: 5 points -->
    <g transform="translate(60.578021 20.88) scale(0.12 -0.12)">
     <defs>
      <path id="DejaVuSans-69" d="M 603 3500 
L 1178 3500 
L 1178 0 
L 603 0 
L 603 3500 
z
M 603 4863 
L 1178 4863 
L 1178 4134 
L 603 4134 
L 603 4863 
z
" transform="scale(0.015625)"/>
      <path id="DejaVuSans-6e" d="M 3513 2113 
L 3513 0 
L 2938 0 
L 2938 2094 
Q 2938 2591 2744 2837 
Q 2550 3084 2163 3084 
Q 1697 3084 1428 2787 
Q 1159 2491 1159 1978 
L 1159 0 
L 581 0 
L 581 3500 
L 1159 3500 
L 1159 2956 
Q 1366 3272 1645 3428 
Q 1925 3584 2291 3584 
Q 2894 3584 3203 3211 
Q 3513 2838 3513 2113 
z
" transform="scale(0.015625)"/>
      <path id="DejaVuSans-65" d="M 3597 1894 
L 3597 1613 
L 953 1613 
Q 991 1019 1311 708 
Q 1631 397 2203 397 
Q 2534 397 2845 478 
Q 3156 559 3463 722 
L 3463 178 
Q 3153 47 2828 -22 
Q 2503 -91 2169 -91 
Q 1331 -91 842 396 
Q 353 884 353 1716 
Q 353 2575 817 3079 
Q 1281 3584 2069 3584 
Q 2775 3584 3186 3129 
Q 3597 2675 3597 1894 
z
M 3022 2063 
Q 3016 2534 2758 2815 
Q 2500 3097 2075 3097 
Q 1594 3097 1305 2825 
Q 1016 2553 972 2059 
L 3022 2063 
z
" transform="scale(0.015625)"/>
      <path id="DejaVuSans-72" d="M 2631 2963 
Q 2534 3019 2420 3045 
Q 2306 3072 2169 3072 
Q 1681 3072 1420 2755 
Q 1159 2438 1159 1844 
L 1159 0 
L 581 0 
L 581 3500 
L 1159 3500 
L 1159 2956 
Q 1341 3275 1631 3429 
Q 1922 3584 2338 3584 
Q 2397 3584 2469 3576 
Q 2541 3569 2628 3553 
L 2631 2963 
z
" transform="scale(0.015625)"/>
      <path id="DejaVuSans-63" d="M 3122 3366 
L 3122 2828 
Q 2878 2963 2633 3030 
Q 2388 3097 2138 3097 
Q 1578 3097 1268 2742 
Q 959 2388 959 1747 
Q 959 1106 1268 751 
Q 1578 397 2138 397 
Q 2388 397 2633 464 
Q 2878 531 3122 666 
L 3122 134 
Q 2881 22 2623 -34 
Q 2366 -91 2075 -91 
Q 1284 -91 818 406 
Q 353 903 353 1747 
Q 353 2603 823 3093 
Q 1294 3584 2113 3584 
Q 2378 3584 2631 3529 
Q 2884 3475 3122 3366 
z
" transform="scale(0.015625)"/>
      <path id="DejaVuSans-3a" d="M 750 794 
L 1409 794 
L 1409 0 
L 750 0 
L 750 794 
z
M 750 3309 
L 1409 3309 
L 1409 2516 
L 750 2516 
L 750 3309 
z
" transform="scale(0.015625)"/>
      <path id="DejaVuSans-20" transform="scale(0.015625)"/>
      <path id="DejaVuSans-35" d="M 691 4666 
L 3169 4666 
L 3169 4134 
L 1269 4134 
L 1269 2991 
Q 1406 3038 1543 3061 
Q 1681 3084 1819 3084 
Q 2600 3084 3056 2656 
Q 3513 2228 3513 1497 
Q 3513 744 3044 326 
Q 2575 -91 1722 -91 
Q 1428 -91 1123 -41 
Q 819 9 494 109 
L 494 744 
Q 775 591 1075 516 
Q 1375 441 1709 441 
Q 2250 441 2565 725 
Q 2881 1009 2881 1497 
Q 2881 1984 2565 2268 
Q 2250 2553 1709 2553 
Q 1456 2553 1204 2497 
Q 953 2441 691 2322 
L 691 4666 
z
" transform="scale(0.015625)"/>
      <path id="DejaVuSans-70" d="M 1159 525 
L 1159 -1331 
L 581 -1331 
L 581 3500 
L 1159 3500 
L 1159 2969 
Q 1341 3281 1617 3432 
Q 1894 3584 2278 3584 
Q 2916 3584 3314 3078 
Q 3713 2572 3713 1747 
Q 3713 922 3314 415 
Q 2916 -91 2278 -91 
Q 1894 -91 1617 61 
Q 1341 213 1159 525 
z
M 3116 1747 
Q 3116 2381 2855 2742 
Q 2594 3103 2138 3103 
Q 1681 3103 1420 2742 
Q 1159 2381 1159 1747 
Q 1159 1113 1420 752 
Q 1681 391 2138 391 
Q 2594 391 2855 752 
Q 3116 1113 3116 1747 
z
" transform="scale(0.015625)"/>
      <path id="DejaVuSans-6f" d="M 1959 3097 
Q 1497 3097 1228 2736 
Q 959 2375 959 1747 
Q 959 1119 1226 758 
Q 1494 397 1959 397 
Q 2419 397 2687 759 
Q 2956 1122 2956 1747 
Q 2956 2369 2687 2733 
Q 2419 3097 1959 3097 
z
M 1959 3584 
Q 2709 3584 3137 3096 
Q 3566 2609 3566 1747 
Q 3566 888 3137 398 
Q 2709 -91 1959 -91 
Q 1206 -91 779 398 
Q 353 888 353 1747 
Q 353 2609 779 3096 
Q 1206 3584 1959 3584 
z
" transform="scale(0.015625)"/>
      <path id="DejaVuSans-74" d="M 1172 4494 
L 1172 3500 
L 2356 3500 
L 2356 3053 
L 1172 3053 
L 1172 1153 
Q 1172 725 1289 603 
Q 1406 481 1766 481 
L 2356 481 
L 2356 0 
L 1766 0 
Q 1100 0 847 248 
Q 594 497 594 1153 
L 594 3053 
L 172 3053 
L 172 3500 
L 594 3500 
L 594 4494 
L 1172 4494 
z
" transform="scale(0.015625)"/>
      <path id="DejaVuSans-73" d="M 2834 3397 
L 2834 2853 
Q 2591 2978 2328 3040 
Q 2066 3103 1784 3103 
Q 1356 3103 1142 2972 
Q 928 2841 928 2578 
Q 928 2378 1081 2264 
Q 1234 2150 1697 2047 
L 1894 2003 
Q 2506 1872 2764 1633 
Q 3022 1394 3022 966 
Q 3022 478 2636 193 
Q 2250 -91 1575 -91 
Q 1294 -91 989 -36 
Q 684 19 347 128 
L 347 722 
Q 666 556 975 473 
Q 1284 391 1588 391 
Q 1994 391 2212 530 
Q 2431 669 2431 922 
Q 2431 1156 2273 1281 
Q 2116 1406 1581 1522 
L 1381 1569 
Q 847 1681 609 1914 
Q 372 2147 372 2553 
Q 372 3047 722 3315 
Q 1072 3584 1716 3584 
Q 2034 3584 2315 3537 
Q 2597 3491 2834 3397 
z
" transform="scale(0.015625)"/>
     </defs>
     <use xlink:href="#DejaVuSans-69"/>
     <use xlink:href="#DejaVuSans-6e" x="27.783203"/>
     <use xlink:href="#DejaVuSans-66" x="91.162109"/>
     <use xlink:href="#DejaVuSans-65" x="126.367188"/>
     <use xlink:href="#DejaVuSans-72" x="187.890625"/>
     <use xlink:href="#DejaVuSans-65" x="226.753906"/>
     <use xlink:href="#DejaVuSans-6e" x="288.277344"/>
     <use xlink:href="#DejaVuSans-63" x="351.65625"/>
     <use xlink:href="#DejaVuSans-65" x="406.636719"/>
     <use xlink:href="#DejaVuSans-3a" x="468.160156"/>
     <use xlink:href="#DejaVuSans-20" x="501.851562"/>
     <use xlink:href="#DejaVuSans-35" x="533.638672"/>
     <use xlink:href="#DejaVuSans-20" x="597.261719"/>
     <use xlink:href="#DejaVuSans-70" x="629.048828"/>
     <use xlink:href="#DejaVuSans-6f" x="692.525391"/>
     <use xlink:href="#DejaVuSans-69" x="753.707031"/>
     <use xlink:href="#DejaVuSans-6e" x="781.490234"/>
     <use xlink:href="#DejaVuSans-74" x="844.869141"/>
     <use xlink:href="#DejaVuSans-73" x="884.078125"/>
    </g>
   </g>
   <g id="legend_1">
    <g id="patch_7">
     <path d="M 116.031823 73.57875 
L 203.716667 73.57875 
Q 205.116667 73.57875 205.116667 72.17875 
L 205.116667 31.78 
Q 205.116667 30.38 203.716667 30.38 
L 116.031823 30.38 
Q 114.631823 30.38 114.631823 31.78 
L 114.631823 72.17875 
Q 114.631823 73.57875 116.031823 73.57875 
z
" style="fill: #ffffff; opacity: 0.8; stroke: #cccccc; stroke-linejoin: miter"/>
    </g>
    <g id="line2d_9">
     <path d="M 117.431823 36.048906 
L 124.431823 36.048906 
L 131.431823 36.048906 
" style="fill: none; stroke: #ffa500; stroke-width: 1.5; stroke-linecap: square"/>
    </g>
    <g id="text_10">
     <!-- ground truth -->
     <g transform="translate(137.031823 38.498906) scale(0.07 -0.07)">
      <defs>
       <path id="DejaVuSans-67" d="M 2906 1791 
Q 2906 2416 2648 2759 
Q 2391 3103 1925 3103 
Q 1463 3103 1205 2759 
Q 947 2416 947 1791 
Q 947 1169 1205 825 
Q 1463 481 1925 481 
Q 2391 481 2648 825 
Q 2906 1169 2906 1791 
z
M 3481 434 
Q 3481 -459 3084 -895 
Q 2688 -1331 1869 -1331 
Q 1566 -1331 1297 -1286 
Q 1028 -1241 775 -1147 
L 775 -588 
Q 1028 -725 1275 -790 
Q 1522 -856 1778 -856 
Q 2344 -856 2625 -561 
Q 2906 -266 2906 331 
L 2906 616 
Q 2728 306 2450 153 
Q 2172 0 1784 0 
Q 1141 0 747 490 
Q 353 981 353 1791 
Q 353 2603 747 3093 
Q 1141 3584 1784 3584 
Q 2172 3584 2450 3431 
Q 2728 3278 2906 2969 
L 2906 3500 
L 3481 3500 
L 3481 434 
z
" transform="scale(0.015625)"/>
       <path id="DejaVuSans-75" d="M 544 1381 
L 544 3500 
L 1119 3500 
L 1119 1403 
Q 1119 906 1312 657 
Q 1506 409 1894 409 
Q 2359 409 2629 706 
Q 2900 1003 2900 1516 
L 2900 3500 
L 3475 3500 
L 3475 0 
L 2900 0 
L 2900 538 
Q 2691 219 2414 64 
Q 2138 -91 1772 -91 
Q 1169 -91 856 284 
Q 544 659 544 1381 
z
M 1991 3584 
L 1991 3584 
z
" transform="scale(0.015625)"/>
       <path id="DejaVuSans-64" d="M 2906 2969 
L 2906 4863 
L 3481 4863 
L 3481 0 
L 2906 0 
L 2906 525 
Q 2725 213 2448 61 
Q 2172 -91 1784 -91 
Q 1150 -91 751 415 
Q 353 922 353 1747 
Q 353 2572 751 3078 
Q 1150 3584 1784 3584 
Q 2172 3584 2448 3432 
Q 2725 3281 2906 2969 
z
M 947 1747 
Q 947 1113 1208 752 
Q 1469 391 1925 391 
Q 2381 391 2643 752 
Q 2906 1113 2906 1747 
Q 2906 2381 2643 2742 
Q 2381 3103 1925 3103 
Q 1469 3103 1208 2742 
Q 947 2381 947 1747 
z
" transform="scale(0.015625)"/>
       <path id="DejaVuSans-68" d="M 3513 2113 
L 3513 0 
L 2938 0 
L 2938 2094 
Q 2938 2591 2744 2837 
Q 2550 3084 2163 3084 
Q 1697 3084 1428 2787 
Q 1159 2491 1159 1978 
L 1159 0 
L 581 0 
L 581 4863 
L 1159 4863 
L 1159 2956 
Q 1366 3272 1645 3428 
Q 1925 3584 2291 3584 
Q 2894 3584 3203 3211 
Q 3513 2838 3513 2113 
z
" transform="scale(0.015625)"/>
      </defs>
      <use xlink:href="#DejaVuSans-67"/>
      <use xlink:href="#DejaVuSans-72" x="63.476562"/>
      <use xlink:href="#DejaVuSans-6f" x="102.339844"/>
      <use xlink:href="#DejaVuSans-75" x="163.521484"/>
      <use xlink:href="#DejaVuSans-6e" x="226.900391"/>
      <use xlink:href="#DejaVuSans-64" x="290.279297"/>
      <use xlink:href="#DejaVuSans-20" x="353.755859"/>
      <use xlink:href="#DejaVuSans-74" x="385.542969"/>
      <use xlink:href="#DejaVuSans-72" x="424.751953"/>
      <use xlink:href="#DejaVuSans-75" x="465.865234"/>
      <use xlink:href="#DejaVuSans-74" x="529.244141"/>
      <use xlink:href="#DejaVuSans-68" x="568.453125"/>
     </g>
    </g>
    <g id="PathCollection_2">
     <g>
      <use xlink:href="#m91b304b3e1" x="124.431823" y="46.936094" style="fill: #ff0000; stroke: #ff0000"/>
     </g>
    </g>
    <g id="text_11">
     <!-- observed -->
     <g transform="translate(137.031823 48.773594) scale(0.07 -0.07)">
      <defs>
       <path id="DejaVuSans-62" d="M 3116 1747 
Q 3116 2381 2855 2742 
Q 2594 3103 2138 3103 
Q 1681 3103 1420 2742 
Q 1159 2381 1159 1747 
Q 1159 1113 1420 752 
Q 1681 391 2138 391 
Q 2594 391 2855 752 
Q 3116 1113 3116 1747 
z
M 1159 2969 
Q 1341 3281 1617 3432 
Q 1894 3584 2278 3584 
Q 2916 3584 3314 3078 
Q 3713 2572 3713 1747 
Q 3713 922 3314 415 
Q 2916 -91 2278 -91 
Q 1894 -91 1617 61 
Q 1341 213 1159 525 
L 1159 0 
L 581 0 
L 581 4863 
L 1159 4863 
L 1159 2969 
z
" transform="scale(0.015625)"/>
       <path id="DejaVuSans-76" d="M 191 3500 
L 800 3500 
L 1894 563 
L 2988 3500 
L 3597 3500 
L 2284 0 
L 1503 0 
L 191 3500 
z
" transform="scale(0.015625)"/>
      </defs>
      <use xlink:href="#DejaVuSans-6f"/>
      <use xlink:href="#DejaVuSans-62" x="61.181641"/>
      <use xlink:href="#DejaVuSans-73" x="124.658203"/>
      <use xlink:href="#DejaVuSans-65" x="176.757812"/>
      <use xlink:href="#DejaVuSans-72" x="238.28125"/>
      <use xlink:href="#DejaVuSans-76" x="279.394531"/>
      <use xlink:href="#DejaVuSans-65" x="338.574219"/>
      <use xlink:href="#DejaVuSans-64" x="400.097656"/>
     </g>
    </g>
    <g id="line2d_10">
     <path d="M 117.431823 56.598281 
L 124.431823 56.598281 
L 131.431823 56.598281 
" style="fill: none; stroke: #1f77b4; stroke-width: 1.5; stroke-linecap: square"/>
    </g>
    <g id="text_12">
     <!-- predicted mean -->
     <g transform="translate(137.031823 59.048281) scale(0.07 -0.07)">
      <defs>
       <path id="DejaVuSans-6d" d="M 3328 2828 
Q 3544 3216 3844 3400 
Q 4144 3584 4550 3584 
Q 5097 3584 5394 3201 
Q 5691 2819 5691 2113 
L 5691 0 
L 5113 0 
L 5113 2094 
Q 5113 2597 4934 2840 
Q 4756 3084 4391 3084 
Q 3944 3084 3684 2787 
Q 3425 2491 3425 1978 
L 3425 0 
L 2847 0 
L 2847 2094 
Q 2847 2600 2669 2842 
Q 2491 3084 2119 3084 
Q 1678 3084 1418 2786 
Q 1159 2488 1159 1978 
L 1159 0 
L 581 0 
L 581 3500 
L 1159 3500 
L 1159 2956 
Q 1356 3278 1631 3431 
Q 1906 3584 2284 3584 
Q 2666 3584 2933 3390 
Q 3200 3197 3328 2828 
z
" transform="scale(0.015625)"/>
       <path id="DejaVuSans-61" d="M 2194 1759 
Q 1497 1759 1228 1600 
Q 959 1441 959 1056 
Q 959 750 1161 570 
Q 1363 391 1709 391 
Q 2188 391 2477 730 
Q 2766 1069 2766 1631 
L 2766 1759 
L 2194 1759 
z
M 3341 1997 
L 3341 0 
L 2766 0 
L 2766 531 
Q 2569 213 2275 61 
Q 1981 -91 1556 -91 
Q 1019 -91 701 211 
Q 384 513 384 1019 
Q 384 1609 779 1909 
Q 1175 2209 1959 2209 
L 2766 2209 
L 2766 2266 
Q 2766 2663 2505 2880 
Q 2244 3097 1772 3097 
Q 1472 3097 1187 3025 
Q 903 2953 641 2809 
L 641 3341 
Q 956 3463 1253 3523 
Q 1550 3584 1831 3584 
Q 2591 3584 2966 3190 
Q 3341 2797 3341 1997 
z
" transform="scale(0.015625)"/>
      </defs>
      <use xlink:href="#DejaVuSans-70"/>
      <use xlink:href="#DejaVuSans-72" x="63.476562"/>
      <use xlink:href="#DejaVuSans-65" x="102.339844"/>
      <use xlink:href="#DejaVuSans-64" x="163.863281"/>
      <use xlink:href="#DejaVuSans-69" x="227.339844"/>
      <use xlink:href="#DejaVuSans-63" x="255.123047"/>
      <use xlink:href="#DejaVuSans-74" x="310.103516"/>
      <use xlink:href="#DejaVuSans-65" x="349.3125"/>
      <use xlink:href="#DejaVuSans-64" x="410.835938"/>
      <use xlink:href="#DejaVuSans-20" x="474.3125"/>
      <use xlink:href="#DejaVuSans-6d" x="506.099609"/>
      <use xlink:href="#DejaVuSans-65" x="603.511719"/>
      <use xlink:href="#DejaVuSans-61" x="665.035156"/>
      <use xlink:href="#DejaVuSans-6e" x="726.314453"/>
     </g>
    </g>
    <g id="patch_8">
     <path d="M 117.431823 69.322969 
L 131.431823 69.322969 
L 131.431823 64.422969 
L 117.431823 64.422969 
z
" style="fill: #1f77b4; fill-opacity: 0.3"/>
    </g>
    <g id="text_13">
     <!-- posterior: 95% BCI -->
     <g transform="translate(137.031823 69.322969) scale(0.07 -0.07)">
      <defs>
       <path id="DejaVuSans-39" d="M 703 97 
L 703 672 
Q 941 559 1184 500 
Q 1428 441 1663 441 
Q 2288 441 2617 861 
Q 2947 1281 2994 2138 
Q 2813 1869 2534 1725 
Q 2256 1581 1919 1581 
Q 1219 1581 811 2004 
Q 403 2428 403 3163 
Q 403 3881 828 4315 
Q 1253 4750 1959 4750 
Q 2769 4750 3195 4129 
Q 3622 3509 3622 2328 
Q 3622 1225 3098 567 
Q 2575 -91 1691 -91 
Q 1453 -91 1209 -44 
Q 966 3 703 97 
z
M 1959 2075 
Q 2384 2075 2632 2365 
Q 2881 2656 2881 3163 
Q 2881 3666 2632 3958 
Q 2384 4250 1959 4250 
Q 1534 4250 1286 3958 
Q 1038 3666 1038 3163 
Q 1038 2656 1286 2365 
Q 1534 2075 1959 2075 
z
" transform="scale(0.015625)"/>
       <path id="DejaVuSans-25" d="M 4653 2053 
Q 4381 2053 4226 1822 
Q 4072 1591 4072 1178 
Q 4072 772 4226 539 
Q 4381 306 4653 306 
Q 4919 306 5073 539 
Q 5228 772 5228 1178 
Q 5228 1588 5073 1820 
Q 4919 2053 4653 2053 
z
M 4653 2450 
Q 5147 2450 5437 2106 
Q 5728 1763 5728 1178 
Q 5728 594 5436 251 
Q 5144 -91 4653 -91 
Q 4153 -91 3862 251 
Q 3572 594 3572 1178 
Q 3572 1766 3864 2108 
Q 4156 2450 4653 2450 
z
M 1428 4353 
Q 1159 4353 1004 4120 
Q 850 3888 850 3481 
Q 850 3069 1003 2837 
Q 1156 2606 1428 2606 
Q 1700 2606 1854 2837 
Q 2009 3069 2009 3481 
Q 2009 3884 1853 4118 
Q 1697 4353 1428 4353 
z
M 4250 4750 
L 4750 4750 
L 1831 -91 
L 1331 -91 
L 4250 4750 
z
M 1428 4750 
Q 1922 4750 2215 4408 
Q 2509 4066 2509 3481 
Q 2509 2891 2217 2550 
Q 1925 2209 1428 2209 
Q 931 2209 642 2551 
Q 353 2894 353 3481 
Q 353 4063 643 4406 
Q 934 4750 1428 4750 
z
" transform="scale(0.015625)"/>
       <path id="DejaVuSans-42" d="M 1259 2228 
L 1259 519 
L 2272 519 
Q 2781 519 3026 730 
Q 3272 941 3272 1375 
Q 3272 1813 3026 2020 
Q 2781 2228 2272 2228 
L 1259 2228 
z
M 1259 4147 
L 1259 2741 
L 2194 2741 
Q 2656 2741 2882 2914 
Q 3109 3088 3109 3444 
Q 3109 3797 2882 3972 
Q 2656 4147 2194 4147 
L 1259 4147 
z
M 628 4666 
L 2241 4666 
Q 2963 4666 3353 4366 
Q 3744 4066 3744 3513 
Q 3744 3084 3544 2831 
Q 3344 2578 2956 2516 
Q 3422 2416 3680 2098 
Q 3938 1781 3938 1306 
Q 3938 681 3513 340 
Q 3088 0 2303 0 
L 628 0 
L 628 4666 
z
" transform="scale(0.015625)"/>
       <path id="DejaVuSans-43" d="M 4122 4306 
L 4122 3641 
Q 3803 3938 3442 4084 
Q 3081 4231 2675 4231 
Q 1875 4231 1450 3742 
Q 1025 3253 1025 2328 
Q 1025 1406 1450 917 
Q 1875 428 2675 428 
Q 3081 428 3442 575 
Q 3803 722 4122 1019 
L 4122 359 
Q 3791 134 3420 21 
Q 3050 -91 2638 -91 
Q 1578 -91 968 557 
Q 359 1206 359 2328 
Q 359 3453 968 4101 
Q 1578 4750 2638 4750 
Q 3056 4750 3426 4639 
Q 3797 4528 4122 4306 
z
" transform="scale(0.015625)"/>
       <path id="DejaVuSans-49" d="M 628 4666 
L 1259 4666 
L 1259 0 
L 628 0 
L 628 4666 
z
" transform="scale(0.015625)"/>
      </defs>
      <use xlink:href="#DejaVuSans-70"/>
      <use xlink:href="#DejaVuSans-6f" x="63.476562"/>
      <use xlink:href="#DejaVuSans-73" x="124.658203"/>
      <use xlink:href="#DejaVuSans-74" x="176.757812"/>
      <use xlink:href="#DejaVuSans-65" x="215.966797"/>
      <use xlink:href="#DejaVuSans-72" x="277.490234"/>
      <use xlink:href="#DejaVuSans-69" x="318.603516"/>
      <use xlink:href="#DejaVuSans-6f" x="346.386719"/>
      <use xlink:href="#DejaVuSans-72" x="407.568359"/>
      <use xlink:href="#DejaVuSans-3a" x="446.931641"/>
      <use xlink:href="#DejaVuSans-20" x="480.623047"/>
      <use xlink:href="#DejaVuSans-39" x="512.410156"/>
      <use xlink:href="#DejaVuSans-35" x="576.033203"/>
      <use xlink:href="#DejaVuSans-25" x="639.65625"/>
      <use xlink:href="#DejaVuSans-20" x="734.675781"/>
      <use xlink:href="#DejaVuSans-42" x="766.462891"/>
      <use xlink:href="#DejaVuSans-43" x="833.316406"/>
      <use xlink:href="#DejaVuSans-49" x="903.140625"/>
     </g>
    </g>
   </g>
  </g>
  <g id="axes_2">
   <g id="patch_9">
    <path d="M 235.211667 174.04 
L 418.948333 174.04 
L 418.948333 26.88 
L 235.211667 26.88 
z
" style="fill: #ffffff"/>
   </g>
   <g id="PathCollection_3">
    <g clip-path="url(#pc99b2741a6)">
     <use xlink:href="#m91b304b3e1" x="260.795253" y="66.682633" style="fill: #ff0000; stroke: #ff0000"/>
     <use xlink:href="#m91b304b3e1" x="288.704621" y="113.151574" style="fill: #ff0000; stroke: #ff0000"/>
     <use xlink:href="#m91b304b3e1" x="325.917109" y="102.724588" style="fill: #ff0000; stroke: #ff0000"/>
     <use xlink:href="#m91b304b3e1" x="351.500695" y="82.218805" style="fill: #ff0000; stroke: #ff0000"/>
     <use xlink:href="#m91b304b3e1" x="377.084281" y="105.931633" style="fill: #ff0000; stroke: #ff0000"/>
     <use xlink:href="#m91b304b3e1" x="402.667867" y="139.660689" style="fill: #ff0000; stroke: #ff0000"/>
    </g>
   </g>
   <g id="PolyCollection_2">
    <path d="M 235.211667 102.526031 
L 235.211667 102.526031 
L 237.537447 101.350042 
L 239.863228 95.613878 
L 242.189008 88.738481 
L 244.514789 85.54939 
L 246.84057 80.853003 
L 249.16635 73.312278 
L 251.492131 72.782958 
L 253.817912 69.053997 
L 256.143692 67.881593 
L 258.469473 67.097293 
L 260.795253 66.682633 
L 263.121032 70.165108 
L 265.446815 75.35165 
L 267.772595 80.076968 
L 270.098375 85.854144 
L 272.424157 89.95044 
L 274.749937 95.434781 
L 277.075717 99.572994 
L 279.401499 103.69856 
L 281.727279 107.793855 
L 284.053061 108.898266 
L 286.378839 111.235335 
L 288.704621 113.151574 
L 291.030398 115.578 
L 293.356181 116.820395 
L 295.681963 118.808948 
L 298.00774 119.323803 
L 300.333523 118.941865 
L 302.659305 119.298222 
L 304.985082 118.096906 
L 307.310865 117.966481 
L 309.636647 116.166058 
L 311.962424 114.875573 
L 314.288207 113.499902 
L 316.61399 111.719158 
L 318.939767 109.52587 
L 321.265549 107.673749 
L 323.591332 105.049604 
L 325.917109 102.724588 
L 328.242891 100.964094 
L 330.568674 98.994566 
L 332.894456 96.845099 
L 335.220228 94.552923 
L 337.54601 92.950232 
L 339.871793 90.645756 
L 342.197576 88.612644 
L 344.523358 86.433614 
L 346.84913 84.809231 
L 349.174912 83.260525 
L 351.500695 82.218805 
L 353.826477 83.331129 
L 356.15226 83.783119 
L 358.478042 85.323516 
L 360.803814 87.206963 
L 363.129596 89.459218 
L 365.455379 91.850116 
L 367.781161 94.328478 
L 370.106944 97.149192 
L 372.432727 99.901808 
L 374.758498 102.87733 
L 377.084281 105.931633 
L 379.410063 112.598639 
L 381.735846 117.829428 
L 384.061628 119.774319 
L 386.3874 126.396421 
L 388.713182 138.499021 
L 391.038965 140.239447 
L 393.364747 142.515509 
L 395.69053 146.787942 
L 398.016312 146.874321 
L 400.342084 145.574157 
L 402.667867 139.660689 
L 404.993649 143.683609 
L 407.319432 148.590389 
L 409.645214 152.213037 
L 411.970997 156.780238 
L 414.296768 160.570251 
L 416.622551 162.675159 
L 418.948333 167.350909 
L 418.948333 167.350909 
L 418.948333 79.381559 
L 416.622551 86.915744 
L 414.296768 93.746248 
L 411.970997 101.537402 
L 409.645214 112.349027 
L 407.319432 127.165805 
L 404.993649 136.853101 
L 402.667867 139.660689 
L 400.342084 134.869931 
L 398.016312 130.951787 
L 395.69053 127.225334 
L 393.364747 123.342784 
L 391.038965 120.362776 
L 388.713182 117.61092 
L 386.3874 114.788977 
L 384.061628 112.740334 
L 381.735846 110.342098 
L 379.410063 108.38096 
L 377.084281 105.931633 
L 374.758498 100.923478 
L 372.432727 96.391274 
L 370.106944 92.373492 
L 367.781161 89.105865 
L 365.455379 86.489738 
L 363.129596 84.235943 
L 360.803814 82.866066 
L 358.478042 81.433296 
L 356.15226 81.002307 
L 353.826477 81.48064 
L 351.500695 82.218805 
L 349.174912 82.086589 
L 346.84913 82.143374 
L 344.523358 83.059262 
L 342.197576 84.24469 
L 339.871793 85.561188 
L 337.54601 88.032688 
L 335.220228 90.101597 
L 332.894456 92.968733 
L 330.568674 96.353151 
L 328.242891 99.292477 
L 325.917109 102.724588 
L 323.591332 103.747083 
L 321.265549 104.844883 
L 318.939767 105.75038 
L 316.61399 106.869342 
L 314.288207 107.897736 
L 311.962424 108.749335 
L 309.636647 109.238374 
L 307.310865 110.926077 
L 304.985082 111.294261 
L 302.659305 112.527111 
L 300.333523 112.455105 
L 298.00774 113.53938 
L 295.681963 114.395926 
L 293.356181 114.133715 
L 291.030398 113.813017 
L 288.704621 113.151574 
L 286.378839 107.663788 
L 284.053061 102.085834 
L 281.727279 96.364354 
L 279.401499 91.647854 
L 277.075717 85.397381 
L 274.749937 80.018673 
L 272.424157 73.654973 
L 270.098375 71.613701 
L 267.772595 69.069506 
L 265.446815 67.445375 
L 263.121032 66.360428 
L 260.795253 66.682633 
L 258.469473 63.332919 
L 256.143692 60.889807 
L 253.817912 58.645463 
L 251.492131 55.981181 
L 249.16635 55.13567 
L 246.84057 53.501689 
L 244.514789 52.311649 
L 242.189008 50.993483 
L 239.863228 50.786109 
L 237.537447 49.677385 
L 235.211667 50.47383 
z
" clip-path="url(#pc99b2741a6)" style="fill: #1f77b4; fill-opacity: 0.3"/>
   </g>
   <g id="matplotlib.axis_3">
    <g id="xtick_7">
     <g id="line2d_11">
      <g>
       <use xlink:href="#m5935ff4e62" x="235.211667" y="174.04" style="stroke: #000000; stroke-width: 0.8"/>
      </g>
     </g>
     <g id="text_14">
      <!-- 0.0 -->
      <g transform="translate(227.260104 188.638438) scale(0.1 -0.1)">
       <use xlink:href="#DejaVuSans-30"/>
       <use xlink:href="#DejaVuSans-2e" x="63.623047"/>
       <use xlink:href="#DejaVuSans-30" x="95.410156"/>
      </g>
     </g>
    </g>
    <g id="xtick_8">
     <g id="line2d_12">
      <g>
       <use xlink:href="#m5935ff4e62" x="271.959" y="174.04" style="stroke: #000000; stroke-width: 0.8"/>
      </g>
     </g>
     <g id="text_15">
      <!-- 0.2 -->
      <g transform="translate(264.007437 188.638438) scale(0.1 -0.1)">
       <use xlink:href="#DejaVuSans-30"/>
       <use xlink:href="#DejaVuSans-2e" x="63.623047"/>
       <use xlink:href="#DejaVuSans-32" x="95.410156"/>
      </g>
     </g>
    </g>
    <g id="xtick_9">
     <g id="line2d_13">
      <g>
       <use xlink:href="#m5935ff4e62" x="308.706333" y="174.04" style="stroke: #000000; stroke-width: 0.8"/>
      </g>
     </g>
     <g id="text_16">
      <!-- 0.4 -->
      <g transform="translate(300.754771 188.638438) scale(0.1 -0.1)">
       <use xlink:href="#DejaVuSans-30"/>
       <use xlink:href="#DejaVuSans-2e" x="63.623047"/>
       <use xlink:href="#DejaVuSans-34" x="95.410156"/>
      </g>
     </g>
    </g>
    <g id="xtick_10">
     <g id="line2d_14">
      <g>
       <use xlink:href="#m5935ff4e62" x="345.453667" y="174.04" style="stroke: #000000; stroke-width: 0.8"/>
      </g>
     </g>
     <g id="text_17">
      <!-- 0.6 -->
      <g transform="translate(337.502104 188.638438) scale(0.1 -0.1)">
       <use xlink:href="#DejaVuSans-30"/>
       <use xlink:href="#DejaVuSans-2e" x="63.623047"/>
       <use xlink:href="#DejaVuSans-36" x="95.410156"/>
      </g>
     </g>
    </g>
    <g id="xtick_11">
     <g id="line2d_15">
      <g>
       <use xlink:href="#m5935ff4e62" x="382.201" y="174.04" style="stroke: #000000; stroke-width: 0.8"/>
      </g>
     </g>
     <g id="text_18">
      <!-- 0.8 -->
      <g transform="translate(374.249437 188.638438) scale(0.1 -0.1)">
       <use xlink:href="#DejaVuSans-30"/>
       <use xlink:href="#DejaVuSans-2e" x="63.623047"/>
       <use xlink:href="#DejaVuSans-38" x="95.410156"/>
      </g>
     </g>
    </g>
    <g id="xtick_12">
     <g id="line2d_16">
      <g>
       <use xlink:href="#m5935ff4e62" x="418.948333" y="174.04" style="stroke: #000000; stroke-width: 0.8"/>
      </g>
     </g>
     <g id="text_19">
      <!-- 1.0 -->
      <g transform="translate(410.996771 188.638438) scale(0.1 -0.1)">
       <use xlink:href="#DejaVuSans-31"/>
       <use xlink:href="#DejaVuSans-2e" x="63.623047"/>
       <use xlink:href="#DejaVuSans-30" x="95.410156"/>
      </g>
     </g>
    </g>
    <g id="text_20">
     <!-- x -->
     <g transform="translate(324.120625 202.316563) scale(0.1 -0.1)">
      <use xlink:href="#DejaVuSans-78"/>
     </g>
    </g>
   </g>
   <g id="matplotlib.axis_4"/>
   <g id="line2d_17">
    <path d="M 235.211667 33.569091 
L 237.537447 35.386988 
L 239.863228 36.977525 
L 242.189008 39.371761 
L 244.514789 41.695511 
L 246.84057 45.116373 
L 249.16635 47.986858 
L 251.492131 51.417995 
L 253.817912 55.077276 
L 256.143692 58.862913 
L 258.469473 62.650214 
L 260.795253 66.670894 
L 263.121032 70.932194 
L 265.446815 75.624872 
L 267.772595 79.662104 
L 270.098375 84.087219 
L 272.424157 88.241967 
L 274.749937 92.653426 
L 277.075717 96.50784 
L 279.401499 100.768185 
L 281.727279 104.603996 
L 284.053061 108.214608 
L 286.378839 111.408483 
L 288.704621 114.015737 
L 291.030398 117.012379 
L 293.356181 119.074082 
L 295.681963 120.598583 
L 298.00774 122.238304 
L 300.333523 123.026061 
L 302.659305 123.691172 
L 304.985082 123.425725 
L 307.310865 122.746367 
L 309.636647 122.22023 
L 311.962424 120.688765 
L 314.288207 118.727408 
L 316.61399 116.416123 
L 318.939767 113.94248 
L 321.265549 111.603912 
L 323.591332 108.079867 
L 325.917109 105.226817 
L 328.242891 102.145043 
L 330.568674 98.938493 
L 332.894456 95.67595 
L 335.220228 92.417919 
L 337.54601 89.825259 
L 339.871793 87.130013 
L 342.197576 84.605253 
L 344.523358 82.816332 
L 346.84913 81.483543 
L 349.174912 80.05313 
L 351.500695 79.716037 
L 353.826477 79.375154 
L 356.15226 79.873171 
L 358.478042 80.823008 
L 360.803814 82.496186 
L 363.129596 84.255085 
L 365.455379 86.525055 
L 367.781161 89.908634 
L 370.106944 93.385739 
L 372.432727 96.818699 
L 374.758498 100.712784 
L 377.084281 104.937658 
L 379.410063 109.287266 
L 381.735846 113.549428 
L 384.061628 117.858809 
L 386.3874 121.808028 
L 388.713182 125.811062 
L 391.038965 129.20746 
L 393.364747 132.356992 
L 395.69053 134.914389 
L 398.016312 137.205768 
L 400.342084 138.24331 
L 402.667867 139.529338 
L 404.993649 139.879432 
L 407.319432 139.380712 
L 409.645214 138.344279 
L 411.970997 136.773713 
L 414.296768 134.611085 
L 416.622551 131.847685 
L 418.948333 128.553962 
" clip-path="url(#pc99b2741a6)" style="fill: none; stroke: #ffa500; stroke-width: 1.5; stroke-linecap: square"/>
   </g>
   <g id="line2d_18">
    <path d="M 235.211667 73.619326 
L 237.537447 69.342238 
L 239.863228 67.887845 
L 242.189008 64.918602 
L 244.514789 62.491883 
L 246.84057 61.650551 
L 249.16635 60.883028 
L 251.492131 61.370546 
L 253.817912 61.517217 
L 256.143692 62.744823 
L 258.469473 64.647083 
L 260.795253 66.682633 
L 263.121032 68.574505 
L 265.446815 72.043668 
L 267.772595 76.114651 
L 270.098375 80.058118 
L 272.424157 84.055295 
L 274.749937 89.643183 
L 277.075717 93.989638 
L 279.401499 98.60606 
L 281.727279 102.956714 
L 284.053061 105.917724 
L 286.378839 109.496988 
L 288.704621 113.151574 
L 291.030398 114.588156 
L 293.356181 115.694458 
L 295.681963 116.138802 
L 298.00774 116.108311 
L 300.333523 115.652346 
L 302.659305 115.512108 
L 304.985082 113.949168 
L 307.310865 113.209354 
L 309.636647 111.948944 
L 311.962424 110.312457 
L 314.288207 109.127087 
L 316.61399 108.020028 
L 318.939767 106.779531 
L 321.265549 105.732772 
L 323.591332 104.272695 
L 325.917109 102.724588 
L 328.242891 100.746601 
L 330.568674 98.054142 
L 332.894456 95.727594 
L 335.220228 93.139562 
L 337.54601 91.442264 
L 339.871793 89.207295 
L 342.197576 87.431858 
L 344.523358 85.242671 
L 346.84913 84.227311 
L 349.174912 82.984665 
L 351.500695 82.218805 
L 353.826477 81.945387 
L 356.15226 82.049333 
L 358.478042 83.092493 
L 360.803814 84.407665 
L 363.129596 85.87541 
L 365.455379 87.854596 
L 367.781161 90.915022 
L 370.106944 94.446632 
L 372.432727 97.622147 
L 374.758498 101.815425 
L 377.084281 105.931633 
L 379.410063 109.025437 
L 381.735846 112.031056 
L 384.061628 115.279362 
L 386.3874 117.916262 
L 388.713182 120.932364 
L 391.038965 124.436203 
L 393.364747 127.586928 
L 395.69053 130.46087 
L 398.016312 133.301674 
L 400.342084 136.54271 
L 402.667867 139.660689 
L 404.993649 141.510868 
L 407.319432 143.737549 
L 409.645214 145.036465 
L 411.970997 145.975375 
L 414.296768 146.479524 
L 416.622551 146.326937 
L 418.948333 145.662349 
" clip-path="url(#pc99b2741a6)" style="fill: none; stroke: #1f77b4; stroke-width: 1.5; stroke-linecap: square"/>
   </g>
   <g id="patch_10">
    <path d="M 235.211667 174.04 
L 235.211667 26.88 
" style="fill: none; stroke: #000000; stroke-width: 0.8; stroke-linejoin: miter; stroke-linecap: square"/>
   </g>
   <g id="patch_11">
    <path d="M 418.948333 174.04 
L 418.948333 26.88 
" style="fill: none; stroke: #000000; stroke-width: 0.8; stroke-linejoin: miter; stroke-linecap: square"/>
   </g>
   <g id="patch_12">
    <path d="M 235.211667 174.04 
L 418.948333 174.04 
" style="fill: none; stroke: #000000; stroke-width: 0.8; stroke-linejoin: miter; stroke-linecap: square"/>
   </g>
   <g id="patch_13">
    <path d="M 235.211667 26.88 
L 418.948333 26.88 
" style="fill: none; stroke: #000000; stroke-width: 0.8; stroke-linejoin: miter; stroke-linecap: square"/>
   </g>
   <g id="text_21">
    <!-- inference: 6 points -->
    <g transform="translate(270.909687 20.88) scale(0.12 -0.12)">
     <use xlink:href="#DejaVuSans-69"/>
     <use xlink:href="#DejaVuSans-6e" x="27.783203"/>
     <use xlink:href="#DejaVuSans-66" x="91.162109"/>
     <use xlink:href="#DejaVuSans-65" x="126.367188"/>
     <use xlink:href="#DejaVuSans-72" x="187.890625"/>
     <use xlink:href="#DejaVuSans-65" x="226.753906"/>
     <use xlink:href="#DejaVuSans-6e" x="288.277344"/>
     <use xlink:href="#DejaVuSans-63" x="351.65625"/>
     <use xlink:href="#DejaVuSans-65" x="406.636719"/>
     <use xlink:href="#DejaVuSans-3a" x="468.160156"/>
     <use xlink:href="#DejaVuSans-20" x="501.851562"/>
     <use xlink:href="#DejaVuSans-36" x="533.638672"/>
     <use xlink:href="#DejaVuSans-20" x="597.261719"/>
     <use xlink:href="#DejaVuSans-70" x="629.048828"/>
     <use xlink:href="#DejaVuSans-6f" x="692.525391"/>
     <use xlink:href="#DejaVuSans-69" x="753.707031"/>
     <use xlink:href="#DejaVuSans-6e" x="781.490234"/>
     <use xlink:href="#DejaVuSans-74" x="844.869141"/>
     <use xlink:href="#DejaVuSans-73" x="884.078125"/>
    </g>
   </g>
   <g id="legend_2">
    <g id="patch_14">
     <path d="M 326.36349 73.57875 
L 414.048333 73.57875 
Q 415.448333 73.57875 415.448333 72.17875 
L 415.448333 31.78 
Q 415.448333 30.38 414.048333 30.38 
L 326.36349 30.38 
Q 324.96349 30.38 324.96349 31.78 
L 324.96349 72.17875 
Q 324.96349 73.57875 326.36349 73.57875 
z
" style="fill: #ffffff; opacity: 0.8; stroke: #cccccc; stroke-linejoin: miter"/>
    </g>
    <g id="line2d_19">
     <path d="M 327.76349 36.048906 
L 334.76349 36.048906 
L 341.76349 36.048906 
" style="fill: none; stroke: #ffa500; stroke-width: 1.5; stroke-linecap: square"/>
    </g>
    <g id="text_22">
     <!-- ground truth -->
     <g transform="translate(347.36349 38.498906) scale(0.07 -0.07)">
      <use xlink:href="#DejaVuSans-67"/>
      <use xlink:href="#DejaVuSans-72" x="63.476562"/>
      <use xlink:href="#DejaVuSans-6f" x="102.339844"/>
      <use xlink:href="#DejaVuSans-75" x="163.521484"/>
      <use xlink:href="#DejaVuSans-6e" x="226.900391"/>
      <use xlink:href="#DejaVuSans-64" x="290.279297"/>
      <use xlink:href="#DejaVuSans-20" x="353.755859"/>
      <use xlink:href="#DejaVuSans-74" x="385.542969"/>
      <use xlink:href="#DejaVuSans-72" x="424.751953"/>
      <use xlink:href="#DejaVuSans-75" x="465.865234"/>
      <use xlink:href="#DejaVuSans-74" x="529.244141"/>
      <use xlink:href="#DejaVuSans-68" x="568.453125"/>
     </g>
    </g>
    <g id="PathCollection_4">
     <g>
      <use xlink:href="#m91b304b3e1" x="334.76349" y="46.936094" style="fill: #ff0000; stroke: #ff0000"/>
     </g>
    </g>
    <g id="text_23">
     <!-- observed -->
     <g transform="translate(347.36349 48.773594) scale(0.07 -0.07)">
      <use xlink:href="#DejaVuSans-6f"/>
      <use xlink:href="#DejaVuSans-62" x="61.181641"/>
      <use xlink:href="#DejaVuSans-73" x="124.658203"/>
      <use xlink:href="#DejaVuSans-65" x="176.757812"/>
      <use xlink:href="#DejaVuSans-72" x="238.28125"/>
      <use xlink:href="#DejaVuSans-76" x="279.394531"/>
      <use xlink:href="#DejaVuSans-65" x="338.574219"/>
      <use xlink:href="#DejaVuSans-64" x="400.097656"/>
     </g>
    </g>
    <g id="line2d_20">
     <path d="M 327.76349 56.598281 
L 334.76349 56.598281 
L 341.76349 56.598281 
" style="fill: none; stroke: #1f77b4; stroke-width: 1.5; stroke-linecap: square"/>
    </g>
    <g id="text_24">
     <!-- predicted mean -->
     <g transform="translate(347.36349 59.048281) scale(0.07 -0.07)">
      <use xlink:href="#DejaVuSans-70"/>
      <use xlink:href="#DejaVuSans-72" x="63.476562"/>
      <use xlink:href="#DejaVuSans-65" x="102.339844"/>
      <use xlink:href="#DejaVuSans-64" x="163.863281"/>
      <use xlink:href="#DejaVuSans-69" x="227.339844"/>
      <use xlink:href="#DejaVuSans-63" x="255.123047"/>
      <use xlink:href="#DejaVuSans-74" x="310.103516"/>
      <use xlink:href="#DejaVuSans-65" x="349.3125"/>
      <use xlink:href="#DejaVuSans-64" x="410.835938"/>
      <use xlink:href="#DejaVuSans-20" x="474.3125"/>
      <use xlink:href="#DejaVuSans-6d" x="506.099609"/>
      <use xlink:href="#DejaVuSans-65" x="603.511719"/>
      <use xlink:href="#DejaVuSans-61" x="665.035156"/>
      <use xlink:href="#DejaVuSans-6e" x="726.314453"/>
     </g>
    </g>
    <g id="patch_15">
     <path d="M 327.76349 69.322969 
L 341.76349 69.322969 
L 341.76349 64.422969 
L 327.76349 64.422969 
z
" style="fill: #1f77b4; fill-opacity: 0.3"/>
    </g>
    <g id="text_25">
     <!-- posterior: 95% BCI -->
     <g transform="translate(347.36349 69.322969) scale(0.07 -0.07)">
      <use xlink:href="#DejaVuSans-70"/>
      <use xlink:href="#DejaVuSans-6f" x="63.476562"/>
      <use xlink:href="#DejaVuSans-73" x="124.658203"/>
      <use xlink:href="#DejaVuSans-74" x="176.757812"/>
      <use xlink:href="#DejaVuSans-65" x="215.966797"/>
      <use xlink:href="#DejaVuSans-72" x="277.490234"/>
      <use xlink:href="#DejaVuSans-69" x="318.603516"/>
      <use xlink:href="#DejaVuSans-6f" x="346.386719"/>
      <use xlink:href="#DejaVuSans-72" x="407.568359"/>
      <use xlink:href="#DejaVuSans-3a" x="446.931641"/>
      <use xlink:href="#DejaVuSans-20" x="480.623047"/>
      <use xlink:href="#DejaVuSans-39" x="512.410156"/>
      <use xlink:href="#DejaVuSans-35" x="576.033203"/>
      <use xlink:href="#DejaVuSans-25" x="639.65625"/>
      <use xlink:href="#DejaVuSans-20" x="734.675781"/>
      <use xlink:href="#DejaVuSans-42" x="766.462891"/>
      <use xlink:href="#DejaVuSans-43" x="833.316406"/>
      <use xlink:href="#DejaVuSans-49" x="903.140625"/>
     </g>
    </g>
   </g>
  </g>
  <g id="axes_3">
   <g id="patch_16">
    <path d="M 445.543333 174.04 
L 629.28 174.04 
L 629.28 26.88 
L 445.543333 26.88 
z
" style="fill: #ffffff"/>
   </g>
   <g id="PathCollection_5">
    <g clip-path="url(#p53db1726e1)">
     <use xlink:href="#m91b304b3e1" x="450.194895" y="40.528552" style="fill: #ff0000; stroke: #ff0000"/>
     <use xlink:href="#m91b304b3e1" x="473.452699" y="75.085689" style="fill: #ff0000; stroke: #ff0000"/>
     <use xlink:href="#m91b304b3e1" x="496.710505" y="113.13316" style="fill: #ff0000; stroke: #ff0000"/>
     <use xlink:href="#m91b304b3e1" x="519.968314" y="124.41943" style="fill: #ff0000; stroke: #ff0000"/>
     <use xlink:href="#m91b304b3e1" x="543.226123" y="102.05034" style="fill: #ff0000; stroke: #ff0000"/>
     <use xlink:href="#m91b304b3e1" x="566.483926" y="81.413931" style="fill: #ff0000; stroke: #ff0000"/>
     <use xlink:href="#m91b304b3e1" x="589.74173" y="113.188535" style="fill: #ff0000; stroke: #ff0000"/>
     <use xlink:href="#m91b304b3e1" x="612.999533" y="142.860606" style="fill: #ff0000; stroke: #ff0000"/>
    </g>
   </g>
   <g id="PolyCollection_3">
    <path d="M 445.543333 38.328441 
L 445.543333 38.328441 
L 447.869114 39.507104 
L 450.194895 40.528552 
L 452.520675 44.500804 
L 454.846456 48.384687 
L 457.172236 52.165991 
L 459.498016 55.840047 
L 461.823797 59.301279 
L 464.149579 62.651643 
L 466.475358 65.896323 
L 468.801139 69.048453 
L 471.126919 72.216617 
L 473.452699 75.085689 
L 475.778482 80.150785 
L 478.104261 84.37939 
L 480.430041 88.820018 
L 482.755824 92.660549 
L 485.081604 97.275275 
L 487.407383 100.485028 
L 489.733166 104.356877 
L 492.058946 107.675719 
L 494.384728 110.806599 
L 496.710505 113.13316 
L 499.036288 117.254166 
L 501.362065 120.200361 
L 503.687847 122.590562 
L 506.01363 124.791225 
L 508.339407 126.061223 
L 510.665189 126.918751 
L 512.990972 127.219002 
L 515.316749 126.828235 
L 517.642532 126.243576 
L 519.968314 124.41943 
L 522.294091 124.167392 
L 524.619874 123.038316 
L 526.945656 121.263119 
L 529.271433 119.4523 
L 531.597216 117.115078 
L 533.922998 114.537311 
L 536.248775 111.812581 
L 538.574558 108.741994 
L 540.90034 105.708055 
L 543.226123 102.05034 
L 545.551895 100.007284 
L 547.877677 97.530982 
L 550.20346 94.873694 
L 552.529242 92.30798 
L 554.855025 90.23839 
L 557.180796 88.228117 
L 559.506579 86.345193 
L 561.832361 84.469564 
L 564.158144 83.511886 
L 566.483926 81.413931 
L 568.809709 84.551248 
L 571.135481 86.564492 
L 573.461263 89.752989 
L 575.787046 92.914309 
L 578.112828 96.203876 
L 580.438611 99.897379 
L 582.764393 103.03702 
L 585.090165 106.634988 
L 587.415947 110.145144 
L 589.74173 113.188535 
L 592.067512 118.039485 
L 594.393295 122.502018 
L 596.719066 127.018119 
L 599.044849 130.651414 
L 601.370632 134.75345 
L 603.696414 137.695912 
L 606.022197 140.65506 
L 608.347979 142.530571 
L 610.673751 143.816836 
L 612.999533 142.860606 
L 615.325316 147.126129 
L 617.651098 150.248338 
L 619.976881 154.053152 
L 622.302663 157.736744 
L 624.628435 160.862313 
L 626.954217 163.809811 
L 629.28 167.350909 
L 629.28 167.350909 
L 629.28 129.206144 
L 626.954217 132.878993 
L 624.628435 136.057686 
L 622.302663 139.398323 
L 619.976881 140.943903 
L 617.651098 142.50461 
L 615.325316 143.265973 
L 612.999533 142.860606 
L 610.673751 139.983842 
L 608.347979 136.706621 
L 606.022197 133.640489 
L 603.696414 130.297538 
L 601.370632 127.609004 
L 599.044849 124.5322 
L 596.719066 121.933404 
L 594.393295 119.077606 
L 592.067512 115.855828 
L 589.74173 113.188535 
L 587.415947 108.635051 
L 585.090165 104.596389 
L 582.764393 99.974025 
L 580.438611 96.646491 
L 578.112828 92.665195 
L 575.787046 89.646624 
L 573.461263 86.680237 
L 571.135481 84.291824 
L 568.809709 82.86695 
L 566.483926 81.413931 
L 564.158144 81.663658 
L 561.832361 81.739112 
L 559.506579 83.10719 
L 557.180796 84.567232 
L 554.855025 86.620859 
L 552.529242 88.970259 
L 550.20346 91.889374 
L 547.877677 95.097516 
L 545.551895 98.278626 
L 543.226123 102.05034 
L 540.90034 104.634954 
L 538.574558 107.330869 
L 536.248775 109.832942 
L 533.922998 112.269034 
L 531.597216 114.844383 
L 529.271433 117.275225 
L 526.945656 119.485649 
L 524.619874 121.316641 
L 522.294091 123.009629 
L 519.968314 124.41943 
L 517.642532 124.995275 
L 515.316749 125.227062 
L 512.990972 125.006943 
L 510.665189 124.298851 
L 508.339407 123.512715 
L 506.01363 122.020636 
L 503.687847 120.426858 
L 501.362065 118.281445 
L 499.036288 116.044757 
L 496.710505 113.13316 
L 494.384728 109.554274 
L 492.058946 105.927348 
L 489.733166 101.701567 
L 487.407383 97.767524 
L 485.081604 94.197699 
L 482.755824 89.818698 
L 480.430041 86.078506 
L 478.104261 82.307563 
L 475.778482 78.734048 
L 473.452699 75.085689 
L 471.126919 70.232078 
L 468.801139 65.658467 
L 466.475358 61.395775 
L 464.149579 57.404755 
L 461.823797 53.442027 
L 459.498016 49.930524 
L 457.172236 46.809847 
L 454.846456 44.222826 
L 452.520675 42.151113 
L 450.194895 40.528552 
L 447.869114 37.153823 
L 445.543333 33.569091 
z
" clip-path="url(#p53db1726e1)" style="fill: #1f77b4; fill-opacity: 0.3"/>
   </g>
   <g id="matplotlib.axis_5">
    <g id="xtick_13">
     <g id="line2d_21">
      <g>
       <use xlink:href="#m5935ff4e62" x="445.543333" y="174.04" style="stroke: #000000; stroke-width: 0.8"/>
      </g>
     </g>
     <g id="text_26">
      <!-- 0.0 -->
      <g transform="translate(437.591771 188.638438) scale(0.1 -0.1)">
       <use xlink:href="#DejaVuSans-30"/>
       <use xlink:href="#DejaVuSans-2e" x="63.623047"/>
       <use xlink:href="#DejaVuSans-30" x="95.410156"/>
      </g>
     </g>
    </g>
    <g id="xtick_14">
     <g id="line2d_22">
      <g>
       <use xlink:href="#m5935ff4e62" x="482.290667" y="174.04" style="stroke: #000000; stroke-width: 0.8"/>
      </g>
     </g>
     <g id="text_27">
      <!-- 0.2 -->
      <g transform="translate(474.339104 188.638438) scale(0.1 -0.1)">
       <use xlink:href="#DejaVuSans-30"/>
       <use xlink:href="#DejaVuSans-2e" x="63.623047"/>
       <use xlink:href="#DejaVuSans-32" x="95.410156"/>
      </g>
     </g>
    </g>
    <g id="xtick_15">
     <g id="line2d_23">
      <g>
       <use xlink:href="#m5935ff4e62" x="519.038" y="174.04" style="stroke: #000000; stroke-width: 0.8"/>
      </g>
     </g>
     <g id="text_28">
      <!-- 0.4 -->
      <g transform="translate(511.086437 188.638438) scale(0.1 -0.1)">
       <use xlink:href="#DejaVuSans-30"/>
       <use xlink:href="#DejaVuSans-2e" x="63.623047"/>
       <use xlink:href="#DejaVuSans-34" x="95.410156"/>
      </g>
     </g>
    </g>
    <g id="xtick_16">
     <g id="line2d_24">
      <g>
       <use xlink:href="#m5935ff4e62" x="555.785333" y="174.04" style="stroke: #000000; stroke-width: 0.8"/>
      </g>
     </g>
     <g id="text_29">
      <!-- 0.6 -->
      <g transform="translate(547.833771 188.638438) scale(0.1 -0.1)">
       <use xlink:href="#DejaVuSans-30"/>
       <use xlink:href="#DejaVuSans-2e" x="63.623047"/>
       <use xlink:href="#DejaVuSans-36" x="95.410156"/>
      </g>
     </g>
    </g>
    <g id="xtick_17">
     <g id="line2d_25">
      <g>
       <use xlink:href="#m5935ff4e62" x="592.532667" y="174.04" style="stroke: #000000; stroke-width: 0.8"/>
      </g>
     </g>
     <g id="text_30">
      <!-- 0.8 -->
      <g transform="translate(584.581104 188.638438) scale(0.1 -0.1)">
       <use xlink:href="#DejaVuSans-30"/>
       <use xlink:href="#DejaVuSans-2e" x="63.623047"/>
       <use xlink:href="#DejaVuSans-38" x="95.410156"/>
      </g>
     </g>
    </g>
    <g id="xtick_18">
     <g id="line2d_26">
      <g>
       <use xlink:href="#m5935ff4e62" x="629.28" y="174.04" style="stroke: #000000; stroke-width: 0.8"/>
      </g>
     </g>
     <g id="text_31">
      <!-- 1.0 -->
      <g transform="translate(621.328437 188.638438) scale(0.1 -0.1)">
       <use xlink:href="#DejaVuSans-31"/>
       <use xlink:href="#DejaVuSans-2e" x="63.623047"/>
       <use xlink:href="#DejaVuSans-30" x="95.410156"/>
      </g>
     </g>
    </g>
    <g id="text_32">
     <!-- x -->
     <g transform="translate(534.452292 202.316563) scale(0.1 -0.1)">
      <use xlink:href="#DejaVuSans-78"/>
     </g>
    </g>
   </g>
   <g id="matplotlib.axis_6"/>
   <g id="line2d_27">
    <path d="M 445.543333 38.219738 
L 447.869114 40.012776 
L 450.194895 41.581564 
L 452.520675 43.94306 
L 454.846456 46.235034 
L 457.172236 49.609119 
L 459.498016 52.440352 
L 461.823797 55.82457 
L 464.149579 59.433813 
L 466.475358 63.167684 
L 468.801139 66.903196 
L 471.126919 70.868896 
L 473.452699 75.071926 
L 475.778482 79.700434 
L 478.104261 83.68246 
L 480.430041 88.047065 
L 482.755824 92.144999 
L 485.081604 96.496135 
L 487.407383 100.297842 
L 489.733166 104.49993 
L 492.058946 108.283288 
L 494.384728 111.844528 
L 496.710505 114.994729 
L 499.036288 117.566331 
L 501.362065 120.521995 
L 503.687847 122.555507 
L 506.01363 124.05916 
L 508.339407 125.676459 
L 510.665189 126.453444 
L 512.990972 127.109461 
L 515.316749 126.847643 
L 517.642532 126.177575 
L 519.968314 125.658633 
L 522.294091 124.148109 
L 524.619874 122.213572 
L 526.945656 119.933893 
L 529.271433 117.494076 
L 531.597216 115.187486 
L 533.922998 111.71163 
L 536.248775 108.897594 
L 538.574558 105.85796 
L 540.90034 102.695257 
L 543.226123 99.477328 
L 545.551895 96.263848 
L 547.877677 93.706641 
L 550.20346 91.048251 
L 552.529242 88.558015 
L 554.855025 86.793556 
L 557.180796 85.478992 
L 559.506579 84.06814 
L 561.832361 83.735656 
L 564.158144 83.399434 
L 566.483926 83.890641 
L 568.809709 84.82749 
L 571.135481 86.477788 
L 573.461263 88.212635 
L 575.787046 90.451565 
L 578.112828 93.788876 
L 580.438611 97.218433 
L 582.764393 100.604451 
L 585.090165 104.445286 
L 587.415947 108.612388 
L 589.74173 112.902518 
L 592.067512 117.106398 
L 594.393295 121.356852 
L 596.719066 125.252067 
L 599.044849 129.200363 
L 601.370632 132.550317 
L 603.696414 135.656782 
L 606.022197 138.179208 
L 608.347979 140.439254 
L 610.673751 141.462609 
L 612.999533 142.731051 
L 615.325316 143.076357 
L 617.651098 142.584457 
L 619.976881 141.562197 
L 622.302663 140.013107 
L 624.628435 137.880052 
L 626.954217 135.154439 
L 629.28 131.905756 
" clip-path="url(#p53db1726e1)" style="fill: none; stroke: #ffa500; stroke-width: 1.5; stroke-linecap: square"/>
   </g>
   <g id="line2d_28">
    <path d="M 445.543333 35.781357 
L 447.869114 38.411469 
L 450.194895 40.528552 
L 452.520675 43.293104 
L 454.846456 46.340447 
L 457.172236 49.543112 
L 459.498016 52.896802 
L 461.823797 56.339514 
L 464.149579 59.952665 
L 466.475358 63.564785 
L 468.801139 67.26107 
L 471.126919 71.150596 
L 473.452699 75.085689 
L 475.778482 79.437231 
L 478.104261 83.362534 
L 480.430041 87.491046 
L 482.755824 91.26236 
L 485.081604 95.840043 
L 487.407383 99.165254 
L 489.733166 103.081791 
L 492.058946 106.81516 
L 494.384728 110.173901 
L 496.710505 113.13316 
L 499.036288 116.587149 
L 501.362065 119.068299 
L 503.687847 121.319695 
L 506.01363 123.113209 
L 508.339407 124.548493 
L 510.665189 125.390664 
L 512.990972 125.929967 
L 515.316749 125.933775 
L 517.642532 125.56193 
L 519.968314 124.41943 
L 522.294091 123.592281 
L 524.619874 122.205277 
L 526.945656 120.45323 
L 529.271433 118.435282 
L 531.597216 116.09086 
L 533.922998 113.545997 
L 536.248775 110.91216 
L 538.574558 108.061958 
L 540.90034 105.18945 
L 543.226123 102.05034 
L 545.551895 99.079026 
L 547.877677 96.196612 
L 550.20346 93.147737 
L 552.529242 90.423758 
L 554.855025 88.253975 
L 557.180796 86.191073 
L 559.506579 84.588508 
L 561.832361 83.036849 
L 564.158144 82.584852 
L 566.483926 81.413931 
L 568.809709 83.783051 
L 571.135481 85.615691 
L 573.461263 88.516032 
L 575.787046 91.651908 
L 578.112828 94.799158 
L 580.438611 98.651075 
L 582.764393 101.847226 
L 585.090165 105.791967 
L 587.415947 109.513292 
L 589.74173 113.188535 
L 592.067512 116.703952 
L 594.393295 120.378021 
L 596.719066 123.674514 
L 599.044849 126.795666 
L 601.370632 130.102202 
L 603.696414 132.866066 
L 606.022197 136.129205 
L 608.347979 138.714701 
L 610.673751 141.303988 
L 612.999533 142.860606 
L 615.325316 145.298726 
L 617.651098 147.084619 
L 619.976881 148.656761 
L 622.302663 150.087714 
L 624.628435 151.091018 
L 626.954217 151.439126 
L 629.28 151.992251 
" clip-path="url(#p53db1726e1)" style="fill: none; stroke: #1f77b4; stroke-width: 1.5; stroke-linecap: square"/>
   </g>
   <g id="patch_17">
    <path d="M 445.543333 174.04 
L 445.543333 26.88 
" style="fill: none; stroke: #000000; stroke-width: 0.8; stroke-linejoin: miter; stroke-linecap: square"/>
   </g>
   <g id="patch_18">
    <path d="M 629.28 174.04 
L 629.28 26.88 
" style="fill: none; stroke: #000000; stroke-width: 0.8; stroke-linejoin: miter; stroke-linecap: square"/>
   </g>
   <g id="patch_19">
    <path d="M 445.543333 174.04 
L 629.28 174.04 
" style="fill: none; stroke: #000000; stroke-width: 0.8; stroke-linejoin: miter; stroke-linecap: square"/>
   </g>
   <g id="patch_20">
    <path d="M 445.543333 26.88 
L 629.28 26.88 
" style="fill: none; stroke: #000000; stroke-width: 0.8; stroke-linejoin: miter; stroke-linecap: square"/>
   </g>
   <g id="text_33">
    <!-- inference: 8 points -->
    <g transform="translate(481.241354 20.88) scale(0.12 -0.12)">
     <use xlink:href="#DejaVuSans-69"/>
     <use xlink:href="#DejaVuSans-6e" x="27.783203"/>
     <use xlink:href="#DejaVuSans-66" x="91.162109"/>
     <use xlink:href="#DejaVuSans-65" x="126.367188"/>
     <use xlink:href="#DejaVuSans-72" x="187.890625"/>
     <use xlink:href="#DejaVuSans-65" x="226.753906"/>
     <use xlink:href="#DejaVuSans-6e" x="288.277344"/>
     <use xlink:href="#DejaVuSans-63" x="351.65625"/>
     <use xlink:href="#DejaVuSans-65" x="406.636719"/>
     <use xlink:href="#DejaVuSans-3a" x="468.160156"/>
     <use xlink:href="#DejaVuSans-20" x="501.851562"/>
     <use xlink:href="#DejaVuSans-38" x="533.638672"/>
     <use xlink:href="#DejaVuSans-20" x="597.261719"/>
     <use xlink:href="#DejaVuSans-70" x="629.048828"/>
     <use xlink:href="#DejaVuSans-6f" x="692.525391"/>
     <use xlink:href="#DejaVuSans-69" x="753.707031"/>
     <use xlink:href="#DejaVuSans-6e" x="781.490234"/>
     <use xlink:href="#DejaVuSans-74" x="844.869141"/>
     <use xlink:href="#DejaVuSans-73" x="884.078125"/>
    </g>
   </g>
   <g id="legend_3">
    <g id="patch_21">
     <path d="M 536.695156 73.57875 
L 624.38 73.57875 
Q 625.78 73.57875 625.78 72.17875 
L 625.78 31.78 
Q 625.78 30.38 624.38 30.38 
L 536.695156 30.38 
Q 535.295156 30.38 535.295156 31.78 
L 535.295156 72.17875 
Q 535.295156 73.57875 536.695156 73.57875 
z
" style="fill: #ffffff; opacity: 0.8; stroke: #cccccc; stroke-linejoin: miter"/>
    </g>
    <g id="line2d_29">
     <path d="M 538.095156 36.048906 
L 545.095156 36.048906 
L 552.095156 36.048906 
" style="fill: none; stroke: #ffa500; stroke-width: 1.5; stroke-linecap: square"/>
    </g>
    <g id="text_34">
     <!-- ground truth -->
     <g transform="translate(557.695156 38.498906) scale(0.07 -0.07)">
      <use xlink:href="#DejaVuSans-67"/>
      <use xlink:href="#DejaVuSans-72" x="63.476562"/>
      <use xlink:href="#DejaVuSans-6f" x="102.339844"/>
      <use xlink:href="#DejaVuSans-75" x="163.521484"/>
      <use xlink:href="#DejaVuSans-6e" x="226.900391"/>
      <use xlink:href="#DejaVuSans-64" x="290.279297"/>
      <use xlink:href="#DejaVuSans-20" x="353.755859"/>
      <use xlink:href="#DejaVuSans-74" x="385.542969"/>
      <use xlink:href="#DejaVuSans-72" x="424.751953"/>
      <use xlink:href="#DejaVuSans-75" x="465.865234"/>
      <use xlink:href="#DejaVuSans-74" x="529.244141"/>
      <use xlink:href="#DejaVuSans-68" x="568.453125"/>
     </g>
    </g>
    <g id="PathCollection_6">
     <g>
      <use xlink:href="#m91b304b3e1" x="545.095156" y="46.936094" style="fill: #ff0000; stroke: #ff0000"/>
     </g>
    </g>
    <g id="text_35">
     <!-- observed -->
     <g transform="translate(557.695156 48.773594) scale(0.07 -0.07)">
      <use xlink:href="#DejaVuSans-6f"/>
      <use xlink:href="#DejaVuSans-62" x="61.181641"/>
      <use xlink:href="#DejaVuSans-73" x="124.658203"/>
      <use xlink:href="#DejaVuSans-65" x="176.757812"/>
      <use xlink:href="#DejaVuSans-72" x="238.28125"/>
      <use xlink:href="#DejaVuSans-76" x="279.394531"/>
      <use xlink:href="#DejaVuSans-65" x="338.574219"/>
      <use xlink:href="#DejaVuSans-64" x="400.097656"/>
     </g>
    </g>
    <g id="line2d_30">
     <path d="M 538.095156 56.598281 
L 545.095156 56.598281 
L 552.095156 56.598281 
" style="fill: none; stroke: #1f77b4; stroke-width: 1.5; stroke-linecap: square"/>
    </g>
    <g id="text_36">
     <!-- predicted mean -->
     <g transform="translate(557.695156 59.048281) scale(0.07 -0.07)">
      <use xlink:href="#DejaVuSans-70"/>
      <use xlink:href="#DejaVuSans-72" x="63.476562"/>
      <use xlink:href="#DejaVuSans-65" x="102.339844"/>
      <use xlink:href="#DejaVuSans-64" x="163.863281"/>
      <use xlink:href="#DejaVuSans-69" x="227.339844"/>
      <use xlink:href="#DejaVuSans-63" x="255.123047"/>
      <use xlink:href="#DejaVuSans-74" x="310.103516"/>
      <use xlink:href="#DejaVuSans-65" x="349.3125"/>
      <use xlink:href="#DejaVuSans-64" x="410.835938"/>
      <use xlink:href="#DejaVuSans-20" x="474.3125"/>
      <use xlink:href="#DejaVuSans-6d" x="506.099609"/>
      <use xlink:href="#DejaVuSans-65" x="603.511719"/>
      <use xlink:href="#DejaVuSans-61" x="665.035156"/>
      <use xlink:href="#DejaVuSans-6e" x="726.314453"/>
     </g>
    </g>
    <g id="patch_22">
     <path d="M 538.095156 69.322969 
L 552.095156 69.322969 
L 552.095156 64.422969 
L 538.095156 64.422969 
z
" style="fill: #1f77b4; fill-opacity: 0.3"/>
    </g>
    <g id="text_37">
     <!-- posterior: 95% BCI -->
     <g transform="translate(557.695156 69.322969) scale(0.07 -0.07)">
      <use xlink:href="#DejaVuSans-70"/>
      <use xlink:href="#DejaVuSans-6f" x="63.476562"/>
      <use xlink:href="#DejaVuSans-73" x="124.658203"/>
      <use xlink:href="#DejaVuSans-74" x="176.757812"/>
      <use xlink:href="#DejaVuSans-65" x="215.966797"/>
      <use xlink:href="#DejaVuSans-72" x="277.490234"/>
      <use xlink:href="#DejaVuSans-69" x="318.603516"/>
      <use xlink:href="#DejaVuSans-6f" x="346.386719"/>
      <use xlink:href="#DejaVuSans-72" x="407.568359"/>
      <use xlink:href="#DejaVuSans-3a" x="446.931641"/>
      <use xlink:href="#DejaVuSans-20" x="480.623047"/>
      <use xlink:href="#DejaVuSans-39" x="512.410156"/>
      <use xlink:href="#DejaVuSans-35" x="576.033203"/>
      <use xlink:href="#DejaVuSans-25" x="639.65625"/>
      <use xlink:href="#DejaVuSans-20" x="734.675781"/>
      <use xlink:href="#DejaVuSans-42" x="766.462891"/>
      <use xlink:href="#DejaVuSans-43" x="833.316406"/>
      <use xlink:href="#DejaVuSans-49" x="903.140625"/>
     </g>
    </g>
   </g>
  </g>
 </g>
 <defs>
  <clipPath id="pb911f0a60f">
   <rect x="24.88" y="26.88" width="183.736667" height="147.16"/>
  </clipPath>
  <clipPath id="pc99b2741a6">
   <rect x="235.211667" y="26.88" width="183.736667" height="147.16"/>
  </clipPath>
  <clipPath id="p53db1726e1">
   <rect x="445.543333" y="26.88" width="183.736667" height="147.16"/>
  </clipPath>
 </defs>
</svg>
