<?xml version="1.0" encoding="utf-8" standalone="no"?>
<!DOCTYPE svg PUBLIC "-//W3C//DTD SVG 1.1//EN"
  "http://www.w3.org/Graphics/SVG/1.1/DTD/svg11.dtd">
<svg xmlns:xlink="http://www.w3.org/1999/xlink" width="576pt" height="216pt" viewBox="0 0 576 216" xmlns="http://www.w3.org/2000/svg" version="1.1">
 <metadata>
  <rdf:RDF xmlns:dc="http://purl.org/dc/elements/1.1/" xmlns:cc="http://creativecommons.org/ns#" xmlns:rdf="http://www.w3.org/1999/02/22-rdf-syntax-ns#">
   <cc:Work>
    <dc:type rdf:resource="http://purl.org/dc/dcmitype/StillImage"/>
    <dc:date>2024-10-22T21:23:35.728513</dc:date>
    <dc:format>image/svg+xml</dc:format>
    <dc:creator>
     <cc:Agent>
      <dc:title>Matplotlib v3.7.1, https://matplotlib.org/</dc:title>
     </cc:Agent>
    </dc:creator>
   </cc:Work>
  </rdf:RDF>
 </metadata>
 <defs>
  <style type="text/css">*{stroke-linejoin: round; stroke-linecap: butt}</style>
 </defs>
 <g id="figure_1">
  <g id="patch_1">
   <path d="M 0 216 
L 576 216 
L 576 0 
L 0 0 
z
" style="fill: #ffffff"/>
  </g>
  <g id="axes_1">
   <g id="patch_2">
    <path d="M 12.96 200.88 
L 155.778914 200.88 
L 155.778914 31.2 
L 12.96 31.2 
z
" style="fill: #ffffff"/>
   </g>
   <g id="PolyCollection_1">
    <defs>
     <path id="ma4f7ba4bba" d="M 19.451769 -15.437485 
L 19.451769 -15.12 
L 23.779615 -15.12 
L 23.779615 -15.12 
L 28.107461 -15.12 
L 28.107461 -15.12 
L 32.435306 -15.12 
L 32.435306 -15.12 
L 36.763152 -15.12 
L 36.763152 -15.12 
L 41.090998 -15.12 
L 41.090998 -15.12 
L 45.418844 -15.12 
L 45.418844 -15.12 
L 49.74669 -15.12 
L 49.74669 -15.12 
L 54.074536 -15.12 
L 54.074536 -15.12 
L 58.402382 -15.12 
L 58.402382 -15.12 
L 62.730228 -15.12 
L 62.730228 -15.12 
L 67.058073 -15.12 
L 67.058073 -15.12 
L 71.385919 -15.12 
L 71.385919 -15.12 
L 75.713765 -15.12 
L 75.713765 -15.12 
L 80.041611 -15.12 
L 80.041611 -15.12 
L 84.369457 -15.12 
L 84.369457 -15.12 
L 88.697303 -15.12 
L 88.697303 -15.12 
L 93.025149 -15.12 
L 93.025149 -15.12 
L 97.352994 -15.12 
L 97.352994 -15.12 
L 101.68084 -15.12 
L 101.68084 -15.12 
L 106.008686 -15.12 
L 106.008686 -15.12 
L 110.336532 -15.12 
L 110.336532 -15.12 
L 114.664378 -15.12 
L 114.664378 -15.12 
L 118.992224 -15.12 
L 118.992224 -15.12 
L 123.32007 -15.12 
L 123.32007 -15.12 
L 127.647916 -15.12 
L 127.647916 -15.12 
L 131.975761 -15.12 
L 131.975761 -15.12 
L 136.303607 -15.12 
L 136.303607 -15.12 
L 140.631453 -15.12 
L 140.631453 -15.12 
L 144.959299 -15.12 
L 144.959299 -15.12 
L 149.287145 -15.12 
L 149.287145 -15.12 
L 149.287145 -16.389941 
L 149.287145 -16.389941 
L 149.287145 -16.389941 
L 144.959299 -16.389941 
L 144.959299 -17.342397 
L 140.631453 -17.342397 
L 140.631453 -17.342397 
L 136.303607 -17.342397 
L 136.303607 -20.834735 
L 131.975761 -20.834735 
L 131.975761 -23.692102 
L 127.647916 -23.692102 
L 127.647916 -29.089352 
L 123.32007 -29.089352 
L 123.32007 -35.121572 
L 118.992224 -35.121572 
L 118.992224 -51.31332 
L 114.664378 -51.31332 
L 114.664378 -66.235128 
L 110.336532 -66.235128 
L 110.336532 -89.411552 
L 106.008686 -89.411552 
L 106.008686 -95.126287 
L 101.68084 -95.126287 
L 101.68084 -139.891709 
L 97.352994 -139.891709 
L 97.352994 -161.480707 
L 93.025149 -161.480707 
L 93.025149 -156.400943 
L 88.697303 -156.400943 
L 88.697303 -176.72 
L 84.369457 -176.72 
L 84.369457 -164.020589 
L 80.041611 -164.020589 
L 80.041611 -145.606444 
L 75.713765 -145.606444 
L 75.713765 -124.969902 
L 71.385919 -124.969902 
L 71.385919 -117.985226 
L 67.058073 -117.985226 
L 67.058073 -95.761257 
L 62.730228 -95.761257 
L 62.730228 -70.044951 
L 58.402382 -70.044951 
L 58.402382 -54.805658 
L 54.074536 -54.805658 
L 54.074536 -34.486601 
L 49.74669 -34.486601 
L 49.74669 -29.406837 
L 45.418844 -29.406837 
L 45.418844 -23.057132 
L 41.090998 -23.057132 
L 41.090998 -19.564794 
L 36.763152 -19.564794 
L 36.763152 -17.342397 
L 32.435306 -17.342397 
L 32.435306 -16.389941 
L 28.107461 -16.389941 
L 28.107461 -15.754971 
L 23.779615 -15.754971 
L 23.779615 -15.437485 
L 19.451769 -15.437485 
z
" style="stroke: #a34f4f"/>
    </defs>
    <g clip-path="url(#pd637e7f61e)">
     <use xlink:href="#ma4f7ba4bba" x="0" y="216" style="fill: #a34f4f; fill-opacity: 0.75; stroke: #a34f4f"/>
    </g>
   </g>
   <g id="patch_3">
    <path d="M 55.83403 200.88 
L 57.94737 200.88 
L 57.94737 85.800159 
L 55.83403 85.800159 
z
" clip-path="url(#pd637e7f61e)" style="fill: #808080; fill-opacity: 0.3; stroke: #000000; stroke-width: 0.19428; stroke-linejoin: miter"/>
   </g>
   <g id="patch_4">
    <path d="M 57.94737 200.88 
L 60.06071 200.88 
L 60.06071 96.202857 
L 57.94737 96.202857 
z
" clip-path="url(#pd637e7f61e)" style="fill: #808080; fill-opacity: 0.3; stroke: #000000; stroke-width: 0.19428; stroke-linejoin: miter"/>
   </g>
   <g id="patch_5">
    <path d="M 60.06071 200.88 
L 62.17405 200.88 
L 62.17405 75.397462 
L 60.06071 75.397462 
z
" clip-path="url(#pd637e7f61e)" style="fill: #808080; fill-opacity: 0.3; stroke: #000000; stroke-width: 0.19428; stroke-linejoin: miter"/>
   </g>
   <g id="patch_6">
    <path d="M 62.17405 200.88 
L 64.28739 200.88 
L 64.28739 96.202857 
L 62.17405 96.202857 
z
" clip-path="url(#pd637e7f61e)" style="fill: #808080; fill-opacity: 0.3; stroke: #000000; stroke-width: 0.19428; stroke-linejoin: miter"/>
   </g>
   <g id="patch_7">
    <path d="M 64.28739 200.88 
L 66.40073 200.88 
L 66.40073 85.14999 
L 64.28739 85.14999 
z
" clip-path="url(#pd637e7f61e)" style="fill: #808080; fill-opacity: 0.3; stroke: #000000; stroke-width: 0.19428; stroke-linejoin: miter"/>
   </g>
   <g id="patch_8">
    <path d="M 66.40073 200.88 
L 68.51407 200.88 
L 68.51407 88.400833 
L 66.40073 88.400833 
z
" clip-path="url(#pd637e7f61e)" style="fill: #808080; fill-opacity: 0.3; stroke: #000000; stroke-width: 0.19428; stroke-linejoin: miter"/>
   </g>
   <g id="patch_9">
    <path d="M 68.51407 200.88 
L 70.62741 200.88 
L 70.62741 97.503194 
L 68.51407 97.503194 
z
" clip-path="url(#pd637e7f61e)" style="fill: #808080; fill-opacity: 0.3; stroke: #000000; stroke-width: 0.19428; stroke-linejoin: miter"/>
   </g>
   <g id="patch_10">
    <path d="M 70.62741 200.88 
L 72.74075 200.88 
L 72.74075 83.199485 
L 70.62741 83.199485 
z
" clip-path="url(#pd637e7f61e)" style="fill: #808080; fill-opacity: 0.3; stroke: #000000; stroke-width: 0.19428; stroke-linejoin: miter"/>
   </g>
   <g id="patch_11">
    <path d="M 72.74075 200.88 
L 74.85409 200.88 
L 74.85409 100.103868 
L 72.74075 100.103868 
z
" clip-path="url(#pd637e7f61e)" style="fill: #808080; fill-opacity: 0.3; stroke: #000000; stroke-width: 0.19428; stroke-linejoin: miter"/>
   </g>
   <g id="patch_12">
    <path d="M 74.85409 200.88 
L 76.96743 200.88 
L 76.96743 102.704542 
L 74.85409 102.704542 
z
" clip-path="url(#pd637e7f61e)" style="fill: #808080; fill-opacity: 0.3; stroke: #000000; stroke-width: 0.19428; stroke-linejoin: miter"/>
   </g>
   <g id="patch_13">
    <path d="M 76.96743 200.88 
L 79.08077 200.88 
L 79.08077 89.051002 
L 76.96743 89.051002 
z
" clip-path="url(#pd637e7f61e)" style="fill: #808080; fill-opacity: 0.3; stroke: #000000; stroke-width: 0.19428; stroke-linejoin: miter"/>
   </g>
   <g id="patch_14">
    <path d="M 79.08077 200.88 
L 81.19411 200.88 
L 81.19411 101.404205 
L 79.08077 101.404205 
z
" clip-path="url(#pd637e7f61e)" style="fill: #808080; fill-opacity: 0.3; stroke: #000000; stroke-width: 0.19428; stroke-linejoin: miter"/>
   </g>
   <g id="patch_15">
    <path d="M 81.19411 200.88 
L 83.30745 200.88 
L 83.30745 97.503194 
L 81.19411 97.503194 
z
" clip-path="url(#pd637e7f61e)" style="fill: #808080; fill-opacity: 0.3; stroke: #000000; stroke-width: 0.19428; stroke-linejoin: miter"/>
   </g>
   <g id="patch_16">
    <path d="M 83.30745 200.88 
L 85.42079 200.88 
L 85.42079 90.351339 
L 83.30745 90.351339 
z
" clip-path="url(#pd637e7f61e)" style="fill: #808080; fill-opacity: 0.3; stroke: #000000; stroke-width: 0.19428; stroke-linejoin: miter"/>
   </g>
   <g id="patch_17">
    <path d="M 85.42079 200.88 
L 87.53413 200.88 
L 87.53413 102.704542 
L 85.42079 102.704542 
z
" clip-path="url(#pd637e7f61e)" style="fill: #808080; fill-opacity: 0.3; stroke: #000000; stroke-width: 0.19428; stroke-linejoin: miter"/>
   </g>
   <g id="patch_18">
    <path d="M 87.53413 200.88 
L 89.64747 200.88 
L 89.64747 102.054374 
L 87.53413 102.054374 
z
" clip-path="url(#pd637e7f61e)" style="fill: #808080; fill-opacity: 0.3; stroke: #000000; stroke-width: 0.19428; stroke-linejoin: miter"/>
   </g>
   <g id="patch_19">
    <path d="M 89.64747 200.88 
L 91.76081 200.88 
L 91.76081 96.202857 
L 89.64747 96.202857 
z
" clip-path="url(#pd637e7f61e)" style="fill: #808080; fill-opacity: 0.3; stroke: #000000; stroke-width: 0.19428; stroke-linejoin: miter"/>
   </g>
   <g id="patch_20">
    <path d="M 91.76081 200.88 
L 93.87415 200.88 
L 93.87415 87.100496 
L 91.76081 87.100496 
z
" clip-path="url(#pd637e7f61e)" style="fill: #808080; fill-opacity: 0.3; stroke: #000000; stroke-width: 0.19428; stroke-linejoin: miter"/>
   </g>
   <g id="patch_21">
    <path d="M 93.87415 200.88 
L 95.98749 200.88 
L 95.98749 104.655048 
L 93.87415 104.655048 
z
" clip-path="url(#pd637e7f61e)" style="fill: #808080; fill-opacity: 0.3; stroke: #000000; stroke-width: 0.19428; stroke-linejoin: miter"/>
   </g>
   <g id="patch_22">
    <path d="M 95.98749 200.88 
L 98.10083 200.88 
L 98.10083 104.655048 
L 95.98749 104.655048 
z
" clip-path="url(#pd637e7f61e)" style="fill: #808080; fill-opacity: 0.3; stroke: #000000; stroke-width: 0.19428; stroke-linejoin: miter"/>
   </g>
   <g id="patch_23">
    <path d="M 98.10083 200.88 
L 100.21417 200.88 
L 100.21417 89.701171 
L 98.10083 89.701171 
z
" clip-path="url(#pd637e7f61e)" style="fill: #808080; fill-opacity: 0.3; stroke: #000000; stroke-width: 0.19428; stroke-linejoin: miter"/>
   </g>
   <g id="patch_24">
    <path d="M 100.21417 200.88 
L 102.32751 200.88 
L 102.32751 92.301845 
L 100.21417 92.301845 
z
" clip-path="url(#pd637e7f61e)" style="fill: #808080; fill-opacity: 0.3; stroke: #000000; stroke-width: 0.19428; stroke-linejoin: miter"/>
   </g>
   <g id="patch_25">
    <path d="M 102.32751 200.88 
L 104.44085 200.88 
L 104.44085 83.199485 
L 102.32751 83.199485 
z
" clip-path="url(#pd637e7f61e)" style="fill: #808080; fill-opacity: 0.3; stroke: #000000; stroke-width: 0.19428; stroke-linejoin: miter"/>
   </g>
   <g id="patch_26">
    <path d="M 104.44085 200.88 
L 106.55419 200.88 
L 106.55419 92.952014 
L 104.44085 92.952014 
z
" clip-path="url(#pd637e7f61e)" style="fill: #808080; fill-opacity: 0.3; stroke: #000000; stroke-width: 0.19428; stroke-linejoin: miter"/>
   </g>
   <g id="patch_27">
    <path d="M 106.55419 200.88 
L 108.66753 200.88 
L 108.66753 78.648305 
L 106.55419 78.648305 
z
" clip-path="url(#pd637e7f61e)" style="fill: #808080; fill-opacity: 0.3; stroke: #000000; stroke-width: 0.19428; stroke-linejoin: miter"/>
   </g>
   <g id="patch_28">
    <path d="M 108.66753 200.88 
L 110.78087 200.88 
L 110.78087 102.054374 
L 108.66753 102.054374 
z
" clip-path="url(#pd637e7f61e)" style="fill: #808080; fill-opacity: 0.3; stroke: #000000; stroke-width: 0.19428; stroke-linejoin: miter"/>
   </g>
   <g id="patch_29">
    <path d="M 110.78087 200.88 
L 112.89421 200.88 
L 112.89421 87.750665 
L 110.78087 87.750665 
z
" clip-path="url(#pd637e7f61e)" style="fill: #808080; fill-opacity: 0.3; stroke: #000000; stroke-width: 0.19428; stroke-linejoin: miter"/>
   </g>
   <g id="patch_30">
    <path d="M 112.89421 200.88 
L 115.00755 200.88 
L 115.00755 100.103868 
L 112.89421 100.103868 
z
" clip-path="url(#pd637e7f61e)" style="fill: #808080; fill-opacity: 0.3; stroke: #000000; stroke-width: 0.19428; stroke-linejoin: miter"/>
   </g>
   <g id="patch_31">
    <path d="M 115.00755 200.88 
L 117.12089 200.88 
L 117.12089 79.948642 
L 115.00755 79.948642 
z
" clip-path="url(#pd637e7f61e)" style="fill: #808080; fill-opacity: 0.3; stroke: #000000; stroke-width: 0.19428; stroke-linejoin: miter"/>
   </g>
   <g id="patch_32">
    <path d="M 117.12089 200.88 
L 119.23423 200.88 
L 119.23423 82.549316 
L 117.12089 82.549316 
z
" clip-path="url(#pd637e7f61e)" style="fill: #808080; fill-opacity: 0.3; stroke: #000000; stroke-width: 0.19428; stroke-linejoin: miter"/>
   </g>
   <g id="matplotlib.axis_1">
    <g id="xtick_1">
     <g id="line2d_1">
      <defs>
       <path id="md03d36f7e0" d="M 0 0 
L 0 3.5 
" style="stroke: #000000; stroke-width: 0.8"/>
      </defs>
      <g>
       <use xlink:href="#md03d36f7e0" x="24.115862" y="200.88" style="stroke: #000000; stroke-width: 0.8"/>
      </g>
     </g>
     <g id="text_1">
      <!-- 0.0 -->
      <g transform="translate(14.573987 216.998125) scale(0.12 -0.12)">
       <defs>
        <path id="DejaVuSans-30" d="M 2034 4250 
Q 1547 4250 1301 3770 
Q 1056 3291 1056 2328 
Q 1056 1369 1301 889 
Q 1547 409 2034 409 
Q 2525 409 2770 889 
Q 3016 1369 3016 2328 
Q 3016 3291 2770 3770 
Q 2525 4250 2034 4250 
z
M 2034 4750 
Q 2819 4750 3233 4129 
Q 3647 3509 3647 2328 
Q 3647 1150 3233 529 
Q 2819 -91 2034 -91 
Q 1250 -91 836 529 
Q 422 1150 422 2328 
Q 422 3509 836 4129 
Q 1250 4750 2034 4750 
z
" transform="scale(0.015625)"/>
        <path id="DejaVuSans-2e" d="M 684 794 
L 1344 794 
L 1344 0 
L 684 0 
L 684 794 
z
" transform="scale(0.015625)"/>
       </defs>
       <use xlink:href="#DejaVuSans-30"/>
       <use xlink:href="#DejaVuSans-2e" x="63.623047"/>
       <use xlink:href="#DejaVuSans-30" x="95.410156"/>
      </g>
     </g>
    </g>
    <g id="xtick_2">
     <g id="line2d_2">
      <g>
       <use xlink:href="#md03d36f7e0" x="87.533132" y="200.88" style="stroke: #000000; stroke-width: 0.8"/>
      </g>
     </g>
     <g id="text_2">
      <!-- 0.2 -->
      <g transform="translate(77.991257 216.998125) scale(0.12 -0.12)">
       <defs>
        <path id="DejaVuSans-32" d="M 1228 531 
L 3431 531 
L 3431 0 
L 469 0 
L 469 531 
Q 828 903 1448 1529 
Q 2069 2156 2228 2338 
Q 2531 2678 2651 2914 
Q 2772 3150 2772 3378 
Q 2772 3750 2511 3984 
Q 2250 4219 1831 4219 
Q 1534 4219 1204 4116 
Q 875 4013 500 3803 
L 500 4441 
Q 881 4594 1212 4672 
Q 1544 4750 1819 4750 
Q 2544 4750 2975 4387 
Q 3406 4025 3406 3419 
Q 3406 3131 3298 2873 
Q 3191 2616 2906 2266 
Q 2828 2175 2409 1742 
Q 1991 1309 1228 531 
z
" transform="scale(0.015625)"/>
       </defs>
       <use xlink:href="#DejaVuSans-30"/>
       <use xlink:href="#DejaVuSans-2e" x="63.623047"/>
       <use xlink:href="#DejaVuSans-32" x="95.410156"/>
      </g>
     </g>
    </g>
    <g id="xtick_3">
     <g id="line2d_3">
      <g>
       <use xlink:href="#md03d36f7e0" x="150.950403" y="200.88" style="stroke: #000000; stroke-width: 0.8"/>
      </g>
     </g>
     <g id="text_3">
      <!-- 0.4 -->
      <g transform="translate(141.408528 216.998125) scale(0.12 -0.12)">
       <defs>
        <path id="DejaVuSans-34" d="M 2419 4116 
L 825 1625 
L 2419 1625 
L 2419 4116 
z
M 2253 4666 
L 3047 4666 
L 3047 1625 
L 3713 1625 
L 3713 1100 
L 3047 1100 
L 3047 0 
L 2419 0 
L 2419 1100 
L 313 1100 
L 313 1709 
L 2253 4666 
z
" transform="scale(0.015625)"/>
       </defs>
       <use xlink:href="#DejaVuSans-30"/>
       <use xlink:href="#DejaVuSans-2e" x="63.623047"/>
       <use xlink:href="#DejaVuSans-34" x="95.410156"/>
      </g>
     </g>
    </g>
   </g>
   <g id="matplotlib.axis_2"/>
   <g id="line2d_4">
    <path d="M 103.38745 200.88 
L 103.38745 31.2 
" clip-path="url(#pd637e7f61e)" style="fill: none; stroke-dasharray: 5.55,2.4; stroke-dashoffset: 0; stroke: #000000; stroke-width: 1.5"/>
   </g>
   <g id="patch_33">
    <path d="M 12.96 200.88 
L 12.96 31.2 
" style="fill: none; stroke: #000000; stroke-width: 0.8; stroke-linejoin: miter; stroke-linecap: square"/>
   </g>
   <g id="patch_34">
    <path d="M 12.96 200.88 
L 155.778914 200.88 
" style="fill: none; stroke: #000000; stroke-width: 0.8; stroke-linejoin: miter; stroke-linecap: square"/>
   </g>
   <g id="text_4">
    <!-- $MAP=0.20$ -->
    <g transform="translate(117.217807 59.96325) scale(0.12 -0.12)">
     <defs>
      <path id="DejaVuSans-Oblique-4d" d="M 1081 4666 
L 2028 4666 
L 2572 1522 
L 4378 4666 
L 5350 4666 
L 4441 0 
L 3828 0 
L 4622 4091 
L 2791 897 
L 2175 897 
L 1581 4103 
L 788 0 
L 172 0 
L 1081 4666 
z
" transform="scale(0.015625)"/>
      <path id="DejaVuSans-Oblique-41" d="M 2356 4666 
L 3072 4666 
L 3938 0 
L 3278 0 
L 3084 1197 
L 984 1197 
L 325 0 
L -341 0 
L 2356 4666 
z
M 2584 4044 
L 1275 1722 
L 2988 1722 
L 2584 4044 
z
" transform="scale(0.015625)"/>
      <path id="DejaVuSans-Oblique-50" d="M 1081 4666 
L 2541 4666 
Q 3178 4666 3512 4369 
Q 3847 4072 3847 3500 
Q 3847 2731 3353 2303 
Q 2859 1875 1966 1875 
L 1172 1875 
L 806 0 
L 172 0 
L 1081 4666 
z
M 1613 4147 
L 1275 2394 
L 2069 2394 
Q 2606 2394 2893 2669 
Q 3181 2944 3181 3456 
Q 3181 3784 2986 3965 
Q 2791 4147 2438 4147 
L 1613 4147 
z
" transform="scale(0.015625)"/>
      <path id="DejaVuSans-3d" d="M 678 2906 
L 4684 2906 
L 4684 2381 
L 678 2381 
L 678 2906 
z
M 678 1631 
L 4684 1631 
L 4684 1100 
L 678 1100 
L 678 1631 
z
" transform="scale(0.015625)"/>
     </defs>
     <use xlink:href="#DejaVuSans-Oblique-4d" transform="translate(0 0.78125)"/>
     <use xlink:href="#DejaVuSans-Oblique-41" transform="translate(86.279297 0.78125)"/>
     <use xlink:href="#DejaVuSans-Oblique-50" transform="translate(154.6875 0.78125)"/>
     <use xlink:href="#DejaVuSans-3d" transform="translate(234.472656 0.78125)"/>
     <use xlink:href="#DejaVuSans-30" transform="translate(337.744141 0.78125)"/>
     <use xlink:href="#DejaVuSans-2e" transform="translate(401.367188 0.78125)"/>
     <use xlink:href="#DejaVuSans-32" transform="translate(427.654297 0.78125)"/>
     <use xlink:href="#DejaVuSans-30" transform="translate(491.277344 0.78125)"/>
    </g>
   </g>
   <g id="text_5">
    <!-- $Med=0.20$ -->
    <g transform="translate(117.217807 102.38325) scale(0.12 -0.12)">
     <defs>
      <path id="DejaVuSans-Oblique-65" d="M 3078 2063 
Q 3088 2113 3092 2166 
Q 3097 2219 3097 2272 
Q 3097 2653 2873 2875 
Q 2650 3097 2266 3097 
Q 1838 3097 1509 2826 
Q 1181 2556 1013 2059 
L 3078 2063 
z
M 3578 1613 
L 903 1613 
Q 884 1494 878 1425 
Q 872 1356 872 1306 
Q 872 872 1139 634 
Q 1406 397 1894 397 
Q 2269 397 2603 481 
Q 2938 566 3225 728 
L 3116 159 
Q 2806 34 2476 -28 
Q 2147 -91 1806 -91 
Q 1078 -91 686 257 
Q 294 606 294 1247 
Q 294 1794 489 2264 
Q 684 2734 1063 3103 
Q 1306 3334 1642 3459 
Q 1978 3584 2356 3584 
Q 2950 3584 3301 3228 
Q 3653 2872 3653 2272 
Q 3653 2128 3634 1964 
Q 3616 1800 3578 1613 
z
" transform="scale(0.015625)"/>
      <path id="DejaVuSans-Oblique-64" d="M 2675 525 
Q 2444 222 2128 65 
Q 1813 -91 1428 -91 
Q 903 -91 598 267 
Q 294 625 294 1247 
Q 294 1766 478 2236 
Q 663 2706 1013 3078 
Q 1244 3325 1534 3454 
Q 1825 3584 2144 3584 
Q 2481 3584 2739 3421 
Q 2997 3259 3138 2956 
L 3513 4863 
L 4091 4863 
L 3144 0 
L 2566 0 
L 2675 525 
z
M 891 1350 
Q 891 897 1095 644 
Q 1300 391 1663 391 
Q 1931 391 2161 520 
Q 2391 650 2566 903 
Q 2750 1166 2856 1509 
Q 2963 1853 2963 2188 
Q 2963 2622 2758 2865 
Q 2553 3109 2194 3109 
Q 1922 3109 1687 2981 
Q 1453 2853 1288 2613 
Q 1106 2353 998 2009 
Q 891 1666 891 1350 
z
" transform="scale(0.015625)"/>
     </defs>
     <use xlink:href="#DejaVuSans-Oblique-4d" transform="translate(0 0.015625)"/>
     <use xlink:href="#DejaVuSans-Oblique-65" transform="translate(86.279297 0.015625)"/>
     <use xlink:href="#DejaVuSans-Oblique-64" transform="translate(147.802734 0.015625)"/>
     <use xlink:href="#DejaVuSans-3d" transform="translate(230.761719 0.015625)"/>
     <use xlink:href="#DejaVuSans-30" transform="translate(334.033203 0.015625)"/>
     <use xlink:href="#DejaVuSans-2e" transform="translate(397.65625 0.015625)"/>
     <use xlink:href="#DejaVuSans-32" transform="translate(423.943359 0.015625)"/>
     <use xlink:href="#DejaVuSans-30" transform="translate(487.566406 0.015625)"/>
    </g>
   </g>
   <g id="text_6">
    <!-- transmission probability ($\beta$) -->
    <g transform="translate(-12.230543 25.2) scale(0.14 -0.14)">
     <defs>
      <path id="DejaVuSans-74" d="M 1172 4494 
L 1172 3500 
L 2356 3500 
L 2356 3053 
L 1172 3053 
L 1172 1153 
Q 1172 725 1289 603 
Q 1406 481 1766 481 
L 2356 481 
L 2356 0 
L 1766 0 
Q 1100 0 847 248 
Q 594 497 594 1153 
L 594 3053 
L 172 3053 
L 172 3500 
L 594 3500 
L 594 4494 
L 1172 4494 
z
" transform="scale(0.015625)"/>
      <path id="DejaVuSans-72" d="M 2631 2963 
Q 2534 3019 2420 3045 
Q 2306 3072 2169 3072 
Q 1681 3072 1420 2755 
Q 1159 2438 1159 1844 
L 1159 0 
L 581 0 
L 581 3500 
L 1159 3500 
L 1159 2956 
Q 1341 3275 1631 3429 
Q 1922 3584 2338 3584 
Q 2397 3584 2469 3576 
Q 2541 3569 2628 3553 
L 2631 2963 
z
" transform="scale(0.015625)"/>
      <path id="DejaVuSans-61" d="M 2194 1759 
Q 1497 1759 1228 1600 
Q 959 1441 959 1056 
Q 959 750 1161 570 
Q 1363 391 1709 391 
Q 2188 391 2477 730 
Q 2766 1069 2766 1631 
L 2766 1759 
L 2194 1759 
z
M 3341 1997 
L 3341 0 
L 2766 0 
L 2766 531 
Q 2569 213 2275 61 
Q 1981 -91 1556 -91 
Q 1019 -91 701 211 
Q 384 513 384 1019 
Q 384 1609 779 1909 
Q 1175 2209 1959 2209 
L 2766 2209 
L 2766 2266 
Q 2766 2663 2505 2880 
Q 2244 3097 1772 3097 
Q 1472 3097 1187 3025 
Q 903 2953 641 2809 
L 641 3341 
Q 956 3463 1253 3523 
Q 1550 3584 1831 3584 
Q 2591 3584 2966 3190 
Q 3341 2797 3341 1997 
z
" transform="scale(0.015625)"/>
      <path id="DejaVuSans-6e" d="M 3513 2113 
L 3513 0 
L 2938 0 
L 2938 2094 
Q 2938 2591 2744 2837 
Q 2550 3084 2163 3084 
Q 1697 3084 1428 2787 
Q 1159 2491 1159 1978 
L 1159 0 
L 581 0 
L 581 3500 
L 1159 3500 
L 1159 2956 
Q 1366 3272 1645 3428 
Q 1925 3584 2291 3584 
Q 2894 3584 3203 3211 
Q 3513 2838 3513 2113 
z
" transform="scale(0.015625)"/>
      <path id="DejaVuSans-73" d="M 2834 3397 
L 2834 2853 
Q 2591 2978 2328 3040 
Q 2066 3103 1784 3103 
Q 1356 3103 1142 2972 
Q 928 2841 928 2578 
Q 928 2378 1081 2264 
Q 1234 2150 1697 2047 
L 1894 2003 
Q 2506 1872 2764 1633 
Q 3022 1394 3022 966 
Q 3022 478 2636 193 
Q 2250 -91 1575 -91 
Q 1294 -91 989 -36 
Q 684 19 347 128 
L 347 722 
Q 666 556 975 473 
Q 1284 391 1588 391 
Q 1994 391 2212 530 
Q 2431 669 2431 922 
Q 2431 1156 2273 1281 
Q 2116 1406 1581 1522 
L 1381 1569 
Q 847 1681 609 1914 
Q 372 2147 372 2553 
Q 372 3047 722 3315 
Q 1072 3584 1716 3584 
Q 2034 3584 2315 3537 
Q 2597 3491 2834 3397 
z
" transform="scale(0.015625)"/>
      <path id="DejaVuSans-6d" d="M 3328 2828 
Q 3544 3216 3844 3400 
Q 4144 3584 4550 3584 
Q 5097 3584 5394 3201 
Q 5691 2819 5691 2113 
L 5691 0 
L 5113 0 
L 5113 2094 
Q 5113 2597 4934 2840 
Q 4756 3084 4391 3084 
Q 3944 3084 3684 2787 
Q 3425 2491 3425 1978 
L 3425 0 
L 2847 0 
L 2847 2094 
Q 2847 2600 2669 2842 
Q 2491 3084 2119 3084 
Q 1678 3084 1418 2786 
Q 1159 2488 1159 1978 
L 1159 0 
L 581 0 
L 581 3500 
L 1159 3500 
L 1159 2956 
Q 1356 3278 1631 3431 
Q 1906 3584 2284 3584 
Q 2666 3584 2933 3390 
Q 3200 3197 3328 2828 
z
" transform="scale(0.015625)"/>
      <path id="DejaVuSans-69" d="M 603 3500 
L 1178 3500 
L 1178 0 
L 603 0 
L 603 3500 
z
M 603 4863 
L 1178 4863 
L 1178 4134 
L 603 4134 
L 603 4863 
z
" transform="scale(0.015625)"/>
      <path id="DejaVuSans-6f" d="M 1959 3097 
Q 1497 3097 1228 2736 
Q 959 2375 959 1747 
Q 959 1119 1226 758 
Q 1494 397 1959 397 
Q 2419 397 2687 759 
Q 2956 1122 2956 1747 
Q 2956 2369 2687 2733 
Q 2419 3097 1959 3097 
z
M 1959 3584 
Q 2709 3584 3137 3096 
Q 3566 2609 3566 1747 
Q 3566 888 3137 398 
Q 2709 -91 1959 -91 
Q 1206 -91 779 398 
Q 353 888 353 1747 
Q 353 2609 779 3096 
Q 1206 3584 1959 3584 
z
" transform="scale(0.015625)"/>
      <path id="DejaVuSans-20" transform="scale(0.015625)"/>
      <path id="DejaVuSans-70" d="M 1159 525 
L 1159 -1331 
L 581 -1331 
L 581 3500 
L 1159 3500 
L 1159 2969 
Q 1341 3281 1617 3432 
Q 1894 3584 2278 3584 
Q 2916 3584 3314 3078 
Q 3713 2572 3713 1747 
Q 3713 922 3314 415 
Q 2916 -91 2278 -91 
Q 1894 -91 1617 61 
Q 1341 213 1159 525 
z
M 3116 1747 
Q 3116 2381 2855 2742 
Q 2594 3103 2138 3103 
Q 1681 3103 1420 2742 
Q 1159 2381 1159 1747 
Q 1159 1113 1420 752 
Q 1681 391 2138 391 
Q 2594 391 2855 752 
Q 3116 1113 3116 1747 
z
" transform="scale(0.015625)"/>
      <path id="DejaVuSans-62" d="M 3116 1747 
Q 3116 2381 2855 2742 
Q 2594 3103 2138 3103 
Q 1681 3103 1420 2742 
Q 1159 2381 1159 1747 
Q 1159 1113 1420 752 
Q 1681 391 2138 391 
Q 2594 391 2855 752 
Q 3116 1113 3116 1747 
z
M 1159 2969 
Q 1341 3281 1617 3432 
Q 1894 3584 2278 3584 
Q 2916 3584 3314 3078 
Q 3713 2572 3713 1747 
Q 3713 922 3314 415 
Q 2916 -91 2278 -91 
Q 1894 -91 1617 61 
Q 1341 213 1159 525 
L 1159 0 
L 581 0 
L 581 4863 
L 1159 4863 
L 1159 2969 
z
" transform="scale(0.015625)"/>
      <path id="DejaVuSans-6c" d="M 603 4863 
L 1178 4863 
L 1178 0 
L 603 0 
L 603 4863 
z
" transform="scale(0.015625)"/>
      <path id="DejaVuSans-79" d="M 2059 -325 
Q 1816 -950 1584 -1140 
Q 1353 -1331 966 -1331 
L 506 -1331 
L 506 -850 
L 844 -850 
Q 1081 -850 1212 -737 
Q 1344 -625 1503 -206 
L 1606 56 
L 191 3500 
L 800 3500 
L 1894 763 
L 2988 3500 
L 3597 3500 
L 2059 -325 
z
" transform="scale(0.015625)"/>
      <path id="DejaVuSans-28" d="M 1984 4856 
Q 1566 4138 1362 3434 
Q 1159 2731 1159 2009 
Q 1159 1288 1364 580 
Q 1569 -128 1984 -844 
L 1484 -844 
Q 1016 -109 783 600 
Q 550 1309 550 2009 
Q 550 2706 781 3412 
Q 1013 4119 1484 4856 
L 1984 4856 
z
" transform="scale(0.015625)"/>
      <path id="DejaVuSans-Oblique-3b2" d="M 872 216 
L 572 -1331 
L -6 -1331 
L 928 3478 
Q 1206 4903 2538 4903 
Q 3888 4903 3659 3700 
Q 3503 2844 2894 2531 
Q 3713 2250 3553 1416 
Q 3272 -69 1759 -66 
Q 1097 -63 872 216 
z
M 1019 966 
Q 1259 422 1875 425 
Q 2775 425 2966 1406 
Q 3138 2288 1675 2219 
L 1778 2750 
Q 2909 2731 3106 3750 
Q 3241 4438 2509 4434 
Q 1691 4434 1503 3459 
L 1019 966 
z
" transform="scale(0.015625)"/>
      <path id="DejaVuSans-29" d="M 513 4856 
L 1013 4856 
Q 1481 4119 1714 3412 
Q 1947 2706 1947 2009 
Q 1947 1309 1714 600 
Q 1481 -109 1013 -844 
L 513 -844 
Q 928 -128 1133 580 
Q 1338 1288 1338 2009 
Q 1338 2731 1133 3434 
Q 928 4138 513 4856 
z
" transform="scale(0.015625)"/>
     </defs>
     <use xlink:href="#DejaVuSans-74" transform="translate(0 0.390625)"/>
     <use xlink:href="#DejaVuSans-72" transform="translate(39.208984 0.390625)"/>
     <use xlink:href="#DejaVuSans-61" transform="translate(80.322266 0.390625)"/>
     <use xlink:href="#DejaVuSans-6e" transform="translate(141.601562 0.390625)"/>
     <use xlink:href="#DejaVuSans-73" transform="translate(204.980469 0.390625)"/>
     <use xlink:href="#DejaVuSans-6d" transform="translate(257.080078 0.390625)"/>
     <use xlink:href="#DejaVuSans-69" transform="translate(354.492188 0.390625)"/>
     <use xlink:href="#DejaVuSans-73" transform="translate(382.275391 0.390625)"/>
     <use xlink:href="#DejaVuSans-73" transform="translate(434.375 0.390625)"/>
     <use xlink:href="#DejaVuSans-69" transform="translate(486.474609 0.390625)"/>
     <use xlink:href="#DejaVuSans-6f" transform="translate(514.257812 0.390625)"/>
     <use xlink:href="#DejaVuSans-6e" transform="translate(575.439453 0.390625)"/>
     <use xlink:href="#DejaVuSans-20" transform="translate(638.818359 0.390625)"/>
     <use xlink:href="#DejaVuSans-70" transform="translate(670.605469 0.390625)"/>
     <use xlink:href="#DejaVuSans-72" transform="translate(734.082031 0.390625)"/>
     <use xlink:href="#DejaVuSans-6f" transform="translate(775.195312 0.390625)"/>
     <use xlink:href="#DejaVuSans-62" transform="translate(836.376953 0.390625)"/>
     <use xlink:href="#DejaVuSans-61" transform="translate(899.853516 0.390625)"/>
     <use xlink:href="#DejaVuSans-62" transform="translate(961.132812 0.390625)"/>
     <use xlink:href="#DejaVuSans-69" transform="translate(1024.609375 0.390625)"/>
     <use xlink:href="#DejaVuSans-6c" transform="translate(1052.392578 0.390625)"/>
     <use xlink:href="#DejaVuSans-69" transform="translate(1080.175781 0.390625)"/>
     <use xlink:href="#DejaVuSans-74" transform="translate(1107.958984 0.390625)"/>
     <use xlink:href="#DejaVuSans-79" transform="translate(1147.167969 0.390625)"/>
     <use xlink:href="#DejaVuSans-20" transform="translate(1206.347656 0.390625)"/>
     <use xlink:href="#DejaVuSans-28" transform="translate(1238.134766 0.390625)"/>
     <use xlink:href="#DejaVuSans-Oblique-3b2" transform="translate(1277.148438 0.390625)"/>
     <use xlink:href="#DejaVuSans-29" transform="translate(1340.966797 0.390625)"/>
    </g>
   </g>
  </g>
  <g id="axes_2">
   <g id="patch_35">
    <path d="M 200.91 200.88 
L 343.728914 200.88 
L 343.728914 31.2 
L 200.91 31.2 
z
" style="fill: #ffffff"/>
   </g>
   <g id="PolyCollection_2">
    <defs>
     <path id="m8577af4210" d="M 207.401769 -15.430173 
L 207.401769 -15.12 
L 211.729615 -15.12 
L 211.729615 -15.12 
L 216.057461 -15.12 
L 216.057461 -15.12 
L 220.385306 -15.12 
L 220.385306 -15.12 
L 224.713152 -15.12 
L 224.713152 -15.12 
L 229.040998 -15.12 
L 229.040998 -15.12 
L 233.368844 -15.12 
L 233.368844 -15.12 
L 237.69669 -15.12 
L 237.69669 -15.12 
L 242.024536 -15.12 
L 242.024536 -15.12 
L 246.352382 -15.12 
L 246.352382 -15.12 
L 250.680228 -15.12 
L 250.680228 -15.12 
L 255.008073 -15.12 
L 255.008073 -15.12 
L 259.335919 -15.12 
L 259.335919 -15.12 
L 263.663765 -15.12 
L 263.663765 -15.12 
L 267.991611 -15.12 
L 267.991611 -15.12 
L 272.319457 -15.12 
L 272.319457 -15.12 
L 276.647303 -15.12 
L 276.647303 -15.12 
L 280.975149 -15.12 
L 280.975149 -15.12 
L 285.302994 -15.12 
L 285.302994 -15.12 
L 289.63084 -15.12 
L 289.63084 -15.12 
L 293.958686 -15.12 
L 293.958686 -15.12 
L 298.286532 -15.12 
L 298.286532 -15.12 
L 302.614378 -15.12 
L 302.614378 -15.12 
L 306.942224 -15.12 
L 306.942224 -15.12 
L 311.27007 -15.12 
L 311.27007 -15.12 
L 315.597916 -15.12 
L 315.597916 -15.12 
L 319.925761 -15.12 
L 319.925761 -15.12 
L 324.253607 -15.12 
L 324.253607 -15.12 
L 328.581453 -15.12 
L 328.581453 -15.12 
L 332.909299 -15.12 
L 332.909299 -15.12 
L 337.237145 -15.12 
L 337.237145 -15.12 
L 337.237145 -15.740345 
L 337.237145 -15.740345 
L 337.237145 -15.740345 
L 332.909299 -15.740345 
L 332.909299 -16.050518 
L 328.581453 -16.050518 
L 328.581453 -16.050518 
L 324.253607 -16.050518 
L 324.253607 -16.670864 
L 319.925761 -16.670864 
L 319.925761 -17.911555 
L 315.597916 -17.911555 
L 315.597916 -25.355701 
L 311.27007 -25.355701 
L 311.27007 -29.387946 
L 306.942224 -29.387946 
L 306.942224 -42.415202 
L 302.614378 -42.415202 
L 302.614378 -63.817121 
L 298.286532 -63.817121 
L 298.286532 -80.256276 
L 293.958686 -80.256276 
L 293.958686 -107.241305 
L 289.63084 -107.241305 
L 289.63084 -124.300806 
L 285.302994 -124.300806 
L 285.302994 -150.665489 
L 280.975149 -150.665489 
L 280.975149 -170.826718 
L 276.647303 -170.826718 
L 276.647303 -176.72 
L 272.319457 -176.72 
L 272.319457 -173.618273 
L 267.991611 -173.618273 
L 267.991611 -160.90119 
L 263.663765 -160.90119 
L 263.663765 -145.08238 
L 259.335919 -145.08238 
L 259.335919 -103.829405 
L 255.008073 -103.829405 
L 255.008073 -88.941113 
L 250.680228 -88.941113 
L 250.680228 -70.951094 
L 246.352382 -70.951094 
L 246.352382 -43.34572 
L 242.024536 -43.34572 
L 242.024536 -35.901574 
L 237.69669 -35.901574 
L 237.69669 -25.665873 
L 233.368844 -25.665873 
L 233.368844 -21.323455 
L 229.040998 -21.323455 
L 229.040998 -19.152246 
L 224.713152 -19.152246 
L 224.713152 -16.360691 
L 220.385306 -16.360691 
L 220.385306 -15.430173 
L 216.057461 -15.430173 
L 216.057461 -15.12 
L 211.729615 -15.12 
L 211.729615 -15.430173 
L 207.401769 -15.430173 
z
" style="stroke: #a34f4f"/>
    </defs>
    <g clip-path="url(#p1629d26fea)">
     <use xlink:href="#m8577af4210" x="0" y="216" style="fill: #a34f4f; fill-opacity: 0.75; stroke: #a34f4f"/>
    </g>
   </g>
   <g id="patch_36">
    <path d="M 240.306105 200.88 
L 242.965044 200.88 
L 242.965044 118.083706 
L 240.306105 118.083706 
z
" clip-path="url(#p1629d26fea)" style="fill: #808080; fill-opacity: 0.3; stroke: #000000; stroke-width: 0.244438; stroke-linejoin: miter"/>
   </g>
   <g id="patch_37">
    <path d="M 242.965044 200.88 
L 245.623983 200.88 
L 245.623983 135.753647 
L 242.965044 135.753647 
z
" clip-path="url(#p1629d26fea)" style="fill: #808080; fill-opacity: 0.3; stroke: #000000; stroke-width: 0.244438; stroke-linejoin: miter"/>
   </g>
   <g id="patch_38">
    <path d="M 245.623983 200.88 
L 248.282922 200.88 
L 248.282922 117.073995 
L 245.623983 117.073995 
z
" clip-path="url(#p1629d26fea)" style="fill: #808080; fill-opacity: 0.3; stroke: #000000; stroke-width: 0.244438; stroke-linejoin: miter"/>
   </g>
   <g id="patch_39">
    <path d="M 248.282922 200.88 
L 250.941861 200.88 
L 250.941861 112.025441 
L 248.282922 112.025441 
z
" clip-path="url(#p1629d26fea)" style="fill: #808080; fill-opacity: 0.3; stroke: #000000; stroke-width: 0.244438; stroke-linejoin: miter"/>
   </g>
   <g id="patch_40">
    <path d="M 250.941861 200.88 
L 253.6008 200.88 
L 253.6008 124.141971 
L 250.941861 124.141971 
z
" clip-path="url(#p1629d26fea)" style="fill: #808080; fill-opacity: 0.3; stroke: #000000; stroke-width: 0.244438; stroke-linejoin: miter"/>
   </g>
   <g id="patch_41">
    <path d="M 253.6008 200.88 
L 256.259739 200.88 
L 256.259739 119.598272 
L 253.6008 119.598272 
z
" clip-path="url(#p1629d26fea)" style="fill: #808080; fill-opacity: 0.3; stroke: #000000; stroke-width: 0.244438; stroke-linejoin: miter"/>
   </g>
   <g id="patch_42">
    <path d="M 256.259739 200.88 
L 258.918678 200.88 
L 258.918678 121.617694 
L 256.259739 121.617694 
z
" clip-path="url(#p1629d26fea)" style="fill: #808080; fill-opacity: 0.3; stroke: #000000; stroke-width: 0.244438; stroke-linejoin: miter"/>
   </g>
   <g id="patch_43">
    <path d="M 258.918678 200.88 
L 261.577617 200.88 
L 261.577617 111.01573 
L 258.918678 111.01573 
z
" clip-path="url(#p1629d26fea)" style="fill: #808080; fill-opacity: 0.3; stroke: #000000; stroke-width: 0.244438; stroke-linejoin: miter"/>
   </g>
   <g id="patch_44">
    <path d="M 261.577617 200.88 
L 264.236556 200.88 
L 264.236556 116.56914 
L 261.577617 116.56914 
z
" clip-path="url(#p1629d26fea)" style="fill: #808080; fill-opacity: 0.3; stroke: #000000; stroke-width: 0.244438; stroke-linejoin: miter"/>
   </g>
   <g id="patch_45">
    <path d="M 264.236556 200.88 
L 266.895495 200.88 
L 266.895495 114.549718 
L 264.236556 114.549718 
z
" clip-path="url(#p1629d26fea)" style="fill: #808080; fill-opacity: 0.3; stroke: #000000; stroke-width: 0.244438; stroke-linejoin: miter"/>
   </g>
   <g id="patch_46">
    <path d="M 266.895495 200.88 
L 269.554434 200.88 
L 269.554434 111.01573 
L 266.895495 111.01573 
z
" clip-path="url(#p1629d26fea)" style="fill: #808080; fill-opacity: 0.3; stroke: #000000; stroke-width: 0.244438; stroke-linejoin: miter"/>
   </g>
   <g id="patch_47">
    <path d="M 269.554434 200.88 
L 272.213372 200.88 
L 272.213372 99.90891 
L 269.554434 99.90891 
z
" clip-path="url(#p1629d26fea)" style="fill: #808080; fill-opacity: 0.3; stroke: #000000; stroke-width: 0.244438; stroke-linejoin: miter"/>
   </g>
   <g id="patch_48">
    <path d="M 272.213372 200.88 
L 274.872311 200.88 
L 274.872311 117.073995 
L 272.213372 117.073995 
z
" clip-path="url(#p1629d26fea)" style="fill: #808080; fill-opacity: 0.3; stroke: #000000; stroke-width: 0.244438; stroke-linejoin: miter"/>
   </g>
   <g id="patch_49">
    <path d="M 274.872311 200.88 
L 277.53125 200.88 
L 277.53125 128.68567 
L 274.872311 128.68567 
z
" clip-path="url(#p1629d26fea)" style="fill: #808080; fill-opacity: 0.3; stroke: #000000; stroke-width: 0.244438; stroke-linejoin: miter"/>
   </g>
   <g id="patch_50">
    <path d="M 277.53125 200.88 
L 280.190189 200.88 
L 280.190189 117.578851 
L 277.53125 117.578851 
z
" clip-path="url(#p1629d26fea)" style="fill: #808080; fill-opacity: 0.3; stroke: #000000; stroke-width: 0.244438; stroke-linejoin: miter"/>
   </g>
   <g id="patch_51">
    <path d="M 280.190189 200.88 
L 282.849128 200.88 
L 282.849128 124.646827 
L 280.190189 124.646827 
z
" clip-path="url(#p1629d26fea)" style="fill: #808080; fill-opacity: 0.3; stroke: #000000; stroke-width: 0.244438; stroke-linejoin: miter"/>
   </g>
   <g id="patch_52">
    <path d="M 282.849128 200.88 
L 285.508067 200.88 
L 285.508067 116.56914 
L 282.849128 116.56914 
z
" clip-path="url(#p1629d26fea)" style="fill: #808080; fill-opacity: 0.3; stroke: #000000; stroke-width: 0.244438; stroke-linejoin: miter"/>
   </g>
   <g id="patch_53">
    <path d="M 285.508067 200.88 
L 288.167006 200.88 
L 288.167006 113.035151 
L 285.508067 113.035151 
z
" clip-path="url(#p1629d26fea)" style="fill: #808080; fill-opacity: 0.3; stroke: #000000; stroke-width: 0.244438; stroke-linejoin: miter"/>
   </g>
   <g id="patch_54">
    <path d="M 288.167006 200.88 
L 290.825945 200.88 
L 290.825945 112.530296 
L 288.167006 112.530296 
z
" clip-path="url(#p1629d26fea)" style="fill: #808080; fill-opacity: 0.3; stroke: #000000; stroke-width: 0.244438; stroke-linejoin: miter"/>
   </g>
   <g id="patch_55">
    <path d="M 290.825945 200.88 
L 293.484884 200.88 
L 293.484884 124.141971 
L 290.825945 124.141971 
z
" clip-path="url(#p1629d26fea)" style="fill: #808080; fill-opacity: 0.3; stroke: #000000; stroke-width: 0.244438; stroke-linejoin: miter"/>
   </g>
   <g id="patch_56">
    <path d="M 293.484884 200.88 
L 296.143823 200.88 
L 296.143823 106.472031 
L 293.484884 106.472031 
z
" clip-path="url(#p1629d26fea)" style="fill: #808080; fill-opacity: 0.3; stroke: #000000; stroke-width: 0.244438; stroke-linejoin: miter"/>
   </g>
   <g id="patch_57">
    <path d="M 296.143823 200.88 
L 298.802762 200.88 
L 298.802762 102.938042 
L 296.143823 102.938042 
z
" clip-path="url(#p1629d26fea)" style="fill: #808080; fill-opacity: 0.3; stroke: #000000; stroke-width: 0.244438; stroke-linejoin: miter"/>
   </g>
   <g id="patch_58">
    <path d="M 298.802762 200.88 
L 301.461701 200.88 
L 301.461701 121.617694 
L 298.802762 121.617694 
z
" clip-path="url(#p1629d26fea)" style="fill: #808080; fill-opacity: 0.3; stroke: #000000; stroke-width: 0.244438; stroke-linejoin: miter"/>
   </g>
   <g id="patch_59">
    <path d="M 301.461701 200.88 
L 304.12064 200.88 
L 304.12064 112.025441 
L 301.461701 112.025441 
z
" clip-path="url(#p1629d26fea)" style="fill: #808080; fill-opacity: 0.3; stroke: #000000; stroke-width: 0.244438; stroke-linejoin: miter"/>
   </g>
   <g id="patch_60">
    <path d="M 304.12064 200.88 
L 306.779579 200.88 
L 306.779579 117.073995 
L 304.12064 117.073995 
z
" clip-path="url(#p1629d26fea)" style="fill: #808080; fill-opacity: 0.3; stroke: #000000; stroke-width: 0.244438; stroke-linejoin: miter"/>
   </g>
   <g id="patch_61">
    <path d="M 306.779579 200.88 
L 309.438518 200.88 
L 309.438518 116.56914 
L 306.779579 116.56914 
z
" clip-path="url(#p1629d26fea)" style="fill: #808080; fill-opacity: 0.3; stroke: #000000; stroke-width: 0.244438; stroke-linejoin: miter"/>
   </g>
   <g id="patch_62">
    <path d="M 309.438518 200.88 
L 312.097457 200.88 
L 312.097457 114.549718 
L 309.438518 114.549718 
z
" clip-path="url(#p1629d26fea)" style="fill: #808080; fill-opacity: 0.3; stroke: #000000; stroke-width: 0.244438; stroke-linejoin: miter"/>
   </g>
   <g id="patch_63">
    <path d="M 312.097457 200.88 
L 314.756396 200.88 
L 314.756396 115.559429 
L 312.097457 115.559429 
z
" clip-path="url(#p1629d26fea)" style="fill: #808080; fill-opacity: 0.3; stroke: #000000; stroke-width: 0.244438; stroke-linejoin: miter"/>
   </g>
   <g id="patch_64">
    <path d="M 314.756396 200.88 
L 317.415335 200.88 
L 317.415335 122.12255 
L 314.756396 122.12255 
z
" clip-path="url(#p1629d26fea)" style="fill: #808080; fill-opacity: 0.3; stroke: #000000; stroke-width: 0.244438; stroke-linejoin: miter"/>
   </g>
   <g id="patch_65">
    <path d="M 317.415335 200.88 
L 320.074274 200.88 
L 320.074274 117.578851 
L 317.415335 117.578851 
z
" clip-path="url(#p1629d26fea)" style="fill: #808080; fill-opacity: 0.3; stroke: #000000; stroke-width: 0.244438; stroke-linejoin: miter"/>
   </g>
   <g id="matplotlib.axis_3">
    <g id="xtick_4">
     <g id="line2d_5">
      <g>
       <use xlink:href="#md03d36f7e0" x="240.290927" y="200.88" style="stroke: #000000; stroke-width: 0.8"/>
      </g>
     </g>
     <g id="text_7">
      <!-- 0.1 -->
      <g transform="translate(230.749052 216.998125) scale(0.12 -0.12)">
       <defs>
        <path id="DejaVuSans-31" d="M 794 531 
L 1825 531 
L 1825 4091 
L 703 3866 
L 703 4441 
L 1819 4666 
L 2450 4666 
L 2450 531 
L 3481 531 
L 3481 0 
L 794 0 
L 794 531 
z
" transform="scale(0.015625)"/>
       </defs>
       <use xlink:href="#DejaVuSans-30"/>
       <use xlink:href="#DejaVuSans-2e" x="63.623047"/>
       <use xlink:href="#DejaVuSans-31" x="95.410156"/>
      </g>
     </g>
    </g>
    <g id="xtick_5">
     <g id="line2d_6">
      <g>
       <use xlink:href="#md03d36f7e0" x="280.187259" y="200.88" style="stroke: #000000; stroke-width: 0.8"/>
      </g>
     </g>
     <g id="text_8">
      <!-- 0.2 -->
      <g transform="translate(270.645384 216.998125) scale(0.12 -0.12)">
       <use xlink:href="#DejaVuSans-30"/>
       <use xlink:href="#DejaVuSans-2e" x="63.623047"/>
       <use xlink:href="#DejaVuSans-32" x="95.410156"/>
      </g>
     </g>
    </g>
    <g id="xtick_6">
     <g id="line2d_7">
      <g>
       <use xlink:href="#md03d36f7e0" x="320.083591" y="200.88" style="stroke: #000000; stroke-width: 0.8"/>
      </g>
     </g>
     <g id="text_9">
      <!-- 0.3 -->
      <g transform="translate(310.541716 216.998125) scale(0.12 -0.12)">
       <defs>
        <path id="DejaVuSans-33" d="M 2597 2516 
Q 3050 2419 3304 2112 
Q 3559 1806 3559 1356 
Q 3559 666 3084 287 
Q 2609 -91 1734 -91 
Q 1441 -91 1130 -33 
Q 819 25 488 141 
L 488 750 
Q 750 597 1062 519 
Q 1375 441 1716 441 
Q 2309 441 2620 675 
Q 2931 909 2931 1356 
Q 2931 1769 2642 2001 
Q 2353 2234 1838 2234 
L 1294 2234 
L 1294 2753 
L 1863 2753 
Q 2328 2753 2575 2939 
Q 2822 3125 2822 3475 
Q 2822 3834 2567 4026 
Q 2313 4219 1838 4219 
Q 1578 4219 1281 4162 
Q 984 4106 628 3988 
L 628 4550 
Q 988 4650 1302 4700 
Q 1616 4750 1894 4750 
Q 2613 4750 3031 4423 
Q 3450 4097 3450 3541 
Q 3450 3153 3228 2886 
Q 3006 2619 2597 2516 
z
" transform="scale(0.015625)"/>
       </defs>
       <use xlink:href="#DejaVuSans-30"/>
       <use xlink:href="#DejaVuSans-2e" x="63.623047"/>
       <use xlink:href="#DejaVuSans-33" x="95.410156"/>
      </g>
     </g>
    </g>
   </g>
   <g id="matplotlib.axis_4"/>
   <g id="line2d_8">
    <path d="M 280.187259 200.88 
L 280.187259 31.2 
" clip-path="url(#p1629d26fea)" style="fill: none; stroke-dasharray: 5.55,2.4; stroke-dashoffset: 0; stroke: #000000; stroke-width: 1.5"/>
   </g>
   <g id="patch_66">
    <path d="M 200.91 200.88 
L 200.91 31.2 
" style="fill: none; stroke: #000000; stroke-width: 0.8; stroke-linejoin: miter; stroke-linecap: square"/>
   </g>
   <g id="patch_67">
    <path d="M 200.91 200.88 
L 343.728914 200.88 
" style="fill: none; stroke: #000000; stroke-width: 0.8; stroke-linejoin: miter; stroke-linecap: square"/>
   </g>
   <g id="text_10">
    <!-- $MAP=0.18$ -->
    <g transform="translate(305.167807 59.96325) scale(0.12 -0.12)">
     <defs>
      <path id="DejaVuSans-38" d="M 2034 2216 
Q 1584 2216 1326 1975 
Q 1069 1734 1069 1313 
Q 1069 891 1326 650 
Q 1584 409 2034 409 
Q 2484 409 2743 651 
Q 3003 894 3003 1313 
Q 3003 1734 2745 1975 
Q 2488 2216 2034 2216 
z
M 1403 2484 
Q 997 2584 770 2862 
Q 544 3141 544 3541 
Q 544 4100 942 4425 
Q 1341 4750 2034 4750 
Q 2731 4750 3128 4425 
Q 3525 4100 3525 3541 
Q 3525 3141 3298 2862 
Q 3072 2584 2669 2484 
Q 3125 2378 3379 2068 
Q 3634 1759 3634 1313 
Q 3634 634 3220 271 
Q 2806 -91 2034 -91 
Q 1263 -91 848 271 
Q 434 634 434 1313 
Q 434 1759 690 2068 
Q 947 2378 1403 2484 
z
M 1172 3481 
Q 1172 3119 1398 2916 
Q 1625 2713 2034 2713 
Q 2441 2713 2670 2916 
Q 2900 3119 2900 3481 
Q 2900 3844 2670 4047 
Q 2441 4250 2034 4250 
Q 1625 4250 1398 4047 
Q 1172 3844 1172 3481 
z
" transform="scale(0.015625)"/>
     </defs>
     <use xlink:href="#DejaVuSans-Oblique-4d" transform="translate(0 0.78125)"/>
     <use xlink:href="#DejaVuSans-Oblique-41" transform="translate(86.279297 0.78125)"/>
     <use xlink:href="#DejaVuSans-Oblique-50" transform="translate(154.6875 0.78125)"/>
     <use xlink:href="#DejaVuSans-3d" transform="translate(234.472656 0.78125)"/>
     <use xlink:href="#DejaVuSans-30" transform="translate(337.744141 0.78125)"/>
     <use xlink:href="#DejaVuSans-2e" transform="translate(401.367188 0.78125)"/>
     <use xlink:href="#DejaVuSans-31" transform="translate(433.154297 0.78125)"/>
     <use xlink:href="#DejaVuSans-38" transform="translate(496.777344 0.78125)"/>
    </g>
   </g>
   <g id="text_11">
    <!-- $Med=0.18$ -->
    <g transform="translate(305.167807 102.38325) scale(0.12 -0.12)">
     <use xlink:href="#DejaVuSans-Oblique-4d" transform="translate(0 0.015625)"/>
     <use xlink:href="#DejaVuSans-Oblique-65" transform="translate(86.279297 0.015625)"/>
     <use xlink:href="#DejaVuSans-Oblique-64" transform="translate(147.802734 0.015625)"/>
     <use xlink:href="#DejaVuSans-3d" transform="translate(230.761719 0.015625)"/>
     <use xlink:href="#DejaVuSans-30" transform="translate(334.033203 0.015625)"/>
     <use xlink:href="#DejaVuSans-2e" transform="translate(397.65625 0.015625)"/>
     <use xlink:href="#DejaVuSans-31" transform="translate(429.443359 0.015625)"/>
     <use xlink:href="#DejaVuSans-38" transform="translate(493.066406 0.015625)"/>
    </g>
   </g>
   <g id="text_12">
    <!-- recovery rate ($\gamma$) -->
    <g transform="translate(213.239457 25.2) scale(0.14 -0.14)">
     <defs>
      <path id="DejaVuSans-65" d="M 3597 1894 
L 3597 1613 
L 953 1613 
Q 991 1019 1311 708 
Q 1631 397 2203 397 
Q 2534 397 2845 478 
Q 3156 559 3463 722 
L 3463 178 
Q 3153 47 2828 -22 
Q 2503 -91 2169 -91 
Q 1331 -91 842 396 
Q 353 884 353 1716 
Q 353 2575 817 3079 
Q 1281 3584 2069 3584 
Q 2775 3584 3186 3129 
Q 3597 2675 3597 1894 
z
M 3022 2063 
Q 3016 2534 2758 2815 
Q 2500 3097 2075 3097 
Q 1594 3097 1305 2825 
Q 1016 2553 972 2059 
L 3022 2063 
z
" transform="scale(0.015625)"/>
      <path id="DejaVuSans-63" d="M 3122 3366 
L 3122 2828 
Q 2878 2963 2633 3030 
Q 2388 3097 2138 3097 
Q 1578 3097 1268 2742 
Q 959 2388 959 1747 
Q 959 1106 1268 751 
Q 1578 397 2138 397 
Q 2388 397 2633 464 
Q 2878 531 3122 666 
L 3122 134 
Q 2881 22 2623 -34 
Q 2366 -91 2075 -91 
Q 1284 -91 818 406 
Q 353 903 353 1747 
Q 353 2603 823 3093 
Q 1294 3584 2113 3584 
Q 2378 3584 2631 3529 
Q 2884 3475 3122 3366 
z
" transform="scale(0.015625)"/>
      <path id="DejaVuSans-76" d="M 191 3500 
L 800 3500 
L 1894 563 
L 2988 3500 
L 3597 3500 
L 2284 0 
L 1503 0 
L 191 3500 
z
" transform="scale(0.015625)"/>
      <path id="DejaVuSans-Oblique-3b3" d="M 1491 2950 
L 1838 788 
L 3456 3500 
L 4066 3500 
L 1972 0 
L 1713 -1331 
L 1138 -1331 
L 1397 0 
L 988 2613 
Q 925 3006 628 3006 
L 475 3006 
L 569 3500 
L 788 3500 
Q 1403 3500 1491 2950 
z
" transform="scale(0.015625)"/>
     </defs>
     <use xlink:href="#DejaVuSans-72" transform="translate(0 0.125)"/>
     <use xlink:href="#DejaVuSans-65" transform="translate(41.113281 0.125)"/>
     <use xlink:href="#DejaVuSans-63" transform="translate(102.636719 0.125)"/>
     <use xlink:href="#DejaVuSans-6f" transform="translate(157.617188 0.125)"/>
     <use xlink:href="#DejaVuSans-76" transform="translate(218.798828 0.125)"/>
     <use xlink:href="#DejaVuSans-65" transform="translate(277.978516 0.125)"/>
     <use xlink:href="#DejaVuSans-72" transform="translate(339.501953 0.125)"/>
     <use xlink:href="#DejaVuSans-79" transform="translate(380.615234 0.125)"/>
     <use xlink:href="#DejaVuSans-20" transform="translate(439.794922 0.125)"/>
     <use xlink:href="#DejaVuSans-72" transform="translate(471.582031 0.125)"/>
     <use xlink:href="#DejaVuSans-61" transform="translate(512.695312 0.125)"/>
     <use xlink:href="#DejaVuSans-74" transform="translate(573.974609 0.125)"/>
     <use xlink:href="#DejaVuSans-65" transform="translate(613.183594 0.125)"/>
     <use xlink:href="#DejaVuSans-20" transform="translate(674.707031 0.125)"/>
     <use xlink:href="#DejaVuSans-28" transform="translate(706.494141 0.125)"/>
     <use xlink:href="#DejaVuSans-Oblique-3b3" transform="translate(745.507812 0.125)"/>
     <use xlink:href="#DejaVuSans-29" transform="translate(804.6875 0.125)"/>
    </g>
   </g>
  </g>
  <g id="axes_3">
   <g id="patch_68">
    <path d="M 388.86 200.88 
L 531.678914 200.88 
L 531.678914 31.2 
L 388.86 31.2 
z
" style="fill: #ffffff"/>
   </g>
   <g id="PolyCollection_3">
    <defs>
     <path id="m59312b6b89" d="M 395.351769 -15.428987 
L 395.351769 -15.12 
L 399.679615 -15.12 
L 399.679615 -15.12 
L 404.007461 -15.12 
L 404.007461 -15.12 
L 408.335306 -15.12 
L 408.335306 -15.12 
L 412.663152 -15.12 
L 412.663152 -15.12 
L 416.990998 -15.12 
L 416.990998 -15.12 
L 421.318844 -15.12 
L 421.318844 -15.12 
L 425.64669 -15.12 
L 425.64669 -15.12 
L 429.974536 -15.12 
L 429.974536 -15.12 
L 434.302382 -15.12 
L 434.302382 -15.12 
L 438.630228 -15.12 
L 438.630228 -15.12 
L 442.958073 -15.12 
L 442.958073 -15.12 
L 447.285919 -15.12 
L 447.285919 -15.12 
L 451.613765 -15.12 
L 451.613765 -15.12 
L 455.941611 -15.12 
L 455.941611 -15.12 
L 460.269457 -15.12 
L 460.269457 -15.12 
L 464.597303 -15.12 
L 464.597303 -15.12 
L 468.925149 -15.12 
L 468.925149 -15.12 
L 473.252994 -15.12 
L 473.252994 -15.12 
L 477.58084 -15.12 
L 477.58084 -15.12 
L 481.908686 -15.12 
L 481.908686 -15.12 
L 486.236532 -15.12 
L 486.236532 -15.12 
L 490.564378 -15.12 
L 490.564378 -15.12 
L 494.892224 -15.12 
L 494.892224 -15.12 
L 499.22007 -15.12 
L 499.22007 -15.12 
L 503.547916 -15.12 
L 503.547916 -15.12 
L 507.875761 -15.12 
L 507.875761 -15.12 
L 512.203607 -15.12 
L 512.203607 -15.12 
L 516.531453 -15.12 
L 516.531453 -15.12 
L 520.859299 -15.12 
L 520.859299 -15.12 
L 525.187145 -15.12 
L 525.187145 -15.12 
L 525.187145 -16.04696 
L 525.187145 -16.04696 
L 525.187145 -16.04696 
L 520.859299 -16.04696 
L 520.859299 -16.04696 
L 516.531453 -16.04696 
L 516.531453 -16.664933 
L 512.203607 -16.664933 
L 512.203607 -17.282906 
L 507.875761 -17.282906 
L 507.875761 -21.917706 
L 503.547916 -21.917706 
L 503.547916 -24.080612 
L 499.22007 -24.080612 
L 499.22007 -32.732237 
L 494.892224 -32.732237 
L 494.892224 -44.164742 
L 490.564378 -44.164742 
L 490.564378 -64.248872 
L 486.236532 -64.248872 
L 486.236532 -83.097055 
L 481.908686 -83.097055 
L 481.908686 -112.141797 
L 477.58084 -112.141797 
L 477.58084 -142.113499 
L 473.252994 -142.113499 
L 473.252994 -165.905468 
L 468.925149 -165.905468 
L 468.925149 -173.93912 
L 464.597303 -173.93912 
L 464.597303 -176.72 
L 460.269457 -176.72 
L 460.269457 -170.849254 
L 455.941611 -170.849254 
L 455.941611 -159.41675 
L 451.613765 -159.41675 
L 451.613765 -128.518088 
L 447.285919 -128.518088 
L 447.285919 -106.271052 
L 442.958073 -106.271052 
L 442.958073 -73.209484 
L 438.630228 -73.209484 
L 438.630228 -57.451166 
L 434.302382 -57.451166 
L 434.302382 -41.692849 
L 429.974536 -41.692849 
L 429.974536 -32.114264 
L 425.64669 -32.114264 
L 425.64669 -21.917706 
L 421.318844 -21.917706 
L 421.318844 -20.063786 
L 416.990998 -20.063786 
L 416.990998 -16.97392 
L 412.663152 -16.97392 
L 412.663152 -16.97392 
L 408.335306 -16.97392 
L 408.335306 -15.428987 
L 404.007461 -15.428987 
L 404.007461 -15.12 
L 399.679615 -15.12 
L 399.679615 -15.428987 
L 395.351769 -15.428987 
z
" style="stroke: #a34f4f"/>
    </defs>
    <g clip-path="url(#p68fdd0dbf4)">
     <use xlink:href="#m59312b6b89" x="0" y="216" style="fill: #a34f4f; fill-opacity: 0.75; stroke: #a34f4f"/>
    </g>
   </g>
   <g id="patch_69">
    <path d="M 438.656836 200.88 
L 440.706607 200.88 
L 440.706607 95.845502 
L 438.656836 95.845502 
z
" clip-path="url(#p68fdd0dbf4)" style="fill: #808080; fill-opacity: 0.3; stroke: #000000; stroke-width: 0.188436; stroke-linejoin: miter"/>
   </g>
   <g id="patch_70">
    <path d="M 440.706607 200.88 
L 442.756378 200.88 
L 442.756378 103.021772 
L 440.706607 103.021772 
z
" clip-path="url(#p68fdd0dbf4)" style="fill: #808080; fill-opacity: 0.3; stroke: #000000; stroke-width: 0.188436; stroke-linejoin: miter"/>
   </g>
   <g id="patch_71">
    <path d="M 442.756378 200.88 
L 444.806149 200.88 
L 444.806149 86.712067 
L 442.756378 86.712067 
z
" clip-path="url(#p68fdd0dbf4)" style="fill: #808080; fill-opacity: 0.3; stroke: #000000; stroke-width: 0.188436; stroke-linejoin: miter"/>
   </g>
   <g id="patch_72">
    <path d="M 444.806149 200.88 
L 446.85592 200.88 
L 446.85592 94.540725 
L 444.806149 94.540725 
z
" clip-path="url(#p68fdd0dbf4)" style="fill: #808080; fill-opacity: 0.3; stroke: #000000; stroke-width: 0.188436; stroke-linejoin: miter"/>
   </g>
   <g id="patch_73">
    <path d="M 446.85592 200.88 
L 448.905691 200.88 
L 448.905691 91.278784 
L 446.85592 91.278784 
z
" clip-path="url(#p68fdd0dbf4)" style="fill: #808080; fill-opacity: 0.3; stroke: #000000; stroke-width: 0.188436; stroke-linejoin: miter"/>
   </g>
   <g id="patch_74">
    <path d="M 448.905691 200.88 
L 450.955462 200.88 
L 450.955462 88.016843 
L 448.905691 88.016843 
z
" clip-path="url(#p68fdd0dbf4)" style="fill: #808080; fill-opacity: 0.3; stroke: #000000; stroke-width: 0.188436; stroke-linejoin: miter"/>
   </g>
   <g id="patch_75">
    <path d="M 450.955462 200.88 
L 453.005233 200.88 
L 453.005233 95.193113 
L 450.955462 95.193113 
z
" clip-path="url(#p68fdd0dbf4)" style="fill: #808080; fill-opacity: 0.3; stroke: #000000; stroke-width: 0.188436; stroke-linejoin: miter"/>
   </g>
   <g id="patch_76">
    <path d="M 453.005233 200.88 
L 455.055004 200.88 
L 455.055004 84.102514 
L 453.005233 84.102514 
z
" clip-path="url(#p68fdd0dbf4)" style="fill: #808080; fill-opacity: 0.3; stroke: #000000; stroke-width: 0.188436; stroke-linejoin: miter"/>
   </g>
   <g id="patch_77">
    <path d="M 455.055004 200.88 
L 457.104775 200.88 
L 457.104775 93.235949 
L 455.055004 93.235949 
z
" clip-path="url(#p68fdd0dbf4)" style="fill: #808080; fill-opacity: 0.3; stroke: #000000; stroke-width: 0.188436; stroke-linejoin: miter"/>
   </g>
   <g id="patch_78">
    <path d="M 457.104775 200.88 
L 459.154547 200.88 
L 459.154547 95.845502 
L 457.104775 95.845502 
z
" clip-path="url(#p68fdd0dbf4)" style="fill: #808080; fill-opacity: 0.3; stroke: #000000; stroke-width: 0.188436; stroke-linejoin: miter"/>
   </g>
   <g id="patch_79">
    <path d="M 459.154547 200.88 
L 461.204318 200.88 
L 461.204318 95.193113 
L 459.154547 95.193113 
z
" clip-path="url(#p68fdd0dbf4)" style="fill: #808080; fill-opacity: 0.3; stroke: #000000; stroke-width: 0.188436; stroke-linejoin: miter"/>
   </g>
   <g id="patch_80">
    <path d="M 461.204318 200.88 
L 463.254089 200.88 
L 463.254089 91.931173 
L 461.204318 91.931173 
z
" clip-path="url(#p68fdd0dbf4)" style="fill: #808080; fill-opacity: 0.3; stroke: #000000; stroke-width: 0.188436; stroke-linejoin: miter"/>
   </g>
   <g id="patch_81">
    <path d="M 463.254089 200.88 
L 465.30386 200.88 
L 465.30386 93.888337 
L 463.254089 93.888337 
z
" clip-path="url(#p68fdd0dbf4)" style="fill: #808080; fill-opacity: 0.3; stroke: #000000; stroke-width: 0.188436; stroke-linejoin: miter"/>
   </g>
   <g id="patch_82">
    <path d="M 465.30386 200.88 
L 467.353631 200.88 
L 467.353631 80.840573 
L 465.30386 80.840573 
z
" clip-path="url(#p68fdd0dbf4)" style="fill: #808080; fill-opacity: 0.3; stroke: #000000; stroke-width: 0.188436; stroke-linejoin: miter"/>
   </g>
   <g id="patch_83">
    <path d="M 467.353631 200.88 
L 469.403402 200.88 
L 469.403402 93.235949 
L 467.353631 93.235949 
z
" clip-path="url(#p68fdd0dbf4)" style="fill: #808080; fill-opacity: 0.3; stroke: #000000; stroke-width: 0.188436; stroke-linejoin: miter"/>
   </g>
   <g id="patch_84">
    <path d="M 469.403402 200.88 
L 471.453173 200.88 
L 471.453173 101.716995 
L 469.403402 101.716995 
z
" clip-path="url(#p68fdd0dbf4)" style="fill: #808080; fill-opacity: 0.3; stroke: #000000; stroke-width: 0.188436; stroke-linejoin: miter"/>
   </g>
   <g id="patch_85">
    <path d="M 471.453173 200.88 
L 473.502944 200.88 
L 473.502944 72.359527 
L 471.453173 72.359527 
z
" clip-path="url(#p68fdd0dbf4)" style="fill: #808080; fill-opacity: 0.3; stroke: #000000; stroke-width: 0.188436; stroke-linejoin: miter"/>
   </g>
   <g id="patch_86">
    <path d="M 473.502944 200.88 
L 475.552715 200.88 
L 475.552715 86.712067 
L 473.502944 86.712067 
z
" clip-path="url(#p68fdd0dbf4)" style="fill: #808080; fill-opacity: 0.3; stroke: #000000; stroke-width: 0.188436; stroke-linejoin: miter"/>
   </g>
   <g id="patch_87">
    <path d="M 475.552715 200.88 
L 477.602486 200.88 
L 477.602486 93.235949 
L 475.552715 93.235949 
z
" clip-path="url(#p68fdd0dbf4)" style="fill: #808080; fill-opacity: 0.3; stroke: #000000; stroke-width: 0.188436; stroke-linejoin: miter"/>
   </g>
   <g id="patch_88">
    <path d="M 477.602486 200.88 
L 479.652257 200.88 
L 479.652257 89.974008 
L 477.602486 89.974008 
z
" clip-path="url(#p68fdd0dbf4)" style="fill: #808080; fill-opacity: 0.3; stroke: #000000; stroke-width: 0.188436; stroke-linejoin: miter"/>
   </g>
   <g id="patch_89">
    <path d="M 479.652257 200.88 
L 481.702029 200.88 
L 481.702029 103.67416 
L 479.652257 103.67416 
z
" clip-path="url(#p68fdd0dbf4)" style="fill: #808080; fill-opacity: 0.3; stroke: #000000; stroke-width: 0.188436; stroke-linejoin: miter"/>
   </g>
   <g id="patch_90">
    <path d="M 481.702029 200.88 
L 483.7518 200.88 
L 483.7518 95.845502 
L 481.702029 95.845502 
z
" clip-path="url(#p68fdd0dbf4)" style="fill: #808080; fill-opacity: 0.3; stroke: #000000; stroke-width: 0.188436; stroke-linejoin: miter"/>
   </g>
   <g id="patch_91">
    <path d="M 483.7518 200.88 
L 485.801571 200.88 
L 485.801571 101.064607 
L 483.7518 101.064607 
z
" clip-path="url(#p68fdd0dbf4)" style="fill: #808080; fill-opacity: 0.3; stroke: #000000; stroke-width: 0.188436; stroke-linejoin: miter"/>
   </g>
   <g id="patch_92">
    <path d="M 485.801571 200.88 
L 487.851342 200.88 
L 487.851342 87.364455 
L 485.801571 87.364455 
z
" clip-path="url(#p68fdd0dbf4)" style="fill: #808080; fill-opacity: 0.3; stroke: #000000; stroke-width: 0.188436; stroke-linejoin: miter"/>
   </g>
   <g id="patch_93">
    <path d="M 487.851342 200.88 
L 489.901113 200.88 
L 489.901113 96.49789 
L 487.851342 96.49789 
z
" clip-path="url(#p68fdd0dbf4)" style="fill: #808080; fill-opacity: 0.3; stroke: #000000; stroke-width: 0.188436; stroke-linejoin: miter"/>
   </g>
   <g id="patch_94">
    <path d="M 489.901113 200.88 
L 491.950884 200.88 
L 491.950884 83.450126 
L 489.901113 83.450126 
z
" clip-path="url(#p68fdd0dbf4)" style="fill: #808080; fill-opacity: 0.3; stroke: #000000; stroke-width: 0.188436; stroke-linejoin: miter"/>
   </g>
   <g id="patch_95">
    <path d="M 491.950884 200.88 
L 494.000655 200.88 
L 494.000655 93.235949 
L 491.950884 93.235949 
z
" clip-path="url(#p68fdd0dbf4)" style="fill: #808080; fill-opacity: 0.3; stroke: #000000; stroke-width: 0.188436; stroke-linejoin: miter"/>
   </g>
   <g id="patch_96">
    <path d="M 494.000655 200.88 
L 496.050426 200.88 
L 496.050426 105.631325 
L 494.000655 105.631325 
z
" clip-path="url(#p68fdd0dbf4)" style="fill: #808080; fill-opacity: 0.3; stroke: #000000; stroke-width: 0.188436; stroke-linejoin: miter"/>
   </g>
   <g id="patch_97">
    <path d="M 496.050426 200.88 
L 498.100197 200.88 
L 498.100197 95.193113 
L 496.050426 95.193113 
z
" clip-path="url(#p68fdd0dbf4)" style="fill: #808080; fill-opacity: 0.3; stroke: #000000; stroke-width: 0.188436; stroke-linejoin: miter"/>
   </g>
   <g id="patch_98">
    <path d="M 498.100197 200.88 
L 500.149968 200.88 
L 500.149968 75.621468 
L 498.100197 75.621468 
z
" clip-path="url(#p68fdd0dbf4)" style="fill: #808080; fill-opacity: 0.3; stroke: #000000; stroke-width: 0.188436; stroke-linejoin: miter"/>
   </g>
   <g id="matplotlib.axis_5">
    <g id="xtick_7">
     <g id="line2d_9">
      <g>
       <use xlink:href="#md03d36f7e0" x="438.654448" y="200.88" style="stroke: #000000; stroke-width: 0.8"/>
      </g>
     </g>
     <g id="text_13">
      <!-- 0.2 -->
      <g transform="translate(429.112573 216.998125) scale(0.12 -0.12)">
       <use xlink:href="#DejaVuSans-30"/>
       <use xlink:href="#DejaVuSans-2e" x="63.623047"/>
       <use xlink:href="#DejaVuSans-32" x="95.410156"/>
      </g>
     </g>
    </g>
    <g id="xtick_8">
     <g id="line2d_10">
      <g>
       <use xlink:href="#md03d36f7e0" x="500.150471" y="200.88" style="stroke: #000000; stroke-width: 0.8"/>
      </g>
     </g>
     <g id="text_14">
      <!-- 0.4 -->
      <g transform="translate(490.608596 216.998125) scale(0.12 -0.12)">
       <use xlink:href="#DejaVuSans-30"/>
       <use xlink:href="#DejaVuSans-2e" x="63.623047"/>
       <use xlink:href="#DejaVuSans-34" x="95.410156"/>
      </g>
     </g>
    </g>
   </g>
   <g id="matplotlib.axis_6"/>
   <g id="line2d_11">
    <path d="M 469.402459 200.88 
L 469.402459 31.2 
" clip-path="url(#p68fdd0dbf4)" style="fill: none; stroke-dasharray: 5.55,2.4; stroke-dashoffset: 0; stroke: #000000; stroke-width: 1.5"/>
   </g>
   <g id="patch_99">
    <path d="M 388.86 200.88 
L 388.86 31.2 
" style="fill: none; stroke: #000000; stroke-width: 0.8; stroke-linejoin: miter; stroke-linecap: square"/>
   </g>
   <g id="patch_100">
    <path d="M 388.86 200.88 
L 531.678914 200.88 
" style="fill: none; stroke: #000000; stroke-width: 0.8; stroke-linejoin: miter; stroke-linecap: square"/>
   </g>
   <g id="text_15">
    <!-- $MAP=0.25$ -->
    <g transform="translate(493.117807 59.96325) scale(0.12 -0.12)">
     <defs>
      <path id="DejaVuSans-35" d="M 691 4666 
L 3169 4666 
L 3169 4134 
L 1269 4134 
L 1269 2991 
Q 1406 3038 1543 3061 
Q 1681 3084 1819 3084 
Q 2600 3084 3056 2656 
Q 3513 2228 3513 1497 
Q 3513 744 3044 326 
Q 2575 -91 1722 -91 
Q 1428 -91 1123 -41 
Q 819 9 494 109 
L 494 744 
Q 775 591 1075 516 
Q 1375 441 1709 441 
Q 2250 441 2565 725 
Q 2881 1009 2881 1497 
Q 2881 1984 2565 2268 
Q 2250 2553 1709 2553 
Q 1456 2553 1204 2497 
Q 953 2441 691 2322 
L 691 4666 
z
" transform="scale(0.015625)"/>
     </defs>
     <use xlink:href="#DejaVuSans-Oblique-4d" transform="translate(0 0.78125)"/>
     <use xlink:href="#DejaVuSans-Oblique-41" transform="translate(86.279297 0.78125)"/>
     <use xlink:href="#DejaVuSans-Oblique-50" transform="translate(154.6875 0.78125)"/>
     <use xlink:href="#DejaVuSans-3d" transform="translate(234.472656 0.78125)"/>
     <use xlink:href="#DejaVuSans-30" transform="translate(337.744141 0.78125)"/>
     <use xlink:href="#DejaVuSans-2e" transform="translate(401.367188 0.78125)"/>
     <use xlink:href="#DejaVuSans-32" transform="translate(427.654297 0.78125)"/>
     <use xlink:href="#DejaVuSans-35" transform="translate(491.277344 0.78125)"/>
    </g>
   </g>
   <g id="text_16">
    <!-- $Med=0.28$ -->
    <g transform="translate(493.117807 102.38325) scale(0.12 -0.12)">
     <use xlink:href="#DejaVuSans-Oblique-4d" transform="translate(0 0.015625)"/>
     <use xlink:href="#DejaVuSans-Oblique-65" transform="translate(86.279297 0.015625)"/>
     <use xlink:href="#DejaVuSans-Oblique-64" transform="translate(147.802734 0.015625)"/>
     <use xlink:href="#DejaVuSans-3d" transform="translate(230.761719 0.015625)"/>
     <use xlink:href="#DejaVuSans-30" transform="translate(334.033203 0.015625)"/>
     <use xlink:href="#DejaVuSans-2e" transform="translate(397.65625 0.015625)"/>
     <use xlink:href="#DejaVuSans-32" transform="translate(423.943359 0.015625)"/>
     <use xlink:href="#DejaVuSans-38" transform="translate(487.566406 0.015625)"/>
    </g>
   </g>
   <g id="text_17">
    <!-- 1/average latent period ($\tau$) -->
    <g transform="translate(365.629457 25.2) scale(0.14 -0.14)">
     <defs>
      <path id="DejaVuSans-2f" d="M 1625 4666 
L 2156 4666 
L 531 -594 
L 0 -594 
L 1625 4666 
z
" transform="scale(0.015625)"/>
      <path id="DejaVuSans-67" d="M 2906 1791 
Q 2906 2416 2648 2759 
Q 2391 3103 1925 3103 
Q 1463 3103 1205 2759 
Q 947 2416 947 1791 
Q 947 1169 1205 825 
Q 1463 481 1925 481 
Q 2391 481 2648 825 
Q 2906 1169 2906 1791 
z
M 3481 434 
Q 3481 -459 3084 -895 
Q 2688 -1331 1869 -1331 
Q 1566 -1331 1297 -1286 
Q 1028 -1241 775 -1147 
L 775 -588 
Q 1028 -725 1275 -790 
Q 1522 -856 1778 -856 
Q 2344 -856 2625 -561 
Q 2906 -266 2906 331 
L 2906 616 
Q 2728 306 2450 153 
Q 2172 0 1784 0 
Q 1141 0 747 490 
Q 353 981 353 1791 
Q 353 2603 747 3093 
Q 1141 3584 1784 3584 
Q 2172 3584 2450 3431 
Q 2728 3278 2906 2969 
L 2906 3500 
L 3481 3500 
L 3481 434 
z
" transform="scale(0.015625)"/>
      <path id="DejaVuSans-64" d="M 2906 2969 
L 2906 4863 
L 3481 4863 
L 3481 0 
L 2906 0 
L 2906 525 
Q 2725 213 2448 61 
Q 2172 -91 1784 -91 
Q 1150 -91 751 415 
Q 353 922 353 1747 
Q 353 2572 751 3078 
Q 1150 3584 1784 3584 
Q 2172 3584 2448 3432 
Q 2725 3281 2906 2969 
z
M 947 1747 
Q 947 1113 1208 752 
Q 1469 391 1925 391 
Q 2381 391 2643 752 
Q 2906 1113 2906 1747 
Q 2906 2381 2643 2742 
Q 2381 3103 1925 3103 
Q 1469 3103 1208 2742 
Q 947 2381 947 1747 
z
" transform="scale(0.015625)"/>
      <path id="DejaVuSans-Oblique-3c4" d="M 2103 638 
Q 2188 488 2525 488 
L 2800 488 
L 2706 0 
L 2363 0 
Q 1800 0 1600 300 
Q 1403 606 1534 1269 
L 1856 2925 
L 541 2925 
L 653 3500 
L 3881 3500 
L 3769 2925 
L 2444 2925 
L 2113 1234 
Q 2025 781 2103 638 
z
" transform="scale(0.015625)"/>
     </defs>
     <use xlink:href="#DejaVuSans-31" transform="translate(0 0.015625)"/>
     <use xlink:href="#DejaVuSans-2f" transform="translate(63.623047 0.015625)"/>
     <use xlink:href="#DejaVuSans-61" transform="translate(97.314453 0.015625)"/>
     <use xlink:href="#DejaVuSans-76" transform="translate(158.59375 0.015625)"/>
     <use xlink:href="#DejaVuSans-65" transform="translate(217.773438 0.015625)"/>
     <use xlink:href="#DejaVuSans-72" transform="translate(279.296875 0.015625)"/>
     <use xlink:href="#DejaVuSans-61" transform="translate(320.410156 0.015625)"/>
     <use xlink:href="#DejaVuSans-67" transform="translate(381.689453 0.015625)"/>
     <use xlink:href="#DejaVuSans-65" transform="translate(445.166016 0.015625)"/>
     <use xlink:href="#DejaVuSans-20" transform="translate(506.689453 0.015625)"/>
     <use xlink:href="#DejaVuSans-6c" transform="translate(538.476562 0.015625)"/>
     <use xlink:href="#DejaVuSans-61" transform="translate(566.259766 0.015625)"/>
     <use xlink:href="#DejaVuSans-74" transform="translate(627.539062 0.015625)"/>
     <use xlink:href="#DejaVuSans-65" transform="translate(666.748047 0.015625)"/>
     <use xlink:href="#DejaVuSans-6e" transform="translate(728.271484 0.015625)"/>
     <use xlink:href="#DejaVuSans-74" transform="translate(791.650391 0.015625)"/>
     <use xlink:href="#DejaVuSans-20" transform="translate(830.859375 0.015625)"/>
     <use xlink:href="#DejaVuSans-70" transform="translate(862.646484 0.015625)"/>
     <use xlink:href="#DejaVuSans-65" transform="translate(926.123047 0.015625)"/>
     <use xlink:href="#DejaVuSans-72" transform="translate(987.646484 0.015625)"/>
     <use xlink:href="#DejaVuSans-69" transform="translate(1028.759766 0.015625)"/>
     <use xlink:href="#DejaVuSans-6f" transform="translate(1056.542969 0.015625)"/>
     <use xlink:href="#DejaVuSans-64" transform="translate(1117.724609 0.015625)"/>
     <use xlink:href="#DejaVuSans-20" transform="translate(1181.201172 0.015625)"/>
     <use xlink:href="#DejaVuSans-28" transform="translate(1212.988281 0.015625)"/>
     <use xlink:href="#DejaVuSans-Oblique-3c4" transform="translate(1252.001953 0.015625)"/>
     <use xlink:href="#DejaVuSans-29" transform="translate(1312.207031 0.015625)"/>
    </g>
   </g>
   <g id="legend_1">
    <g id="patch_101">
     <path d="M 395.8572 83.213561 
L 472.014225 83.213561 
Q 474.013425 83.213561 474.013425 81.214361 
L 474.013425 38.1972 
Q 474.013425 36.198 472.014225 36.198 
L 395.8572 36.198 
Q 393.858 36.198 393.858 38.1972 
L 393.858 81.214361 
Q 393.858 83.213561 395.8572 83.213561 
z
" style="fill: #ffffff; opacity: 0.8; stroke: #cccccc; stroke-linejoin: miter"/>
    </g>
    <g id="patch_102">
     <path d="M 397.8564 47.791798 
L 417.8484 47.791798 
L 417.8484 40.794598 
L 397.8564 40.794598 
z
" style="fill: #a34f4f; fill-opacity: 0.75; stroke: #a34f4f; stroke-linejoin: miter"/>
    </g>
    <g id="text_18">
     <!-- Posterior -->
     <g transform="translate(425.8452 47.791798) scale(0.09996 -0.09996)">
      <defs>
       <path id="DejaVuSans-50" d="M 1259 4147 
L 1259 2394 
L 2053 2394 
Q 2494 2394 2734 2622 
Q 2975 2850 2975 3272 
Q 2975 3691 2734 3919 
Q 2494 4147 2053 4147 
L 1259 4147 
z
M 628 4666 
L 2053 4666 
Q 2838 4666 3239 4311 
Q 3641 3956 3641 3272 
Q 3641 2581 3239 2228 
Q 2838 1875 2053 1875 
L 1259 1875 
L 1259 0 
L 628 0 
L 628 4666 
z
" transform="scale(0.015625)"/>
      </defs>
      <use xlink:href="#DejaVuSans-50"/>
      <use xlink:href="#DejaVuSans-6f" x="56.677734"/>
      <use xlink:href="#DejaVuSans-73" x="117.859375"/>
      <use xlink:href="#DejaVuSans-74" x="169.958984"/>
      <use xlink:href="#DejaVuSans-65" x="209.167969"/>
      <use xlink:href="#DejaVuSans-72" x="270.691406"/>
      <use xlink:href="#DejaVuSans-69" x="311.804688"/>
      <use xlink:href="#DejaVuSans-6f" x="339.587891"/>
      <use xlink:href="#DejaVuSans-72" x="400.769531"/>
     </g>
    </g>
    <g id="line2d_12">
     <path d="M 397.8564 58.965452 
L 407.8524 58.965452 
L 417.8484 58.965452 
" style="fill: none; stroke-dasharray: 5.55,2.4; stroke-dashoffset: 0; stroke: #000000; stroke-width: 1.5"/>
    </g>
    <g id="text_19">
     <!-- true val -->
     <g transform="translate(425.8452 62.464052) scale(0.09996 -0.09996)">
      <defs>
       <path id="DejaVuSans-75" d="M 544 1381 
L 544 3500 
L 1119 3500 
L 1119 1403 
Q 1119 906 1312 657 
Q 1506 409 1894 409 
Q 2359 409 2629 706 
Q 2900 1003 2900 1516 
L 2900 3500 
L 3475 3500 
L 3475 0 
L 2900 0 
L 2900 538 
Q 2691 219 2414 64 
Q 2138 -91 1772 -91 
Q 1169 -91 856 284 
Q 544 659 544 1381 
z
M 1991 3584 
L 1991 3584 
z
" transform="scale(0.015625)"/>
      </defs>
      <use xlink:href="#DejaVuSans-74"/>
      <use xlink:href="#DejaVuSans-72" x="39.208984"/>
      <use xlink:href="#DejaVuSans-75" x="80.322266"/>
      <use xlink:href="#DejaVuSans-65" x="143.701172"/>
      <use xlink:href="#DejaVuSans-20" x="205.224609"/>
      <use xlink:href="#DejaVuSans-76" x="237.011719"/>
      <use xlink:href="#DejaVuSans-61" x="296.191406"/>
      <use xlink:href="#DejaVuSans-6c" x="357.470703"/>
     </g>
    </g>
    <g id="patch_103">
     <path d="M 397.8564 77.136306 
L 417.8484 77.136306 
L 417.8484 70.139106 
L 397.8564 70.139106 
z
" style="fill: #808080; fill-opacity: 0.3; stroke: #000000; stroke-width: 0.188436; stroke-linejoin: miter"/>
    </g>
    <g id="text_20">
     <!-- Prior -->
     <g transform="translate(425.8452 77.136306) scale(0.09996 -0.09996)">
      <use xlink:href="#DejaVuSans-50"/>
      <use xlink:href="#DejaVuSans-72" x="58.552734"/>
      <use xlink:href="#DejaVuSans-69" x="99.666016"/>
      <use xlink:href="#DejaVuSans-6f" x="127.449219"/>
      <use xlink:href="#DejaVuSans-72" x="188.630859"/>
     </g>
    </g>
   </g>
  </g>
 </g>
 <defs>
  <clipPath id="pd637e7f61e">
   <rect x="12.96" y="31.2" width="142.818914" height="169.68"/>
  </clipPath>
  <clipPath id="p1629d26fea">
   <rect x="200.91" y="31.2" width="142.818914" height="169.68"/>
  </clipPath>
  <clipPath id="p68fdd0dbf4">
   <rect x="388.86" y="31.2" width="142.818914" height="169.68"/>
  </clipPath>
 </defs>
</svg>
